<svg width="71" height="47" xmlns="http://www.w3.org/2000/svg"><g fill-rule="nonzero" fill="none"><path fill="#ED5565" d="M23.28 0h24v47h-24z"/><path d="M6.65 0A6.36 6.36 0 00.28 6.36v34.28A6.36 6.36 0 006.65 47h16.63V0H6.65z" fill="#434A54"/><path d="M63.92 0H47.28v47h16.64a6.36 6.36 0 006.36-6.36V6.36A6.36 6.36 0 0063.92 0z" fill="#57A863"/><path d="M40.45 16.9a7.3 7.3 0 11-10.33 0L28.21 15c-3.902 3.906-3.9 10.236.005 14.14 3.905 3.903 10.235 3.903 14.14 0 3.905-3.904 3.907-10.234.005-14.14l-1.91 1.9zm-3.06 2.45h.76v-1.44h-.76v1.44zm.76-1.77h-.76v.17h.76v-.17zm-.38-.78a.63.63 0 00-.42.58h.84a.58.58 0 00-.42-.59v.01zm-5.34 2.54h.76v-1.43h-.76v1.43zm.76-1.77h-.76v.17h.76v-.17zm-.38-.78a.63.63 0 00-.42.58h.84a.58.58 0 00-.42-.58zm5.46 3.33l.49-.53h-1.53l-.74-.52h-2.4l-.7.54H31.8l.48.53 5.99-.02zm-4-1.35h2.07a1.05 1.05 0 00.37-.88 1.1 1.1 0 00-1-1.17h-.07a.23.23 0 01-.2-.14 3.55 3.55 0 00-.1-.6 4 4 0 00-.08.59.25.25 0 01-.2.16 1.1 1.1 0 00-1.1 1.1v.07a.94.94 0 00.35.88l-.04-.01zm4.68 6.9h-7.31l-.79.65h8.88l-.78-.65zm-1.54-.28h.76v-4.76h-.76v4.76zm-5 0h.76v-4.78h-.76V25.39zm9.1-1.08a2.3 2.3 0 010-.35v-.05-.24a1.33 1.33 0 00-.42-.94c-.41-.31-.59-.68-.71-.71l.05-.09h.06a.22.22 0 10-.22-.23c0 .056.022.11.06.15L38.5 25l.1.06 1.07-1.86c.204.13.401.27.59.42l.05.06c.147.298.239.62.27.95v.07c.005.293.11.576.3.8a7.83 7.83 0 01.68-.73.84.84 0 00-.06-.49l.01.03zm-12.62 0a2.29 2.29 0 000-.35v-.05-.24a1.33 1.33 0 01.42-.94c.41-.3.59-.68.71-.71l-.02-.11h-.06a.22.22 0 11.22-.23.22.22 0 01-.06.15L31.92 25l-.1.06-1.07-1.86a6.58 6.58 0 00-.59.42l-.05.06a2.73 2.73 0 00-.27.95v.07a1.27 1.27 0 01-.3.8 7.83 7.83 0 00-.68-.73.84.84 0 01.06-.49l-.03.03z" fill="#FFF"/></g></svg>