<svg width="71" height="48" xmlns="http://www.w3.org/2000/svg"><g fill-rule="nonzero" fill="none"><path d="M58.37 16.28L68.68 2.43A6.34 6.34 0 0063.92.28H6.65a6.34 6.34 0 00-4.76 2.15L12.2 16.28h46.17z" fill="#434A54"/><path d="M35.14 10.55l2.33-3.41a.43.43 0 01.79.26l-.11 4.13a.43.43 0 00.58.42l3.89-1.38a.43.43 0 01.49.68l-2.51 3.27a.43.43 0 00.22.68l4 1.17a.43.43 0 010 .83l-4 1.17a.43.43 0 00-.22.68l2.52 3.27a.43.43 0 01-.49.68l-3.89-1.38a.43.43 0 00-.58.42l.11 4.13a.43.43 0 01-.79.26L35.14 23a.43.43 0 00-.72 0l-2.33 3.41a.43.43 0 01-.79-.26l.11-4.15a.43.43 0 00-.58-.42L26.94 23a.43.43 0 01-.49-.68L29 19.05a.43.43 0 00-.22-.68l-4-1.17a.43.43 0 010-.83l4-1.17a.43.43 0 00.22-.68l-2.52-3.27a.43.43 0 01.49-.68L30.83 12a.43.43 0 00.58-.42L31.3 7.4a.43.43 0 01.79-.26l2.33 3.41a.43.43 0 00.72 0z" fill="#F6BB42"/><path fill="#3BAFDA" d="M44.26 16.28H12.2l11.91 16h22.34l11.92-16z"/><path fill="#FFF" d="M35.28 47.28l11.17-15H24.11z"/><path d="M12.2 16.28L1.89 2.43a6.33 6.33 0 00-1.6 4.21v34.27a6.36 6.36 0 006.36 6.36h28.63l-11.17-15L12.2 16.28zM68.68 2.43L58.37 16.28l-11.91 16-11.17 15h28.63a6.36 6.36 0 006.36-6.36V6.65a6.33 6.33 0 00-1.6-4.22z" fill="#ED5565"/></g></svg>