<svg width="71" height="48" xmlns="http://www.w3.org/2000/svg"><g fill="none" fill-rule="evenodd"><path d="M65 .08H6.71A6.64 6.64 0 00.96 5.66v35.72a6.64 6.64 0 006.56 5.64h56.72a6.64 6.64 0 006.64-6.64V6.66A6.64 6.64 0 0065 .08z" fill="#4658A9" fill-rule="nonzero"/><path d="M25.84 0H7.44A6.64 6.64 0 00.87 6.64V24h25l-.03-24z" fill="#4658A9" fill-rule="nonzero"/><path d="M11.41 17.44V24h3.9v-6.71L22 24h3.82v-3l-7-7h7v-4h-7l7-7V0H22l-6.7 6.7V0h-3.9v6.56L5.24.4a6.66 6.66 0 00-3.63 3.17L8 10H.84v4H8L.84 21.16V24h4l6.57-6.56z" fill="#FFF" fill-rule="nonzero"/><path d="M12.41 14.69V24h1.9v-9.45L23.76 24h2.08v-1.23l-9.78-9.78h9.78V11h-9.78l9.78-9.78V0h-2.09L14.3 9.45V0h-1.9v9.3L4.07.96a6.67 6.67 0 00-1.76 1.55L10.8 11H.87v2h9.93L.87 22.93V24H3.1l9.31-9.31z" fill="#EC5463" fill-rule="nonzero"/><path d="M56.89 13s-.29.19-.46.28a6.91 6.91 0 01-3.9.75 10 10 0 01-4.17-1.33 9.45 9.45 0 01-5.82 1.29 6.42 6.42 0 01-2.72-1v10.84a10 10 0 00.73 4 11.28 11.28 0 004.69 5.26c.99.6 2.039 1.095 3.13 1.48a15.22 15.22 0 005.21-3.06 10.34 10.34 0 002.6-3.68 10.88 10.88 0 00.73-3.19v-6.75c.03-1.09-.01-3.37-.02-4.89z" stroke="#FFF" stroke-width="2" stroke-linecap="round" stroke-linejoin="round"/><g fill="#FFF" fill-rule="nonzero"><path d="M42.54 14a9.45 9.45 0 005.82-1.29 10 10 0 004.17 1.33 6.91 6.91 0 003.9-.75c.17-.09.46-.28.46-.28v11.61a10.87 10.87 0 01-.73 3.19H40.55a10 10 0 01-.73-4V12.97a6.42 6.42 0 002.72 1V14zm2.2 5.39a3 3 0 00.92 2.27 3.26 3.26 0 001.72.81c0-.55-.4-1-.48-1.52l.59.16c-.14-.52-.65-.89-.65-1.46a3.17 3.17 0 01.57-2 2.63 2.63 0 013.24-.63c.59.28.73 1 1.22 1.4.07-.25.14-.57.43-.66a2.69 2.69 0 011.84.24 1.67 1.67 0 00-.69-.58c-.65-.33-1.41-.33-2.07-.62a11.83 11.83 0 01-1-.66 4.22 4.22 0 00-2.38-.56l.17-.35a4.31 4.31 0 00-3.44 4.15l.01.01zm-1.83.59a4.68 4.68 0 000 3.14 2.88 2.88 0 001.23 1.54l-.24.35a7.45 7.45 0 002.61.16 4.5 4.5 0 003-1.54 4 4 0 00.77-2.73c-.43.34-.78.82-1.34 1v-.77a5.4 5.4 0 00-.43.79 2.91 2.91 0 01-1.59 1.4 3.08 3.08 0 01-2.81-.15 2.22 2.22 0 01-.73-2.72c.22-.39.69-.51 1-.78-.24-.06-.53-.13-.63-.39-.27-.64.07-1.29.23-1.91-.74.67-.76 1.74-1.05 2.63l-.02-.02zm6.43-1.59c.356.356.69.733 1 1.13a5.48 5.48 0 00-.61.23 3.14 3.14 0 011.35.82 4.54 4.54 0 011.27 2.65 2.62 2.62 0 01-1.43 2.31 1.48 1.48 0 01-1.35 0 2.13 2.13 0 00-1.25-.31c.2.17.54.33.43.65-.18.49-.7.7-1.12 1a4 4 0 002.28-.43 9.53 9.53 0 002.69-1.39 3.84 3.84 0 001-2.24c.14.14.28.3.42.45a4.07 4.07 0 00-1.2-3.68 4.69 4.69 0 00-3.49-1.21l.01.02z"/><path d="M51 19.17c0-.12 0-.34.16-.35.16-.01.28.14.22.27-.06.13-.26.07-.38.08zM45.81 20.65h.27c0 .12.1.25 0 .36-.1.11-.25 0-.3-.08-.05-.08.02-.19.03-.28zM49.47 22.21c0-.17.24-.08.36-.11s0 .33-.11.36a.19.19 0 01-.25-.25z"/></g><g fill="#E77329" fill-rule="nonzero"><path d="M44.74 19.39a4.31 4.31 0 013.44-4.15l-.17.35a4.22 4.22 0 012.38.56c.322.237.656.457 1 .66.66.3 1.42.29 2.07.62.279.126.518.327.69.58a2.69 2.69 0 00-1.84-.24c-.29.1-.36.41-.43.66-.48-.4-.63-1.11-1.22-1.4a2.63 2.63 0 00-3.24.63 3.17 3.17 0 00-.57 2c0 .56.51.94.65 1.46l-.59-.16c.08.54.47 1 .48 1.52a3.26 3.26 0 01-1.72-.81 3 3 0 01-.92-2.27l-.01-.01zm1.08 1.27c0 .09-.12.19 0 .27.12.08.2.1.3.08.1-.02 0-.23 0-.36l-.3.01z"/><path d="M42.91 20c.29-.89.31-2 1.05-2.63-.16.62-.5 1.27-.23 1.91.1.26.39.33.63.39-.33.26-.8.39-1 .78a2.22 2.22 0 00.73 2.72 3.08 3.08 0 002.81.15 2.91 2.91 0 001.59-1.4 5.4 5.4 0 01.43-.79v.77c.56-.15.9-.63 1.34-1a4 4 0 01-.77 2.73 4.5 4.5 0 01-3 1.54 7.45 7.45 0 01-2.61-.16l.24-.35a2.88 2.88 0 01-1.23-1.54 4.68 4.68 0 010-3.14l.02.02zm6.53 2.2a.19.19 0 00.25.25c.16 0 .08-.25.11-.36.03-.11-.3-.09-.33.12l-.03-.01z"/><path d="M49.33 18.37a4.69 4.69 0 013.47 1.18 4.07 4.07 0 011.2 3.68c-.14-.15-.27-.31-.42-.45a3.84 3.84 0 01-1 2.24 9.53 9.53 0 01-2.69 1.39 4 4 0 01-2.28.43c.42-.25.94-.46 1.12-1 .1-.32-.24-.48-.43-.65a2.13 2.13 0 011.25.31 1.48 1.48 0 001.35 0 2.62 2.62 0 001.43-2.31 4.54 4.54 0 00-1.27-2.65 3.14 3.14 0 00-1.35-.82 5.48 5.48 0 01.61-.23 12.16 12.16 0 00-1-1.13l.01.01zm1.66.79c.12 0 .33.1.38-.08.05-.18-.06-.33-.22-.27s-.15.25-.15.36l-.01-.01z"/></g><path d="M40.55 27.77h15.63a10.34 10.34 0 01-2.6 3.68 15.22 15.22 0 01-5.21 3.06 16.88 16.88 0 01-3.13-1.48 11.28 11.28 0 01-4.69-5.26z" fill="#3CAFDA" fill-rule="nonzero"/></g></svg>