<svg width="71" height="47" xmlns="http://www.w3.org/2000/svg"><g fill-rule="nonzero" fill="none"><rect fill="#ED5565" x=".52" width="70" height="47" rx="6.36"/><path d="M35.52 14.2c-.39-.07-.4-.19-.2-.47.08-.12 0-.19-.25-.11a.67.67 0 01-.53-.36c-.09-.12-.08-.14 0-.14a.66.66 0 00.37-.17c.06-.07 0-.16-.11-.13a1.23 1.23 0 01-.78-.44c-.08-.11-.1-.17 0-.21a1.34 1.34 0 00.37-.2c.1-.07 0-.16-.14-.19a1.56 1.56 0 01-.75-.47c-.06-.07-.11-.16.06-.2.26-.11.493-.278.68-.49.11-.16.12-.33-.19-.19a2.59 2.59 0 01-1.33.1c-.79-.39-1.94-.89-2.38-.16-.75 0-1.65-.09-1.48.87a.33.33 0 00.28-.2.4.4 0 01.5-.09c.18.07.33.17.2.34a.63.63 0 01-.51.09 6.19 6.19 0 00-.65-.11.77.77 0 01-.47-.39c-.11-.22-.4-.49-.58-.33-.18.16 0 .42.22.59.208.19.464.317.74.37.216.006.43.036.64.09.19.51.714.812 1.25.72a3 3 0 011.91.82c.85.73 1.45 3.13 0 3.13-.9 0-.76-.93-.73-1.46a1.33 1.33 0 00-.86-1.33c-.61-.23-1.85-.67-2.2-.87-.14-.1-.28.25-.3.46-.02.21-.17.15-.61 0a4.79 4.79 0 01-2.92-2.14c-.54-1.06-1.56 0-1.05.87.61 1.07 2.64 1.94 3.93 2.12a.45.45 0 010 .9c-1.18.17-2.33.15-3-.82-.55-.74-1.1-.07-.86.51.51 1.26 2.25 1.79 3.94.94.4-.2.83-.17.49.33-.87 1.24-2 1.44-3.49.51-.43-.27-.76-.23-.86-.06a.61.61 0 00.11.86l.14.08a3.08 3.08 0 003.38.21c.4-.21 1.13-.39.49.5-.64.89-2.31 1.34-3 .84-.69-.5-1.52 0-1 .73a1.72 1.72 0 002.17.29c.51-.29 1.3-.67 1.63-.83.33-.16.49.11.11.56-.85 1-1.72 1.84-2.89 1.44-.68-.23-1.3-.26-1.12.6.18.86 1.58.92 2.27.49.66-.363 1.277-.8 1.84-1.3.42-.41.83-.4.37.3-1 1.57-1.92 2.72-3.41 2.43-1.49-.29-1 .58-.73.84.84.76 2.33.56 4.1-1.69.14-.18.37-.12.25.2-.79 2.1-2.1 3.46-3.38 3.13-.66-.17-1.31.21-.64.82s2.15.43 3.14-.71a15.55 15.55 0 001.83-2.39c.22-.43.55-.44.51.11a2.75 2.75 0 01-1.15 2c-.37.18-.69.6 0 .92.69.32 1.51-1 2.17-2.82a.274.274 0 11.53.14 2 2 0 01-.6 1.36c-.3.29-.07.76.35.57.553-.24.981-.7 1.18-1.27.13-.33.41-.44.25.07a5 5 0 01-2.91 3c.21.21.4.45.58.64-.85.45-1.74.75-2.45 1.05a5.2 5.2 0 01-1.31-1 .72.72 0 00-.85-.56l-.19.07c-.64-.26-1.1-.19-1.14.43a1 1 0 011 .13.7.7 0 00.89.32c.42.26.77.51 1 .69-.79 0-1.37-.06-1.79-.11a.69.69 0 00-.95-.22l-.11.09a.77.77 0 00-1 .51 1.75 1.75 0 01.93 0 .72.72 0 001 .18l.08-.06h1.79l-1 .6c-.82-.17-1.26.16-1.2.77a.78.78 0 00.06 1 1.62 1.62 0 01.39-.77.78.78 0 001-.64l.9-.6a.54.54 0 01.68-.07c.37.17.72.32.94.44a.54.54 0 00.9.3c.202.13.365.314.47.53a1 1 0 00-1.15-1.21l-.8-.37c.54-.2 1.91-.73 2.4-.94.35.37.831.585 1.34.6a4.49 4.49 0 01.46-1.11 9.86 9.86 0 011.2-2c.37-.45.75-.19.73.43-.06 1.5-1.13 3.75-2.71 3.83-.54 0-.75.14-.46.56.453.4 1.124.43 1.61.07.48-.36.64-.34.55.14a1.06 1.06 0 01-1 .7c-.58 0-1.25.26-.71.77s1.43.23 2.08-.54c.23-.27.4-.34.39.09a1.31 1.31 0 01-.9 1.32c-.44.1-.89.22-.76.49a1 1 0 001.29.3 2.2 2.2 0 00.89-.86c.08-.24.25-.11.21.23-.1.71-.58.7-.58 1.29a3.21 3.21 0 001 1.8 3.21 3.21 0 001-1.8c0-.59-.49-.57-.58-1.29 0-.33.12-.47.21-.23a2.2 2.2 0 00.89.86 1 1 0 001.29-.3c.12-.26-.32-.39-.76-.49a1.31 1.31 0 01-.9-1.32c0-.43.16-.35.39-.09.65.77 1.54 1.06 2.08.54s-.12-.73-.71-.77a1.06 1.06 0 01-1-.7c-.1-.49.07-.51.55-.14a1.28 1.28 0 001.61-.07c.3-.41.08-.53-.46-.56-1.58-.09-2.65-2.33-2.71-3.83 0-.62.35-.88.73-.43a9.86 9.86 0 011.2 2 4.5 4.5 0 01.46 1.11 1.92 1.92 0 001.34-.6c.49.21 1.85.74 2.4.94l-.8.37a1 1 0 00-1.16 1.22c.106-.216.268-.4.47-.53a.54.54 0 00.9-.3c.22-.13.57-.27.94-.44a.54.54 0 01.68.07l.9.6a.78.78 0 00.86.68h.15c.197.217.332.483.39.77a.78.78 0 00.06-1c.06-.61-.39-.94-1.2-.77l-1-.6h1.79a.72.72 0 001 0l.06-.08a1.75 1.75 0 01.93 0 .77.77 0 00-.94-.56.69.69 0 00-1 0l-.09.11c-.42 0-1 .09-1.79.11.25-.17.6-.43 1-.69a.7.7 0 00.89-.32 1 1 0 011-.13c0-.62-.5-.69-1.14-.43a.72.72 0 00-1 .49c-.38.4-.823.738-1.31 1-.71-.3-1.6-.6-2.45-1.05.19-.19.37-.43.58-.64a5 5 0 01-2.91-3c-.16-.51.13-.4.25-.07a2.16 2.16 0 001.18 1.27c.41.19.65-.29.35-.57a2 2 0 01-.6-1.36.274.274 0 11.53-.14c.67 1.86 1.48 3.13 2.17 2.82.69-.31.37-.73 0-.92a2.75 2.75 0 01-1.15-2c0-.56.29-.54.51-.11A15.55 15.55 0 0043.37 26c1 1.14 2.38 1.4 3.14.71.76-.69 0-1-.64-.82-1.27.33-2.59-1-3.38-3.13-.12-.32.11-.37.25-.2 1.77 2.25 3.25 2.44 4.1 1.69.3-.27.64-1.11-.73-.84-1.37.27-2.37-.86-3.41-2.43-.46-.7 0-.71.37-.3A10 10 0 0044.81 22c.69.43 2.09.37 2.27-.49.18-.86-.44-.83-1.12-.6-1.18.4-2-.44-2.89-1.44-.38-.45-.22-.71.11-.56.33.15 1.12.54 1.63.83.7.436 1.61.314 2.17-.29.54-.77-.3-1.23-1-.73s-2.34 0-3-.84c-.66-.84.08-.71.49-.5a3.08 3.08 0 003.38-.21.61.61 0 00.25-.94c-.1-.17-.43-.21-.86.06-1.46.92-2.62.73-3.49-.51-.35-.5.08-.53.49-.33 1.69.85 3.43.32 3.94-.94.24-.59-.3-1.26-.86-.51-.72 1-1.87 1-3 .82a.45.45 0 010-.9c1.29-.17 3.32-1 3.93-2.12.51-.89-.51-1.93-1.05-.87a4.79 4.79 0 01-2.92 2.14c-.44.14-.6.13-.61 0-.01-.13-.17-.56-.3-.46-.35.2-1.59.64-2.2.87a1.33 1.33 0 00-.86 1.33c0 .53.17 1.46-.73 1.46-1.44 0-.84-2.4 0-3.13a3 3 0 011.91-.82 1.13 1.13 0 001.24-.73 2.92 2.92 0 01.64-.09 1.52 1.52 0 00.74-.37c.18-.17.4-.43.22-.59-.18-.16-.46.11-.58.33a.77.77 0 01-.47.39 6.19 6.19 0 00-.65.11.63.63 0 01-.51-.09c-.13-.17 0-.27.2-.34a.4.4 0 01.5.09.33.33 0 00.28.2c.17-1-.73-.92-1.48-.87-.44-.73-1.59-.23-2.38.16a2.59 2.59 0 01-1.33-.1c-.32-.14-.3 0-.19.19.187.212.42.38.68.49.17 0 .11.13.06.2-.2.226-.46.389-.75.47-.18 0-.24.11-.14.19.112.086.237.153.37.2.14 0 .13.1 0 .21a1.23 1.23 0 01-.78.44c-.15 0-.17.06-.11.13a.66.66 0 00.37.17c.11 0 .12 0 0 .14a.67.67 0 01-.53.36c-.27-.08-.34 0-.25.11.28.28.27.41-.12.48zM31.86 11a.81.81 0 00-.68-.07c-.19.09-.24.29 0 .36.22.057.45.057.67 0a.16.16 0 000-.31l.01.02zm7.34 0a.81.81 0 01.68-.07c.19.09.24.29 0 .36a1.34 1.34 0 01-.66 0 .16.16 0 010-.31l-.02.02z" fill="#434A54"/></g></svg>