<svg width="71" height="48" xmlns="http://www.w3.org/2000/svg"><g fill="none" fill-rule="evenodd"><path d="M70 7.17A6.64 6.64 0 0063.55.54H6.46A6.64 6.64 0 00.01 7.17v16.71h70L70 7.17z" fill="#EC5565" fill-rule="nonzero"/><path d="M70 40.89V24.15H0v16.74a6.64 6.64 0 006 6.61h57.58A6.64 6.64 0 0070 40.89z" fill="#434A54" fill-rule="nonzero"/><path fill="#434A54" fill-rule="nonzero" d="M.01 23.88h70v1h-70z"/><path d="M34.12 31.83a10.36 10.36 0 01-8.61-2.22.39.39 0 00-.55 0l-.66.74a.41.41 0 000 .58c.413.341.847.655 1.3.94l-.46.73a.41.41 0 00.13.56 13.5 13.5 0 001.54.78.41.41 0 00.53-.23l.31-.79a12 12 0 003.09.75l-.1.92a.41.41 0 00.37.45 13.63 13.63 0 001.72 0 .41.41 0 00.38-.44l-.07-.9c.48-.036.957-.1 1.43-.19a11.78 11.78 0 001.64-.44l.29.82a.41.41 0 00.52.25c.497-.197.98-.424 1.45-.68l-3-2.05a10 10 0 01-1.25.42zM40.76 30.25l.59.59a.41.41 0 00.58 0c.395-.42.762-.863 1.1-1.33a.41.41 0 00-.11-.57l-.69-.47a12.09 12.09 0 001.42-2.81l.78.27a.41.41 0 00.52-.26 13.62 13.62 0 00.41-1.67.41.41 0 00-.34-.47l-.83-.12a12.47 12.47 0 00.05-3.15l.84-.09a.41.41 0 00.36-.46 13.32 13.32 0 00-.36-1.7.41.41 0 00-.51-.27l-.81.25a12.13 12.13 0 00-1.32-2.85l.72-.45a.41.41 0 00.13-.57 13.51 13.51 0 00-1-1.37.41.41 0 00-.58 0l-.63.58a12.28 12.28 0 00-2.42-2l.46-.73a.41.41 0 00-.13-.56 13.52 13.52 0 00-1.54-.78.41.41 0 00-.53.23l-.31.79a12.06 12.06 0 00-1.51-.49.41.41 0 00-.49.31l-.21 1a.39.39 0 00.3.46 10.4 10.4 0 014.16 18.06l1.44 1.1c.13-.18.31-.32.46-.47z" fill="#F2D660" fill-rule="nonzero"/><path d="M47.15 36.57c.72.51.88 1.12.45 1.63a.76.76 0 01-.64.21 1.17 1.17 0 01-1-.77.62.62 0 00-.19-.29l-2.79-2c-.22-.16-.31-.15-.46 0a.3.3 0 01-.26.14.74.74 0 01-.36-.17l-10.83-7.47c-2.28-1.44-2.81-2.65-2.64-3.84a5.11 5.11 0 01.26-1c.1-.27.3-.35.53-.18 2.5 1.96 17.78 13.65 17.93 13.74z" fill="#F2D660"/><path d="M32.1 20.4a.25.25 0 01-.15 0 .25.25 0 01-.09-.28l.49-1.52a.8.8 0 00-.29-.9l-1.3-.94a.25.25 0 01.15-.46h1.6a.8.8 0 00.76-.55l.5-1.52A.25.25 0 0134 14a.25.25 0 01.24.17l.49 1.52a.8.8 0 00.76.55h1.6a.25.25 0 01.15.46l-1.3.94a.8.8 0 00-.29.9l.49 1.52a.25.25 0 01-.39.28l-1.3-.94a.8.8 0 00-.94 0l-1.3.94a.25.25 0 01-.11.06z" fill="#F2D660" fill-rule="nonzero"/></g></svg>