<svg width="71" height="48" xmlns="http://www.w3.org/2000/svg"><g fill-rule="nonzero" fill="none"><path fill="#FFF" d="M.9 13.28h70v21H.9z"/><path d="M64.54.28H7.27A6.36 6.36 0 00.91 6.64v6.64h70V6.65A6.36 6.36 0 0064.54.28zM.9 40.92a6.36 6.36 0 006.36 6.36h57.27a6.36 6.36 0 006.36-6.36v-6.64h-70l.01 6.64z" fill="#8CBAE2"/><path d="M42.16 25.79a2.08 2.08 0 01.24-.89l.41-.71a.91.91 0 000-.82l-.42-.73a2.12 2.12 0 01-.24-.89v-.84a.91.91 0 00-.41-.71l-.71-.4a2.09 2.09 0 01-.65-.65l-.41-.71a.91.91 0 00-.71-.41h-.85a2.12 2.12 0 01-.89-.24l-.73-.42a.91.91 0 00-.82 0l-.7.41a2.09 2.09 0 01-.89.24h-.82a.91.91 0 00-.71.41l-.42.73a2.11 2.11 0 01-.65.65l-.73.42a.91.91 0 00-.41.71v.82a2.08 2.08 0 01-.24.89l-.41.71a.91.91 0 000 .82l.42.73c.144.275.226.58.24.89v.84a.91.91 0 00.42.71l.71.4c.262.165.485.388.65.65l.41.71a.91.91 0 00.71.41h.85c.31.014.615.096.89.24l.73.42a.91.91 0 00.82 0l.7-.41a2.09 2.09 0 01.89-.24h.82a.91.91 0 00.71-.41l.42-.73a2.11 2.11 0 01.65-.65l.73-.42a.91.91 0 00.41-.71l-.01-.82z" fill="#F6BB42"/></g></svg>