<svg width="71" height="48" xmlns="http://www.w3.org/2000/svg"><g fill-rule="nonzero" fill="none"><path d="M64.47.55H6.3a6.64 6.64 0 00-5.92 6.6v33.72a6.64 6.64 0 006.64 6.64h56.72a6.64 6.64 0 006.64-6.64V7.15a6.64 6.64 0 00-5.91-6.6z" fill="#4658A9"/><path d="M69.2 3.36L11.31 24l57.87 20.7a6.61 6.61 0 001.21-3.82V7.15a6.61 6.61 0 00-1.19-3.79z" fill="#FFF"/><path d="M69.2 3.36a6.55 6.55 0 00-1.79-1.75L4.62 24l62.75 22.45a6.56 6.56 0 001.81-1.74L11.31 24 69.2 3.36z" fill="#EC5565"/><g fill="#F6D660"><path d="M44.86 25.94a4.71 4.71 0 001-.34 6.8 6.8 0 001.39 1.52l.38-1.34c.287.007.57.06.84.16a8.58 8.58 0 00-.26 1.07c-.17.74-.32 1.5-.52 2.23-.28-.07-.57-.14-.84-.23.08-.43.16-.86.25-1.29v-.15a4.87 4.87 0 00-1.9.88 3.81 3.81 0 00-1.16-1.22 17.63 17.63 0 00-1.51-1 13.31 13.31 0 002.33-.29zM48.41 26.59c.175.014.349.041.52.08a6.22 6.22 0 01-.16.7c-.08.46-.2.92-.28 1.39a3 3 0 01-.56 0c.14-.76.32-1.44.48-2.17zM51.76 27.17c.3.27.56.58.88.83.338.28.734.482 1.16.59a7 7 0 001.24.36c0 .19-.63.09-.8.21a1.17 1.17 0 01-.66.08 3.9 3.9 0 00-2.34.42 1.33 1.33 0 010-1l.18-.54a3 3 0 01.34-.95zM48.89 27.49l2.44.57-.19.56-2.39-.5z"/><path d="M54 28.65l8.82 2.07a.57.57 0 010 .32.5.5 0 01-.21.24c-1.84-.4-7.22-1.64-9-2.07.03-.21.33-.36.39-.56zM49 30.44c.12-.22.29-.49.57-.5a1 1 0 01.74.59.45.45 0 01.11.54 3.39 3.39 0 00-.29.4l.2.09a1.45 1.45 0 01-.38.23c-.06 0-.08.09-.1.14.172.09.365.136.56.13 1.25.07 2.51 0 3.76 0a4 4 0 01-.44.4 14.09 14.09 0 001.7 0 4.22 4.22 0 001.11-.19 1.09 1.09 0 00.32-.19c-.1.24-.21.47-.33.7.64 0 1.28-.06 1.92-.12a1.79 1.79 0 01-1.5.33 8.45 8.45 0 001.79.91 5.3 5.3 0 01-2-.12c.224.478.6.868 1.07 1.11a1.17 1.17 0 01-.72-.05 3.84 3.84 0 01-1.19-.81l-.1.08c.161.24.215.538.15.82a4.12 4.12 0 00-2.37-1.45l-.05.12c.226.13.423.303.58.51a.45.45 0 01.05.25.94.94 0 00-.62-.37 1 1 0 00-.76.35 2.4 2.4 0 00-1.47-1.07 6.68 6.68 0 00-1.62-.28 1.34 1.34 0 00-.62-.42c-.42-.12-.87-.16-1.28-.31-.49-.52-1-1-1.53-1.49a1 1 0 01.4-.74 1 1 0 01.61-.14.68.68 0 00.15.28 2.12 2.12 0 011.11-.16.65.65 0 01.49.36"/><path d="M50.49 30.57c.87.08 7.78.37 8.64.54-.11.16.88.54.83.73-.78 0-8.67-.66-9.45-.71a.72.72 0 00-.02-.56z"/><path d="M55.65 30.93c.142 0 .283-.02.42-.06 2 .15 4 .31 5.94.47.096.128.164.274.2.43 0 .08 0 .19-.12.17-.79 0-1.57-.08-2.35-.13l-4-.28-.09-.6z"/></g><path d="M45.4 22.85c-.25.24-.84.56-.89 1.1a1.81 1.81 0 00.75 1.34c.06 0 .25.25.25 0a1.26 1.26 0 01.19-.62c.4.033.804-.008 1.19-.12a4.76 4.76 0 001.21-.84h-2.2l-.5-.86z" fill="#866F57"/><path d="M66.79 17.7c-.57-.52-2.16.13-2.62.25-.46.12-1.41.44-1.5.31-.09-.13-.37-.19-.84-.28l-1.87-.37a18.72 18.72 0 003.63-2.37 10.5 10.5 0 001.56-2.59c.51-1.2 1-3 .78-3.28-.22-.28-1.62.53-2.41.75a1.86 1.86 0 01-1.12.09 15.6 15.6 0 00-2.22.63c-.56.16-.53-.06-.81-.09s-1.69.81-2.53 1.06c-.84.25-.78.09-.94 0-.16-.09-3.09 1.13-4.91 1.72-1.82.59-1.44 1.53-1.19 2.28.25.75-3.37 1.47-2.31 3 .63.93 2.25-.41 2.75-.47s.41.25.09.69a5.68 5.68 0 01-2 1.31c-.78.34-2.09 1-2.44 1.16-.35.16-.31 1-.37 1.22a.37.37 0 01-.11.15l.5.91h2.19a6.59 6.59 0 011.1-.73 12.7 12.7 0 013.43-.85 1.16 1.16 0 01.79.18 2.6 2.6 0 001.22.44c.38 0 0 .42.28.69.268.233.463.539.56.88a1 1 0 01-.09.78c-.12.31.28.56.16.75-.12.19 0 .53-.06 1a.82.82 0 00.31.72s.28-.47.41-.75c.13-.28.31-.19.63-.12a.9.9 0 00.47 0c.09.355.24.693.44 1 .38.63.5.19.56-.12.06-.31.13-.28.53-.22.4.06.38-.22.25-.69s.25-.34.59-.19c.34.15.75.19.69 0a10.73 10.73 0 00-.66-1c-.22-.34 0-.72.56-.25s.69.16.66-.06a1.92 1.92 0 00-.22-.56c-.06-.12.34 0 .78-.44s-.06-.28-.37-.22c-.31.06-.41 0 0-.37s.13-.41-.22-.41-.12-.19.44-.44.13-.47-.12-.78c-.25-.31-.56-.41-.37-.41h2.19c.72 0 2.91.72 3.41.63.5-.09 1.09-.91 1.25-2.09a2.4 2.4 0 00-.91-2.45z" fill="#866F57"/><path d="M55.35 30.14a.41.41 0 00.06.24c.09.13.32.19.6 0a1.52 1.52 0 00.63-1.44c-.12-.25.78-1.25 1-1.44.22-.19-.75-1.66-.75-1.66l-1.12.72a13.51 13.51 0 01-.69 1.78c-.16.16-.31.16-.44.41-.13.25-.25.53-.53.59-.28.06-.23.21-.19.34.08.31.49.32.66.28a.29.29 0 000 .23.5.5 0 00.77-.05zM53 31.17a1 1 0 01.34-.6 2.77 2.77 0 01.35-.31c.03.125.05.252.06.38 0 .16.13-.06.28-.16a1.39 1.39 0 01.2-.12 1 1 0 01.1.27c0 .15.09.27.22.09l.24-.31c.057.086.107.176.15.27.08.17.17.14.28 0 .043-.047.09-.09.14-.13a.36.36 0 01.12.19 1.3 1.3 0 01-.05.88.33.33 0 01-.53 0 .48.48 0 01-.35.05.57.57 0 01-.3-.2.5.5 0 01-.38.1.39.39 0 01-.25-.16.86.86 0 01-.42 0 .32.32 0 01-.2-.24z" fill="#866F57"/><path d="M56 30.38s.34.09.66-.38a.79.79 0 00.18-.73 3.1 3.1 0 01-.11-.35 1.1 1.1 0 01.25-.68l-.42-.44-.56 2.58z" fill="#866F57"/><path d="M46.58 22.13c-.19.37.09.77.52.59a.48.48 0 00-.08-.92c-.12 0-.17.15-.05.19l-.21.23c.06-.11-.11-.22-.17-.1l-.01.01z" fill="#FFF"/></g></svg>