<svg width="71" height="48" xmlns="http://www.w3.org/2000/svg"><g fill-rule="nonzero" fill="none"><path d="M70.63 6.76A6.64 6.64 0 0063.99.12H7.27A6.64 6.64 0 00.63 6.76v24.69h70V6.76zM12.5 12l-1.42 4.61c-.48-1.54-.95-3.08-1.43-4.61l-4.59-1.41a1 1 0 01.22-.08l4.37-1.35 1.42-4.61 1.43 4.61 4.61 1.42L12.5 12zM70.63 34.06h-70v2.61h70zM70.63 40.48v-1.19h-70v1.19a6.64 6.64 0 006.64 6.64H64a6.64 6.64 0 006.63-6.64z" fill="#3CAFDA"/><path d="M11.08 17.1a.5.5 0 01-.48-.35 245.98 245.98 0 01-.73-2.37l-.62-2-4.34-1.34a.5.5 0 01-.11-.91 1.12 1.12 0 01.28-.11l4.17-1.29 1.35-4.36a.5.5 0 111 0l1.35 4.36 4.35 1.34a.5.5 0 110 1l-4.36 1.35-1.34 4.36a.5.5 0 01-.48.35l-.04-.03z" fill="#EC5565"/><path d="M11.08 4.53l1.43 4.61 4.61 1.42L12.5 12l-1.42 4.61c-.48-1.54-.95-3.08-1.43-4.61l-4.59-1.41a1 1 0 01.22-.08l4.37-1.35 1.42-4.61.01-.02zm-.01-.98a1 1 0 00-1 .7L9.3 6.74l-.5 1.62-1.82.56-2 .63a1.71 1.71 0 00-.45.18 1 1 0 00.23 1.81l2.38.73 1.7.52.56 1.82.71 2.29a1 1 0 001 .7 1 1 0 001-.71l.76-2.45.51-1.65h.16l3.95-1.22a1 1 0 000-1.91l-4.11-1.27-.72-2.32-.55-1.79a1 1 0 00-1-.7l-.04-.03z" fill="#FFF"/><path fill="#F2D660" d="M70.63 31.45h-70v2.61h70zM70.63 36.68h-70v2.61h70z"/></g></svg>