<svg width="71" height="48" xmlns="http://www.w3.org/2000/svg"><g fill-rule="nonzero" fill="none"><path d="M7.13.57A6.36 6.36 0 00.77 6.93V41.2a6.36 6.36 0 006.36 6.36h17v-47l-17 .01z" fill="#4758A9"/><path d="M24.11.57v47h23.35v-47H24.11z" fill="#FFCE54"/><path d="M64.4.57H47.45v47H64.4a6.36 6.36 0 006.36-6.36V6.93A6.36 6.36 0 0064.4.57z" fill="#4758A9"/><path d="M36.76 33.57v-4.73a22.78 22.78 0 013.17.52c.19-4.14 1.27-8.73 4.34-12a6.64 6.64 0 00-5 2.61 5.3 5.3 0 011.32 0 20.29 20.29 0 00-2.1 7.46 10.76 10.76 0 00-1.71-.24v-7.77a4.6 4.6 0 011.46.4 34.18 34.18 0 01-2.44-5.17 34.18 34.18 0 01-2.45 5.17 4.6 4.6 0 011.46-.4v7.77a10.75 10.75 0 00-1.71.24 20.29 20.29 0 00-2.1-7.46 5.3 5.3 0 011.32 0 6.64 6.64 0 00-5-2.62c3.07 3.32 4.15 7.9 4.34 12a22.76 22.76 0 013.17-.52v4.73h2l-.07.01z" fill="#434A54"/></g></svg>