<svg width="71" height="48" xmlns="http://www.w3.org/2000/svg"><g fill-rule="nonzero" fill="none"><path d="M64.54.42H7.27A6.36 6.36 0 00.91 6.78v16.64h70V6.78A6.36 6.36 0 0064.54.42z" fill="#ED5565"/><path d="M.9 41.05a6.36 6.36 0 006.36 6.36h57.27a6.36 6.36 0 006.36-6.36V23.42h-70L.9 41.05z" fill="#52C162"/><path d="M31 32.14c-.78.55-1.23.24-1-.69l.84-3.48a3.15 3.15 0 00-.91-2.84l-2.54-2.2c-.72-.63-.54-1.16.42-1.19l3.56-.1a2.56 2.56 0 002.23-1.72l1.12-3.8c.27-.92.76-.94 1.08 0l1.34 3.75a2.69 2.69 0 002.32 1.66h3.63c1 0 1.15.53.43 1.16l-2.76 2.42a3 3 0 00-.82 2.82l.88 3.06c.27.92-.18 1.27-1 .77l-3-1.82a2.85 2.85 0 00-2.9.09L31 32.14z" fill="#F6D660"/></g></svg>