<svg width="71" height="48" xmlns="http://www.w3.org/2000/svg"><g fill-rule="nonzero" fill="none"><path d="M66.76 1a6.33 6.33 0 00-2.6-.56H6.89a6.33 6.33 0 00-2.67.59L35.58 21.1 66.76 1z" fill="#ED5565"/><path d="M70.15 43.2a6.34 6.34 0 00.38-2.15V6.78a6.34 6.34 0 00-.34-2l-30 19.31L70.15 43.2zM.85 4.78a6.35 6.35 0 00-.32 2v34.27a6.34 6.34 0 00.45 2.33l30-19.33L.85 4.78z" fill="#52C162"/><path d="M4.63 47a6.34 6.34 0 002.26.42h57.27a6.34 6.34 0 002.5-.51L35.61 27 4.63 47z" fill="#ED5565"/><path d="M70.15 43.2L40.23 24.05l30-19.31A6.38 6.38 0 0066.81.97l-31.19 20.1L4.22 1A6.37 6.37 0 00.85 4.78L31 24.05 1 43.38a6.37 6.37 0 003.66 3.61l31-20 31.05 19.87a6.38 6.38 0 003.44-3.66z" fill="#FFF"/><circle fill="#FFF" cx="35.74" cy="24.01" r="14.5"/><path d="M33.65 22.38c-.37.26-.58.11-.47-.33l.4-1.64a1.48 1.48 0 00-.43-1.34l-1.2-1c-.34-.3-.25-.55.2-.56h1.68a1.2 1.2 0 001-.81l.53-1.79c.13-.43.36-.44.51 0l.63 1.76c.183.448.607.75 1.09.78h1.71c.45 0 .54.25.2.55l-1.3 1.14a1.41 1.41 0 00-.39 1.33l.42 1.44c.13.43-.09.6-.47.36l-1.39-.86a1.34 1.34 0 00-1.36 0l-1.36.97zM28.65 32.38c-.37.26-.58.11-.47-.32l.4-1.64a1.48 1.48 0 00-.43-1.34l-1.2-1c-.34-.3-.25-.55.2-.56h1.68a1.2 1.2 0 001-.81l.53-1.79c.13-.43.36-.44.51 0l.63 1.76c.183.448.607.75 1.09.78h1.71c.45 0 .54.25.2.55l-1.3 1.14a1.41 1.41 0 00-.39 1.33l.42 1.44c.13.43-.09.6-.47.36l-1.39-.86a1.34 1.34 0 00-1.36 0l-1.36.96zM38.65 32.38c-.37.26-.58.11-.47-.32l.4-1.64a1.48 1.48 0 00-.43-1.34l-1.2-1c-.34-.3-.25-.55.2-.56h1.68a1.2 1.2 0 001-.81l.53-1.79c.13-.43.36-.44.51 0l.63 1.76c.183.448.607.75 1.09.78h1.71c.45 0 .54.25.2.55l-1.3 1.14a1.41 1.41 0 00-.39 1.33l.42 1.44c.13.43-.09.6-.47.36l-1.39-.86a1.34 1.34 0 00-1.36 0l-1.36.96z" fill="#ED5565"/></g></svg>