<svg width="71" height="47" xmlns="http://www.w3.org/2000/svg"><g fill="none" fill-rule="evenodd"><path d="M64.37.06H6.44A61.32 61.32 0 00.29 6.11v34.8c-.003.306.027.61.09.91A6.64 6.64 0 006.85 47h52a11.33 11.33 0 0011.33-11.33v-29A6.64 6.64 0 0064.37.06z" fill="#EC5565" fill-rule="nonzero"/><path d="M25.26.06H6.86A6.64 6.64 0 00.29 6.7V24h25L25.26.06z" fill="#4658A9" fill-rule="nonzero"/><path d="M10.83 17.46V24h3.9v-6.71L21.44 24h3.82v-3l-7-7h7v-4h-7l7-7V0h-3.83l-6.7 6.7V0h-3.9v6.56L4.67.4a6.66 6.66 0 00-3.63 3.17l6.41 6.41H.29v4h7.16L.29 21.14V24h4l6.54-6.54z" fill="#FFF" fill-rule="nonzero"/><path d="M11.83 14.72V24h1.9v-9.45L23.18 24h2.08v-1.23l-9.78-9.78h9.78v-1.95h-9.78l9.78-9.78V.03h-2.09l-9.45 9.45V.03h-1.9v9.3L3.49.99a6.67 6.67 0 00-1.76 1.55l8.49 8.49H.29V13h9.93L.29 22.93V24h2.23l9.31-9.28z" fill="#EC5463" fill-rule="nonzero"/><path d="M56.74 12v17c0 4.52-9 6-9 6s-9-1.47-9-6V12h18z" fill="#FFF" fill-rule="nonzero"/><path d="M47.7 35s9-1.47 9-6v-1.08H38.66V29c0 4.49 9.04 6 9.04 6z" fill="#51C161" fill-rule="nonzero"/><path d="M56.74 12v17c0 4.52-9 6-9 6s-9-1.47-9-6V12h18z" stroke="#FFF" stroke-linecap="round" stroke-linejoin="round"/><path d="M52.08 19.19a1.71 1.71 0 01-.72-.07c-.4-.12-.57-.07-.69 0a.45.45 0 00-.23-.58s.13.33 0 .48c0 0-.08.07-.17 0a2.89 2.89 0 00-.29-.25.42.42 0 00.28-.46.48.48 0 00-.35-.43.6.6 0 010 .26s-.37-.21.13-.5c.5-.29.41-.46.32-.61a1.36 1.36 0 00-.38-.37.52.52 0 01.08.29c0 .13-.24.22-.2 0 .04-.22 0-.19 0-.44a.49.49 0 00.62-.28s.17-.45-.39-.67c0 0 .14.18.07.32s-.12.23-.26 0-.23-.22-.22-.43c0 0 .51.07.37-.48 0 0-.08.37-.74-.13 0 0 .43-.44.26-.8 0 0-.05-.16-.52-.07 0 0 .41-.26.23-.47 0 0-.09-.15-.47 0 0 0 .15-.25-.22-.53a2.28 2.28 0 00-.38.25 3.69 3.69 0 00-.42-.45.65.65 0 00-.37.45.87.87 0 00-.45-.24.49.49 0 000 .52 1.26 1.26 0 01-.41-.12s-.3-.14-.26.12c.016.153.06.303.13.44 0 0-.68-.16-.65.21a.92.92 0 00.32.66s-.38.49-.7.12c0 0-.11.12.13.44 0 0 .24.27 0 .43 0 0-.27.21-.4-.2a.46.46 0 00.08.76.59.59 0 00.66-.1s-.1.82-.42.67c0 0-.19-.14.15-.31a.51.51 0 00-.58.42.48.48 0 00.37.52s.33.12 0 .38a.35.35 0 00-.08.46s.19.3-.29.33a1.66 1.66 0 01-.36 0 .58.58 0 000 .42s-.24-.18-.79 0-.51.06-.55.12c-.04.06-.15.26-.15.26s.29.35.29.34c0-.01-.05.4-.05.4l.14.07 1.13-.5 1.15-.6.92.06.59.14.77.06.55-.29h.8l.88.44 1 .6.52.09h.4v-.81l-.18-.34z" fill="#EC5565" fill-rule="nonzero"/><path d="M43 20.14s.44.22.62 0a.41.41 0 00-.29-.61.49.49 0 000-.66.38.38 0 00-.44 0 .43.43 0 00-.39-.23.35.35 0 00-.32.26s-.33-.14-.51.06a.38.38 0 00.12.61h.3l.3-.14.33.1a.75.75 0 00.28.61z" fill="#EC5565" fill-rule="nonzero"/><path d="M52.74 19.34a.7.7 0 01.71.4.79.79 0 01-.31 1 1.49 1.49 0 010 .34c.83.1.68 1 .68 1l-.27-.23c-.48-.19-1 .22-1.32.9-.32.68-.18 1-.12 1.81s1.37 1.29 1.37 1.29l-1 2.63a.88.88 0 01-1.49.39c-.24-.22-.31-.1-.43 0s.55.62-.68 1.12a4.8 4.8 0 00-1.65 1 1.87 1.87 0 01-1.14-.07c-.08-.11 0-.11-.35-.3s-.86-.37-1.44-.65-.57-.65-.57-.73c0-.08.2-.69-.48-.2a1 1 0 01-1.27-.23c-.13-.18-.71-1.71-.71-1.71a9.68 9.68 0 00-.46-1.24s0 .07.48-.22a2.19 2.19 0 00.91-1.26 2.82 2.82 0 00-.06-1.47c-.06-.17-.44-.93-.91-1.08a.74.74 0 00-.78.24s-.14-.93.68-1a1.49 1.49 0 010-.34.79.79 0 01-.31-1 .7.7 0 01.71-.4l-.13.24s-.13 1.33 1.81.44c1.94-.89 1.88-1.05 3-.5h.81s1.17-.54 1.54-.31c.37.23 1.72 1 1.72 1s1.3.49 1.55-.41l-.09-.45z" stroke="#FFF" stroke-width=".1" fill="#3CAFDA" fill-rule="nonzero" stroke-linecap="round" stroke-linejoin="round"/><path d="M46.9 25.09s-.07-.41-.14-.67a.79.79 0 01.1-.7l.3-.35a.79.79 0 01.42-.29s.23 0 .26-.05.28-.47.89 0a.86.86 0 01.49-.36.44.44 0 01.48.14.46.46 0 01.67.17.55.55 0 01.74.24.52.52 0 01.69.24c.26.44.21.62.21.62l.19.7.69.85-1.6.6h-.72l-1.43.38-2.55.2-.71-.84 1.02-.88z" fill="#FFF" fill-rule="nonzero"/><path d="M44.75 29.32a1.92 1.92 0 00-.58.12 6.39 6.39 0 00-.57.35s-.1.14-.55.05c0 0-.76-.18-.76.41 0 0-.91.08-.54.87a.46.46 0 00.78.18s-.34.48.31.67a.49.49 0 00.6-.36.45.45 0 00-.1-.42.66.66 0 00.38-.29s-.48.6 0 .82a.53.53 0 00.69-.52.41.41 0 01.2-.43 1.19 1.19 0 00.76-.7s-.7-.39-.62-.75zM43.21 23.31s-.59-.27-.87 0a.81.81 0 00-.8 0 4.44 4.44 0 00-.66.53s-.19.16-.12.67a1.28 1.28 0 010 .54s-.13 0-.39.28c0 0-.33.38-.62 0a.52.52 0 00.63.39s-.26.21 0 .74a1 1 0 01-.1.85.78.78 0 00.45-.75 1.32 1.32 0 01.1-.64s-.14.24.18.76a.79.79 0 010 .76.71.71 0 00.42-.74c0-.57-.33-.33-.14-.85a.85.85 0 00.18.4.76.76 0 01.24.74 1 1 0 00.21-.7 1.46 1.46 0 00-.13-.46l.88-.5.44-.79.1-1.23z" fill="#EC5565" fill-rule="nonzero"/><path d="M42.93 22.37v-.94a.24.24 0 01.11-.23c.11-.09.23-.23.4.17a3.3 3.3 0 01.45-.41.2.2 0 01.33.08 1.23 1.23 0 01.32-.34s.34-.22.35.44l.26-.24a.31.31 0 01.43.06c.155.145.299.303.43.47a.57.57 0 01.09.29.53.53 0 00.1.32.61.61 0 00.24.13.43.43 0 01.37.26l.18 1.18v2.24l-1.51 1.8-2.42-.69-1-.4-.22-.71.93-.6.51-1.37-.16-1-.19-.51z" fill="#F2D660" fill-rule="nonzero"/><path fill="#E77329" fill-rule="nonzero" d="M48.35 25.44l-1.46-5.03-.05.01 1.28 5.1z"/><path d="M43.93 31.52a.28.28 0 000 .24.31.31 0 010 .2.27.27 0 000-.19s-.07-.17 0-.25z" fill="#FFF" fill-rule="nonzero"/><path d="M52.37 20.14s-.44.22-.62 0a.41.41 0 01.29-.61.49.49 0 010-.66.38.38 0 01.44 0 .43.43 0 01.39-.23.35.35 0 01.32.26s.33-.14.51.06a.38.38 0 01-.12.61h-.3l-.3-.14-.33.1a.75.75 0 01-.28.61z" fill="#EC5565" fill-rule="nonzero"/><path d="M49.6 23.56l.11-.17.27-.21c.173.437.32.885.44 1.34v.34s.63.16.74 1.12l-.52 1-.81-.45-.23-.17v-2.8z" fill="#E77329" fill-rule="nonzero"/><path d="M41.91 31.1v-.06c0-.06 0 0 0 0a.43.43 0 000 .47.42.42 0 010-.41z" fill="#FFF" fill-rule="nonzero"/><path d="M50.59 29.32c.198.01.394.05.58.12.196.107.386.223.57.35 0 0 .1.14.55.05 0 0 .76-.18.76.41 0 0 .91.08.54.87a.46.46 0 01-.78.18s.34.48-.31.67a.49.49 0 01-.6-.36.45.45 0 01.1-.42.66.66 0 01-.38-.29s.48.6 0 .82a.53.53 0 01-.69-.52.41.41 0 00-.2-.43 1.19 1.19 0 01-.76-.7s.69-.39.62-.75z" fill="#EC5565" fill-rule="nonzero"/><path fill="#E77329" fill-rule="nonzero" d="M46.37 26.32l-1.46-5.03-.05.02 1.28 5.09z"/><path d="M42.89 32.07a.59.59 0 01-.15-.46v-.07.06a.57.57 0 00.16.48s0 .01-.01-.01z" fill="#FFF" fill-rule="nonzero"/><path d="M49.72 23.39l-2.79.88-.15 1.24a3.18 3.18 0 01-2 1.13l1 1.12 2 .42 1.06-.81 1-.88a5.13 5.13 0 010-1.17 3.75 3.75 0 010-.39 10 10 0 01-.12-1.54z" fill="#E77329" fill-rule="nonzero"/><path d="M52.14 23.31s.59-.27.87 0a.81.81 0 01.8 0c.236.155.457.333.66.53 0 0 .19.16.12.67a1.28 1.28 0 000 .54s.13 0 .39.28c0 0 .33.38.62 0a.52.52 0 01-.63.39s.26.21 0 .74a1 1 0 00.1.85.78.78 0 01-.45-.75 1.32 1.32 0 00-.1-.64s.14.24-.18.76a.79.79 0 000 .76.71.71 0 01-.42-.74c0-.57.33-.33.14-.85a.85.85 0 01-.18.4.76.76 0 00-.24.74 1 1 0 01-.21-.7 1.46 1.46 0 01.13-.46l-.88-.5-.44-.79-.1-1.23z" fill="#EC5565" fill-rule="nonzero"/><path d="M42.16 26.49a.32.32 0 01.46-.24.85.85 0 01.81-.66.69.69 0 01.72.71.62.62 0 01.53-.26s.57 0 .36.89l.11.12s.44-1 1.34-.76c0 0 .88.27.31 1.12 0 0 .44.57.8.51a1.3 1.3 0 001.06-.81 1.6 1.6 0 011.43-.71.51.51 0 01.42.33 1.85 1.85 0 012.07-1.27l.65.33.25.11-.37 1-.9 2-.68.21-.71-.41-.25.13v.61l-.94.67-.65.27-.72.49-.17.44a1.24 1.24 0 00-.84 0l-.15-.36-.42-.4-1.63-.77-.29-.95-.3-.13-.33.38-.49.06-.72-.49-.76-2.16z" fill="#FFF" fill-rule="nonzero"/><path d="M44.53 22.11v.08a1.27 1.27 0 001-.4v-.08a1.32 1.32 0 00-1 .4zM46.52 21.4l1.07-.41.03.08-1.07.4z" fill="#E77329" fill-rule="nonzero"/><path d="M52.45 32.07a.59.59 0 00.15-.46v-.07.06a.57.57 0 01-.16.48l.01-.01zM53.41 31.1v-.06c0-.06 0 0 0 0a.43.43 0 010 .47.42.42 0 000-.41zM51.4 31.52a.28.28 0 010 .24.31.31 0 000 .2.27.27 0 010-.19s.08-.17 0-.25zM47.75 15.06c-.34 0-.05.26-.05.26 0 .42-.33.55-.56.43-.23-.12 0-.43 0-.43a.29.29 0 00-.09.41c.16.24.6.14.75-.09.16.23.59.34.75.09a.29.29 0 00-.09-.41s.18.3 0 .43-.56 0-.56-.43c-.1 0 .19-.26-.15-.26zM48 14.65a.6.6 0 01.62-.22s-.13.38-.62.22zM47.41 14.65a.6.6 0 00-.62-.22s.13.38.62.22z" fill="#FFF" fill-rule="nonzero"/><path d="M46.45 19s.39.12.61.21a1.85 1.85 0 001.29 0s.49-.19.55-.21l-.37.57v.29l.23.34s-.14.06-.56-.2a.89.89 0 00-1 0 1.19 1.19 0 01-.56.2l.36-.4-.14-.36-.41-.44z" fill="#F2D660" fill-rule="nonzero"/><path d="M48.89 19.78a.12.12 0 01-.1.1.13.13 0 01-.15-.09.34.34 0 01.14-.34s.28-.23.8 0c0 0 .42.2.71.37 0 0 .75.4.84.43a2.2 2.2 0 00.83.19 1.13 1.13 0 001-.43s.22-.37 0-.6a.28.28 0 00-.24-.09.3.3 0 00-.2.11.21.21 0 000 .27s.16.1.22-.11a.43.43 0 010 .31s-.41.63-1.56 0l-1.5-.84a1 1 0 00-1.21.22.58.58 0 00.1.83.42.42 0 00.57-.12s.18-.33-.1-.47a.25.25 0 00-.35.13c-.1.25.19.32.22.14-.03 0-.02-.05-.02-.01zM52.58 25.51a1.89 1.89 0 01-.81-1.21 2.57 2.57 0 01.16-1.49 1.91 1.91 0 011.17-1.08 2.63 2.63 0 00-.92 1.17 3 3 0 00-.07 1.13c.026.29.09.576.19.85l.28.63z" fill="#F2D660" fill-rule="nonzero"/><path d="M53.31 25.95a2.23 2.23 0 01-1.37-1.49 2.68 2.68 0 01.13-1.63c.49-1.16 1.33-1.16 1.33-1.16a.43.43 0 01.47.35.32.32 0 01-.14.35.37.37 0 01-.47-.06.26.26 0 010-.29.2.2 0 01.21-.06c.11 0 .1.17.1.17a.16.16 0 00-.14-.19s-.32-.07-.71.4a2.63 2.63 0 00-.5 1.47 2 2 0 001.56 2 5.53 5.53 0 00-.49 1.16 13 13 0 01-.69 1.8 1.13 1.13 0 01-1.44.53s-.59-.26-.59-.69c0 0 0-.39.31-.42 0 0 .35 0 .34.27 0 0 0 .32-.37.25a.14.14 0 01-.11-.16s0-.12.18-.07a.19.19 0 00-.13 0 .11.11 0 00-.06.11.13.13 0 00.07.11.47.47 0 00.17 0 .58.58 0 00.33.27.79.79 0 00.74-.12 1.43 1.43 0 00.32-.44c.21-.458.39-.929.54-1.41.097-.312.21-.62.34-.92l.07-.13z" fill="#F2D660" fill-rule="nonzero"/><path d="M50.27 28.9s.2 0 .2.15c0 0 0 .26-.33.21a.3.3 0 01-.2-.42.33.33 0 01.37-.21s.29 0 .42.41a.87.87 0 01-.07.62 1.89 1.89 0 01-.88.62 8.07 8.07 0 00-1.18.56s-.42.31-.23.6a.24.24 0 00.18.11c.07 0 .13-.05.14-.12a.14.14 0 01-.07.1.17.17 0 01-.18 0 .2.2 0 010-.24.28.28 0 01.49.27.36.36 0 01-.35.22.53.53 0 01-.33-.14.68.68 0 010-.83 1.25 1.25 0 01.5-.36l.94-.39a1.65 1.65 0 00.67-.42.89.89 0 00.18-.43s0-.2-.08-.25a.27.27 0 00-.13 0l-.06-.06zM46.45 19.78a.12.12 0 00.1.1.13.13 0 00.15-.09.34.34 0 00-.14-.34s-.28-.23-.8 0c0 0-.42.2-.71.37 0 0-.75.4-.84.43a2.2 2.2 0 01-.83.19 1.13 1.13 0 01-1-.43s-.22-.37 0-.6a.28.28 0 01.24-.09.3.3 0 01.2.11.21.21 0 010 .27s-.16.1-.22-.11a.43.43 0 000 .31s.41.63 1.56 0l1.5-.84a1 1 0 011.21.22.58.58 0 01-.1.83.42.42 0 01-.57-.12s-.18-.33.1-.47a.25.25 0 01.35.13c.1.25-.19.32-.22.14.03 0 .03-.05.02-.01zM42.77 25.51a1.89 1.89 0 00.81-1.21 2.57 2.57 0 00-.16-1.49 1.91 1.91 0 00-1.17-1.08c.413.293.732.7.92 1.17a3 3 0 01.07 1.13 3.33 3.33 0 01-.19.85l-.28.63z" fill="#F2D660" fill-rule="nonzero"/><path d="M42 25.95a2.23 2.23 0 001.37-1.49 2.68 2.68 0 00-.13-1.63c-.49-1.16-1.33-1.16-1.33-1.16a.43.43 0 00-.47.35.32.32 0 00.14.35.37.37 0 00.47-.06.26.26 0 000-.29.2.2 0 00-.21-.06c-.11 0-.1.17-.1.17a.16.16 0 01.14-.19s.32-.07.71.4c.31.429.485.94.5 1.47a2 2 0 01-1.56 2c.207.367.371.756.49 1.16a13 13 0 00.69 1.8 1.13 1.13 0 001.44.53s.59-.26.59-.69c0 0 0-.39-.31-.42 0 0-.35 0-.34.27 0 0 0 .32.37.25a.14.14 0 00.11-.16s0-.12-.18-.07a.19.19 0 01.13 0 .11.11 0 01.06.11.13.13 0 01-.07.11.47.47 0 01-.17 0 .58.58 0 01-.33.27.79.79 0 01-.74-.12 1.43 1.43 0 01-.32-.44 11.85 11.85 0 01-.54-1.41 9.23 9.23 0 00-.34-.92l-.07-.13z" fill="#F2D660" fill-rule="nonzero"/><path d="M45.07 28.9s-.2 0-.2.15c0 0 0 .26.33.21a.3.3 0 00.2-.42.33.33 0 00-.37-.21s-.29 0-.42.41a.87.87 0 00.07.62c.227.288.533.503.88.62a8.07 8.07 0 011.18.56s.42.31.23.6a.24.24 0 01-.18.11.14.14 0 01-.14-.12.14.14 0 00.07.1.17.17 0 00.18 0 .2.2 0 000-.24.28.28 0 00-.49.27.36.36 0 00.35.22.53.53 0 00.33-.14.68.68 0 000-.83 1.25 1.25 0 00-.5-.36l-.94-.39a1.65 1.65 0 01-.67-.42.89.89 0 01-.18-.43s0-.2.08-.25a.27.27 0 01.13 0l.06-.06zM42.06 31.88a.7.7 0 01-.25-.92.25.25 0 01.25-.13s.34.11.07.58a.86.86 0 00-.07.47zM43.17 32.42s-.78-.35-.54-1c0 0 .07-.2.25-.19 0 0 .3 0 .24.41-.06.26-.043.53.05.78zM43.7 32.27a.67.67 0 00.5-.78.29.29 0 00-.32-.24s-.31.08-.11.48a.58.58 0 01-.07.54zM52.17 32.42s.78-.35.54-1c0 0-.07-.2-.25-.19 0 0-.3 0-.24.41.06.26.043.53-.05.78zM53.27 31.88a.7.7 0 00.25-.92.25.25 0 00-.25-.13s-.34.11-.07.58a.86.86 0 01.07.47zM51.64 32.27a.67.67 0 01-.5-.78.29.29 0 01.32-.24s.31.08.11.48a.58.58 0 00.07.54zM53.2 19.91a.73.73 0 00.05-.47c0-.35.27-.39.38-.29.11.1.12.1 0 .33a.88.88 0 01-.43.43zM53.1 19.78s0-.14-.25-.38 0-.46.11-.46.15 0 .21.24a.87.87 0 01-.07.6zM52.77 19.67s-.06-.11-.36-.22-.22-.37-.09-.43.13-.06.27.12a.8.8 0 01.18.53zM53 19.79a.75.75 0 01-.46-.12c-.32-.16-.46.11-.41.26.05.15.06.15.31.12a.88.88 0 00.56-.26zM42.12 19.91a.73.73 0 01-.05-.47c0-.35-.27-.39-.38-.29-.11.1-.12.1 0 .33a.88.88 0 00.43.43zM42.22 19.78s0-.14.25-.38 0-.46-.11-.46-.15 0-.21.24a.87.87 0 00.07.6zM42.55 19.67s.06-.11.36-.22.22-.37.09-.43-.13-.06-.27.12a.8.8 0 00-.18.53zM42.36 19.79a.75.75 0 00.46-.12c.32-.16.46.11.41.26-.05.15-.06.15-.31.12a.88.88 0 01-.56-.26z" fill="#F2D660" fill-rule="nonzero"/></g></svg>