<svg width="71" height="48" xmlns="http://www.w3.org/2000/svg"><g fill-rule="nonzero" fill="none"><rect fill="#FFCE54" x=".77" y=".13" width="70" height="47" rx="6.36"/><path d="M70.77 34.15L.77 13v7.36l70 21.13a6.42 6.42 0 000-.72v-6.62z" fill="#434A54"/><path d="M.77 12l70 21.15v-7.36L1 4.72a6.35 6.35 0 00-.26 1.77L.77 12z" fill="#FFF"/><path d="M44 33.1a1.39 1.39 0 000-1.2 1.4 1.4 0 01-.85.61l-.15-.17a1.84 1.84 0 01-.3-1 .63.63 0 00-.56-.55 7.9 7.9 0 00-.08-10 .45.45 0 00.24-.33c.73 0 .9-.24 1-.58.67-.33.68-.75.08-.68a7.84 7.84 0 01-4-.62c-1.18-.38-2.28-1-3.24-.54v-.91a1 1 0 00.24-.67c0 .374.192.722.51.92a1.14 1.14 0 00.39-1 1 1 0 00.64 1.07 2.28 2.28 0 00-.54-2.27.44.44 0 00-.17-.09 4.5 4.5 0 00-1-.12v-.62c.92 0 1 .71 2.2.71-.48-.16-.26-.7-.62-1 .33-.09.618-.296.81-.58-1.24 0-1.44-.91-2.42-1v-.19a.63.63 0 10-.42 0v2.61a4.51 4.51 0 00-1 .12.44.44 0 00-.17.09 2.28 2.28 0 00-.54 2.27 1 1 0 00.64-1.07 1.14 1.14 0 00.39 1 1.08 1.08 0 00.51-.92 1 1 0 00.25.69v.9c-1-.51-2.07.14-3.26.53a7.84 7.84 0 01-4 .62c-.6-.07-.59.35.08.68.1.33.26.53 1 .58a.45.45 0 00.24.33 7.89 7.89 0 00-.08 10 .63.63 0 00-.56.55 1.84 1.84 0 01-.31 1l-.15.17a1.4 1.4 0 01-.85-.61 1.4 1.4 0 000 1.2 1.55 1.55 0 00-1.63 1 3 3 0 012.55.15 4.52 4.52 0 003.62 1.06 8.75 8.75 0 007.35 0 4.52 4.52 0 003.62-1.06 3 3 0 012.55-.15A1.55 1.55 0 0044 33.1zm-6.58-11.75a1.79 1.79 0 001.91 0c.64.1 1.63.21 1.67-.35h.17a6 6 0 01.81 3 6.15 6.15 0 01-4.53 5.9c.058-.47.218-.92.47-1.32a7 7 0 00-.95.11c.5-1.17-.43-2.38.63-3.69a1 1 0 00-.68.24c.19-1-.38-2 .45-3.07a1.19 1.19 0 00-1.07 1 1.75 1.75 0 00-.15-.8v-1.3a1.55 1.55 0 001.29.24l-.02.04zm-2 1a1.8 1.8 0 00-.18.86 1.19 1.19 0 00-1.07-1c.83 1.08.26 2.09.45 3.07a1 1 0 00-.68-.24c1.05 1.31.13 2.52.63 3.69a7.13 7.13 0 00-.95-.11c.252.4.412.85.47 1.32a6.15 6.15 0 01-4.53-5.9 6 6 0 01.82-3h.17c0 .57 1 .45 1.67.35a1.79 1.79 0 001.91 0 1.56 1.56 0 001.31-.26l-.02 1.22zm14.15-1.42a.36.36 0 00-.26.14 6.47 6.47 0 00-1.12.25.27.27 0 00-.47.11 2.5 2.5 0 00-.14.85l-.15.27a1.07 1.07 0 00-.48.53c-.3.415-.69.756-1.14 1-.8.53-.53 1.4-.53 2.16 0 .5 0 1.8-.07 3.07a5.08 5.08 0 00-.14 1.24c-.17.1-.39.38.08.67v.4a1.72 1.72 0 001.28.32 1.56 1.56 0 001.27-.32v-.41c.46-.3.25-.58.08-.68a4.86 4.86 0 00-.14-1.24c0-1.36-.09-2.89-.08-3.52a12.7 12.7 0 001.26-1.16 1.69 1.69 0 00.52-.89 6.8 6.8 0 01.25-.81c.13-.473.201-.96.21-1.45 0-.47-.06-.59-.22-.59l-.01.06zM26.42 31.64v-.4c.47-.29.25-.58.08-.67a5.08 5.08 0 00-.14-1.24c0-1.27-.07-2.57-.07-3.07 0-.75.27-1.62-.53-2.16a3.41 3.41 0 01-1.14-1 1.07 1.07 0 00-.48-.53l-.15-.27a2.5 2.5 0 00-.14-.85.27.27 0 00-.47-.11 6.49 6.49 0 00-1.12-.25.37.37 0 00-.26-.14c-.16 0-.25.12-.22.59.009.49.08.977.21 1.45.1.265.184.535.25.81.076.344.258.655.52.89a12.8 12.8 0 001.26 1.16c0 .63 0 2.16-.08 3.52a4.86 4.86 0 00-.14 1.24c-.17.1-.38.38.08.68v.41c.356.288.82.405 1.27.32a1.72 1.72 0 001.27-.32v-.06z" fill="#ED5565"/></g></svg>