<svg width="71" height="48" xmlns="http://www.w3.org/2000/svg"><g fill-rule="nonzero" fill="none"><rect fill="#52C162" x=".15" y=".13" width="70" height="47" rx="6.36"/><path fill="#F6D660" d="M7.93 23.63l27.21-21 27.21 21-27.21 21z"/><path d="M31 18.55c-2.83 0-5.612.737-8.07 2.14a12.56 12.56 0 0023.44 8.59A16.41 16.41 0 0031 18.55z" fill="#4758A9"/><path d="M31 18.55a16.41 16.41 0 0115.37 10.73 12.47 12.47 0 001-2.87C42.964 17.945 32.834 14.23 24 17.84a12.48 12.48 0 00-1.06 2.85A16.28 16.28 0 0131 18.55z" fill="#FFF"/><path d="M47.4 26.42A12.57 12.57 0 0024 17.84c8.848-3.633 19.005.09 23.41 8.58h-.01z" fill="#4758A9"/></g></svg>