<svg width="71" height="48" xmlns="http://www.w3.org/2000/svg"><g fill-rule="nonzero" fill="none"><rect fill="#F6D660" x=".77" y=".85" width="70" height="47" rx="6.36"/><path d="M68.52 2.36l-65.5 44a6.33 6.33 0 004.11 1.51H64.4a6.36 6.36 0 006.36-6.36V7.21a6.35 6.35 0 00-2.24-4.85z" fill="#ED5565"/><path d="M58.17 12.95c-.65.07-1.25-.28-1.89-.2a2.39 2.39 0 00-1 .35l-.63.14.57-.55c.43-.34 1.05-.27 1.49-.61l.32-.77-.42.28a2 2 0 01-1 .08l-.88.06-.61.54.24-.6.39-.75v-.79l.3-.64a3.24 3.24 0 00.68-.85l-.16-.78-.13.54a3.51 3.51 0 01-.83.72l-.39.61-.13.66-.44.55a1.34 1.34 0 00-.51.94l-.18.82-.54.12h-.88a1.81 1.81 0 00-1.2-.41 1.44 1.44 0 00-.56-.8l-.73-.08-.24.14a2 2 0 00-.93-.42 1.7 1.7 0 00-1 .18 1.89 1.89 0 00-.93-.61 3.66 3.66 0 01-1.07-.4 4.25 4.25 0 00-1.25-.83 4.49 4.49 0 00-1.64-.41l-.65.1-.46.28h.85a3.1 3.1 0 011.15.38l-.84-.18-.53.24.73.1.51.3-.1.34a4 4 0 00-1.79-.72 1.21 1.21 0 00-1 .3 1.81 1.81 0 00-1.31.09l-.36.56.61-.22h.84v.08l.09-.05.57.22-.15.13a1.66 1.66 0 00-1 .06l-.45.45.48-.16h.71l-.09.6a5.71 5.71 0 00-2.28-.41 1.9 1.9 0 00-1.1.39.85.85 0 00.7 1.52l.36-.46-.36.08-.38-.24.27-.37a2.91 2.91 0 011.27 0v.83a2.85 2.85 0 00-1.76.73c-.38 0-.78 0-1.16.05a1.86 1.86 0 00-1 .42l-.27.72.57-.41a3.25 3.25 0 011.72-.14c.423.07.852.098 1.28.08l-.06.35a1 1 0 00-.37 1L37 17a2.91 2.91 0 00-1.55 1.59l.16.1a2.57 2.57 0 011.17-.69l-.2.65a2.86 2.86 0 00-.51.8 1.35 1.35 0 00.25 1v-.14c.03-.34.195-.654.46-.87l.87-.22a1 1 0 00.34.85l.47.21a1 1 0 00.53 1.17l-.24.22a3.55 3.55 0 00-1 .08l-.36.49.46-.12.61.31a1.38 1.38 0 001 .19l.13.61h-.64l-.56-.2-.17-.31-.12.52.31.39h-.14l-.47-.52a1.39 1.39 0 00-1-.08.82.82 0 00-1-.58h-.08l-.12-.24-.4-.34-.32-.71-.61-.42v-.38l-.24.64.24.46v.28l-.74-.05h-.11l-.91-.07-.95-.11a1.11 1.11 0 00-.79-.61l-.78-.21-.27-.45-.07.6.5.53.1.34h-.82a.87.87 0 00-.47.79l-.92.13-.24.5a1 1 0 00-1.16 0l-.67.3-.52.19-.11.48.39-.2.49.08h.46l-.17.44v.6a.94.94 0 00-.69.7l.05.77a6.83 6.83 0 00-1.37.92l-.71.23-.44-.09.56.51c.476.02.95-.052 1.4-.21l-.24.85.1.47a1.34 1.34 0 00-.58.92c-.32.13-.62.305-.89.52h-.54l.19.34.62.32-.38.26h-.39l.21.61a2.33 2.33 0 01-1.16 0l.11.6a3.17 3.17 0 00-1.25-.09l-.64.3-.07.19h.43-.46a1.78 1.78 0 01-1 0 2.56 2.56 0 00-1.29-.46h-.68l-.59-.21a1 1 0 00-1 .21l-.13.48.5-.23a7.22 7.22 0 011 .45h.89a2.91 2.91 0 011.35.47 3.26 3.26 0 00-1.15.21l-.69.32a9.52 9.52 0 01-1.33.21l-.54.27-.1.4.31-.14a14 14 0 001.46 0 2.26 2.26 0 011.12-.29 1.58 1.58 0 01-1 .51 3.07 3.07 0 00-1.12.3l-.64.45c-.41.18-.88.11-1.27.32l-.46.39-.71.49-.56.11.81.27a7.77 7.77 0 001.5-.7l.67-.07a2.52 2.52 0 001-.31l-.39.25c-.35.14-.72.2-1.07.33a2.94 2.94 0 00-1.12.72 6.68 6.68 0 01-1.2 1.08 2.73 2.73 0 01-1.18.36l.39.28.77-.14a14.36 14.36 0 011.77-.73c.31-.08.65 0 1-.12a2 2 0 001-.54l.57-.54.65-.11a4.4 4.4 0 001.12-.81l.57-.15.35-.27-.48.54-.63.19c.268.167.593.218.9.14a11.67 11.67 0 001.28-.86l.67-.16-.57.45-.76.41-.27.7.65-.44a4 4 0 011-.26 1.37 1.37 0 00.86-.48 3.68 3.68 0 01.86-.85 4 4 0 001-.71l.31-.53.66-.54a12.8 12.8 0 001.19-.71H27l.6.05-.09.74-.7-.05-.39.27.34.17.32.26-.43.14-.33.55-.44.12.36.29a1.32 1.32 0 00.93-.21l.16.36-.07.29.4-.09.35-.66.33.48.18.36.1.42-.13.45a1.68 1.68 0 00-1.08.61 1.41 1.41 0 00-.2 1.15l.12.48c.187.23.318.5.38.79.025.431.198.841.49 1.16.324.358.77.583 1.25.63h.36a1.94 1.94 0 001.25-.62 1.88 1.88 0 00.48-1.32l.27-.52a1.2 1.2 0 000-.95 1.26 1.26 0 00-.28-.92l.27-.09.57.29.5.6a4 4 0 010 1.19 2.1 2.1 0 00.52-.92 1.77 1.77 0 00-.14-1.16l-.21-.77-.74-.35h-1.06l-.56-.17a.61.61 0 00-.38-.7.93.93 0 00-.67-.85 3.87 3.87 0 01.13-1.92l.75.12.78.54.55.32a2.14 2.14 0 001.08 0h.53a1.66 1.66 0 001.17-.7 1.63 1.63 0 00.21-1.47 1.7 1.7 0 00-.56-.78l-.08-.46a1 1 0 00-.94-.58h-.33l-.77.11-.5.15v-.32l.39-.48.6-.1h.44l-.53-.53a1.85 1.85 0 00-1.16-.2.91.91 0 00-.72.58l-.12.28a1.2 1.2 0 00-.3 1l-.31.22-.33-.09-.32-.73a3.21 3.21 0 01.2-.88v-.42l.07-.66.31-.48.57-.56a.85.85 0 00.94-.32 1.06 1.06 0 001 0l.24.15c.32.123.668.143 1 .06l.84.24.46.24.65.12c.421.25.916.345 1.4.27a2.53 2.53 0 001.63.36c.28.178.626.218.94.11l.53.14-.09.55-.37.06-.29.1-.69-.2-.34.31.44.11.5.31-.42.43-.35.48H38l.72.38a9.63 9.63 0 001-.58l.12.5-.16.46.43-.08.46-.67a.74.74 0 00.85.55 1 1 0 001 .49c.28.308.715.422 1.11.29a1.4 1.4 0 001 .39l.62-.12.74.37-.23.53.3.68.29.8.59.32.54.54a2 2 0 001.21.09 2.16 2.16 0 002-.13 2.08 2.08 0 00.64-2.87l-.14-.2a1.15 1.15 0 00-.32-1.4l-.29-.35-.61-.12H49l.18-.53.36-.15.51-.39.63.08-.57-.51a1.53 1.53 0 00-1.39.09l-.74.2-.25.59a.68.68 0 00-.76.57l-.65.33a1.14 1.14 0 00-.87-.27l-.33-.24-.7-.07h-.74a1 1 0 00-.86-.44l.18-.83.42-.49.47-.8a5.53 5.53 0 001.06-3.84 1.33 1.33 0 011.36-.22l-.12.72-.5.25.44.19.56-.16c-.053.344.01.696.18 1l.74.43-.14-.42.27-.77.44.61v.45l.35-.6a4.4 4.4 0 00-.37-1.2 2.42 2.42 0 001.35-.28c.37-.24.72-.52 1.12-.73l.42-.1.67.55.48.15a2.33 2.33 0 001.06.2 1.4 1.4 0 001-.43l.5-.07a1.51 1.51 0 00.82-.9l.51-.48a.94.94 0 00-.35-.91l-.27-.63-.58-.37a1.73 1.73 0 00-1.21-1.39 1.75 1.75 0 00-1.66.36 1.77 1.77 0 00-.55 1 5 5 0 00-.62.93l-.41-.06a7.07 7.07 0 00-1.54.34 2.59 2.59 0 01-.92 0 5.76 5.76 0 01-1.21-.27l-.53-.29-.78-.5a12.23 12.23 0 00-1.24-.42 2.06 2.06 0 01-.93-.91l.52.06.37.15c.333.153.632.37.88.64l.65.45.8-.11-.63-.24c-.36-.28-.5-.74-.86-1l-.61-.27a1.33 1.33 0 011.34-.43c.356.113.735.13 1.1.05l.29-.1a2.37 2.37 0 011.39.78l.4.46-.5.57-.52.09.36.21a1 1 0 001-.11l.14.48.65.34-.24-.4.33-.45.28.34-.07.39.45-.19.25-.64.57-.54a2.32 2.32 0 00.18-1 4.44 4.44 0 002.43 0 5.25 5.25 0 011.7-.18l.78.35.09.73.38-.58-.34-.72a2.57 2.57 0 00-1.3-.44 1 1 0 00-.9-.92l-.67.34h-.95l.1-.53-.16-.52.08-.32.12-.33.17-.22a5.11 5.11 0 002.31-.8 8.06 8.06 0 012.17-.21l.65-.27.2-.37-.5.1z" fill="#FFF"/></g></svg>