<svg width="71" height="48" xmlns="http://www.w3.org/2000/svg"><g fill-rule="nonzero" fill="none"><rect fill="#ED5565" x=".28" y=".85" width="70" height="47" rx="6.36"/><path d="M.28 41.49a6.36 6.36 0 006.36 6.36h57.28a6.36 6.36 0 006.36-6.36v-5.64h-70v5.64z" fill="#57A863"/><path d="M6.65.85A6.36 6.36 0 00.29 7.21v34.27a6.36 6.36 0 006.36 6.36h7.64v-47L6.65.85z" fill="#ED5565"/><path d="M2.28 19.85h2v2h-2v-2zm0 6h2v-2h-2v2zm0-8h2v-2h-2v2zm0-12h2v-2h-2v2zm0 4h2v-2h-2v2zm0 20h2v-2h-2v2zm0-16h2v-2h-2v2zm0 32h2v-2h-2v2zm7-42v-3H6.65A6.38 6.38 0 005.29 1v2.85h3.99zm-4 41v2.85a6.38 6.38 0 001.36.15h2.64v-3h-4zm7-43v-1h-2v1h2zm-7 42h4v-4h-4v4zm-3-10h2v-2h-2v2zm0 4h2v-2h-2v2zm0 4h2v-2h-2v2zm3-28h4v-4h-4v4zm5 12h2v-2h-2v2zm0-4h2v-2h-2v2zm0 12h2v-2h-2v2zm0-16h2v-2h-2v2zm0 12h2v-2h-2v2zm0-24h2v-2h-2v2zm0 4h2v-2h-2v2zm0 4h2v-2h-2v2zm0 24h2v-2h-2v2zm-5-9h4v-4h-4v4zm0-5h4v-4h-4v4zm0 15h4v-4h-4v4zm0-5h4v-4h-4v4zm0-15h4v-4h-4v4zm0-10h4v-4h-4v4zm5 33h2v-2h-2v2zm0 4h2v-2h-2v2z" fill="#FFF"/></g></svg>