<svg width="71" height="48" xmlns="http://www.w3.org/2000/svg"><g fill-rule="nonzero" fill="none"><path d="M.52 7.21v34.27a6.34 6.34 0 00.46 2.36h69.08a6.34 6.34 0 00.46-2.36V7.21a6.34 6.34 0 00-.46-2.36H1a6.34 6.34 0 00-.48 2.36z" fill="#4758A9"/><path d="M64.16.85H6.89a6.36 6.36 0 00-5.91 4h69.08a6.36 6.36 0 00-5.9-4zM6.89 47.85h57.27a6.36 6.36 0 005.91-4H1a6.36 6.36 0 005.89 4z" fill="#ED5565"/><circle fill="#FFF" cx="36.02" cy="24.35" r="15.5"/><circle fill="#57A863" cx="36.02" cy="24.35" r="13.5"/><circle fill="#FFF" cx="36.02" cy="24.35" r="11.5"/><path d="M38.28 20a2.9 2.9 0 01-2.25-1.13A2.91 2.91 0 0133.78 20a3.42 3.42 0 01-2.25-.93v6.12c0 4 4.5 5.69 4.5 5.69s4.5-1.67 4.5-5.69V19a3.38 3.38 0 01-2.25 1z" fill="#F6D660"/></g></svg>