<svg width="71" height="48" xmlns="http://www.w3.org/2000/svg"><g fill-rule="nonzero" fill="none"><path d="M6.65.7A6.36 6.36 0 00.29 7.06v34.27a6.36 6.36 0 006.36 6.36h17v-47L6.65.7z" fill="#ED5565"/><path d="M23.63.7v47H47V.7H23.63z" fill="#FFF"/><path d="M63.92.7H47v47h16.92a6.36 6.36 0 006.36-6.36V7.06A6.36 6.36 0 0063.92.7zM35.89 14.17a.63.63 0 00-1.22 0l-.5 1a5.17 5.17 0 01-.88 1.32 2.73 2.73 0 01-1.25-.37c-.34-.18-.52.25-.39 1l.46 2.46a4 4 0 010 1.74c-.12.25-.92-.38-1.4-.93l-.44-.5c-.48-.54-.95-.7-1-.36a4.6 4.6 0 01-.29.8 4.66 4.66 0 01-1.69-.15h-.14a.74.74 0 00-1 1v.16c.19.69.4 1.45.48 1.68a1.37 1.37 0 01-.79.81c-.27.13 0 .61.53 1.08l2.7 2.23c.408.307.796.641 1.16 1a2.69 2.69 0 01-.13 1.14c-.11.38.39.62 1.12.54l2.07-.24a8.7 8.7 0 011.52-.09 3.63 3.63 0 01.14 1.53l-.1 2.47a1.35 1.35 0 00.34 1.3 1.37 1.37 0 00.37-1.3l-.06-2.46a5.74 5.74 0 01.08-1.45 4.53 4.53 0 011.58 0l2.07.24c.73.09 1.24-.16 1.12-.54a4.28 4.28 0 01-.19-.95A5.66 5.66 0 0141.43 27l2.7-2.23c.56-.46.8-.95.53-1.08a2.27 2.27 0 01-.65-.44 7.92 7.92 0 01.34-2.06v-.16a.74.74 0 00-1-1h-.14a6.89 6.89 0 01-1.53.21 1.86 1.86 0 01-.44-.86c-.1-.35-.57-.18-1 .36l-.44.5a5.75 5.75 0 01-1.34 1.19c-.26.11-.17-1.3 0-2l.46-2.46c.13-.7 0-1.13-.39-1a8.33 8.33 0 01-1 .44 3.1 3.1 0 01-1.16-1.4l-.48-.84z" fill="#ED5565"/></g></svg>