<svg width="71" height="48" xmlns="http://www.w3.org/2000/svg"><g fill-rule="nonzero" fill="none"><path d="M5.16 47.83a6.38 6.38 0 001.35.15h57.27a6.36 6.36 0 006.36-6.36V8.84L5.16 47.83zM6.51 1A6.36 6.36 0 00.15 7.36v29.5L59.91 1H6.51z" fill="#4758A9"/><path d="M70.15 7.35a6.35 6.35 0 00-.21-1.59L2.28 46.36a6.34 6.34 0 002.88 1.47l65-39-.01-1.48zM64.77 1.07a6.38 6.38 0 00-1-.08H59.9L.13 36.85v3L64.77 1.07z" fill="#F2D660"/><path d="M64.77 1.07L.15 39.85v1.77a6.34 6.34 0 002.13 4.74l67.66-40.6a6.36 6.36 0 00-5.17-4.69z" fill="#ED5565"/><path d="M8 17.79c-.55.39-.87.17-.71-.49l.59-2.46a2.22 2.22 0 00-.64-2l-1.8-1.55c-.51-.44-.38-.82.29-.84l2.51-.07a1.81 1.81 0 001.57-1.22l.79-2.68c.19-.65.54-.66.76 0l.95 2.65a1.9 1.9 0 001.64 1.17h2.57c.67 0 .81.38.3.82l-2 1.71a2.12 2.12 0 00-.58 2l.62 2.16c.19.65-.13.9-.7.54l-2.08-1.29a2 2 0 00-2 .07L8 17.79z" fill="#F6D660"/></g></svg>