<svg width="71" height="48" xmlns="http://www.w3.org/2000/svg"><g fill-rule="nonzero" fill="none"><path fill="#FFF" d="M.52 12.7h70v11h-70z"/><path d="M64.16.7H6.89A6.36 6.36 0 00.53 7.06v5.64h70V7.06A6.36 6.36 0 0064.16.7z" fill="#4758A9"/><path d="M.52 41.34a6.36 6.36 0 006.36 6.36h57.27a6.36 6.36 0 006.36-6.36V35.7h-70l.01 5.64z" fill="#F6D660"/><path fill="#52C162" d="M.52 23.7h70v12h-70z"/><path fill="#ED5565" d="M30.52.7h11v47h-11z"/><path d="M10 9.6c-.28.2-.44.08-.36-.24l.3-1.23a1.11 1.11 0 00-.32-1l-.9-.78c-.26-.22-.19-.41.15-.42h1.26a.91.91 0 00.79-.61l.4-1.34c.1-.33.27-.33.38 0l.48 1.32a1 1 0 00.82.59h1.29c.34 0 .41.19.15.41l-1 .86a1.05 1.05 0 00-.29 1l.31 1.08c.09.33-.06.45-.35.27l-1-.64a1 1 0 00-1 0L10 9.6z" fill="#F6D660"/></g></svg>