<svg width="71" height="48" xmlns="http://www.w3.org/2000/svg"><g fill-rule="nonzero" fill="none"><path d="M64.55.43H6.23A6.64 6.64 0 00.48 6.01v35.72a6.64 6.64 0 006.56 5.64h56.72a6.64 6.64 0 006.64-6.64V7A6.64 6.64 0 0064.55.43z" fill="#4658A9"/><path d="M25.36.38H7A6.64 6.64 0 00.43 7.02v17.33h25L25.36.38z" fill="#4658A9"/><path d="M10.92 17.79v6.56h3.9v-6.71l6.71 6.71h3.82v-3l-7-7h7v-4h-7l7-7v-3h-3.83l-6.7 6.7V.35h-3.9v6.56L4.76.75a6.66 6.66 0 00-3.63 3.17l6.41 6.41H.38v4h7.16L.38 21.49v2.83h4l6.54-6.53z" fill="#FFF"/><path d="M11.92 15v9.31h1.9v-9.45l9.45 9.45h2.08v-1.23l-9.78-9.78h9.78v-1.95h-9.78l9.78-9.78V.34h-2.09l-9.45 9.45V.34h-1.9v9.3L3.58 1.3a6.67 6.67 0 00-1.76 1.55l8.49 8.49H.38v1.95h9.93L.38 23.22v1.09h2.23L11.92 15z" fill="#EC5463"/><path stroke="#4658A9" stroke-width=".5" fill="#FFF" d="M57.03 36.84l-1.67-1.21-1.68 1.21.64-1.97-1.67-1.21h2.07l.64-1.97.64 1.97h2.07l-1.68 1.21zM35.5 30.43l-1.03-1.79 1.89.84 1.38-1.54-.21 2.06 1.89.85-2.03.43-.21 2.05-1.04-1.79-2.02.43zM34.45 20.44l-1.67-1.22h2.07l.64-1.97.64 1.97h2.07l-1.68 1.22.64 1.96-1.67-1.21-1.68 1.21zM36.06 13.55l1.88.84 1.39-1.54-.22 2.06 1.89.84-2.02.43-.22 2.06-1.03-1.8-2.03.44 1.39-1.54zM41.36 9.69l1.38 1.54 1.89-.84-1.03 1.79 1.38 1.54-2.02-.43-1.04 1.79-.21-2.06-2.03-.43 1.89-.84zM61.08 20.44l.64 1.96-1.67-1.21-1.68 1.21.64-1.96-1.67-1.22h2.07l.64-1.97.64 1.97h2.07zM58.45 15.34l1.38 1.54-2.02-.44-1.04 1.8-.21-2.06-2.03-.43 1.89-.84-.22-2.06 1.39 1.54 1.89-.84zM53.96 11.75l1.89.84-2.02.43-.22 2.06-1.03-1.79-2.03.43 1.39-1.54-1.04-1.79 1.89.84 1.39-1.54zM48.41 10.3h2.07l-1.68 1.21.64 1.97-1.67-1.21-1.68 1.21.64-1.97-1.67-1.21h2.07l.64-1.97zM39.14 34.87l-1.67-1.21h2.07l.64-1.97.64 1.97h2.07l-1.68 1.21.64 1.97-1.67-1.21-1.68 1.21zM44.27 37.45l-2.02-.43 1.89-.84-.22-2.06 1.39 1.54 1.89-.84-1.03 1.79 1.38 1.54-2.03-.44-1.03 1.8zM50.01 37.71l-2.02.44 1.38-1.54-1.03-1.79 1.89.84 1.38-1.54-.22 2.06 1.9.84-2.03.43-.21 2.06zM59.39 31.54l-1.03 1.79-.22-2.05-2.02-.43 1.89-.85-.22-2.06 1.39 1.54 1.89-.84-1.04 1.79 1.39 1.54zM61.42 26.17l-.22 2.06-1.03-1.8-2.03.44 1.39-1.54-1.04-1.79 1.89.84 1.39-1.54-.22 2.06 1.89.84zM33.98 24.9l-.21-2.06 1.38 1.54 1.89-.84-1.03 1.79 1.38 1.54-2.02-.44-1.04 1.8-.21-2.06-2.03-.43z"/></g></svg>