<svg width="71" height="48" xmlns="http://www.w3.org/2000/svg"><g fill-rule="nonzero" fill="none"><path d="M.77 21.7v19.64a6.36 6.36 0 006.36 6.36H64.4a6.36 6.36 0 006.36-6.36V21.7h-70 .01z" fill="#ED5565"/><path d="M64.4.7H27.77v21h43V7.06A6.36 6.36 0 0064.4.7z" fill="#FFF"/><path d="M27.77.7H7.13A6.36 6.36 0 00.77 7.06V21.7h27V.7z" fill="#4758A9"/><path d="M11.91 15.55c-.41.29-.65.13-.53-.37l.45-1.84a1.67 1.67 0 00-.48-1.5L10 10.68c-.38-.33-.28-.61.22-.63L12.1 10a1.35 1.35 0 001.18-.91l.59-2c.14-.49.4-.5.57 0l.71 2a1.43 1.43 0 001.23.88h1.92c.5 0 .61.28.23.62l-1.46 1.28a1.59 1.59 0 00-.44 1.5l.47 1.62c.14.49-.1.67-.53.4l-1.56-1a1.51 1.51 0 00-1.53 0l-1.57 1.16z" fill="#FFF"/></g></svg>