<svg width="71" height="48" xmlns="http://www.w3.org/2000/svg"><g fill-rule="nonzero" fill="none"><path d="M7.13.42A6.36 6.36 0 00.77 6.78v34.27a6.36 6.36 0 006.36 6.36h17v-47l-17 .01z" fill="#52C162"/><path d="M24.11.42v47h23.35v-47H24.11z" fill="#ED5565"/><path d="M64.4.42H47.45v47H64.4a6.36 6.36 0 006.36-6.36V6.78A6.36 6.36 0 0064.4.42z" fill="#FFCE54"/><path d="M32.38 30.21c-.59.42-.94.18-.77-.53l.64-2.66a2.41 2.41 0 00-.69-2.17l-1.94-1.68c-.55-.48-.41-.89.32-.91l2.71-.08a2 2 0 001.7-1.32l.85-2.91c.21-.71.58-.72.82 0l1 2.87a2 2 0 001.77 1.27h2.77c.73 0 .87.41.32.89l-2.11 1.85a2.3 2.3 0 00-.63 2.16l.67 2.34c.2.71-.14 1-.76.59l-2.25-1.39a2.16 2.16 0 00-2.21.07l-2.21 1.61z" fill="#F6BB42"/></g></svg>