<svg width="71" height="48" xmlns="http://www.w3.org/2000/svg"><g fill-rule="nonzero" fill="none"><rect fill="#ED5565" x=".28" y=".98" width="70" height="47" rx="6.36"/><path d="M12.23 26.34c-.82.59-1.3.26-1.07-.73l.89-3.68a3.33 3.33 0 00-1-3L8.36 16.6c-.77-.66-.57-1.23.44-1.26l3.77-.11A2.71 2.71 0 0015 13.4l1.18-4c.29-1 .8-1 1.14 0l1.42 4a2.85 2.85 0 002.46 1.76h3.84c1 0 1.21.57.45 1.23l-2.93 2.56a3.18 3.18 0 00-.87 3l.93 3.24c.28 1-.19 1.34-1.05.81l-3.15-2a3 3 0 00-3.06.1l-3.13 2.24zM29.37 10.78c-.28.2-.44.09-.36-.26l.3-1.28a1.18 1.18 0 00-.32-1l-.91-.81c-.26-.23-.19-.43.15-.44h1.27a.92.92 0 00.8-.64l.4-1.4c.1-.34.27-.34.39 0l.48 1.38a1 1 0 00.83.61h1.3c.34 0 .41.2.15.43l-1 .89a1.12 1.12 0 00-.3 1l.32 1.13c.1.34-.06.47-.35.28L31.46 10a1 1 0 00-1 0l-1.09.78zM29.37 30.53c-.28.2-.44.09-.36-.26l.3-1.28a1.18 1.18 0 00-.32-1l-.91-.81c-.26-.23-.19-.43.15-.44h1.27a.92.92 0 00.8-.63l.4-1.4c.1-.34.27-.34.39 0l.48 1.38a1 1 0 00.83.61h1.3c.34 0 .41.2.15.43l-1 .89a1.12 1.12 0 00-.3 1l.32 1.13c.1.34-.06.47-.35.28l-1.05-.67a1 1 0 00-1 0l-1.1.77zM36.3 25.23c-.28.2-.44.09-.36-.25l.3-1.28a1.18 1.18 0 00-.32-1l-.91-.81c-.26-.23-.19-.43.15-.44h1.27a.92.92 0 00.8-.63l.4-1.4c.1-.34.27-.34.39 0l.48 1.38a1 1 0 00.83.61h1.3c.34 0 .41.2.15.43l-1 .89a1.12 1.12 0 00-.29 1l.32 1.13c.1.34-.07.47-.35.28l-1.05-.67a1 1 0 00-1 0l-1.11.76zM36.3 16.09c-.28.2-.44.09-.36-.26l.3-1.28a1.18 1.18 0 00-.32-1L35 12.7c-.26-.23-.19-.43.15-.44h1.27a.92.92 0 00.8-.63l.4-1.4c.1-.34.27-.34.39 0l.48 1.38a1 1 0 00.83.61h1.3c.34 0 .41.2.15.43l-1 .89a1.13 1.13 0 00-.29 1l.32 1.13c.1.34-.07.47-.35.28l-1.05-.67a1 1 0 00-1 0l-1.1.81z" fill="#F6D660"/></g></svg>