<svg width="71" height="48" xmlns="http://www.w3.org/2000/svg"><g fill-rule="nonzero" fill="none"><path fill="#FFF" d="M.15 8.27h70v11.5h-70zM.15 27.77h70v11.5h-70z"/><path d="M63.78.27H6.51A6.36 6.36 0 00.15 6.63v1.64h70V6.63A6.36 6.36 0 0063.78.27zM.15 40.9a6.36 6.36 0 006.36 6.36h57.27a6.36 6.36 0 006.36-6.36v-1.64h-70l.01 1.64zM.15 19.77h70v8h-70z" fill="#4758A9"/><path d="M2.27 1.89A6.34 6.34 0 00.14 6.63V40.9a6.34 6.34 0 002.13 4.74l25.87-21.88L2.27 1.89z" fill="#ED5565"/><path d="M11.92 27.9c-.08.44-.34.49-.58.11l-.89-1.42a1.51 1.51 0 00-1.27-.63l-1.61.12c-.46 0-.57-.2-.26-.53l1.18-1.21a1.17 1.17 0 00.17-1.3l-.9-1.61c-.22-.39-.06-.56.36-.37l1.72.78a1.33 1.33 0 001.35-.22l1.25-1.19c.33-.31.57-.2.54.24l-.12 1.71c-.008.491.248.95.67 1.2l1.33.71c.4.21.37.48-.08.58l-1.62.38a1.36 1.36 0 00-1 1l-.24 1.65z" fill="#FFF"/></g></svg>