<svg width="71" height="48" xmlns="http://www.w3.org/2000/svg"><g fill-rule="nonzero" fill="none"><rect fill="#4758A9" x=".9" y=".7" width="70" height="47" rx="6.36"/><path fill="#FFF" d="M.9 21.7h70v14H.9z"/><path fill="#ED5565" d="M.9 24.7h70v8H.9z"/><path d="M21.34 21.6c-.28.2-.44.08-.36-.24l.3-1.23a1.11 1.11 0 00-.32-1l-.9-.78c-.26-.22-.19-.41.15-.42h1.26a.91.91 0 00.79-.61l.4-1.34c.1-.33.27-.33.38 0l.48 1.32a1 1 0 00.82.59h1.29c.34 0 .41.19.15.41l-1 .86a1.05 1.05 0 00-.29 1l.31 1.08c.09.33-.06.45-.35.27l-1-.64a1 1 0 00-1 0l-1.11.73zM21.34 41.6c-.28.2-.44.08-.36-.24l.3-1.23a1.11 1.11 0 00-.32-1l-.9-.78c-.26-.22-.19-.41.15-.42h1.26a.91.91 0 00.79-.61l.4-1.34c.1-.33.27-.33.38 0l.48 1.32a1 1 0 00.82.59h1.29c.34 0 .41.19.15.41l-1 .86a1.05 1.05 0 00-.29 1l.31 1.08c.09.33-.06.45-.35.27l-1-.64a1 1 0 00-1 0l-1.11.73zM31.34 31.6c-.28.2-.44.08-.36-.24l.3-1.23a1.11 1.11 0 00-.32-1l-.9-.78c-.26-.22-.19-.41.15-.42h1.26a.91.91 0 00.79-.61l.4-1.34c.1-.33.27-.33.38 0l.48 1.32a1 1 0 00.82.59h1.29c.34 0 .41.19.15.41l-1 .86a1.05 1.05 0 00-.29 1l.31 1.08c.09.33-.06.45-.35.27l-1-.64a1 1 0 00-1 0l-1.11.73zM12.34 31.6c-.28.2-.44.08-.36-.24l.3-1.23a1.11 1.11 0 00-.32-1l-.9-.78c-.26-.22-.19-.41.15-.42h1.26a.91.91 0 00.79-.61l.4-1.34c.1-.33.27-.33.38 0l.48 1.32a1 1 0 00.82.59h1.29c.34 0 .41.19.15.41l-1 .86a1.05 1.05 0 00-.29 1l.31 1.08c.09.33-.06.45-.35.27l-1-.64a1 1 0 00-1 0l-1.11.73zM14.34 24.6c-.28.2-.44.08-.36-.24l.3-1.23a1.11 1.11 0 00-.32-1l-.9-.78c-.26-.22-.19-.41.15-.42h1.26a.91.91 0 00.79-.61l.4-1.34c.1-.33.27-.33.38 0l.48 1.32a1 1 0 00.82.59h1.29c.34 0 .41.19.15.41l-1 .86a1.05 1.05 0 00-.29 1l.31 1.08c.09.33-.06.45-.35.27l-1-.64a1 1 0 00-1 0l-1.11.73zM28.34 24.6c-.28.2-.44.08-.36-.24l.3-1.23a1.11 1.11 0 00-.32-1l-.9-.78c-.26-.22-.19-.41.15-.42h1.26a.91.91 0 00.79-.61l.4-1.34c.1-.33.27-.33.38 0l.48 1.32a1 1 0 00.82.59h1.29c.34 0 .41.19.15.41l-1 .86a1.05 1.05 0 00-.29 1l.31 1.08c.09.33-.06.45-.35.27l-1-.64a1 1 0 00-1 0l-1.11.73zM14.34 38.6c-.28.2-.44.08-.36-.24l.3-1.23a1.11 1.11 0 00-.32-1l-.9-.78c-.26-.22-.19-.41.15-.42h1.26a.91.91 0 00.79-.61l.4-1.34c.1-.33.27-.33.38 0l.48 1.32a1 1 0 00.82.59h1.29c.34 0 .41.19.15.41l-1 .86a1.05 1.05 0 00-.29 1l.31 1.08c.09.33-.06.45-.35.27l-1-.64a1 1 0 00-1 0l-1.11.73zM28.34 38.6c-.28.2-.44.08-.36-.24l.3-1.23a1.11 1.11 0 00-.32-1l-.9-.78c-.26-.22-.19-.41.15-.42h1.26a.91.91 0 00.79-.61l.4-1.34c.1-.33.27-.33.38 0l.48 1.32a1 1 0 00.82.59h1.29c.34 0 .41.19.15.41l-1 .86a1.05 1.05 0 00-.29 1l.31 1.08c.09.33-.06.45-.35.27l-1-.64a1 1 0 00-1 0l-1.11.73z" fill="#F6D660"/></g></svg>