<svg width="71" height="48" xmlns="http://www.w3.org/2000/svg"><g fill-rule="nonzero" fill="none"><path d="M70.39 7.59A6.64 6.64 0 0063.75.95H7A6.64 6.64 0 00.36 7.59v22.73h70l.03-22.73zM70.39 41.3v-5.11h-70v5.11a6.64 6.64 0 006.64 6.64h56.72a6.64 6.64 0 006.64-6.64z" fill="#4658A9"/><path fill="#F2D660" d="M70.39 30.32h-70v5.88h70z"/><path d="M13.68 20.78c-.45.31-.72.12-.59-.41l.48-2a1.86 1.86 0 00-.54-1.65l-1.49-1.31c-.42-.37-.32-.68.24-.68h2.08a1.43 1.43 0 001.29-1l.64-2.18c.16-.53.44-.53.63 0l.79 2.19c.232.56.756.946 1.36 1l2.12.07c.56 0 .67.33.25.68l-1.6 1.36a1.69 1.69 0 00-.47 1.62l.52 1.78c.16.54-.1.73-.58.43l-1.73-1.1a1.67 1.67 0 00-1.69 0l-1.71 1.2zM6.43 11.95c-.34.23-.55.09-.45-.31l.36-1.52a1.41 1.41 0 00-.41-1.26l-1.13-1c-.32-.28-.24-.51.18-.52h1.58a1.09 1.09 0 001-.74l.49-1.66c.12-.4.33-.4.48 0l.6 1.66c.17.416.554.707 1 .76l1.61.05c.42 0 .51.25.19.52l-1.22 1a1.28 1.28 0 00-.36 1.23l.4 1.35c.12.41-.08.56-.44.33L9 11a1.27 1.27 0 00-1.28 0l-1.29.95z" fill="#FFF"/></g></svg>