<svg width="71" height="48" xmlns="http://www.w3.org/2000/svg"><g fill-rule="nonzero" fill="none"><path d="M64.4.27H7.13A6.36 6.36 0 00.77 6.63V40.9a6.36 6.36 0 006.36 6.36H64.4a6.36 6.36 0 006.36-6.36V6.63A6.36 6.36 0 0064.4.27z" fill="#FFF"/><path d="M19 19.45a3.48 3.48 0 013.38-1.59c.59.198 1.19.358 1.8.48A2.25 2.25 0 0026.4 17c.44-1.11-.05-2.48.55-3.5a.9.9 0 01.72-.5c.204.019.4.087.57.2a14.85 14.85 0 008.69 1.45 37.39 37.39 0 008.63-2.27 30.05 30.05 0 008.36-4.15c.49-.38 1.29-.75 1.62-.22a.91.91 0 01.06.68 4.82 4.82 0 01-2.55 2.78 24.45 24.45 0 01-4.3 2 6 6 0 00-2.51 1.3 7.27 7.27 0 01-1.16 1.3c-.61.39-1.47.35-1.94.89a2.08 2.08 0 000 2.11 3 3 0 01.34 2.14c-.4 1-1.77 1.15-2.87 1.11-1.1-.04-2.48.14-2.82 1.19-.071.4-.121.804-.15 1.21-.25 1.18-1.65 1.73-2.86 1.74a15.34 15.34 0 00-3.61 0 3.56 3.56 0 00-2.33 1.91c-.28.6-.53 1.4-1.19 1.47-.85.1-1.17-1.06-1.74-1.7a2.85 2.85 0 00-2.13-.79c-.78.045-1.56.045-2.34 0a5.38 5.38 0 01-3.59-2.47A16 16 0 0116 20.7a1.37 1.37 0 010-1.11s.49-.19 1.08.42c.59.61 1.51.05 1.92-.56z" fill="#FFAD54"/><path d="M47.17 29.74a4 4 0 000-.61.35.35 0 00-.24-.3.69.69 0 00-.22 0 1.22 1.22 0 00-.67.26 4.25 4.25 0 00-.55.47c-.202.2-.392.41-.57.63l-.05.07-.06.11v-.57a.35.35 0 00-.46-.35 1.28 1.28 0 00-.89 1.16v.85l-.09-.06a.92.92 0 00-.34-.09H43a1.46 1.46 0 00-1 .54 4.58 4.58 0 00-.83 1.44.69.69 0 00-.22 0 .79.79 0 00-.67.41 2 2 0 00-.38 0h-.09a2.25 2.25 0 00-2 1.44.35.35 0 00-.21-.24.71.71 0 00-.26-.05.79.79 0 00-.66.4l-.11-.05a1.22 1.22 0 00-.3 0c-.42 0-1.5.2-2.47 2a.2.2 0 01-.37.11l-.71.31-.73-.31a.35.35 0 00-.33 0 .36.36 0 000-.14c-1-1.84-2.06-2-2.48-2a.71.71 0 00-.41.09.8.8 0 00-.68-.4.69.69 0 00-.24.05.35.35 0 00-.21.24 2.25 2.25 0 00-2-1.44h-.09a.93.93 0 00-.3 0h-.1a.8.8 0 00-.69-.42h-.2a4.56 4.56 0 00-.83-1.44 1.46 1.46 0 00-1-.54h-.11a1 1 0 00-.37.1l-.09.07v-.85a1.27 1.27 0 00-.84-1.14.35.35 0 00-.5.37s0 .21.06.44v.11l-.09-.16a7.77 7.77 0 00-.6-.66 4.19 4.19 0 00-.55-.47 1.22 1.22 0 00-.68-.26.68.68 0 00-.21 0 .36.36 0 00-.24.31 4 4 0 000 .61c.004.406.141.8.39 1.12.178.194.38.366.6.51h-.44a.35.35 0 00-.3.11.3.3 0 00-.06.29c.029.196.083.388.16.57.142.392.473.686.88.78a5.3 5.3 0 00.84.08.3.3 0 000 .08.94.94 0 00.07.47.8.8 0 00.1.17.35.35 0 00-.21.26 1.06 1.06 0 000 .19.85.85 0 00.13.34c.248.32.603.54 1 .62a4.88 4.88 0 001.76.06 1.43 1.43 0 000 .29.78.78 0 00.16.34.56.56 0 00.13.12.35.35 0 00.1.31 3.25 3.25 0 002.22.81h.05a1.85 1.85 0 00.75-.14 1.5 1.5 0 000 .39.86.86 0 00.19.38.68.68 0 00.51.22.56.56 0 00.41-.17.35.35 0 00.16.2 3.44 3.44 0 001.72.48 3.17 3.17 0 001.64-.45.36.36 0 00.12-.13.35.35 0 00.11.09l-.62.45a.35.35 0 00-.14.27.35.35 0 00.13.28l.31.27.06.05a.35.35 0 00.31.39h.19c.05.01.1.01.15 0l.13-.09.15-.15.37-.45.22-.28.22.28.38.46.15.15.13.09c.05.01.1.01.15 0h.19a.35.35 0 00.31-.39l.06-.05.33-.29a.35.35 0 000-.53l-.61-.45A.35.35 0 0034 38a.36.36 0 00.12.13 3.18 3.18 0 001.64.45 3.44 3.44 0 001.7-.48.35.35 0 00.16-.19.55.55 0 00.4.17.78.78 0 00.51-.22.85.85 0 00.19-.38 1.51 1.51 0 000-.39c.24.1.5.147.76.14a3.25 3.25 0 002.22-.81.33.33 0 00.06-.29A.59.59 0 0042 36a.8.8 0 00.16-.34 1.46 1.46 0 000-.29 4.88 4.88 0 001.76-.06c.397-.08.752-.3 1-.62a.85.85 0 00.13-.34v-.14a.36.36 0 00-.21-.32.8.8 0 00.1-.16.89.89 0 00.07-.43.34.34 0 000-.12 5.43 5.43 0 00.85-.08 1.23 1.23 0 00.88-.78 1.64 1.64 0 00.15-.74.35.35 0 00-.34-.24h-.44a3.24 3.24 0 00.6-.51 1.88 1.88 0 00.46-1.09z" fill="#52C162"/></g></svg>