<svg width="71" height="48" xmlns="http://www.w3.org/2000/svg"><g fill-rule="nonzero" fill="none"><path d="M64.16.55H6.89A6.36 6.36 0 00.53 6.91v17.64h70V6.91A6.36 6.36 0 0064.16.55z" fill="#8CBAE2"/><path d="M.52 41.18a6.36 6.36 0 006.36 6.36h57.27a6.36 6.36 0 006.36-6.36V24.55h-70l.01 16.63z" fill="#52C162"/><path d="M2.43 2.38a6.34 6.34 0 00-1.9 4.54v34.27a6.34 6.34 0 001.95 4.57l23.05-21.21L2.43 2.38z" fill="#FFF"/><path d="M7.77 28.4c-.41.29-.65.13-.53-.37l.45-1.84a1.67 1.67 0 00-.48-1.5l-1.35-1.16c-.38-.33-.28-.61.22-.63l1.89-.05a1.35 1.35 0 001.18-.91l.59-2c.14-.49.4-.5.57 0l.71 2a1.43 1.43 0 001.23.88h1.92c.5 0 .61.28.23.62l-1.46 1.28a1.59 1.59 0 00-.44 1.5l.47 1.62c.14.49-.1.67-.53.4l-1.56-1a1.51 1.51 0 00-1.53 0L7.77 28.4z" fill="#ED5565"/></g></svg>