<svg width="71" height="47" xmlns="http://www.w3.org/2000/svg"><g fill-rule="nonzero" fill="none"><path d="M63.78 0H35.15v47h28.64a6.36 6.36 0 006.36-6.36V6.36A6.36 6.36 0 0063.78 0z" fill="#FFF"/><path d="M6.51 0A6.36 6.36 0 00.15 6.36v34.28A6.36 6.36 0 006.51 47h28.64V0H6.51z" fill="#57A863"/><path d="M38.59 28.82c-.51.35-.81.15-.65-.45l.57-2.23a2 2 0 00-.57-1.83l-1.65-1.43c-.47-.41-.34-.75.28-.76h2.33A1.67 1.67 0 0040.37 21l.76-2.43c.18-.59.5-.6.71 0l.85 2.42a1.76 1.76 0 001.5 1.08l2.37.05c.62 0 .74.35.27.75L45 24.39a1.9 1.9 0 00-.56 1.81l.55 2c.17.6-.13.81-.65.48l-1.91-1.19a1.89 1.89 0 00-1.89 0l-1.95 1.33zM42 32.48A10 10 0 0127.1 24a9.82 9.82 0 01.33-3c1.46-5.302 6.93-8.43 12.24-7a10.11 10.11 0 011.59.58.34.34 0 00.27-.61 12.56 12.56 0 00-19.83 6.48 12.32 12.32 0 00.26 7.34c2.3 6.54 9.438 10.006 16 7.77a12.34 12.34 0 004.27-2.49.34.34 0 00.12-.38.34.34 0 00-.35-.21z" fill="#ED5565"/></g></svg>