<svg width="71" height="48" xmlns="http://www.w3.org/2000/svg"><g fill-rule="nonzero" fill="none"><path d="M63.89.19H6.61A6.36 6.36 0 00.25 6.55v20.64h70V6.56A6.36 6.36 0 0063.89.19z" fill="#F2D660"/><path fill="#4758A9" d="M.25 27.19h70v10h-70z"/><path d="M.25 40.83a6.36 6.36 0 006.36 6.36h57.27a6.36 6.36 0 006.36-6.36v-3.64h-70l.01 3.64z" fill="#ED5565"/><path d="M35.26 36.5c-.479 0-.95-.12-1.37-.35l-2-1.11a2 2 0 01-1-2.35l-1.67.19a4.26 4.26 0 01-4.73-4.24V17a1 1 0 011.71-.71l.18.18v-3a1 1 0 011.71-.71l6.81 6.78 4.24-3.37 3.34-3.3a1 1 0 011.7.71v3.06l.18-.18a1 1 0 011.7.71v11.5a4.26 4.26 0 01-4.73 4.24l-1.69-.19a2 2 0 01-1 2.36l-2 1.1c-.426.22-.9.33-1.38.32zm-3-6a1 1 0 011 1.31l-.46 1.43 2.05 1.13a.87.87 0 00.83 0l2-1.1-.45-1.47a1 1 0 011.06-1.3l3.22.36a2.26 2.26 0 002.51-2.25V19.5l-.18.18a1 1 0 01-1.7-.71v-3.06l-1.67 1.65-.08.07-5 4a1 1 0 01-1.33-.08l-5.73-5.71v3a1 1 0 01-1.71.71l-.18-.18v9.24a2.26 2.26 0 002.51 2.25l3.21-.36h.1zm1.88-3.86a1 1 0 01-.71-.29l-.59-.59a1 1 0 01.6-1.7l1.66-.18h.22c.156.017.306.069.44.15a1 1 0 01.43-.05 1 1 0 01.51 1.78 1 1 0 01-.94.18l-.21-.09-.6.31a1 1 0 01-.62.46 1 1 0 01-.15.04l-.04-.02z" fill="#FFF"/><path d="M26 10.42c0 .38.65.15 2.4.19 1.75.04 2.07.72 3.75 1.36l1.69.64a5.38 5.38 0 00-1.06 2.07c0 .72 3.84-.41 3.84-.41l-.41-.9a2.2 2.2 0 00.6-1 18.12 18.12 0 002.07-.7 5.3 5.3 0 012.79-.83c1.58 0 2.75-.26 2.75-.6a15.29 15.29 0 00-3.17-1.32c-1.17-.38-3.58-.75-4-.41-.42.34-.23 1.21-2.2 1.17-1.65 0-1.43-1.17-2-1.3a8 8 0 00-3.4.17c-.86.36-3.59 1.45-3.65 1.87z" fill="#434A54"/><path d="M30.28 25.45l5-.55 5 .55a2.63 2.63 0 002.93-2.62v-9.28l-1.71 1.69v5.81a3.52 3.52 0 01-3.51 3.51h-5.34a3.52 3.52 0 01-3.51-3.51v-5.92l-1.71-1.71v9.41a2.63 2.63 0 002.85 2.62z" fill="#F2D660"/><path d="M32.58 24.56h5.34a3.52 3.52 0 003.51-3.51v-5.81l-1 1v3.36A4.4 4.4 0 0136 24h-1.51a4.4 4.4 0 01-4.39-4.39v-3.46l-1-1v5.92a3.52 3.52 0 003.48 3.49z" fill="#4758A9"/><path d="M34.49 24H36a4.4 4.4 0 004.39-4.39v-3.36l-.63.62-5 4-4.69-4.67v3.46A4.4 4.4 0 0034.49 24z" fill="#ED5565"/><path d="M36 24.56l2.66 8.4a1 1 0 01-.48 1.2l-2 1.1a1.87 1.87 0 01-1.79 0l-2-1.11a1 1 0 01-.48-1.21l2.41-7.49 1.68-.89z" fill="#F2D660"/><path d="M29.09 31.88l6.16-.68 6.16.68a3.26 3.26 0 003.62-3.24v-11.5l-2.12 2.1v7.2a4.36 4.36 0 01-4.35 4.35h-6.62a4.36 4.36 0 01-4.35-4.35V19.1L25.47 17v11.65a3.26 3.26 0 003.62 3.23z" fill="#F2D660"/><path d="M36.16 35.27l1.36-.75L36 29.69l-1.74.9L33 34.52l1.38.75c.555.3 1.225.3 1.78 0z" fill="#4758A9"/><path d="M31.94 30.79h6.62a4.36 4.36 0 004.35-4.35v-7.2l-1.28 1.27v4.17a5.45 5.45 0 01-5.44 5.44h-1.87a5.45 5.45 0 01-5.44-5.44v-4.29l-1.28-1.28v7.34a4.36 4.36 0 004.34 4.34z" fill="#4758A9"/><path d="M34.31 30.11h1.87a5.45 5.45 0 005.44-5.44V20.5l-.78.77-6.17 4.9-5.81-5.79v4.29a5.45 5.45 0 005.45 5.44z" fill="#ED5565"/><path d="M35.25 28.29c-3 0-5.5-3.21-5.5-7.15 0-3.94 2.47-7.16 5.5-7.16s5.5 3.21 5.5 7.16-2.47 7.15-5.5 7.15zm0-12.31c-1.9 0-3.5 2.36-3.5 5.16 0 2.8 1.6 5.15 3.5 5.15s3.5-2.36 3.5-5.15c0-2.79-1.6-5.14-3.5-5.14v-.02z" fill="#FFF"/><ellipse fill="#3BAFDA" cx="35.25" cy="21.14" rx="4.5" ry="6.15"/></g></svg>