<svg width="71" height="48" xmlns="http://www.w3.org/2000/svg"><g fill-rule="nonzero" fill="none"><path d="M63.78.83H6.51a6.33 6.33 0 00-3.44 1l66.08 23h1V7.2A6.36 6.36 0 0063.78.83z" fill="#52C162"/><path d="M3.11 46.84a6.33 6.33 0 003.4 1h57.27a6.36 6.36 0 006.36-6.36V24.83h-1L3.11 46.84z" fill="#8CBAE2"/><path d="M3.07 1.85A6.35 6.35 0 00.15 7.2v34.27a6.35 6.35 0 003 5.38l66-22-66.08-23z" fill="#ED5565"/><path d="M19.65 33a1.5 1.5 0 00-1.23 1.37h3.89a1.5 1.5 0 00-1.26-1.39c3.8-.08 7.11-1.46 7.71-2.35-.59-.25-1.28.15-1.77.06 1.16-.52 4.65-2.72 4.08-5.07a5.55 5.55 0 01-2.34 2.68c1.3-1.92 3.08-3.92 1.54-5.48a2.31 2.31 0 01-.88 2c.76-2 1.48-4.58-.16-6.26.21.61.13 2.32-.17 2.4-.09-1.38-.33-4.29-1.83-4.25a4 4 0 01.69 2.67 4.14 4.14 0 00-1.56-1.94 8.62 8.62 0 00-3.06-3 3.16 3.16 0 001.55 2.57c-.68 0-1.36-1.3-2.09-1.33-.73-.03-1 .51-2 .2a6.2 6.2 0 00.64.66 1.42 1.42 0 01-1.08-.22 2.3 2.3 0 002.13 1 3.91 3.91 0 012.66.41 4.76 4.76 0 01-1.66 0c.412.54 1.06.85 1.74.83.79 0 1.21-.41 1.41-.16.467.57.885 1.18 1.25 1.82-.92.1-.64-1-1.67-1.58-.58 1.16.66 2.53 1.5 3.1A4.5 4.5 0 0028.2 24c.4.584.565 1.3.46 2a2.92 2.92 0 01-.82-2.52 1.37 1.37 0 00-.58 1.79 1.81 1.81 0 01.11 1.56 1.07 1.07 0 00-.27 1 1.76 1.76 0 01-.63 1.27 2.47 2.47 0 00.08-1.13 19.53 19.53 0 00-1.34 1.61c-.24.56-.3 1.52-1.48 1.74a13 13 0 00-3 .93c-.11-.72.21-2.22.83-2.13.62.09 2.43-.61 1.78-2.11-.1.505-.495.9-1 1 .5-.64 1.4-1.29 1-2.36a3.07 3.07 0 01-1.2 1.3c.62-1.16.07-1.5-.67-.55a5.63 5.63 0 00-.62 2c-.29-.76-.27-1.77-.61-2.58a.74.74 0 01.87-1c1 .25 2.57.25 2.45-1.3a1.84 1.84 0 01-1.93.5c.88-.63 1.58-1.81.6-2.43a2.23 2.23 0 01-1.25 1.73 3.54 3.54 0 010-1.78 5.08 5.08 0 00-.9 2.16 7.07 7.07 0 01.3-2.1c.2-.73.71-.25 1.48-.2.77.05 1.77-.36 1.57-1.34a1.4 1.4 0 01-1.31.5c.64-.38 1.76-1 1.15-2.08a1.31 1.31 0 01-1.09.85 1.91 1.91 0 01.81-1.3c-1-.2-1.62.46-1.92 1.49a14 14 0 01-.3-1.5 1.18 1.18 0 00-.59-2 2.45 2.45 0 00.09 1.25 1.66 1.66 0 00-1.9 0 1.39 1.39 0 001.78.3c-.2.65-.73.54-1.46.29a1.43 1.43 0 001.62.86c.32.83.34 1.46-.61 2.67a2.15 2.15 0 00-.62-1.92c-.52-.5-1 0-.13 1.13a3.4 3.4 0 01-1.23-1.8 3.23 3.23 0 00.49 2.54c-.24.25-.51 0-.92-.64.15 2 1 2.34 2.17 1.9 0 1.08 0 2.07.1 3.37a5.53 5.53 0 00-2-1.82 2.23 2.23 0 00.72 1.6 6.37 6.37 0 01-1.51-.86c-.1.87 1.06 1.68 1.81 2a2.5 2.5 0 01-1.84-.89c0 2.42 2.7 2 3.2 1.63.07 1.19.16 2.57.23 3.76-.76-.13-.7-.35-1.35-.41-1.8-.07-3.23-2.11-3.71-3.6-.14.25 0 .5-.15.81a6.1 6.1 0 00-1.17-2.13 4.72 4.72 0 01.1 1.67 3.37 3.37 0 01-.34-1.29 8.78 8.78 0 00.44-1.47c0-.48-.47-1.52-.54-2.33a8.81 8.81 0 01-.69 2.22 9.05 9.05 0 01.39-2.1 2.27 2.27 0 00.38-1.82 5.83 5.83 0 01-.66 1.06 2.67 2.67 0 011.44-2.1c.54-.28 1.22-1.26.77-1.94a10.48 10.48 0 00-1.45 1.65A3.1 3.1 0 0117 18a1.44 1.44 0 001.26-.58 2.74 2.74 0 01-1.45.1 2 2 0 011.74-.43 1.7 1.7 0 001.68-.8 3.85 3.85 0 01-2.28.14c1-.51 2.58-.56 3.39-1.22-.92-.67-3.22.15-4.67 1.13a10 10 0 001.4-1.52c-.8-.37-2.81 1.8-3.5 3.08a3.26 3.26 0 00-1.18 1.32c.35-1.15.39-2 .68-2.94-2.26.76-1.32 4.81-1.81 5.78a6.16 6.16 0 00-.44-3.15c-.7.52-.75 3.55-.1 6.07a12.47 12.47 0 01-.82-2.13c-1 1.82.6 4 2 5.67a8.57 8.57 0 01-2.71-2.6c.18 3.26 3.69 3.94 4.23 4.74-.74-.33-2.15-1-2.75-.3a7.4 7.4 0 012.38.87c.87 1.13 2.6 1.61 5.6 1.77z" fill="#F6D660"/></g></svg>