<svg width="71" height="48" xmlns="http://www.w3.org/2000/svg"><g fill="none" fill-rule="evenodd"><path fill="#FFCE54" fill-rule="nonzero" d="M.63 10.51h70v27h-70z"/><path d="M64.27.56H7A6.36 6.36 0 00.64 6.92v3.64h70V6.92A6.36 6.36 0 0064.27.56zM.63 41.2a6.36 6.36 0 006.36 6.36h57.27a6.36 6.36 0 006.36-6.36v-3.64h-70l.01 3.64z" fill="#ED5565" fill-rule="nonzero"/><path d="M11.71 27.13V30a3 3 0 003 3h1.7v-5.83l-4.7-.04z" fill="#F6D660" fill-rule="nonzero"/><path d="M13.21 27.13v5.42a3 3 0 00.5.23v-5.65h-.5zM12.13 27.13v4.35a3 3 0 00.5.65v-5h-.5zM14.3 27.13v5.79a3 3 0 00.4 0h.1v-5.83l-.5.04zM15.38 27.13h1v5.83h-1z" fill="#ED5565" fill-rule="nonzero"/><path fill="#ED5565" fill-rule="nonzero" d="M11.71 21.83h4.69v5.29h-4.69zM21.09 30v-2.84H16.4V33h1.7a3 3 0 002.99-3z"/><path fill="#FFF" fill-rule="nonzero" d="M16.4 21.83h4.69v5.29H16.4z"/><circle stroke="#ED5565" stroke-width=".5" fill="#4A89DC" fill-rule="nonzero" cx="16.4" cy="27.13" r="1.52"/><rect fill="#FFF" fill-rule="nonzero" x="8.75" y="21.83" width="1.42" height="9.71" rx=".71"/><rect fill="#FFF" fill-rule="nonzero" x="22.63" y="21.83" width="1.42" height="9.71" rx=".71"/><path d="M20.93 18.39v-.08c0-.8-2-1.45-4.57-1.45-2.57 0-4.57.65-4.57 1.45a.51.51 0 000 .1l1 1.15.36-.1a1.69 1.69 0 00.43-.09 5 5 0 01.6-.22l.66.11.46-.31.54.21.51-.32.48.33.58-.26c.17.13.347.25.53.36l.5-.24.35.37.51-.19.4.44 1.23-1.26z" fill="#ED5565" fill-rule="nonzero"/><path d="M19 19.4l-.36-.37s-.48.24-.52.24a5.91 5.91 0 01-.55-.36l-.61.26-.51-.33-.54.32-.57-.21-.48.31-.7-.11a5.48 5.48 0 00-.63.22 1.86 1.86 0 01-.45.09l-.38.1.29.26.4.7h6l.4-.7.2-.17-.42-.44-.57.19z" fill="#FFF" fill-rule="nonzero"/><ellipse stroke="#FFF" stroke-linecap="round" stroke-linejoin="round" cx="16.39" cy="20.51" rx="2.71" ry="1"/><path d="M13.07 19.81c.43-.3 1.37-.45 3.33-.45M16.39 19.36c2 0 2.9.15 3.33.45" stroke="#FFF" stroke-width=".51" stroke-linecap="round" stroke-linejoin="round"/><ellipse stroke="#FFF" stroke-width=".5" stroke-linecap="round" stroke-linejoin="round" cx="16.39" cy="20.51" rx="2.71" ry="1"/><ellipse fill="#ED5565" fill-rule="nonzero" cx="16.39" cy="20.51" rx="2.71" ry="1"/><path d="M14.21 17.58a.92.92 0 01.17-1.44 1.68 1.68 0 011.7.08l.31.2.31-.2M12 18.31a1.05 1.05 0 01.11-1.55 2.14 2.14 0 011.81-.22M18.58 17.58a.92.92 0 00-.17-1.44 1.68 1.68 0 00-1.7.08M20.78 18.31a1.05 1.05 0 00-.11-1.55 2.14 2.14 0 00-1.81-.22M16.39 17.37v-.94" stroke="#FFF" stroke-width=".5" stroke-linecap="round" stroke-linejoin="round"/><path d="M20.2 19.28c-.28.47-1 .32-.65-.29 0 0-.22.49-.66.41-.27 0-.41-.3-.34-.66a.58.58 0 01-.61.53c-.5 0-.45-.67-.45-.67s0 .59-.55.57a.56.56 0 01-.54-.58.56.56 0 01-.54.6c-.54 0-.55-.57-.55-.57s0 .63-.45.67a.58.58 0 01-.61-.53c.06.36-.07.61-.34.66-.44.08-.66-.41-.66-.41.32.62-.37.76-.65.29" stroke="#FFF" stroke-width=".3" stroke-linecap="round" stroke-linejoin="round"/><circle fill="#4A89DC" fill-rule="nonzero" cx="16.39" cy="15.72" r="1"/></g></svg>