<svg width="71" height="48" xmlns="http://www.w3.org/2000/svg"><g fill-rule="nonzero" fill="none"><path d="M.28 6.76v9h70v-9A6.64 6.64 0 0063.64.12H6.93A6.64 6.64 0 00.28 6.76z" fill="#52C162"/><path fill="#FFCE54" d="M.28 31.46h70V15.79h-70z"/><path d="M.28 40.47a6.64 6.64 0 006.64 6.64h56.72a6.64 6.64 0 006.64-6.64v-9h-70v9z" fill="#ED5565"/><circle fill="#8CBAE2" cx="35.28" cy="23.61" r="14.5"/><path d="M30.48 32.11a1.37 1.37 0 01-.77-.23 1.65 1.65 0 01-.53-1.92l.79-3.27a1.94 1.94 0 00-.58-1.72l-2.36-2a1.55 1.55 0 011-2.87l3.35-.1a1.39 1.39 0 001.18-.95l1-3.53c.35-1.17 1-1.37 1.42-1.38.42-.01 1.08.14 1.5 1.29l1.26 3.53c.234.521.74.868 1.31.9h3.37a1.54 1.54 0 011.05 2.85L40.94 25a1.82 1.82 0 00-.46 1.68l.82 2.83a1.55 1.55 0 01-2.42 1.85l-2.78-1.72a1.68 1.68 0 00-1.67.08l-2.75 1.95a2.08 2.08 0 01-1.2.44zM29.05 22l1.69 1.46a4 4 0 011.18 3.61l-.56 2.33 1.95-1.38a3.7 3.7 0 013.79-.15l2 1.24-.57-2a3.86 3.86 0 011-3.65l1.91-1.67H39a3.57 3.57 0 01-3.1-2.18l-.8-2.23-.65 2.21a3.42 3.42 0 01-3 2.34l-2.4.07z" fill="#FFCE54"/><path d="M31.1 30.85c-.73.52-1.16.23-.95-.65l.79-3.27a3 3 0 00-.85-2.67l-2.4-2.07c-.68-.59-.5-1.09.39-1.12l3.36-.1a2.41 2.41 0 002.1-1.62l1.05-3.58c.26-.87.71-.88 1 0l1.26 3.53a2.53 2.53 0 002.19 1.56h3.42c.9 0 1.08.5.4 1.1l-2.6 2.28a2.82 2.82 0 00-.78 2.66l.83 2.88c.25.87-.17 1.19-.94.72l-2.78-1.72a2.68 2.68 0 00-2.73.09l-2.76 1.98z" fill="#8CBAE2"/></g></svg>