<svg width="71" height="48" xmlns="http://www.w3.org/2000/svg"><g fill="none" fill-rule="evenodd"><rect fill="#FFF" fill-rule="nonzero" x=".9" y=".11" width="70" height="47" rx="6.64"/><path d="M65.07.17H6.74A6.64 6.64 0 001 5.75v35.72a6.64 6.64 0 006.56 5.64h56.72a6.64 6.64 0 006.64-6.64V6.76A6.64 6.64 0 0065.07.17z" fill="#4658A9" fill-rule="nonzero"/><path d="M25.87.12H7.47A6.64 6.64 0 00.9 6.76v17.33h25L25.87.12z" fill="#4658A9" fill-rule="nonzero"/><path d="M11.44 17.52v6.56h3.9v-6.71l6.71 6.71h3.82v-3l-7-7h7v-4h-7l7-7v-3H22l-6.7 6.7V.08h-3.9v6.56L5.24.48a6.66 6.66 0 00-3.63 3.17l6.41 6.41H.9v4h7.16L.9 21.22v2.83h4l6.54-6.53z" fill="#FFF" fill-rule="nonzero"/><path d="M12.44 14.78v9.31h1.9v-9.45l9.45 9.45h2.08v-1.23l-9.78-9.78h9.78v-1.95h-9.78l9.78-9.78V.12h-2.09l-9.45 9.45V.12h-1.9v9.3L4.1 1.08a6.67 6.67 0 00-1.76 1.55l8.49 8.49H.9v1.95h9.93L.9 23v1.09h2.23l9.31-9.31z" fill="#EC5463" fill-rule="nonzero"/><path d="M52.15 15.28a4.81 4.81 0 01-3.75-1.93 4.82 4.82 0 01-3.75 1.93 5.63 5.63 0 01-3.75-1.6v10.46c.07 6.89 7.5 9.74 7.5 9.74s7.5-2.85 7.5-9.74V13.68a5.57 5.57 0 01-3.75 1.6z" stroke="#FFF" stroke-width="2" stroke-linecap="round" stroke-linejoin="round"/><path d="M52.15 15.28a4.81 4.81 0 01-3.75-1.93 4.82 4.82 0 01-3.75 1.93 5.63 5.63 0 01-3.75-1.6v10.46c.07 6.89 7.5 9.74 7.5 9.74s7.5-2.85 7.5-9.74V13.68a5.57 5.57 0 01-3.75 1.6z" fill="#FFF" fill-rule="nonzero"/><path d="M55.89 17.3v-3.62a5.57 5.57 0 01-3.74 1.6 4.88 4.88 0 01-3.75-1.93 4.89 4.89 0 01-3.75 1.93 5.63 5.63 0 01-3.75-1.6v3.62h5.52V22H40.9v2.1a9 9 0 00.22 1.84h5.3v6.87a13.64 13.64 0 002 1 13.68 13.68 0 002-1V26h5.32a8.86 8.86 0 00.21-1.84V22h-5.52v-4.7h5.46z" fill="#ED5565" fill-rule="nonzero"/></g></svg>