<svg width="71" height="48" xmlns="http://www.w3.org/2000/svg"><g fill-rule="nonzero" fill="none"><rect fill="#3BAFDA" x=".77" y=".95" width="70" height="47" rx="6.36"/><path d="M27.72 27.91c.1.43-.12.58-.49.33l-1.37-1a1.51 1.51 0 00-1.41-.08l-1.43.74c-.41.21-.61 0-.45-.38l.61-1.57a1.17 1.17 0 00-.35-1.26l-1.47-1.13c-.35-.27-.27-.49.18-.48h1.89a1.32 1.32 0 001.15-.74l.68-1.58c.18-.42.44-.41.59 0l.56 1.62a1.37 1.37 0 001.09.83l1.5.13c.45 0 .52.29.16.56l-1.34 1a1.36 1.36 0 00-.49 1.28l.39 1.73zM48.72 27.91c.1.43-.12.58-.49.33l-1.37-1a1.51 1.51 0 00-1.41-.08l-1.43.74c-.41.21-.61 0-.45-.38l.61-1.57a1.17 1.17 0 00-.35-1.26l-1.47-1.13c-.35-.27-.27-.49.18-.48h1.89a1.32 1.32 0 001.15-.74l.68-1.58c.18-.42.44-.41.59 0l.56 1.62a1.37 1.37 0 001.09.83l1.5.13c.45 0 .52.29.16.56l-1.34 1a1.36 1.36 0 00-.49 1.28l.39 1.73zM38.22 17.41c.1.43-.12.58-.49.32l-1.37-1a1.51 1.51 0 00-1.41-.08l-1.43.74c-.41.21-.61 0-.45-.38l.61-1.57a1.17 1.17 0 00-.35-1.26l-1.47-1.13c-.35-.27-.27-.49.18-.48h1.89a1.32 1.32 0 001.15-.74l.68-1.58c.18-.42.44-.41.59 0l.56 1.62a1.37 1.37 0 001.09.83l1.5.13c.45 0 .52.29.16.56l-1.34 1a1.36 1.36 0 00-.49 1.28l.39 1.74zM38.22 38.41c.1.43-.12.58-.49.32l-1.37-1a1.51 1.51 0 00-1.41-.08l-1.43.74c-.41.21-.61 0-.45-.38l.61-1.57a1.17 1.17 0 00-.35-1.26l-1.47-1.13c-.35-.27-.27-.49.18-.48h1.89a1.32 1.32 0 001.15-.74l.68-1.58c.18-.42.44-.41.59 0l.56 1.62a1.37 1.37 0 001.09.83l1.5.13c.45 0 .52.29.16.56l-1.34 1a1.36 1.36 0 00-.49 1.28l.39 1.74z" fill="#FFF"/></g></svg>