<svg width="71" height="48" xmlns="http://www.w3.org/2000/svg"><g fill-rule="nonzero" fill="none"><path d="M.25 30.37v10.46a6.64 6.64 0 006.64 6.64h12.44v-17.1H.25zM19.33.47H6.89A6.64 6.64 0 00.25 7.11v10.46h19.08V.47zM32.14 47.47h31.47a6.64 6.64 0 006.64-6.64V30.37H32.14v17.1zM70.25 17.57V7.11A6.64 6.64 0 0063.61.47H32.14v17.1h38.11z" fill="#FFF"/><path fill="#4658A9" d="M28.93 20.77h41.32v-3.2H32.13V.47h-3.2zM28.93 27.17v20.3h3.2v-17.1h38.12v-3.2zM22.53 20.77V.47h-3.19v17.1H.25v3.2zM22.53 27.17H.25v3.2h19.09v17.1h3.19z"/><path fill="#EC5565" d="M28.93.47h-6.4v20.3H.25v6.4h22.28v20.3h6.4v-20.3h41.32v-6.4H28.93z"/></g></svg>