<svg width="71" height="48" xmlns="http://www.w3.org/2000/svg"><g fill-rule="nonzero" fill="none"><rect fill="#ED5565" x=".28" y=".68" width="70" height="47" rx="6.36"/><rect fill="#F6D660" x="5.28" y="5.68" width="60" height="37" rx="3.05"/><path d="M23.5 4.63c-.14.1-.22 0-.18-.12l.15-.61a.55.55 0 00-.16-.5l-.45-.39c-.13-.11-.1-.2.07-.21h.63a.45.45 0 00.39-.3l.2-.67c0-.16.13-.17.19 0l.24.66a.48.48 0 00.41.29h.64c.17 0 .2.09.08.2l-.49.43a.53.53 0 00-.14.5l.16.54c0 .16 0 .22-.18.14l-.52-.32a.5.5 0 00-.51 0l-.53.36zM34.5 4.63c-.14.1-.22 0-.18-.12l.15-.61a.55.55 0 00-.16-.5l-.45-.39c-.13-.11-.1-.2.07-.21h.63a.45.45 0 00.39-.3l.2-.67c0-.16.13-.17.19 0l.24.66a.48.48 0 00.41.29h.64c.17 0 .2.09.08.2l-.49.43a.53.53 0 00-.14.5l.16.54c0 .16 0 .22-.18.14l-.52-.32a.5.5 0 00-.51 0l-.53.36zM45.5 4.63c-.14.1-.22 0-.18-.12l.15-.61a.55.55 0 00-.16-.5l-.45-.39c-.13-.11-.1-.2.07-.21h.63a.45.45 0 00.39-.3l.2-.67c0-.16.13-.17.19 0l.24.66a.48.48 0 00.41.29h.64c.17 0 .2.09.08.2l-.49.43a.53.53 0 00-.14.5l.16.54c0 .16 0 .22-.18.14l-.52-.32a.5.5 0 00-.51 0l-.53.36zM23.5 46.63c-.14.1-.22 0-.18-.12l.15-.61a.55.55 0 00-.16-.5l-.45-.39c-.13-.11-.1-.2.07-.21h.63a.45.45 0 00.39-.3l.2-.67c0-.16.13-.17.19 0l.24.66a.48.48 0 00.41.29h.64c.17 0 .2.09.08.2l-.49.43a.53.53 0 00-.14.5l.16.54c0 .16 0 .22-.18.14l-.52-.32a.5.5 0 00-.51 0l-.53.36zM34.5 46.63c-.14.1-.22 0-.18-.12l.15-.61a.55.55 0 00-.16-.5l-.45-.39c-.13-.11-.1-.2.07-.21h.63a.45.45 0 00.39-.3l.2-.67c0-.16.13-.17.19 0l.24.66a.48.48 0 00.41.29h.64c.17 0 .2.09.08.2l-.49.43a.53.53 0 00-.14.5l.16.54c0 .16 0 .22-.18.14l-.52-.32a.5.5 0 00-.51 0l-.53.36zM45.5 46.63c-.14.1-.22 0-.18-.12l.15-.61a.55.55 0 00-.16-.5l-.45-.39c-.13-.11-.1-.2.07-.21h.63a.45.45 0 00.39-.3l.2-.67c0-.16.13-.17.19 0l.24.66a.48.48 0 00.41.29h.64c.17 0 .2.09.08.2l-.49.43a.53.53 0 00-.14.5l.16.54c0 .16 0 .22-.18.14l-.52-.32a.5.5 0 00-.51 0l-.53.36z" fill="#F6D660"/><path d="M1.53 3.27A6.33 6.33 0 00.28 7v34.27a6.33 6.33 0 001.25 3.77l33.75-20.91L1.53 3.27zM70.28 7A6.33 6.33 0 0069 3.27L35.28 24.18 69 45.09a6.33 6.33 0 001.25-3.77L70.28 7z" fill="#52C162"/><circle fill="#ED5565" cx="35.28" cy="24.18" r="6.5"/><path d="M33.45 27.57c-.32.23-.51.1-.42-.29l.35-1.43a1.3 1.3 0 00-.37-1.17l-1-.91c-.3-.26-.22-.48.17-.49h1.47c.422-.03.784-.31.92-.71L35 21c.11-.38.31-.39.45 0l.55 1.5c.17.404.562.67 1 .68h1.5c.39 0 .47.22.17.48l-1.14 1c-.309.3-.438.74-.34 1.16l.36 1.26c.11.38-.07.52-.41.32l-1.22-.75a1.18 1.18 0 00-1.19 0l-1.28.92z" fill="#F6D660"/></g></svg>