<svg width="71" height="48" xmlns="http://www.w3.org/2000/svg"><g fill-rule="nonzero" fill="none"><rect fill="#FFF" x=".9" y=".4" width="70" height="47" rx="6.36"/><path fill="#ED5565" d="M70.9 19.9h-31V.4h-8v19.5H.9v8h31v19.5h8V27.9h31z"/><path d="M31.9.4H7.27A6.36 6.36 0 00.91 6.76V19.9h31L31.9.4z" fill="#FFF"/><path d="M20.9 7.65h-2v-2a2 2 0 00-2-2h-1a2 2 0 00-2 2v2h-2a2 2 0 00-2 2v1a2 2 0 002 2h2v2a2 2 0 002 2h1a2 2 0 002-2v-2h2a2 2 0 002-2v-1a2 2 0 00-2-2z" fill="#ED5565"/><path d="M64.54.4H39.9v19.5h31V6.76A6.36 6.36 0 0064.54.4z" fill="#FFF"/><path d="M59.9 7.65h-2v-2a2 2 0 00-2-2h-1a2 2 0 00-2 2v2h-2a2 2 0 00-2 2v1a2 2 0 002 2h2v2a2 2 0 002 2h1a2 2 0 002-2v-2h2a2 2 0 002-2v-1a2 2 0 00-2-2z" fill="#ED5565"/><path d="M31.9 47.4H7.27A6.36 6.36 0 01.9 41V27.9h31v19.5z" fill="#FFF"/><path d="M20.9 40.15h-2v2a2 2 0 01-2 2h-1a2 2 0 01-2-2v-2h-2a2 2 0 01-2-2v-1a2 2 0 012-2h2v-2a2 2 0 012-2h1a2 2 0 012 2v2h2a2 2 0 012 2v1a2 2 0 01-2 2z" fill="#ED5565"/><path d="M64.54 47.4H39.9V27.9h31V41a6.36 6.36 0 01-6.36 6.4z" fill="#FFF"/><path d="M59.9 40.15h-2v2a2 2 0 01-2 2h-1a2 2 0 01-2-2v-2h-2a2 2 0 01-2-2v-1a2 2 0 012-2h2v-2a2 2 0 012-2h1a2 2 0 012 2v2h2a2 2 0 012 2v1a2 2 0 01-2 2z" fill="#ED5565"/></g></svg>