<svg width="71" height="48" xmlns="http://www.w3.org/2000/svg"><g fill-rule="nonzero" fill="none"><path d="M.15 7v9h70V7A6.64 6.64 0 0063.51.36H6.79A6.64 6.64 0 00.15 7z" fill="#ED5565"/><path fill="#F6D660" d="M.15 31.74h70V16.07h-70z"/><path d="M.15 40.76a6.64 6.64 0 006.64 6.64H63.5a6.64 6.64 0 006.64-6.64v-9h-70l.01 9z" fill="#52C162"/><path d="M32.27 29.22c-.5.36-.8.16-.65-.45l.55-2.25a2 2 0 00-.59-1.84l-1.65-1.42c-.47-.4-.35-.75.27-.77l2.3-.07a1.66 1.66 0 001.44-1.12l.72-2.46c.17-.6.49-.61.7 0l.87 2.42a1.74 1.74 0 001.5 1.08h2.35c.62 0 .74.35.27.75l-1.79 1.57a1.94 1.94 0 00-.53 1.83l.57 2c.17.6-.12.82-.64.5l-1.91-1.18a1.84 1.84 0 00-1.87.06l-1.91 1.35z" fill="#434A54"/></g></svg>