<svg width="71" height="48" xmlns="http://www.w3.org/2000/svg"><g fill-rule="nonzero" fill="none"><path fill="#FFF" d="M.77 36.95h70v5.22h-70z"/><path fill="#4A89DC" d="M.77 31.73h70v5.22h-70z"/><path fill="#FFF" d="M.77 26.51h70v5.22h-70z"/><path fill="#4A89DC" d="M.77 21.29h70v5.22h-70z"/><path fill="#FFF" d="M.77 16.06h70v5.22h-70z"/><path fill="#4A89DC" d="M.77 10.84h70v5.22h-70z"/><path fill="#FFF" d="M1.37 5.62h69.4v5.22H1.37z"/><path d="M7.13 47.4H64.4a6.36 6.36 0 006.26-5.22H.87a6.36 6.36 0 006.26 5.22zM64.4.4H7.13A6.36 6.36 0 00.87 5.62h69.78A6.36 6.36 0 0064.4.4z" fill="#4A89DC"/><path d="M7.13.4h19.75v26.11H.77V6.76A6.36 6.36 0 017.13.4z" fill="#4A89DC"/><path fill="#FFF" d="M.77 10.84h26.11v5.22H.77z"/><path fill="#FFF" d="M11.21.4h5.22v26.11h-5.22z"/></g></svg>