<svg width="71" height="47" xmlns="http://www.w3.org/2000/svg"><g transform="translate(0 -1)" fill-rule="nonzero" fill="none"><path d="M64.75 1H6.43A6.64 6.64 0 00.68 6.58V42.3a6.64 6.64 0 006.56 5.64h56.72a6.64 6.64 0 006.64-6.64V7.58A6.64 6.64 0 0064.75 1z" fill="#4658A9"/><path d="M64.69 2a5.64 5.64 0 014.9 5.59v33.72a5.65 5.65 0 01-5.64 5.64H7.23a5.67 5.67 0 01-5.56-4.72V6.66A5.64 5.64 0 016.49 2h58.2zm.06-1H6.43A6.64 6.64 0 00.68 6.58V42.3a6.64 6.64 0 006.56 5.64h56.72a6.64 6.64 0 006.64-6.64V7.58A6.64 6.64 0 0064.76.99l-.01.01z" fill="#EC5565"/><path d="M35.92 8.54a.47.47 0 00-.58 0c-1.63 1.29-9.59 8-9.59 15.79 0 7.42 7.24 14 9.32 15.78a.89.89 0 001.12 0c2.09-1.65 9.24-7.86 9.24-15.79 0-8.32-7.88-14.57-9.51-15.78zm-.3 1.57s-8.78 6.54-8.78 14.25 8.78 14.44 8.78 14.44 8.73-6.17 8.73-14.44-8.73-14.26-8.73-14.26v.01z" fill="#EC5565"/><path d="M35.62 10.1s-8.78 6.54-8.78 14.25 8.78 14.44 8.78 14.44 8.73-6.17 8.73-14.44-8.73-14.25-8.73-14.25z" fill="#92DBFC"/><path d="M43.42 29.07H27.84c2.31 5.55 7.77 9.74 7.77 9.74s5.56-3.95 7.81-9.74z" fill="#3CAFDA"/><path d="M44 27.37c-1.44 1-9.53.53-9.53.53l-.45 1.15h9.64c0-.16.14-.35.17-.51l.17-1.17z" fill="#E77329"/><path d="M29.5 32.14c.411.008.815.11 1.18.3a3.19 3.19 0 001.74.35c.74 0 1.32.56 2.12.58 1.47 0 2.09.77.95.77a22 22 0 00-2.26-.29 3.2 3.2 0 00-2 .65 25.87 25.87 0 01-1.73-2.36zm2.91 3.67a1.84 1.84 0 011-.46c.69 0 .92-.45 1.72-.45a8 8 0 002.85-.27c1.27-.29.67-1.18-.1-1.51-.77-.33-1.79 0-2.51-.28-.55-.21-.1-.56.2-.63a3.09 3.09 0 011 .1 9.47 9.47 0 002.07-.09c1.2-.18 1.15-.54 1.73-.54a1.84 1.84 0 001-.35c.34-.23.69-.69 1.1-.67h.24a25.66 25.66 0 01-7.08 8.11 29.33 29.33 0 01-3.22-2.96z" fill="#F2D660"/><path d="M38.23 32.22a1.07 1.07 0 001 1c.63.16 1.59-.46 1-1.05-.59-.59-1.17-.69-1.67-1.19a11.36 11.36 0 01-2.39-3.93c-.56-1.67-.46-6.38-.44-8.76 0 0 .07 0 .08-.06.01-.06.07 0 0-.33 0-.09-.09-.18-.09-.27 0-.09-.56.18-.71.46 0 .07.11.25.11.29 0 2.29-.23 6.8.38 8.85a11 11 0 001.68 3.15 6.89 6.89 0 011.05 1.84z" fill="#8C4200"/><path d="M31 25.53h-.06a1.21 1.21 0 01-.55-.22 1.1 1.1 0 01-.41-.74 2 2 0 010-.4c.03-.226.12-.44.26-.62l.16-.15a1.06 1.06 0 01.39-.18 1.41 1.41 0 01.72 0 .8.8 0 01.4.28c.075.11.13.231.16.36a.09.09 0 01-.06.1H31.67c-.03 0 0 0 0-.09v-.11a.31.31 0 00-.07-.1.29.29 0 00-.1-.07.7.7 0 00-.4-.06.68.68 0 00-.31.12.8.8 0 00-.25.67.63.63 0 00.54.7 1 1 0 00.29 0 1.15 1.15 0 00.35-.14v-.26H31v-.17-.17h1V25.16l-.07.06a1.48 1.48 0 01-.71.29l-.22.02zM33.46 25.55a.89.89 0 01-.57-.23.84.84 0 01-.23-.57v-.77a4.47 4.47 0 010-.71h.37v1.5a.35.35 0 00.1.24.4.4 0 00.3.11.64.64 0 00.31-.05c.09 0 .14-.12.17-.28a5.89 5.89 0 000-.77v-.76h.4v.64a7.49 7.49 0 010 .89.76.76 0 01-.29.55l-.13.08a.93.93 0 01-.29.09l-.14.04zM36.29 25.51a.08.08 0 010-.08s.81-2.12.83-2.13c.02-.01 0 0 .22 0h.22l.44 1.08c.38.93.43 1.06.43 1.09a.08.08 0 010 .07h-.4l-.15-.34-.11-.27h-.76l-.11.29-.11.3h-.19l-.31-.01zm1.21-1.06l-.21-.57-.22.58h.45l-.02-.01zM39 25.51a.1.1 0 01-.06-.06v-2.18h.53l.27.78.26.77.27-.76c.16-.48.27-.77.28-.78.01-.01 0 0 .26 0h.23V25.47H40.7v-1.25.08l-.22.62a2.86 2.86 0 01-.21.56h-.31l-.22-.64-.22-.63v1.29H39v.01z" fill="#EC5565"/><path d="M29.82 17.58a.85.85 0 010 .29s.56-.45.56-.43v.3s.54-.52.57-.46c.013.12.013.24 0 .36l.43-.47v.25s.59-.44.63-.45c.04-.01.1.24.1.31s.55-.31.52-.27v.28c.24-.073.49-.113.74-.12.07 0 .07 0 0 .07a4.39 4.39 0 00-2.35 2 1 1 0 00-.17.64s.19-.41.41-.47c0 0 0 .26.08.25a3.33 3.33 0 01.28-.56s.08.22.12.18c.054-.17.14-.33.25-.47 0 0 .07.26.09.24.02-.02.33-.55.4-.58.07-.03.05.33.1.3a2.23 2.23 0 01.39-.58c.09-.06.09.27.09.27a5.43 5.43 0 00.49-.62c0-.06 0 .4.07.42.07.02.46-.35.51-.36.05-.01.06.11 0 .2l-.5.57h.2c.07 0-.38.39-.37.45.01.06.28 0 .19 0-.09 0-.44.52-.44.5 0-.02.19 0 .19.06a3.21 3.21 0 01-.31.61h.19c.02 0-.32.51-.25.58.07.07.21 0 .29 0 .074.233.118.475.13.72a7 7 0 01.21-.91c0-.13.21.19.22.16a4.31 4.31 0 010-.66c0-.06.12.06.12 0a1.62 1.62 0 010-.38c0-.09.12.17.15.1a1.73 1.73 0 01-.07-.58c0-.08.11.2.16.21a1.3 1.3 0 010-.44l.16.18c0-.06 0-.6.06-.65.06-.05.2.2.22.17.02-.03-.07-.44-.05-.47.02-.03.22.11.22.11s.07-.27.11-.34c.04-.07.58-.22.63-.08a.55.55 0 010 .25.91.91 0 00.25 0 2.72 2.72 0 000 .47h.25v.25h.17a.64.64 0 01-.09.39h.23c.03.185.03.375 0 .56 0 0 .24-.17.24-.15v.65s.16-.15.17-.09c.01.06 0 .47 0 .49.093-.01.187-.01.28 0a.68.68 0 01.16.52 1.94 1.94 0 000-.81s.2 0 .19-.06a.76.76 0 01-.3-.51c0-.08.21-.06.21-.06s-.18-.17-.27-.32c-.09-.15.24-.07.24-.08 0-.01-.23-.21-.35-.35-.12-.14.25-.07.25-.07s-.37-.17-.52-.33c-.15-.16.29-.17.29-.19 0-.02-.39-.17-.56-.31-.17-.14.22-.13.22-.13s-.58-.42-.3-.39c.12 0 .36.18.38.16a.83.83 0 010-.24c.09-.1.41.41.52.39.11-.02 0-.36.09-.37.09-.01.26.53.38.53s0-.32.08-.34c.08-.02.14.36.23.44.09.08.08-.29.13-.22.05.07.1.35.21.46.11.11.08-.33.16-.27s.07.27.17.37c.1.1.08-.26.14-.22.06.04.08.42.13.48s.14-.2.21-.16c.07.04 0 .36.08.43s.14-.18.21-.13c.07.05.14.41.18.44.04.03.14-.17.2-.14s.15.51.19.5a2.39 2.39 0 00-.33-1.56 4.26 4.26 0 00-2.92-1.2s.5-.1.52-.18c.02-.08.28-.15.45-.11.17.04 0-.29 0-.3a.87.87 0 01.44.18s-.09-.3 0-.27c.09.03.4.14.53.28s0-.25 0-.25.28.11.36.24c.08.13 0-.34 0-.27s.33.11.37.25c.04.14 0-.25.07-.24.07.01.25.26.36.29.11.03 0-.23 0-.22.18.054.355.128.52.22-.14-.35-.68-.73-1.62-.82a5.35 5.35 0 00-1.47.09c-.49.11-.88.18-.8.1a2.5 2.5 0 011-.43c.1-.05-.35-.23-.26-.25.09-.02.49-.05.49-.05s-.29-.2-.24-.3c.05-.1.78 0 .84-.09.06-.09-.29-.21-.27-.23.02-.02.64.07.66 0l-.31-.25.53-.16a.88.88 0 00-.22-.12c-.11 0 .48-.2.48-.2-.75-.34-2.71.64-3.1 1.65-.1.24-.1 0-.08-.23a3 3 0 000-.62c0-.06-.16.16-.17.1 0-.22.08-.45 0-.69 0-.08-.22.24-.25.16-.03-.08.06-.53 0-.84 0-.12-.21.26-.28.15-.07-.11 0-.58-.08-.65-.08-.07-.2.22-.21.17-.23-.84.08-.95-.37-.47 0 0-.11-.5-.13-.48-.18.39-.48-.28-.58-.22-.1.06.21.31.21.42 0 .11-.26.06-.26.06s.5.37.52.47c.02.1-.35.07-.35.07s.42.23.45.36c.03.13-.19.08-.19.15 0 .07.4.32.41.43.01.11-.25.11-.25.18 0 .07.51.37.52.46.01.09-.21.06-.3.11s.43.41.45.5c.02.09-.22 0-.23.08-.01.08.27.25.34.41.07.16 0 .21-.1.14-.1-.07-.95-.94-1.15-1.15a2.34 2.34 0 00-1.49-.68c-.06 0 .32.29.32.39 0 .1-.17.06-.16.07.135.097.283.174.44.23l-.09.17s.18.06.43.15c0 0-.19.12-.17.13.12.079.252.14.39.18l-.25.08.57.28a1.66 1.66 0 00-.17.17c.152.06.31.108.47.14l-.3.11c.11.11.42.15.5.34 0 0 0 .11-.08.09a5.14 5.14 0 00-2.69-.4 4 4 0 00-2.6 1.61s.6-.28.66-.2z" fill="#51C161"/><circle fill="#8C4200" transform="rotate(-32.79 35.51 17.62)" cx="35.32" cy="17.45" r="1"/><circle fill="#8C4200" transform="rotate(-57.21 35.893 18.068)" cx="35.773" cy="17.928" r="1"/><circle fill="#8C4200" transform="rotate(-57.21 35.421 18.38)" cx="35.331" cy="18.261" r="1"/><path fill="#434A54" d="M32.36 30.37h1v1h-1z"/><path d="M30 30.59a22.48 22.48 0 005-.17s.16.11-.07.38-.81.33-1.13.38a.8.8 0 00-.07.26c0 .09.2.08.3.06h.1s0 .34-1.22.38c-.39 0-1.66 0-1.93-.34.096.01.194.01.29 0 .06 0 0-.26 0-.3a2.44 2.44 0 01-1.25-.39.54.54 0 01-.15-.27l.13.01zm1.62.65a8.64 8.64 0 001.83 0 .54.54 0 010 .26 5.47 5.47 0 01-1.74 0c-.13 0-.13-.11-.1-.25l.01-.01z" fill="#8C4200"/><path d="M30.42 30.44a4.69 4.69 0 00.8-3.78 4.9 4.9 0 012.43 2.08 4.57 4.57 0 01.78 1.64l-4.01.06z" fill="#FDF9FF"/></g></svg>