<svg width="71" height="48" xmlns="http://www.w3.org/2000/svg"><g fill-rule="nonzero" fill="none"><path d="M64.16.68H6.89A6.36 6.36 0 00.53 7.04v17.64h70V7A6.36 6.36 0 0064.16.68z" fill="#F6D660"/><path d="M.52 41.32a6.36 6.36 0 006.36 6.36h57.27a6.36 6.36 0 006.36-6.36V24.68h-70l.01 16.64z" fill="#52C162"/><path d="M6.89.68A6.36 6.36 0 00.53 7.04v34.27a6.36 6.36 0 006.36 6.36h16.64v-47L6.89.68z" fill="#ED5565"/><path d="M9.15 29.5c-.5.36-.8.16-.65-.45l.54-2.25a2 2 0 00-.59-1.84L6.8 23.54c-.47-.4-.35-.75.27-.77l2.31-.07a1.66 1.66 0 001.44-1.12l.72-2.46c.17-.6.49-.6.7 0l.87 2.42a1.74 1.74 0 001.5 1.08h2.35c.62 0 .74.35.27.75L15.45 25a1.94 1.94 0 00-.53 1.83l.57 2c.17.6-.12.82-.64.5l-1.91-1.18a1.85 1.85 0 00-1.88.06L9.15 29.5z" fill="#434A54"/></g></svg>