<svg width="71" height="48" xmlns="http://www.w3.org/2000/svg"><g fill-rule="nonzero" fill="none"><rect fill="#52C162" x=".77" y=".68" width="70" height="47" rx="6.36"/><path d="M3.47 1.85a6.35 6.35 0 00-2.7 5.2v34.27a6.35 6.35 0 002.93 5.35l55.44-21.89L3.47 1.85z" fill="#FFF"/><path d="M1.42 4.25a6.33 6.33 0 00-.65 2.8v34.27a6.33 6.33 0 00.75 3l49.61-19.58L1.42 4.25z" fill="#FFCE54"/><path d="M2.39 2.81A6.33 6.33 0 00.76 7.05v34.27a6.34 6.34 0 001.78 4.41l30-20.95L2.39 2.81z" fill="#434A54"/><path d="M1 5.48a6.36 6.36 0 00-.2 1.57v34.27a6.36 6.36 0 00.26 1.81l26.32-18.4L1 5.48z" fill="#ED5565"/></g></svg>