<svg width="71" height="48" xmlns="http://www.w3.org/2000/svg"><g fill-rule="nonzero" fill="none"><rect fill="#EC5565" x=".25" y=".75" width="70" height="47" rx="6.64"/><g fill="#FFF"><path d="M36 11a8.4 8.4 0 011.82-.08 2.72 2.72 0 00-1.26 1.24 2.44 2.44 0 000 2c.15.37.42.68.54 1.06a3.46 3.46 0 01-.11 2.33 3.86 3.86 0 01-1.16 1.66c-.28.23-.64.34-.94.55a3.22 3.22 0 00-1.52 2.4 2.8 2.8 0 00.73 2.14 4.89 4.89 0 01-1.85-3.18 5.45 5.45 0 01.76-3.74l-.17-.11a5.61 5.61 0 00.3 6.39 4.4 4.4 0 00.69.69 8.08 8.08 0 01-2.55-2 6.44 6.44 0 01-1.46-3.71A7.33 7.33 0 0136 11zm-2.69 4.24c0 .287.017.573.05.86l-.76.43.84.21.17.85.46-.73.86.1-.55-.67.36-.78-.8.32-.63-.59zM22.16 22a7.52 7.52 0 01.33-4.73c.08.6.358 1.156.79 1.58a2.42 2.42 0 001.84.57c.43 0 .84-.2 1.28-.19.862.044 1.68.4 2.3 1a3.84 3.84 0 011 1.39c.18.41.15.88.3 1.3a3.16 3.16 0 002.09 2.15 2.89 2.89 0 001.92-.12 4.93 4.93 0 01-3.63.75 5.48 5.48 0 01-3.27-1.87l-.15.13a5.66 5.66 0 003.14 1.89 5.26 5.26 0 003.57-.45c.09-.06.25-.07.26-.21v.08c-.25.17-.45.39-.69.57a7.15 7.15 0 01-3.09 1.49 6.5 6.5 0 01-3.77-.39 7.41 7.41 0 01-4.28-4.91l.06-.03zm3.69-.36c0 .29 0 .57.05.86l-.75.43.82.2c.08.28.12.57.18.86l.46-.73.86.1-.55-.67.36-.78-.8.31-.63-.58z"/><path d="M39.46 18.08a7.4 7.4 0 016.79 1.55 7.52 7.52 0 012.33 3.87 2.67 2.67 0 00-1.63-.82 2.45 2.45 0 00-1.8.66c-.32.27-.54.64-.89.88a3.66 3.66 0 01-2.6.54 3.25 3.25 0 01-2-.94 3.51 3.51 0 00-1.67-1 2.94 2.94 0 00-2.4.39 3 3 0 00-.85.91 4.84 4.84 0 012.17-2.57 5.45 5.45 0 014.06-.59l.06-.19a5.51 5.51 0 00-6.42 3.08 7.74 7.74 0 011.4-3.42 6.47 6.47 0 013.45-2.34v-.01zm2.18 2.2c0 .29 0 .58.05.86l-.75.42.84.22c.06.28.11.56.17.85l.47-.73.86.1-.55-.67.36-.78-.8.32-.65-.59z"/><path d="M35.25 24.46a7.67 7.67 0 013.92.35 6.49 6.49 0 013.25 2.74 7.4 7.4 0 01.18 7.23 7.62 7.62 0 01-2.69 2.84 2.61 2.61 0 00.22-2 2.74 2.74 0 00-1.67-1.58 3 3 0 01-1.63-1.71 4.06 4.06 0 01-.24-2.47 9.45 9.45 0 01.48-1.1 3.25 3.25 0 00-.07-2.58 2.71 2.71 0 00-2-1.52 4.6 4.6 0 012.83 1 5.46 5.46 0 012.16 4h.2a5.63 5.63 0 00-3.73-4.91 4.41 4.41 0 00-1.22-.23l.01-.06zm4.14 5.36v.88c-.25.13-.5.27-.74.41l.83.21c.06.28.11.57.17.85l.46-.73.86.1-.55-.67.36-.78-.8.32-.59-.59z"/><path d="M34.62 25.08a5.18 5.18 0 01-1.63 5.32 5.48 5.48 0 01-1.55 1l.07.19a5.65 5.65 0 003.5-4.7 4.88 4.88 0 00-.13-1.58 7.74 7.74 0 01.87 3.84 6.54 6.54 0 01-1.88 4.23 7.41 7.41 0 01-6.57 2.1 7.61 7.61 0 01-3.51-1.67 2.69 2.69 0 001.8-.3 2.46 2.46 0 001.07-1.6c.1-.4.06-.83.2-1.22a3.55 3.55 0 011.56-1.84 3.81 3.81 0 011.78-.59c.38 0 .75.11 1.13.12a3.22 3.22 0 002.61-1.06c.52-.603.76-1.4.66-2.19l.02-.05zm-4.96 5.54c0 .29 0 .57.05.86l-.75.42c.28.07.57.14.84.23 0 .28.11.56.16.84l.46-.73.86.1c-.18-.22-.36-.44-.55-.66.11-.27.24-.53.36-.79l-.8.32-.63-.59z"/></g></g></svg>