<svg width="71" height="48" xmlns="http://www.w3.org/2000/svg"><g fill-rule="nonzero" fill="none"><path d="M.9 7.61v9h70v-9A6.64 6.64 0 0064.26.97H7.55A6.64 6.64 0 00.9 7.61z" fill="#3BAFDA"/><path fill="#FFF" d="M.9 32.31h70V16.64H.9z"/><path d="M.9 41.32A6.64 6.64 0 007.55 48h56.72a6.64 6.64 0 006.64-6.64v-9h-70L.9 41.32zM34.6 26.88c-.23.16-.36.07-.3-.2l.25-1a.93.93 0 00-.27-.83l-.74-.65c-.21-.18-.16-.34.12-.35h1a.75.75 0 00.65-.51l.33-1.12c.08-.27.22-.27.32 0l.39 1.1a.79.79 0 00.68.49h1.06c.28 0 .34.16.13.34l-.81.71a.89.89 0 00-.24.83l.26.9c.08.27-.05.37-.29.22l-.86-.54a.83.83 0 00-.85 0l-.83.61zM23.6 23.38c-.23.16-.36.07-.3-.2l.25-1a.93.93 0 00-.27-.83l-.74-.65c-.21-.18-.16-.34.12-.35h1a.75.75 0 00.65-.51l.33-1.12c.08-.27.22-.27.32 0l.39 1.1a.79.79 0 00.68.49h1.06c.28 0 .34.16.13.34l-.81.71a.89.89 0 00-.24.83l.26.9c.08.27-.05.37-.29.22l-.86-.54a.83.83 0 00-.85 0l-.83.61zM23.6 30.38c-.23.16-.36.07-.3-.2l.25-1a.93.93 0 00-.27-.83l-.74-.65c-.21-.18-.16-.34.12-.35h1a.75.75 0 00.65-.51l.33-1.12c.08-.27.22-.28.32 0l.39 1.1a.79.79 0 00.68.49h1.06c.28 0 .34.16.13.34l-.81.71a.89.89 0 00-.24.83l.26.9c.08.27-.05.37-.29.22l-.86-.54a.83.83 0 00-.85 0l-.83.61zM45.6 23.38c-.23.16-.36.07-.3-.2l.25-1a.93.93 0 00-.27-.83l-.74-.65c-.21-.18-.16-.34.12-.35h1a.75.75 0 00.65-.51l.33-1.12c.08-.27.22-.27.32 0l.39 1.1a.79.79 0 00.68.49h1.06c.28 0 .34.16.13.34l-.81.71a.89.89 0 00-.24.83l.26.9c.08.27-.05.37-.29.22l-.86-.54a.83.83 0 00-.85 0l-.83.61zM45.6 30.38c-.23.16-.36.07-.3-.2l.25-1a.93.93 0 00-.27-.83l-.74-.65c-.21-.18-.16-.34.12-.35h1a.75.75 0 00.65-.51l.33-1.12c.08-.27.22-.28.32 0l.39 1.1a.79.79 0 00.68.49h1.06c.28 0 .34.16.13.34l-.81.71a.89.89 0 00-.24.83l.26.9c.08.27-.05.37-.29.22l-.86-.54a.83.83 0 00-.85 0l-.83.61z" fill="#3BAFDA"/></g></svg>