<svg width="71" height="48" xmlns="http://www.w3.org/2000/svg"><g fill-rule="nonzero" fill="none"><path d="M.52 6.91v9h70v-9A6.64 6.64 0 0063.88.27H7.17A6.64 6.64 0 00.52 6.91z" fill="#ED5565"/><path fill="#FFF" d="M.52 31.61h70V15.94h-70z"/><path d="M.52 40.62a6.64 6.64 0 006.64 6.64h56.72a6.64 6.64 0 006.64-6.64v-9h-70v9z" fill="#4758A9"/><path d="M36.29 37.09H34.9a8.24 8.24 0 01-8.25-8.21v-11h17.89v11a8.24 8.24 0 01-8.25 8.21zm-7.64-17.17v9a6.24 6.24 0 006.25 6.21h1.39a6.24 6.24 0 006.25-6.21v-9H28.65z" fill="#FFF"/><path d="M40.36 34.84a7.31 7.31 0 002.09-2.18h-2.09v2.18z" fill="#ED5565"/><path d="M40.36 32.66h2.09a7.11 7.11 0 001.07-3.43h-3.16v3.43z" fill="#FFF"/><path d="M40.36 29.23h3.16V25.8h-3.18l.02 3.43z" fill="#ED5565"/><path fill="#FFF" d="M40.36 22.36h3.18v3.43h-3.18z"/><path fill="#ED5565" d="M40.36 18.92h3.18v3.43h-3.18z"/><path d="M37.18 32.66V36a7.23 7.23 0 003.18-1.19v-2.18l-3.18.03z" fill="#FFF"/><path fill="#ED5565" d="M37.18 29.23h3.18v3.43h-3.18z"/><path fill="#FFF" d="M37.18 25.79h3.18v3.43h-3.18z"/><path fill="#ED5565" d="M37.18 22.36h3.18v3.43h-3.18z"/><path fill="#FFF" d="M37.18 18.92h3.18v3.43h-3.18z"/><path d="M34 32.66V36c.298.039.599.059.9.06h1.39a7.26 7.26 0 00.9-.06v-3.37l-3.19.03z" fill="#ED5565"/><path fill="#FFF" d="M34 29.23h3.18v3.43H34z"/><path fill="#ED5565" d="M34 25.79h3.18v3.43H34z"/><path fill="#FFF" d="M34 22.36h3.18v3.43H34z"/><path fill="#ED5565" d="M34 18.92h3.18v3.43H34z"/><path d="M30.83 32.66v2.18A7.23 7.23 0 0034 36v-3.37l-3.17.03z" fill="#FFF"/><path fill="#ED5565" d="M30.83 29.23h3.18v3.43h-3.18z"/><path fill="#FFF" d="M30.83 25.79h3.18v3.43h-3.18z"/><path fill="#ED5565" d="M30.83 22.36h3.18v3.43h-3.18z"/><path fill="#FFF" d="M30.83 18.92h3.18v3.43h-3.18z"/><path d="M28.74 32.66a7.31 7.31 0 002.09 2.18v-2.18h-2.09z" fill="#ED5565"/><path d="M30.83 29.23h-3.16a7.11 7.11 0 001.07 3.43h2.09v-3.43z" fill="#FFF"/><path d="M30.83 25.79h-3.18V29.22h3.16l.02-3.43z" fill="#ED5565"/><path fill="#FFF" d="M27.65 22.36h3.18v3.43h-3.18z"/><path fill="#ED5565" d="M27.65 18.92h3.18v3.43h-3.18z"/><path d="M35.56 16c2.558 0 5.106.31 7.59.92a.66.66 0 00.75-.35l2.13-4.34a.67.67 0 00-.42-.94 37.9 37.9 0 00-20.25 0 .67.67 0 00-.41.94l2.13 4.34a.66.66 0 00.75.35 31.84 31.84 0 017.73-.92z" fill="#4758A9"/></g></svg>