<svg width="71" height="47" xmlns="http://www.w3.org/2000/svg"><g fill="none" fill-rule="evenodd"><g fill-rule="nonzero"><path d="M63.92 0H6.65A6.36 6.36 0 00.29 6.36V24h70V6.33A6.36 6.36 0 0063.92 0z" fill="#4758A9"/><path d="M.28 40.6A6.36 6.36 0 006.65 47h57.27a6.36 6.36 0 006.36-6.36V24h-70v16.6z" fill="#ED5565"/></g><path fill="#FFF" fill-rule="nonzero" d="M21.28 11.84h28v23.25h-28z"/><path fill="#57A863" fill-rule="nonzero" d="M35.12 26.45L21.28 32.2v2.89h28V32.2z"/><path fill="#4758A9" fill-rule="nonzero" d="M45.05 24.21l-8.78 4.85h8.14zM35.29 27.52l6.69-3.34-.88-4.19-5.81 6.43"/><path d="M42.1 18.84l-6.81 7.59" stroke="#F6D660" stroke-width=".6" stroke-linecap="round" stroke-linejoin="round"/><circle fill="#F6D660" fill-rule="nonzero" transform="rotate(-19.58 41.071 20.002)" cx="41.071" cy="20.002" r="1"/><path fill="#4758A9" fill-rule="nonzero" d="M35.29 28.66l8.14-2.34-.11-4.28-7.98 6.11"/><path d="M44.49 21.09l-9.19 7" stroke="#F6D660" stroke-width=".6" stroke-linecap="round" stroke-linejoin="round"/><circle fill="#F6D660" fill-rule="nonzero" transform="rotate(-8.75 43.305 22.037)" cx="43.305" cy="22.037" r="1"/><path d="M35.28 29.51l11.12-6.05" stroke="#F6D660" stroke-width=".6" stroke-linecap="round" stroke-linejoin="round"/><circle fill="#F6D660" fill-rule="nonzero" cx="45.05" cy="24.21" r="1"/><path fill="#4758A9" fill-rule="nonzero" d="M25.52 24.21l.64 4.85h8.14zM35.27 27.52l-6.69-3.34.88-4.19 5.81 6.43"/><path fill="#4758A9" fill-rule="nonzero" d="M35.27 28.66l-8.13-2.34.11-4.28 7.98 6.11"/><path d="M28.47 18.84l6.8 7.59" stroke="#F6D660" stroke-width=".6" stroke-linecap="round" stroke-linejoin="round"/><circle fill="#F6D660" fill-rule="nonzero" transform="rotate(-70.42 29.492 19.984)" cx="29.492" cy="19.984" r="1"/><path d="M26.08 21.09l9.19 7" stroke="#F6D660" stroke-width=".6" stroke-linecap="round" stroke-linejoin="round"/><circle fill="#F6D660" fill-rule="nonzero" transform="rotate(-81.25 27.3 22.069)" cx="27.299" cy="22.069" r="1"/><path d="M35.29 29.51l-11.13-6.05" stroke="#F6D660" stroke-width=".6" stroke-linecap="round" stroke-linejoin="round"/><circle fill="#F6D660" fill-rule="nonzero" cx="25.51" cy="24.21" r="1"/><path fill="#ED5565" fill-rule="nonzero" d="M32.41 27.3l3.86-.82 1.8.65 1.58 3.19-4.54 1.17-4.19-1.19z"/><path d="M39.65 27.53a4.37 4.37 0 10-8.44 1.53h8.15a4.33 4.33 0 00.29-1.53z" fill="#ED5565" fill-rule="nonzero"/><circle fill="#F6D660" fill-rule="nonzero" cx="29.18" cy="30.59" r="1.83"/><rect fill="#F6D660" fill-rule="nonzero" transform="rotate(6.07 29.2 29.09)" x="25.751" y="28.355" width="6.9" height="1.47" rx=".49"/><circle fill="#F6D660" fill-rule="nonzero" cx="41.38" cy="30.59" r="1.83"/><rect fill="#F6D660" fill-rule="nonzero" transform="rotate(173.93 41.401 29.087)" x="37.951" y="28.352" width="6.9" height="1.47" rx=".49"/><path d="M38.54 22.81a4.91 4.91 0 00-6.51 0l3.25 3.62 3.26-3.62z" stroke="#F6D660" stroke-width=".6" fill="#F6D660" fill-rule="nonzero" stroke-linecap="round" stroke-linejoin="round"/><path fill="#F6D660" fill-rule="nonzero" d="M36.56 31.07H34l.87-15.75h.82z"/><path d="M35.11 15.28a1.45 1.45 0 01-.08.7s.28-.17.27-.31l-.12.6.29-.26-.26.52.4-.4a3.68 3.68 0 01-.31.62l.34-.18-.29.53s.44-.27.46-.4c.02-.13-.35.69-.41.7-.06.01.33-.22.38-.37a3.32 3.32 0 01-.35.62s.43-.3.46-.47a4 4 0 01-.38.93s.29-.14.31-.2a3.44 3.44 0 01-.51.7 1.07 1.07 0 00.51-.38 1.6 1.6 0 01-.31.81 1.5 1.5 0 00.45-.74c.084.286.13.582.14.88a4.11 4.11 0 000-1.22s.32.5.29.65c0 0 0-1-.27-1.2.158.178.28.385.36.61a4.52 4.52 0 00-.48-1.13l.5.59a5.35 5.35 0 00-.57-1.06l.36.42s-.2-.56-.36-.63a.83.83 0 01-.25-.16l.43.18s-.48-.7-.64-.72l.57.51s0-.42-.14-.51c.178.158.332.34.46.54a.62.62 0 00-.16-.57c.205.205.386.434.54.68a1.76 1.76 0 00-.14-.59c.2.237.375.496.52.77a1.34 1.34 0 00-.25-.74c.25.28.45.601.59.95 0 0-.07-.79-.18-.88-.11-.09.48.91.55 1.11 0 0 0-.59-.09-.68a3 3 0 01.38.77s0-.68-.14-.77a4.1 4.1 0 01.4.79 2.11 2.11 0 00-.11-.56 2 2 0 01.29.56l-.09-.5c.108.156.199.324.27.5l-.09-.36c.108.085.205.182.29.29a5.15 5.15 0 00-.7-.83 8.08 8.08 0 00-1.56-.7c-.12 0-1.26-.07-1.34 0h.41l-.16-.16.16.16H36l-.2-.29.18.18h.34a1.44 1.44 0 000 0h.29l-.32-.32.32.32a.7.7 0 01.29.07 3 3 0 00-.34-.43 2 2 0 01.34.43c.086.025.17.059.25.1 0 0-.18-.46-.27-.51.145.151.273.32.38.5 0 0 0-.48-.12-.52.14.202.26.416.36.64a2.48 2.48 0 00-.09-.61c.141.229.261.47.36.72a3.68 3.68 0 00-.09-.61s.34.5.29.61c-.05.11.14-.57 0-.68.138.2.218.436.23.68v-.32c.049.139.08.283.09.43a2.37 2.37 0 010-.29s.2.2.16.36a3 3 0 00-.25-.81c.183.256.343.527.48.81v-.18c.07.123.11.26.12.4 0 0 .11-.63-.23-.9.191.197.317.449.36.72l.07-.21a2 2 0 01.14.55.91.91 0 00-.18-.81c.278.263.449.619.48 1v-.59c.107.193.191.398.25.61 0 0 0-.86-.54-1.18a4 4 0 00-1.79-.4c-.7-.035-1.4-.035-2.1 0l.48-.23h-.23c.077.006.153.006.23 0a2.06 2.06 0 00.27-.11 1.36 1.36 0 00-.34-.09l.34.09.32-.12-.36-.08c.116.042.237.07.36.08a1.83 1.83 0 01.33-.1c.09 0-.31-.2-.46-.2.29-.07.59-.07.88 0a2 2 0 00-.65-.25 5.42 5.42 0 011 .16.77.77 0 00-.4-.23 2 2 0 01.74.18 2.57 2.57 0 00-.59-.36c.28.058.552.148.81.27 0 0-.32-.34-.43-.34-.11 0 .43.18.43.18a1.57 1.57 0 00-.32-.23c.283.07.556.177.81.32 0 0-.43-.57-.52-.57.162.075.316.165.46.27a1.76 1.76 0 00-.29-.27c.227.08.445.184.65.31a1.25 1.25 0 00-1-.51 5 5 0 00-1.65.65 2.29 2.29 0 00-.93 1 4 4 0 00-.48-.75A2.61 2.61 0 0033 13c.225.092.445.196.66.31a1.28 1.28 0 00-.52.16c.26.014.517.05.77.11-.202.05-.4.117-.59.2.294.006.588.03.88.07-.2.04-.397.093-.59.16.295.02.589.056.88.11.09 0-.66.12-.66.12.287.041.57.115.84.22l-.5.07s.66.14.7.31a12 12 0 00-1.67-.56 3.82 3.82 0 00-2 0c-.45.22-.91.74-.86 1.06a2.12 2.12 0 01.72-.75l-.45.61.52-.45a1.61 1.61 0 00-.29.51v-.07a7 7 0 01.7-.81 5.53 5.53 0 00-.36.61s.65-.66.77-.66a3 3 0 00-.48.7s.63-.61 1-.66a3.41 3.41 0 00-.52.5l.54-.43a3.29 3.29 0 00-.29.48s.36-.45.66-.48a2.81 2.81 0 00-.36.43c.21-.16.438-.295.68-.4a2.77 2.77 0 00-.38.36 4.81 4.81 0 01.57-.29l-.2.32.36-.25-.27.25h.27l.21-.18-.2.17h.29l.08-.12-.09.13h.31l.08-.17-.08.17h.6a15.51 15.51 0 00-2.22-.07 3 3 0 00-2.15 1.5c-.18.5 0 .63 0 .63s0-.66.23-.75c0 0-.09.5 0 .63l.11-.43.12.25a2.4 2.4 0 01.08-.57 2 2 0 00.09.59s0-.79.14-1c0 0-.14.45 0 .61 0 0 0-.73.31-.91 0 0-.29.63-.11.81 0 0 .16-.77.52-1 0 0-.36.48-.2.7 0 0 .38-.81.7-.91 0 0-.31.36-.27.59 0 0 .36-.59.56-.61l-.2.48s.36-.46.5-.48c.14-.02-.18.22-.16.31l.41-.34-.12.2.23-.12.14-.16-.14.16h.33l.1-.12-.1.12h.26v-.12.12h.18v-.14.14h.23a4.09 4.09 0 00-1 0A5.76 5.76 0 0032 16a2.19 2.19 0 00-.93 2.06 2.07 2.07 0 01.14-.59s0 .34.07.38a2.39 2.39 0 010-.65s0 .45.14.5a5.39 5.39 0 010-.84 1.6 1.6 0 00.09.48 3.32 3.32 0 01.27-1 2.76 2.76 0 00-.09 1 4.58 4.58 0 01.16-.57s0 .29.14.38a3.76 3.76 0 010-.72s.07.2.14.34a3.28 3.28 0 010-.52s.07.34.25.41a1.45 1.45 0 01-.07-.43s.11.25.2.25a2 2 0 01-.09-.43l.23.32a2.47 2.47 0 01-.09-.48l.2.27s-.16-.38.07-.5l.07.32a.65.65 0 01.18-.38.4.4 0 000 .22s.09-.38.18-.4v.29a1 1 0 01.18-.27v.18a2 2 0 01.45-.23h.7a2.12 2.12 0 00-.32.23h.29s-.51 0-.65.2a2.34 2.34 0 01.59 0s-.59.09-.7.27a3.09 3.09 0 01.64-.08s-.55.16-.61.27a3 3 0 01.52 0s-.59.11-.66.27c0 0 .57-.07.61 0a2.34 2.34 0 00-.66.32h.46s-.48.11-.52.25a.91.91 0 00.36 0 1.87 1.87 0 00-.38.5 2.65 2.65 0 01.38-.27 1.28 1.28 0 00-.29.66l.25-.25a2 2 0 00-.27.55l.27-.27s-.11.75 0 .86l.07-.81s.18 0 .36.63l-.2-.81s.29.2.29.43a1.07 1.07 0 00-.27-.79c.197.184.365.397.5.63a7.93 7.93 0 00-.43-1l.45.57a1.24 1.24 0 00-.36-.84l.52.43a2.39 2.39 0 00-.27-.63l.29.34a3 3 0 00-.36-.65l.36.38a3 3 0 00-.2-.73l.2.32-.09-.5.24.13a1.07 1.07 0 00-.05-.34c0-.06.09 0 .09 0l.07-.44v.06z" stroke="#57A863" stroke-width=".5" fill="#57A863" stroke-linecap="round" stroke-linejoin="round"/><path d="M35.28 29.21a1.59 1.59 0 011.58 1.58H33.7a1.59 1.59 0 011.58-1.58zm0-.6a2.19 2.19 0 00-2.18 2.18.6.6 0 00.6.6h3.17a.6.6 0 00.6-.6 2.19 2.19 0 00-2.18-2.18h-.01z" fill="#ED5565" fill-rule="nonzero"/><rect fill="#F6D660" fill-rule="nonzero" x="33.7" y="29.21" width="3.17" height="4.67" rx="1.58"/><path stroke="#F6D660" stroke-linecap="round" stroke-linejoin="round" d="M28.52 29.63l2.34.67 4.38 1.25 6.8-1.92"/></g></svg>