<svg width="71" height="48" xmlns="http://www.w3.org/2000/svg"><g fill-rule="nonzero" fill="none"><rect fill="#FFF" x=".77" y=".25" width="70" height="47" rx="6.36"/><path d="M45.67 19a.45.45 0 00-.43-.74h-4.8a1.74 1.74 0 01-1.34-.74l-2.42-4a.48.48 0 00-.9 0l-2.35 3.94a1.71 1.71 0 01-1.33.75h-4.8a.45.45 0 00-.44.74l2.43 4a1.59 1.59 0 010 1.49l-2.43 4a.45.45 0 00.44.74h4.79a1.72 1.72 0 011.33.74l2.35 3.94a.48.48 0 00.89 0L39 30a1.72 1.72 0 011.33-.74h4.88a.45.45 0 00.43-.74l-2.43-4a1.58 1.58 0 010-1.49L45.67 19zm-9.6-1.07c.09-.18.26-.18.37 0 .11.18 0 .33-.17.33a.21.21 0 01-.22-.33h.02zm-4.9 8.92c-.23 0-.32-.15-.21-.32a.23.23 0 01.41 0c.11.18 0 .32-.21.32h.01zm.21-5.84a.23.23 0 01-.42 0c-.11-.18 0-.32.21-.32s.31.15.2.32h.01zm5.07 8.6c-.11.18-.28.18-.37 0a.21.21 0 01.2-.33c.21 0 .28.14.17.32v.01zm2.06-3.5a1.71 1.71 0 01-1.33.75h-1.8a1.76 1.76 0 01-1.34-.74l-1-1.61a1.58 1.58 0 010-1.48l.94-1.59a1.71 1.71 0 011.33-.75h1.88a1.71 1.71 0 011.33.75l.94 1.59a1.62 1.62 0 010 1.49l-.95 1.59zm2.88.75c-.23 0-.32-.15-.21-.32a.23.23 0 01.41 0c.11.17 0 .32-.22.32h.02zm.21-5.84a.23.23 0 01-.41 0c-.11-.18 0-.32.21-.32s.32.14.2.32zM64.4.25H7.13a6.36 6.36 0 00-6.35 6h70a6.36 6.36 0 00-6.38-6zM7.13 47.25H64.4a6.36 6.36 0 006.35-6h-70a6.36 6.36 0 006.38 6z" fill="#4758A9"/></g></svg>