<svg width="71" height="48" xmlns="http://www.w3.org/2000/svg"><g fill-rule="nonzero" fill="none"><path d="M.77 7.61v9h70v-9A6.64 6.64 0 0064.13.97H7.41A6.64 6.64 0 00.77 7.61z" fill="#FC6E51"/><path fill="#FFF" d="M.77 32.31h70V16.64h-70z"/><path d="M.77 41.32a6.64 6.64 0 006.64 6.64h56.72a6.64 6.64 0 006.64-6.64v-9h-70v9z" fill="#57A863"/><path d="M41.67 24.09l-.39-.67a2 2 0 01-.22-.82v-.78a.84.84 0 00-.38-.66l-.65-.37a1.92 1.92 0 01-.6-.6l-.38-.65a.84.84 0 00-.66-.38h-.78a2 2 0 01-.82-.22l-.67-.38a.84.84 0 00-.76 0l-.65.38a1.93 1.93 0 01-.82.22h-.75a.84.84 0 00-.66.38l-.39.67a1.93 1.93 0 01-.6.6l-.67.39a.84.84 0 00-.38.66v.75a1.93 1.93 0 01-.22.82l-.38.65a.85.85 0 000 .76l.39.67a2 2 0 01.22.82v.78a.84.84 0 00.38.66l.65.37c.242.152.448.358.6.6l.38.65a.84.84 0 00.66.38h.78a2 2 0 01.82.22l.67.38a.84.84 0 00.76 0l.65-.38a1.91 1.91 0 01.82-.22h.75a.84.84 0 00.66-.38l.39-.67a2 2 0 01.6-.6l.67-.39a.84.84 0 00.38-.66v-.75a1.93 1.93 0 01.22-.82l.38-.65a.84.84 0 000-.76zm-2.34.61l-.23.39a1.17 1.17 0 00-.13.5V26a.51.51 0 01-.23.4l-.41.24a1.17 1.17 0 00-.36.36l-.23.41a.51.51 0 01-.4.23h-.46a1.17 1.17 0 00-.49.13L36 28a.5.5 0 01-.46 0l-.41-.23a1.18 1.18 0 00-.5-.13h-.47a.51.51 0 01-.4-.23l-.23-.39a1.17 1.17 0 00-.36-.36l-.38-.23a.51.51 0 01-.23-.4v-.47a1.19 1.19 0 00-.13-.49l-.23-.41a.51.51 0 010-.46l.23-.39a1.16 1.16 0 00.13-.5v-.45a.51.51 0 01.23-.4l.41-.24a1.17 1.17 0 00.36-.36l.23-.41a.51.51 0 01.4-.23h.46a1.17 1.17 0 00.49-.13l.39-.23a.51.51 0 01.46 0l.41.23c.155.08.326.124.5.13h.47a.51.51 0 01.4.23l.23.39c.092.145.215.268.36.36l.4.23a.51.51 0 01.23.4v.47c.007.17.052.338.13.49l.23.41a.51.51 0 010 .46l-.02.04z" fill="#4758A9"/></g></svg>