<svg width="71" height="48" xmlns="http://www.w3.org/2000/svg"><g fill="none" fill-rule="evenodd"><path d="M65 .36H6.71A6.64 6.64 0 00.96 5.94v35.72a6.64 6.64 0 006.56 5.64h56.72a6.64 6.64 0 006.64-6.64V7A6.64 6.64 0 0065 .36z" fill="#4658A9" fill-rule="nonzero"/><path d="M25.84.31H7.44A6.64 6.64 0 00.87 6.95v17.33h25L25.84.31z" fill="#4658A9" fill-rule="nonzero"/><path d="M11.41 17.72v6.56h3.9v-6.71l6.71 6.71h3.82v-3l-7-7h7v-4h-7l7-7v-3H22l-6.7 6.7V.28h-3.9v6.56L5.24.68a6.66 6.66 0 00-3.63 3.17l6.41 6.41H.86v4H8L.84 21.42v2.83h4l6.57-6.53z" fill="#FFF" fill-rule="nonzero"/><path d="M12.41 15v9.31h1.9v-9.45l9.45 9.45h2.08V23l-9.78-9.78h9.78v-1.95h-9.78l9.78-9.78V.26h-2.09L14.3 9.71V.26h-1.9v9.3L4.07 1.22a6.67 6.67 0 00-1.76 1.55l8.49 8.49H.87v1.95h9.93L.87 23.14v1.09H3.1L12.41 15z" fill="#EC5463" fill-rule="nonzero"/><path d="M40.36 13.33l16-.09v14.4c0 1.87-3.12 3.77-8 6.2-5.08-2.62-8-4.21-8-6.23V13.33z" fill="#51C161" fill-rule="nonzero"/><path d="M48.34 34.84a1 1 0 01-.46-.11c-5.14-2.65-8.54-4.4-8.58-7.11l.06-14.29a1 1 0 011-1l16-.09a1 1 0 01.71.29 1 1 0 01.29.71v14.4c0 2.38-3 4.33-8.6 7.1a1 1 0 01-.42.1zm-7-20.51l-.06 13.28c0 1.43 3.23 3.14 7 5.11 2.43-1.21 7.05-3.58 7-5.06V14.25l-13.94.08z" fill="#FFF" fill-rule="nonzero"/><path d="M40.36 13.33l16-.09v14.4c0 1.87-3.12 3.77-8 6.2-5.08-2.62-8-4.21-8-6.23V13.33z" fill="#51C161" fill-rule="nonzero"/><path stroke="#F5BB43" stroke-width=".08" d="M42.29 29.19l.95-1.39 1 1.39"/><path d="M43.42 28.68a.19.19 0 11-.38 0 .19.19 0 01.38 0z" stroke="#51C161" stroke-width=".05" fill="#FCEA83" fill-rule="nonzero" stroke-linecap="round" stroke-linejoin="round"/><path d="M42.46 30.22h1.47a.34.34 0 00-.15-.31c.77-.11.57-.78 1.21-.82.12 0-.34.29-.34.29s-.39.27-.21.41c.18.14.2-.07.22-.2.02-.13.62-.22.54-.6-.08-.38-1 .21-1 .21h-.6c0-.07-.2-.34-.38-.34s-.35.34-.35.34h-1.36s0 .35.64.42a.83.83 0 00.41.31.33.33 0 00-.1.29z" stroke="#51C161" stroke-width=".05" fill="#FCEA83" fill-rule="nonzero" stroke-linecap="round" stroke-linejoin="round"/><path d="M42.57 29.92h1.22M42 29.2s.1.57.55.71" stroke="#51C161" stroke-width=".05" stroke-linecap="round" stroke-linejoin="round"/><path d="M41.94 29.2c0-.22.13-.26.22-.53s-.22-.24-.15-.41c.07-.17.06-.37-.17-.51 0 .25-.29.48-.29.68 0 .2.17.16.15.47-.02.31 0 .14-.06.31l.3-.01z" stroke="#51C161" stroke-width=".05" fill="#EC5565" fill-rule="nonzero" stroke-linecap="round" stroke-linejoin="round"/><path d="M43.41 27.84a.17.17 0 11-.34 0 .17.17 0 01.34 0z" stroke="#51C161" stroke-width=".05" fill="#FCEA83" fill-rule="nonzero" stroke-linecap="round" stroke-linejoin="round"/><path stroke="#F5BB43" stroke-width=".08" d="M42.23 26.34l.95-1.39 1 1.39"/><path d="M43.37 25.82a.19.19 0 11-.38 0 .19.19 0 01.38 0z" stroke="#51C161" stroke-width=".05" fill="#FCEA83" fill-rule="nonzero" stroke-linecap="round" stroke-linejoin="round"/><path d="M42.41 27.36h1.47a.34.34 0 00-.15-.31c.77-.11.57-.78 1.21-.82.12 0-.34.29-.34.29s-.39.27-.21.41c.18.14.2-.07.22-.2.02-.13.62-.22.54-.6-.08-.38-1 .21-1 .21h-.6c0-.07-.2-.34-.38-.34s-.35.34-.35.34h-1.36s0 .35.64.42a.83.83 0 00.41.31.33.33 0 00-.1.29z" stroke="#51C161" stroke-width=".05" fill="#FCEA83" fill-rule="nonzero" stroke-linecap="round" stroke-linejoin="round"/><path d="M42.52 27.06h1.22M42 26.34s.1.57.55.71" stroke="#51C161" stroke-width=".05" stroke-linecap="round" stroke-linejoin="round"/><path d="M41.88 26.34c0-.22.13-.26.22-.53s-.22-.24-.15-.41c.07-.17.06-.37-.17-.51 0 .25-.29.48-.29.68 0 .2.17.16.15.47-.02.31 0 .14-.06.31l.3-.01z" stroke="#51C161" stroke-width=".05" fill="#EC5565" fill-rule="nonzero" stroke-linecap="round" stroke-linejoin="round"/><path d="M43.35 25a.17.17 0 11-.34 0 .17.17 0 01.34 0z" stroke="#51C161" stroke-width=".05" fill="#FCEA83" fill-rule="nonzero" stroke-linecap="round" stroke-linejoin="round"/><path stroke="#F5BB43" stroke-width=".08" d="M52.28 23.74l.95-1.39 1 1.39"/><path d="M53.41 23.22a.19.19 0 11-.38 0 .19.19 0 01.38 0z" stroke="#51C161" stroke-width=".05" fill="#FCEA83" fill-rule="nonzero" stroke-linecap="round" stroke-linejoin="round"/><path d="M52.45 24.76h1.47a.34.34 0 00-.15-.31c.77-.11.57-.78 1.21-.82.12 0-.34.29-.34.29s-.39.27-.21.41c.18.14.2-.07.22-.2.02-.13.62-.22.54-.6-.08-.38-1 .21-1 .21h-.6c0-.07-.2-.34-.38-.34s-.35.34-.35.34H51.5s0 .35.64.42a.83.83 0 00.41.31.33.33 0 00-.1.29z" stroke="#51C161" stroke-width=".05" fill="#FCEA83" fill-rule="nonzero" stroke-linecap="round" stroke-linejoin="round"/><path d="M52.56 24.47h1.22M52 23.75s.1.57.55.71" stroke="#51C161" stroke-width=".05" stroke-linecap="round" stroke-linejoin="round"/><path d="M51.93 23.74c0-.22.13-.26.22-.53s-.22-.24-.15-.41c.07-.17.06-.37-.17-.51 0 .25-.29.48-.29.68 0 .2.17.16.15.47-.02.31 0 .14-.06.31l.3-.01z" stroke="#51C161" stroke-width=".05" fill="#EC5565" fill-rule="nonzero" stroke-linecap="round" stroke-linejoin="round"/><path d="M53.4 22.39a.17.17 0 11-.34 0 .17.17 0 01.34 0z" stroke="#51C161" stroke-width=".05" fill="#FCEA83" fill-rule="nonzero" stroke-linecap="round" stroke-linejoin="round"/><g><path stroke="#F5BB43" stroke-width=".08" d="M42.47 21l.95-1.39 1 1.39"/><path d="M43.6 20.44a.19.19 0 11-.38 0 .19.19 0 01.38 0z" stroke="#51C161" stroke-width=".05" fill="#FCEA83" fill-rule="nonzero" stroke-linecap="round" stroke-linejoin="round"/><path d="M42.64 22h1.47a.34.34 0 00-.15-.31c.77-.11.57-.78 1.21-.82.12 0-.34.29-.34.29s-.39.27-.21.41c.18.14.2-.07.22-.2.02-.13.62-.22.54-.6-.08-.38-1 .21-1 .21h-.6c0-.07-.2-.34-.38-.34s-.35.34-.35.34H41.7s0 .35.64.42a.83.83 0 00.41.31.33.33 0 00-.11.29z" stroke="#51C161" stroke-width=".05" fill="#FCEA83" fill-rule="nonzero" stroke-linecap="round" stroke-linejoin="round"/><path d="M42.75 21.69H44M42.19 21s.1.57.55.71" stroke="#51C161" stroke-width=".05" stroke-linecap="round" stroke-linejoin="round"/><path d="M42.12 21c0-.22.13-.26.22-.53s-.22-.24-.15-.41c.07-.17.06-.37-.17-.51 0 .25-.29.48-.29.68 0 .2.17.16.15.47-.02.31 0 .14-.06.31l.3-.01z" stroke="#51C161" stroke-width=".05" fill="#EC5565" fill-rule="nonzero" stroke-linecap="round" stroke-linejoin="round"/><path d="M43.59 19.61a.17.17 0 11-.34 0 .17.17 0 01.34 0z" stroke="#51C161" stroke-width=".05" fill="#FCEA83" fill-rule="nonzero" stroke-linecap="round" stroke-linejoin="round"/></g><g><path stroke="#F5BB43" stroke-width=".08" d="M42.49 18.23l.95-1.39 1 1.39"/><path d="M43.62 17.71a.19.19 0 11-.38 0 .19.19 0 01.38 0z" stroke="#51C161" stroke-width=".05" fill="#FCEA83" fill-rule="nonzero" stroke-linecap="round" stroke-linejoin="round"/><path d="M42.67 19.26h1.47a.34.34 0 00-.15-.31c.77-.11.57-.78 1.21-.82.12 0-.34.29-.34.29s-.39.27-.21.41c.18.14.2-.07.22-.2.02-.13.62-.22.54-.6-.08-.38-1 .21-1 .21h-.6c0-.07-.2-.34-.38-.34s-.35.34-.35.34h-1.36s0 .35.64.42a.83.83 0 00.41.31.33.33 0 00-.1.29z" stroke="#51C161" stroke-width=".05" fill="#FCEA83" fill-rule="nonzero" stroke-linecap="round" stroke-linejoin="round"/><path d="M42.77 19H44M42.21 18.24s.1.57.55.71" stroke="#51C161" stroke-width=".05" stroke-linecap="round" stroke-linejoin="round"/><path d="M42.14 18.23c0-.22.13-.26.22-.53s-.22-.24-.15-.41c.07-.17.06-.37-.17-.51 0 .25-.29.48-.29.68 0 .2.17.16.15.47-.02.31 0 .14-.06.31l.3-.01z" stroke="#51C161" stroke-width=".05" fill="#EC5565" fill-rule="nonzero" stroke-linecap="round" stroke-linejoin="round"/><path d="M43.61 16.88a.17.17 0 11-.34 0 .17.17 0 01.34 0z" stroke="#51C161" stroke-width=".05" fill="#FCEA83" fill-rule="nonzero" stroke-linecap="round" stroke-linejoin="round"/></g><g><path stroke="#F5BB43" stroke-width=".08" d="M42.54 15.46l.95-1.39 1 1.39"/><path d="M43.67 14.94a.19.19 0 11-.38 0 .19.19 0 01.38 0z" stroke="#51C161" stroke-width=".05" fill="#FCEA83" fill-rule="nonzero" stroke-linecap="round" stroke-linejoin="round"/><path d="M42.72 16.49h1.47a.34.34 0 00-.15-.31c.77-.11.57-.78 1.21-.82.12 0-.34.29-.34.29s-.39.27-.21.41c.18.14.2-.07.22-.2.02-.13.62-.22.54-.6-.08-.38-1 .21-1 .21h-.6c0-.07-.2-.34-.38-.34s-.35.34-.35.34h-1.36s0 .35.64.42a.83.83 0 00.41.31.33.33 0 00-.1.29z" stroke="#51C161" stroke-width=".05" fill="#FCEA83" fill-rule="nonzero" stroke-linecap="round" stroke-linejoin="round"/><path d="M42.82 16.19H44M42.26 15.47s.1.57.55.71" stroke="#51C161" stroke-width=".05" stroke-linecap="round" stroke-linejoin="round"/><path d="M42.19 15.46c0-.22.13-.26.22-.53s-.22-.24-.15-.41c.07-.17.06-.37-.17-.51 0 .25-.29.48-.29.68 0 .2.17.16.15.47-.02.31 0 .14-.06.31l.3-.01z" stroke="#51C161" stroke-width=".05" fill="#EC5565" fill-rule="nonzero" stroke-linecap="round" stroke-linejoin="round"/><path d="M43.66 14.11a.17.17 0 11-.34 0 .17.17 0 01.34 0z" stroke="#51C161" stroke-width=".05" fill="#FCEA83" fill-rule="nonzero" stroke-linecap="round" stroke-linejoin="round"/></g><g><path stroke="#F5BB43" stroke-width=".08" d="M52.35 15.5l.95-1.39 1 1.39"/><path d="M53.49 15a.19.19 0 11-.38 0 .19.19 0 01.38 0z" stroke="#51C161" stroke-width=".05" fill="#FCEA83" fill-rule="nonzero" stroke-linecap="round" stroke-linejoin="round"/><path d="M52.53 16.53H54a.34.34 0 00-.15-.31c.77-.11.57-.78 1.21-.82.12 0-.34.29-.34.29s-.39.27-.21.41c.18.14.2-.07.22-.2.02-.13.62-.22.54-.6-.08-.38-1 .21-1 .21h-.6c0-.07-.2-.34-.38-.34s-.35.34-.35.34h-1.36s0 .35.64.42a.83.83 0 00.41.31.33.33 0 00-.1.29z" stroke="#51C161" stroke-width=".05" fill="#FCEA83" fill-rule="nonzero" stroke-linecap="round" stroke-linejoin="round"/><path d="M52.63 16.23h1.22M52.08 15.51s.1.57.55.71" stroke="#51C161" stroke-width=".05" stroke-linecap="round" stroke-linejoin="round"/><path d="M52 15.51c0-.22.13-.26.22-.53s-.22-.24-.15-.41c.07-.17.06-.37-.17-.51 0 .25-.29.48-.29.68 0 .2.17.16.15.47-.02.31 0 .14-.06.31l.3-.01z" stroke="#51C161" stroke-width=".05" fill="#EC5565" fill-rule="nonzero" stroke-linecap="round" stroke-linejoin="round"/><path d="M53.47 14.15a.17.17 0 11-.34 0 .17.17 0 01.34 0z" stroke="#51C161" stroke-width=".05" fill="#FCEA83" fill-rule="nonzero" stroke-linecap="round" stroke-linejoin="round"/></g><g><path stroke="#F5BB43" stroke-width=".08" d="M52.26 18.22l.95-1.39 1 1.39"/><path d="M53.4 17.71a.19.19 0 11-.38 0 .19.19 0 01.38 0z" stroke="#51C161" stroke-width=".05" fill="#FCEA83" fill-rule="nonzero" stroke-linecap="round" stroke-linejoin="round"/><path d="M52.44 19.25h1.47a.34.34 0 00-.15-.31c.77-.11.57-.78 1.21-.82.12 0-.34.29-.34.29s-.39.27-.21.41c.18.14.2-.07.22-.2.02-.13.62-.22.54-.6-.08-.38-1 .21-1 .21h-.6c0-.07-.2-.34-.38-.34s-.35.34-.35.34H51.5s0 .35.64.42a.83.83 0 00.41.31.33.33 0 00-.11.29z" stroke="#51C161" stroke-width=".05" fill="#FCEA83" fill-rule="nonzero" stroke-linecap="round" stroke-linejoin="round"/><path d="M52.54 19h1.22M52 18.23s.1.57.55.71" stroke="#51C161" stroke-width=".05" stroke-linecap="round" stroke-linejoin="round"/><path d="M51.91 18.23c0-.22.13-.26.22-.53s-.22-.24-.15-.41c.07-.17.06-.37-.17-.51 0 .25-.29.48-.29.68 0 .2.17.16.15.47-.02.31 0 .14-.06.31l.3-.01z" stroke="#51C161" stroke-width=".05" fill="#EC5565" fill-rule="nonzero" stroke-linecap="round" stroke-linejoin="round"/><path d="M53.38 16.87a.17.17 0 11-.34 0 .17.17 0 01.34 0z" stroke="#51C161" stroke-width=".05" fill="#FCEA83" fill-rule="nonzero" stroke-linecap="round" stroke-linejoin="round"/></g><g><path stroke="#F5BB43" stroke-width=".08" d="M52.14 21l.95-1.39 1 1.39"/><path d="M53.28 20.48a.19.19 0 11-.38 0 .19.19 0 01.38 0z" stroke="#51C161" stroke-width=".05" fill="#FCEA83" fill-rule="nonzero" stroke-linecap="round" stroke-linejoin="round"/><path d="M52.32 22h1.47a.34.34 0 00-.15-.31c.77-.11.57-.78 1.21-.82.12 0-.34.29-.34.29s-.39.27-.21.41c.18.14.2-.07.22-.2.02-.13.62-.22.54-.6-.08-.38-1 .21-1 .21h-.6c0-.07-.2-.34-.38-.34s-.35.34-.35.34h-1.36s0 .35.64.42a.83.83 0 00.41.31.33.33 0 00-.1.29z" stroke="#51C161" stroke-width=".05" fill="#FCEA83" fill-rule="nonzero" stroke-linecap="round" stroke-linejoin="round"/><path d="M52.42 21.73h1.22M51.86 21s.1.57.55.71" stroke="#51C161" stroke-width=".05" stroke-linecap="round" stroke-linejoin="round"/><path d="M51.79 21c0-.22.13-.26.22-.53s-.22-.24-.15-.41c.07-.17.06-.37-.17-.51 0 .25-.29.48-.29.68 0 .2.17.16.15.47-.02.31 0 .14-.06.31l.3-.01z" stroke="#51C161" stroke-width=".05" fill="#EC5565" fill-rule="nonzero" stroke-linecap="round" stroke-linejoin="round"/><path d="M53.26 19.65a.17.17 0 11-.34 0 .17.17 0 01.34 0z" stroke="#51C161" stroke-width=".05" fill="#FCEA83" fill-rule="nonzero" stroke-linecap="round" stroke-linejoin="round"/></g><path stroke="#F5BB43" stroke-width=".1" d="M52.26 29.22l.95-1.39 1 1.39"/><path d="M53.4 28.7a.19.19 0 11-.38 0 .19.19 0 01.38 0z" stroke="#51C161" stroke-width=".06" fill="#FCEA83" fill-rule="nonzero" stroke-linecap="round" stroke-linejoin="round"/><path d="M52.44 30.25h1.47a.34.34 0 00-.15-.31c.77-.11.57-.78 1.21-.82.12 0-.34.29-.34.29s-.39.27-.21.41c.18.14.2-.07.22-.2.02-.13.62-.22.54-.6-.08-.38-1 .21-1 .21h-.6c0-.07-.2-.34-.38-.34s-.35.34-.35.34H51.5s0 .35.64.42a.83.83 0 00.41.31.33.33 0 00-.11.29z" stroke="#51C161" stroke-width=".06" fill="#FCEA83" fill-rule="nonzero" stroke-linecap="round" stroke-linejoin="round"/><path d="M52.54 30h1.22M52 29.23s.1.57.55.71" stroke="#51C161" stroke-width=".06" stroke-linecap="round" stroke-linejoin="round"/><path d="M51.91 29.22c0-.22.13-.26.22-.53s-.22-.24-.15-.41c.07-.17.06-.37-.17-.51 0 .25-.29.48-.29.68 0 .2.17.16.15.47-.02.31 0 .14-.06.31l.3-.01z" stroke="#51C161" stroke-width=".06" fill="#EC5565" fill-rule="nonzero" stroke-linecap="round" stroke-linejoin="round"/><path d="M53.38 27.87a.17.17 0 11-.34 0 .17.17 0 01.34 0z" stroke="#51C161" stroke-width=".06" fill="#FCEA83" fill-rule="nonzero" stroke-linecap="round" stroke-linejoin="round"/><g><path stroke="#F5BB43" stroke-width=".08" d="M52.25 26.47l.95-1.39 1 1.39"/><path d="M53.38 26a.19.19 0 11-.38 0 .19.19 0 01.38 0z" stroke="#51C161" stroke-width=".05" fill="#FCEA83" fill-rule="nonzero" stroke-linecap="round" stroke-linejoin="round"/><path d="M52.42 27.5h1.47a.34.34 0 00-.15-.31c.77-.11.57-.78 1.21-.82.12 0-.34.29-.34.29s-.39.27-.21.41c.18.14.2-.07.22-.2.02-.13.62-.22.54-.6-.08-.38-1 .21-1 .21h-.6c0-.07-.2-.34-.38-.34s-.35.34-.35.34h-1.36s0 .35.64.42a.83.83 0 00.41.31.33.33 0 00-.1.29z" stroke="#51C161" stroke-width=".05" fill="#FCEA83" fill-rule="nonzero" stroke-linecap="round" stroke-linejoin="round"/><path d="M52.53 27.2h1.22M52 26.48s.1.57.55.71" stroke="#51C161" stroke-width=".05" stroke-linecap="round" stroke-linejoin="round"/><path d="M51.9 26.47c0-.22.13-.26.22-.53s-.22-.24-.15-.41c.07-.17.06-.37-.17-.51 0 .25-.29.48-.29.68 0 .2.17.16.15.47-.02.31 0 .14-.06.31l.3-.01z" stroke="#51C161" stroke-width=".05" fill="#EC5565" fill-rule="nonzero" stroke-linecap="round" stroke-linejoin="round"/><path d="M53.37 25.12a.17.17 0 11-.34 0 .17.17 0 01.34 0z" stroke="#51C161" stroke-width=".05" fill="#FCEA83" fill-rule="nonzero" stroke-linecap="round" stroke-linejoin="round"/></g><g><path stroke="#F5BB43" stroke-width=".08" d="M44.26 23.92l.95-1.39 1 1.39"/><path d="M45.39 23.4a.19.19 0 11-.38 0 .19.19 0 01.38 0z" stroke="#51C161" stroke-width=".05" fill="#FCEA83" fill-rule="nonzero" stroke-linecap="round" stroke-linejoin="round"/><path d="M44.44 24.94h1.47a.34.34 0 00-.15-.31c.77-.11.57-.78 1.21-.82.12 0-.34.29-.34.29s-.39.27-.21.41c.18.14.2-.07.22-.2.02-.13.62-.22.54-.6-.08-.38-1 .21-1 .21h-.6c0-.07-.2-.34-.38-.34s-.35.34-.35.34H43.5s0 .35.64.42a.83.83 0 00.41.31.33.33 0 00-.11.29z" stroke="#51C161" stroke-width=".05" fill="#FCEA83" fill-rule="nonzero" stroke-linecap="round" stroke-linejoin="round"/><path d="M44.54 24.65h1.22M44 23.93s.1.57.55.71" stroke="#51C161" stroke-width=".05" stroke-linecap="round" stroke-linejoin="round"/><path d="M43.91 23.92c0-.22.13-.26.22-.53s-.22-.24-.15-.41c.07-.17.06-.37-.17-.51 0 .25-.29.48-.29.68 0 .2.17.16.15.47-.02.31 0 .14-.06.31l.3-.01z" stroke="#51C161" stroke-width=".05" fill="#EC5565" fill-rule="nonzero" stroke-linecap="round" stroke-linejoin="round"/><path d="M45.38 22.56a.17.17 0 11-.34 0 .17.17 0 01.34 0z" stroke="#51C161" stroke-width=".05" fill="#FCEA83" fill-rule="nonzero" stroke-linecap="round" stroke-linejoin="round"/></g><g><path d="M49.32 30.52s.38.88.82.34c.44-.54.28-.78.28-.78l-1-.53-.29.61.19.36z" stroke="#FFF" stroke-width=".05" fill="#FCEA83" fill-rule="nonzero" stroke-linecap="round" stroke-linejoin="round"/><path d="M50.16 30.4s.06 0 .12-.08-.12-.14-.19-.24l-.08.17.15.15zM47.95 30.17l-.86.47s-.42.08-.46 0c-.04-.08 0-.16.23-.17.23-.01.83-.56.83-.56l.26.26z" stroke="#FFF" stroke-width=".05" fill="#FFC6B5" fill-rule="nonzero" stroke-linecap="round" stroke-linejoin="round"/><path d="M48 14.88v.31c0 .11-.28.33-.27.39.01.06.14.08.14.08s-.05.22 0 .23c.05.01-.14.29 0 .36a1 1 0 00.48.15c.11 0 0 .41 0 .41l-.3.64 1.64-.17-.34-.54s-.16-.11-.12-.41c.04-.3 0-1.7 0-1.7l-1.17-.16-.06.41z" fill="#FFC6B5" fill-rule="nonzero"/><path d="M47.66 17.3a1 1 0 00-.51.9c-.14.64-.21 1.27-.21 1.27s-.63.71-.82 1c-.19.29-.48.78-.58.91-.1.13-.52.59-.51.76.01.17-.1.92.32 1 .11 0 .45-.87.45-.87s0-.39-.1-.47c-.1-.08.25-.33.25-.33l.87-.65c.16-.13.59-.62.59-.62l.25-2.9z" stroke="#FFF" stroke-width=".05" fill="#FFC6B5" fill-rule="nonzero" stroke-linecap="round" stroke-linejoin="round"/><path d="M48.27 16.8s.14.37.45.31a2 2 0 00.67-.35h.33c.04 0 .78.75.75 1-.03.25-.34.16-.46.31a1.2 1.2 0 00-.25.8c.083.255.146.516.19.78 0 .14-.14.18-.14.25s.1.2.1.34-.13.34-.11.48c.02.14 0 .54 0 .54v1.87a.26.26 0 01.12.17c0 .11.72 3.2.72 3.2s0 .1-.11.08c-.11-.02.29.48.3.62.01.14.37 1.22.36 1.37a1.69 1.69 0 01-.1.49s.23.68.19.79c-.04.11-.48.1-.48.1h-.12s0 .14-.07.15c-.07.01-.71 0-.71 0s-.18.28-.29.27c-.11-.01-.24-.2-.28-.17-.04.03.1.21.06.27-.04.06-.57.17-.68-.08-.11-.25.06-.19 0-.24-.06-.05-.28-.19-.35-.15-.07.04.19.11.18.21-.01.1-.23.27-.32.27s-.29-.39-.58-.35a2.43 2.43 0 00-.49.12 1.31 1.31 0 01-.5.12.25.25 0 01-.21-.21 4.21 4.21 0 00.1-.42c0-.08-.1-.17-.1-.3a2.43 2.43 0 01.24-.56v-2s-.22 0-.23-.14c-.01-.14.34-3.09.39-3.28.05-.19.19-.87.19-.87s-.16.07-.17 0c-.01-.07.48-1.76.48-1.76s.08-.84.08-1.06a4.8 4.8 0 000-.53s-.44-.18-.45-.47c0-.45.41-.7.47-.85l.21-.59a1 1 0 01.62-.53z" stroke="#FFF" stroke-width=".05" fill="#FFF" fill-rule="nonzero" stroke-linecap="round" stroke-linejoin="round"/><path d="M48.11 30.29s-1 .54-1.18.58c-.18.04-.24-.18-.1-.22.125-.03.252-.05.38-.06a4.41 4.41 0 01-.34-.29l.49-.18s.15.28.24.25a1.91 1.91 0 00.37-.23l.14.15z" stroke="#FFF" stroke-width=".05" fill="#FCEA83" fill-rule="nonzero" stroke-linecap="round" stroke-linejoin="round"/><path d="M49.56 30.59c.1.13.14.34.36.22.22-.12-.11-.36-.11-.36l-.25.14zM50 30.57a.15.15 0 00.2 0c.1-.1-.19-.3-.19-.3l-.14.16.13.14z" stroke="#FFF" stroke-width=".05" fill="#FFC6B5" fill-rule="nonzero" stroke-linecap="round" stroke-linejoin="round"/><path d="M49.65 17.21s-.95.61-.92.82M49.86 17.32s-.21.23-.22.23M50.15 17.58s-.47.38-.39.63M47.94 17.16s-.14.29-.11.38c.124.216.224.443.3.68.02.126.02.254 0 .38M47.69 17.69c.014.138.051.274.11.4.11.14.195.3.25.47M47.61 19.11s.28.14.53-.39M48.55 18.34s-.2.52.14.71a.89.89 0 00.74.12 2 2 0 00.31-.15M48.4 19s0 .7 1.05 1.39M48.45 19.64c-.007.34.136.665.39.89M48.23 18.91s-.31.91-.55 1M48.14 19.58a4.33 4.33 0 01-.1.89M48 20.64s.21.27.45.24c.24-.03.33-.3.49-.25.21.105.445.153.68.14M49 21s0 .54.1.59c.1.05.05.55.05.55M47.74 20.78c0 .232-.024.463-.07.69a2 2 0 00-.17.75M47.1 22.53a1.82 1.82 0 00.23-.18M47.43 22.46a12.25 12.25 0 00-.33 3.12M47.53 22.56a8 8 0 00-.13 1.74M47.42 22.52l.89.06M48.44 22.46c.181.084.38.122.58.11M48.33 23.18s0 2.51-.11 3.06M49.64 23.75c.087.81.234 1.612.44 2.4M49.1 24c.053.708.143 1.412.27 2.11M46.69 26.82c.24-.09.455-.233.63-.42.34.46.86 0 .86 0s.81.55 1.17-.06c.55.36.83-.05.83-.05s.2.31.35.28M49.65 26.79a6.56 6.56 0 001 2.5M47.51 26.59s.05 1.63.15 2.77M47.44 28.42a7.79 7.79 0 01-.12 1.14" stroke="#FFF" stroke-width=".05" stroke-linecap="round" stroke-linejoin="round"/><path d="M46.81 29.67s.12.46.7 0 .59.16.62.22c.03.06.12.52.34.14M48.93 29.43s-.1.95.74.25 1 0 1 .2" stroke="#FFF" stroke-width=".05" stroke-linecap="round" stroke-linejoin="round"/><path d="M47.93 14.81a.7.7 0 00.36 0c.13-.07.28-.11.38 0 .1.11.18.14.18.14s-.16.39 0 .44c.16.05.23 0 .24.1.01.1-.14.17-.1.22.04.05.12.12.13.16.01.04-.1.22-.06.27.04.05.13.21.19.21s0 .27.21.2a.24.24 0 00.18-.23.33.33 0 00.25-.21.32.32 0 01.18-.22s.25-.14-.08-.35c0-1.49-1-1.33-1-1.33s-.12-.27-.31-.23c-.19.04-.2.25-.34.23-.14-.02-.17-.12-.18-.11a1.12 1.12 0 00-.13.28c0 .05-.37-.07-.34.2.03.27.25.25.24.23z" fill="#9C5100" fill-rule="nonzero"/><path d="M48.13 15.29h.17c.02 0-.13.04-.17 0z" stroke="#FFF" stroke-width=".09" stroke-linecap="round" stroke-linejoin="round"/><path d="M50.42 17.82c.152.433.282.874.39 1.32.086.489.13.984.13 1.48-.05.15-.59.86-.66 1-.07.14-.45.87-.45.87a4.91 4.91 0 01-.14.71s.11.2.1.25c-.01.05-.31.36-.44.33-.13-.03-.33-.18-.34-.32a1.62 1.62 0 01.11-.71c.1-.12.59-1.3.63-1.37.18-.377.338-.764.47-1.16a1.13 1.13 0 00-.28-.66c-.34-.95-.2-1.56.48-1.74z" stroke="#FFF" stroke-width=".05" fill="#FFC6B5" fill-rule="nonzero" stroke-linecap="round" stroke-linejoin="round"/><path d="M45.47 22.37v.47M45 22.34c.146.234.238.497.27.77M49 23.38s.22 0 .22.35c.14-.46.43-.47.43-.47" stroke="#FFF" stroke-width=".05" stroke-linecap="round" stroke-linejoin="round"/></g><g><path d="M49.32 30.52s.38.88.82.34c.44-.54.28-.78.28-.78l-1-.53-.29.61.19.36z" stroke="#FCEA83" stroke-width=".05" fill="#FCEA83" fill-rule="nonzero" stroke-linecap="round" stroke-linejoin="round"/><path d="M50.16 30.4s.06 0 .12-.08-.12-.14-.19-.24l-.08.17.15.15zM47.95 30.17l-.86.47s-.42.08-.46 0c-.04-.08 0-.16.23-.17.23-.01.83-.56.83-.56l.26.26zM47.66 17.3a1 1 0 00-.51.9c-.14.64-.21 1.27-.21 1.27s-.63.71-.82 1c-.19.29-.48.78-.58.91-.1.13-.52.59-.51.76.01.17-.1.92.32 1 .11 0 .45-.87.45-.87s0-.39-.1-.47c-.1-.08.25-.33.25-.33l.87-.65c.16-.13.59-.62.59-.62l.25-2.9z" stroke="#FFC6B5" stroke-width=".05" fill="#FFC6B5" fill-rule="nonzero" stroke-linecap="round" stroke-linejoin="round"/><path d="M48.27 16.8s.14.37.45.31a2 2 0 00.67-.35h.33c.04 0 .78.75.75 1-.03.25-.34.16-.46.31a1.2 1.2 0 00-.25.8c.083.255.146.516.19.78 0 .14-.14.18-.14.25s.1.2.1.34-.13.34-.11.48c.02.14 0 .54 0 .54v1.87a.26.26 0 01.12.17c0 .11.72 3.2.72 3.2s0 .1-.11.08c-.11-.02.29.48.3.62.01.14.37 1.22.36 1.37a1.69 1.69 0 01-.1.49s.23.68.19.79c-.04.11-.48.1-.48.1h-.12s0 .14-.07.15c-.07.01-.71 0-.71 0s-.18.28-.29.27c-.11-.01-.24-.2-.28-.17-.04.03.1.21.06.27-.04.06-.57.17-.68-.08-.11-.25.06-.19 0-.24-.06-.05-.28-.19-.35-.15-.07.04.19.11.18.21-.01.1-.23.27-.32.27s-.29-.39-.58-.35a2.43 2.43 0 00-.49.12 1.31 1.31 0 01-.5.12.25.25 0 01-.21-.21 4.21 4.21 0 00.1-.42c0-.08-.1-.17-.1-.3a2.43 2.43 0 01.24-.56v-2s-.22 0-.23-.14c-.01-.14.34-3.09.39-3.28.05-.19.19-.87.19-.87s-.16.07-.17 0c-.01-.07.48-1.76.48-1.76s.08-.84.08-1.06a4.8 4.8 0 000-.53s-.44-.18-.45-.47c0-.45.41-.7.47-.85l.21-.59a1 1 0 01.62-.53z" fill="#FFF" fill-rule="nonzero"/><path d="M48.11 30.29s-1 .54-1.18.58c-.18.04-.24-.18-.1-.22.125-.03.252-.05.38-.06a4.41 4.41 0 01-.34-.29l.49-.18s.15.28.24.25a1.91 1.91 0 00.37-.23l.14.15z" stroke="#FCEA83" stroke-width=".05" fill="#FCEA83" fill-rule="nonzero" stroke-linecap="round" stroke-linejoin="round"/><path d="M49.56 30.59c.1.13.14.34.36.22.22-.12-.11-.36-.11-.36l-.25.14zM50 30.57a.15.15 0 00.2 0c.1-.1-.19-.3-.19-.3l-.14.16.13.14z" stroke="#FFC6B5" stroke-width=".05" fill="#FFC6B5" fill-rule="nonzero" stroke-linecap="round" stroke-linejoin="round"/><path d="M48.13 15.29h.17c.02 0-.13.04-.17 0z" stroke="#51C161" stroke-width=".09" stroke-linecap="round" stroke-linejoin="round"/><path d="M50.42 17.82c.152.433.282.874.39 1.32.086.489.13.984.13 1.48-.05.15-.59.86-.66 1-.07.14-.45.87-.45.87a4.91 4.91 0 01-.14.71s.11.2.1.25c-.01.05-.31.36-.44.33-.13-.03-.33-.18-.34-.32a1.62 1.62 0 01.11-.71c.1-.12.59-1.3.63-1.37.18-.377.338-.764.47-1.16a1.13 1.13 0 00-.28-.66c-.34-.95-.2-1.56.48-1.74z" stroke="#FFC6B5" stroke-width=".05" fill="#FFC6B5" fill-rule="nonzero" stroke-linecap="round" stroke-linejoin="round"/></g></g></svg>