<svg width="71" height="48" xmlns="http://www.w3.org/2000/svg"><g fill-rule="nonzero" fill="none"><path d="M.52 6.89v9h70v-9A6.64 6.64 0 0063.88.25H7.17A6.64 6.64 0 00.52 6.89z" fill="#ED5565"/><path fill="#FFF" d="M.52 31.59h70V15.92h-70z"/><path d="M.52 40.61a6.64 6.64 0 006.64 6.64h56.72a6.64 6.64 0 006.64-6.64v-9h-70v9z" fill="#434A54"/><path d="M23.69 27.13c-.32.23-.51.1-.42-.29l.35-1.43a1.3 1.3 0 00-.37-1.17l-1-.91c-.3-.26-.22-.48.17-.49h1.47c.422-.03.784-.31.92-.71l.46-1.56c.11-.38.31-.39.45 0l.55 1.54c.17.404.562.67 1 .68h1.5c.39 0 .47.22.17.48l-1.14 1c-.309.3-.438.74-.34 1.16l.36 1.26c.11.38-.07.52-.41.32l-1.22-.75a1.18 1.18 0 00-1.19 0l-1.31.87zM43.69 27.13c-.32.23-.51.1-.42-.29l.35-1.43a1.3 1.3 0 00-.37-1.17l-1-.91c-.3-.26-.22-.48.17-.49h1.47c.422-.03.784-.31.92-.71l.46-1.56c.11-.38.31-.39.45 0l.55 1.54c.17.404.562.67 1 .68h1.5c.39 0 .47.22.17.48l-1.14 1c-.309.3-.438.74-.34 1.16l.36 1.26c.11.38-.07.52-.41.32l-1.22-.75a1.18 1.18 0 00-1.19 0l-1.31.87zM33.69 27.13c-.32.23-.51.1-.42-.29l.35-1.43a1.3 1.3 0 00-.37-1.17l-1-.91c-.3-.26-.22-.48.17-.49h1.47c.422-.03.784-.31.92-.71l.46-1.56c.11-.38.31-.39.45 0l.55 1.54c.17.404.562.67 1 .68h1.5c.39 0 .47.22.17.48l-1.14 1c-.309.3-.438.74-.34 1.16l.36 1.26c.11.38-.07.52-.41.32l-1.22-.75a1.18 1.18 0 00-1.19 0l-1.31.87z" fill="#57A863"/></g></svg>