<svg width="71" height="48" xmlns="http://www.w3.org/2000/svg"><g fill-rule="nonzero" fill="none"><rect fill="#52C162" x=".9" y=".53" width="70" height="47" rx="6.36"/><path d="M3 2.14A6.34 6.34 0 00.86 6.9v34.27c0 1.839.8 3.586 2.19 4.79l29.81-21.43L3 2.14zM70.9 6.89a6.33 6.33 0 00-1.71-4.33l-29.29 22 29.24 21a6.34 6.34 0 001.76-4.38V6.89z" fill="#434A54"/><path d="M70.46 43.5L40.62 24.29l30-19.33a6.38 6.38 0 00-3.33-3.8L36 21.32 4.61 1.12a6.37 6.37 0 00-3.37 3.73l30.17 19.42-30 19.36a6.38 6.38 0 003.75 3.53L36 27.24l30.83 19.84a6.38 6.38 0 003.63-3.58z" fill="#FFCE54"/></g></svg>