<svg width="71" height="48" xmlns="http://www.w3.org/2000/svg"><g fill-rule="nonzero" fill="none"><path d="M.15 7.17v9h70v-9A6.64 6.64 0 0063.51.53H6.79A6.64 6.64 0 00.15 7.17z" fill="#434A54"/><path fill="#FFF" d="M.15 31.88h70V16.2h-70z"/><path d="M.15 40.89a6.64 6.64 0 006.64 6.64H63.5a6.64 6.64 0 006.64-6.64v-9h-70l.01 9z" fill="#57A863"/><path d="M2.27 2.16A6.34 6.34 0 00.14 6.9v34.27a6.34 6.34 0 002.13 4.74L28.15 24 2.27 2.16z" fill="#ED5565"/><circle fill="#FFF" cx="10.68" cy="24.03" r="4"/></g></svg>