<svg width="71" height="48" xmlns="http://www.w3.org/2000/svg"><g fill-rule="nonzero" fill="none"><rect fill="#57A863" x=".28" y=".81" width="70" height="47" rx="6.36"/><path d="M63.92.81H6.65A6.36 6.36 0 00.29 7.17v16.64h70V7.17A6.36 6.36 0 0063.92.81z" fill="#434A54"/><path fill="#FFF" d="M.28 13.81h70v22h-70z"/><path fill="#ED5565" d="M.28 15.81h70v18h-70z"/><path d="M33.32 6.32a2 2 0 012.92 0c2.66 2.94 8 9.89 8 18s-5.38 15.05-8 18a2 2 0 01-2.92 0c-2.66-2.94-8-9.89-8-18s5.34-15.06 8-18z" fill="#ED5565"/><path d="M41.11 13.12c-1.67 2.1-2.83 6.54-2.83 11.7 0 4.82 1 9 2.51 11.26a23.86 23.86 0 003.49-11.76 23.48 23.48 0 00-3.17-11.2zM28.45 13.12a23.48 23.48 0 00-3.17 11.2 23.86 23.86 0 003.49 11.76c1.5-2.25 2.51-6.44 2.51-11.26 0-5.16-1.15-9.6-2.83-11.7z" fill="#434A54"/><ellipse fill="#FFF" cx="36.28" cy="15.31" rx="1" ry="6.5"/><ellipse fill="#FFF" cx="33.28" cy="15.31" rx="1" ry="6.5"/><ellipse fill="#FFF" cx="36.28" cy="35.31" rx="1" ry="6.5"/><ellipse fill="#FFF" cx="33.28" cy="35.31" rx="1" ry="6.5"/><circle fill="#FFF" cx="34.78" cy="25.31" r="1.5"/></g></svg>