<svg width="71" height="48" xmlns="http://www.w3.org/2000/svg"><g fill-rule="nonzero" fill="none"><rect fill="#ED5565" x=".76" y=".83" width="70" height="47" rx="6.36"/><path d="M48 28.6a4.43 4.43 0 01.5-1.88l.87-1.51a1.94 1.94 0 000-1.75l-.89-1.55A4.51 4.51 0 0148 20v-1.79a1.94 1.94 0 00-.88-1.51l-1.51-.86a4.43 4.43 0 01-1.38-1.38l-.87-1.51a1.94 1.94 0 00-1.51-.88H40a4.5 4.5 0 01-1.88-.5l-1.55-.89a1.94 1.94 0 00-1.75 0l-1.5.88a4.43 4.43 0 01-1.88.51h-1.73a1.94 1.94 0 00-1.51.88l-.9 1.55a4.51 4.51 0 01-1.38 1.38l-1.54.9a1.94 1.94 0 00-.87 1.52v1.73a4.41 4.41 0 01-.5 1.88l-.87 1.51a1.94 1.94 0 000 1.75l.89 1.55a4.51 4.51 0 01.51 1.88v1.79a1.94 1.94 0 00.88 1.51l1.51.86a4.44 4.44 0 011.38 1.38l.87 1.51a1.94 1.94 0 001.51.88h1.79a4.5 4.5 0 011.88.5l1.55.89c.55.278 1.2.278 1.75 0l1.5-.88a4.42 4.42 0 011.88-.51h1.73a1.94 1.94 0 001.51-.88l.89-1.55a4.51 4.51 0 011.38-1.38l1.54-.9a1.94 1.94 0 00.87-1.52l.04-1.7z" fill="#F6D660"/><path d="M35.76 16a8.3 8.3 0 110 16.6 8.3 8.3 0 010-16.6zm0-2c-5.689 0-10.3 4.611-10.3 10.3 0 5.689 4.611 10.3 10.3 10.3 5.689 0 10.3-4.611 10.3-10.3-.006-5.686-4.614-10.294-10.3-10.3z" fill="#ED5565"/><circle fill="#F6D660" cx="35.76" cy="24.33" r="8.3"/><path d="M37.74 20.41a12 12 0 014.55-.9h.22a8.33 8.33 0 00-1.89-1.9c-1.7.2-3.347.712-4.86 1.51a13.91 13.91 0 00-4.86-1.51 8.33 8.33 0 00-1.89 1.9h.22a12 12 0 014.55.9 14 14 0 00-5.18 8.11 8.33 8.33 0 001.71 2.07 12 12 0 015.45-9.14 12 12 0 015.45 9.14 8.33 8.33 0 001.71-2.07 14 14 0 00-5.18-8.11z" fill="#ED5565"/></g></svg>