<svg width="71" height="48" xmlns="http://www.w3.org/2000/svg" xmlns:xlink="http://www.w3.org/1999/xlink"><defs><rect id="prefix__a" x=".52" y=".53" width="70" height="47" rx="6.36"/></defs><g fill="none" fill-rule="evenodd"><mask id="prefix__b" fill="#fff"><use xlink:href="#prefix__a"/></mask><use fill="#FFF" fill-rule="nonzero" xlink:href="#prefix__a"/><path fill="#ED5565" fill-rule="nonzero" mask="url(#prefix__b)" d="M-4.23.79h82.3v45.57h-82.3z"/><path d="M36.92 12.61a1.3 1.3 0 01-.93-.39l-2.35-2.38-4.74-.55a2.39 2.39 0 01-2.08-2.65.26.26 0 01.29-.23l7.29.85c.296.034.57.168.78.38l1.74 1.77 1.74-1.77a1.31 1.31 0 01.78-.38l7.29-.85a.26.26 0 01.29.23 2.39 2.39 0 01-2.08 2.65l-4.75.55-2.35 2.38a1.3 1.3 0 01-.92.39z" fill="#FFCE54" fill-rule="nonzero" mask="url(#prefix__b)"/><ellipse fill="#FFCE54" fill-rule="nonzero" mask="url(#prefix__b)" cx="36.92" cy="25.01" rx="8.24" ry="8.36"/><path fill="#4758A9" fill-rule="nonzero" mask="url(#prefix__b)" d="M-4.23 27.59h82.3v20.25h-82.3z"/><path d="M-4.23 40.4c2.74 0 5.49 1.79 8.23 1.79s5.49-1.79 8.23-1.79 5.49 1.79 8.23 1.79 5.49-1.79 8.23-1.79 5.49 1.79 8.23 1.79 5.49-1.79 8.23-1.79 5.49 1.79 8.23 1.79 5.49-1.79 8.23-1.79 5.49 1.79 8.23 1.79 5.49-1.79 8.23-1.79v-3c-2.74 0-5.49 1.79-8.23 1.79s-5.49-1.79-8.23-1.79-5.49 1.79-8.23 1.79-5.49-1.79-8.23-1.79-5.49 1.79-8.23 1.79-5.49-1.79-8.23-1.79-5.49 1.79-8.23 1.79-5.49-1.79-8.23-1.79S6.74 39.19 4 39.19s-5.49-1.79-8.23-1.79v3zM-4.23 34.44c2.74 0 5.49 1.79 8.23 1.79s5.49-1.79 8.23-1.79 5.49 1.79 8.23 1.79 5.49-1.79 8.23-1.79 5.49 1.79 8.23 1.79 5.49-1.79 8.23-1.79 5.49 1.79 8.23 1.79 5.49-1.79 8.23-1.79 5.49 1.79 8.23 1.79 5.49-1.79 8.23-1.79v-3c-2.74 0-5.49 1.79-8.23 1.79s-5.49-1.79-8.23-1.79-5.49 1.79-8.23 1.79-5.49-1.79-8.23-1.79-5.49 1.79-8.23 1.79-5.49-1.79-8.23-1.79-5.49 1.79-8.23 1.79-5.49-1.79-8.23-1.79S6.74 33.23 4 33.23s-5.49-1.79-8.23-1.79v3zM-4.23 28.48c2.74 0 5.49 1.79 8.23 1.79s5.49-1.79 8.23-1.79 5.49 1.79 8.23 1.79 5.49-1.79 8.23-1.79 5.49 1.79 8.23 1.79 5.49-1.79 8.23-1.79 5.49 1.79 8.23 1.79 5.49-1.79 8.23-1.79 5.49 1.79 8.23 1.79 5.49-1.79 8.23-1.79v-3c-2.74 0-5.49 1.79-8.23 1.79s-5.49-1.79-8.23-1.79-5.49 1.79-8.23 1.79-5.49-1.79-8.23-1.79-5.49 1.79-8.23 1.79-5.49-1.79-8.23-1.79-5.49 1.79-8.23 1.79-5.49-1.79-8.23-1.79S6.74 27.27 4 27.27s-5.49-1.79-8.23-1.79v3z" fill="#FFF" fill-rule="nonzero" mask="url(#prefix__b)"/></g></svg>