<svg width="71" height="47" xmlns="http://www.w3.org/2000/svg"><g fill-rule="nonzero" fill="none"><path d="M.52 40.62a6.36 6.36 0 006.36 6.36h57.27a6.36 6.36 0 006.36-6.36v-5.39h-70l.01 5.39z" fill="#4758A9"/><path fill="#ED5565" d="M.52 23.48h70v11.75h-70z"/><path fill="#FFF" d="M.52 11.73h70v11.75h-70z"/><path d="M64.16 0H6.89A6.36 6.36 0 00.53 6.36v5.39h70V6.36A6.36 6.36 0 0064.16 0z" fill="#F2D660"/><path d="M41.52 23.48L2.65 1.6a6.45 6.45 0 00-.46.45c-.14.15-.27.31-.39.48-.11.16-.22.32-.32.48v.08c-.09.15-.17.31-.25.48l-.06.11c-.07.15-.13.31-.19.47l-.06.15c0 .15-.09.31-.13.46-.04.15 0 .12 0 .18s-.06.32-.08.48c-.02.16 0 .12 0 .18a6.39 6.39 0 000 .68v34.27a6.39 6.39 0 000 .68v.18c0 .06 0 .32.08.48.08.16 0 .12 0 .18s.08.31.13.46l.06.15c.06.16.12.32.19.47l.05.11c.08.16.16.32.25.48v.08c.1.17.21.33.32.48.12.17.25.32.39.48.147.16.3.31.46.45l38.88-21.75z" fill="#52C162"/><path d="M12.5 17.14c-.21.15-.33.07-.28-.19l.23-1a.89.89 0 00-.25-.79l-.69-.61c-.2-.17-.15-.32.11-.33h1a.7.7 0 00.6-.48l.3-1.06c.07-.26.21-.26.29 0l.36 1a.73.73 0 00.63.46h1c.26 0 .31.15.12.32l-.75.67a.85.85 0 00-.22.78l.24.85c.07.26 0 .35-.27.21l-.8-.51a.76.76 0 00-.79 0l-.83.68zM12.5 22.65c-.21.15-.33.07-.28-.19l.23-1a.89.89 0 00-.25-.79l-.69-.61c-.2-.17-.15-.32.11-.33h1a.7.7 0 00.6-.48l.3-1.06c.07-.26.21-.26.29 0l.36 1a.73.73 0 00.63.46h1c.26 0 .31.15.12.32l-.75.67a.85.85 0 00-.22.78l.24.85c.07.26 0 .35-.27.21l-.8-.51a.76.76 0 00-.79 0l-.83.68zM12.5 28.16c-.21.15-.33.07-.28-.19l.23-1a.89.89 0 00-.25-.79l-.69-.61c-.2-.17-.15-.32.11-.33h1a.7.7 0 00.6-.48l.3-1.06c.07-.26.21-.26.29 0l.36 1a.73.73 0 00.63.46h1c.26 0 .31.15.12.32l-.75.67a.85.85 0 00-.22.78l.24.85c.07.26 0 .35-.27.21l-.8-.51a.76.76 0 00-.79 0l-.83.68zM12.5 33.68c-.21.15-.33.07-.28-.19l.23-1a.89.89 0 00-.25-.79l-.69-.61c-.2-.17-.15-.32.11-.33h1a.7.7 0 00.6-.48l.3-1.06c.07-.26.21-.26.29 0l.36 1a.73.73 0 00.63.46h1c.26 0 .31.15.12.32l-.75.67a.85.85 0 00-.22.78l.24.85c.07.26 0 .35-.27.21l-.8-.51a.76.76 0 00-.79 0l-.83.68z" fill="#FFF"/><path d="M11.25 33.93a4.58 4.58 0 01-.54.8c-1.83 2.1-2.91-1.19-3.54-7.34-.12-1.19-.18-2.39-.19-3.58-.01-1.19 0-2.4.12-3.61.5-6.27 1.51-9.95 3.38-8.22a3.5 3.5 0 01.56.69c.06.06.13-.07.15-.28a1 1 0 00-.05-.44 7 7 0 00-1.56-2.64c-2.35-2.17-4.77 2.45-5.4 10.32-.12 1.46-.17 2.93-.15 4.37.02 1.44.09 2.9.24 4.33.8 7.72 3.31 11.85 5.61 9.21a8.79 8.79 0 001.5-2.95 1.08 1.08 0 000-.46c0-.13-.07-.27-.13-.2z" fill="#FFF"/></g></svg>