<svg width="71" height="48" xmlns="http://www.w3.org/2000/svg"><g fill-rule="nonzero" fill="none"><rect fill="#ED5565" x=".39" y=".7" width="70" height="47" rx="6.36"/><path d="M64.73.74a6.42 6.42 0 00-.7 0H6.75A6.36 6.36 0 00.39 7.1v34.27l28-11.64L64.73.74z" fill="#57A863"/><path d="M70.39 7.06a6.36 6.36 0 00-6-6.34l-64 40.72a6.36 6.36 0 006.36 6.26h.57L70.39 7.6v-.54z" fill="#434A54"/><path d="M70.28 5.89L4.94 47.43a6.36 6.36 0 001.81.27h3.36L70.39 9.38V7.07c0-.396-.037-.79-.11-1.18zM.63 43.06L66.48 1.19A6.34 6.34 0 0064.02.7h-2.36L.38 39.7v1.67a6.36 6.36 0 00.25 1.69z" fill="#FFCE54"/><path d="M30.81 30.6c-.13.27-.3.26-.38 0l-.3-1.08a1 1 0 00-.68-.64l-1-.21c-.29-.06-.32-.23-.07-.39l.95-.58a.81.81 0 00.34-.82l-.28-1.21c-.07-.29.06-.37.29-.18l.93.82a.83.83 0 00.88.09l1-.55c.26-.15.39 0 .29.25l-.37 1.09a.94.94 0 00.21.9l.7.7c.22.21.14.38-.15.36H32.1a.88.88 0 00-.76.48l-.53.97zM40 24.65c-.13.27-.3.26-.38 0l-.31-1.08a1 1 0 00-.68-.64l-1-.21c-.29-.06-.31-.23-.06-.39l.94-.58a.8.8 0 00.33-.82l-.27-1.21c-.07-.29.05-.37.28-.18l.94.82a.83.83 0 00.88.09l1-.55c.26-.14.4 0 .3.25l-.38 1.09a.94.94 0 00.21.9l.7.7c.22.21.14.38-.15.36h-1.07a.88.88 0 00-.76.48l-.52.97z" fill="#FFF"/></g></svg>