<svg width="71" height="48" xmlns="http://www.w3.org/2000/svg"><g fill-rule="nonzero" fill="none"><path d="M70.39 7.46A6.64 6.64 0 0063.75.82H7A6.64 6.64 0 00.36 7.46v1.19h70l.03-1.19zM70.39 41.17V40h-70v1.19a6.64 6.64 0 006.64 6.64h56.72a6.64 6.64 0 006.64-6.66z" fill="#4658A9"/><path fill="#FFF" d="M.39 8.65h70v1.31h-70zM.39 38.68h70v1.31h-70z"/><path fill="#EC5565" d="M.39 9.95h70v28.72h-70z"/><path d="M34.14 24.34c0 5.766-4.674 10.44-10.44 10.44-5.766 0-10.44-4.674-10.44-10.44 0-5.766 4.674-10.44 10.44-10.44 5.766 0 10.44 4.674 10.44 10.44z" fill="#FFF"/><path d="M18 32.94a.75.75 0 01-.44-.15.74.74 0 01-.27-.84l1.48-4.54a2.39 2.39 0 00-.87-2.68l-3.86-2.81a.75.75 0 01.44-1.36h4.78a2.39 2.39 0 002.28-1.65l1.48-4.54a.74.74 0 01.72-.52.74.74 0 01.72.52l1.48 4.54a2.39 2.39 0 002.28 1.65H33a.75.75 0 01.44 1.36l-3.86 2.81a2.39 2.39 0 00-.87 2.68l1.48 4.54a.75.75 0 01-1.16.84L25.1 30a2.39 2.39 0 00-2.81 0l-3.86 2.81a.75.75 0 01-.43.13z" fill="#EC5565"/></g></svg>