<svg width="71" height="48" xmlns="http://www.w3.org/2000/svg"><g fill-rule="nonzero" fill="none"><rect fill="#FFF" x=".01" y=".1" width="70" height="47" rx="6.64"/><g fill="#434A54"><path d="M10.39 14.36L16.9 4.6l1.63 1.08-6.51 9.76zM51.08 5.68l1.63-1.08 3 4.47-1.63 1.08zM12.83 16a8272.31 8272.31 0 016.51-9.76l1.62 1.08-6.51 9.76L12.83 16zM48.63 7.33c.53-.39 1.09-.73 1.63-1.1 2.167 3.253 4.337 6.507 6.51 9.76l-1.63 1.08a868.39 868.39 0 00-6.51-9.74zM21.78 7.85l1.63 1.08-6.51 9.76-1.63-1.08zM46.19 8.94l1.63-1.08 3 4.48-1.62 1.08c-1.02-1.5-2.01-2.99-3.01-4.48zM54.6 11c.54-.36 1.07-.72 1.61-1.07l3 4.45-1.63 1.08L54.6 11zM49.72 14.22l1.63-1.08 3 4.47-1.63 1.09zM15.27 29.55l1.63-1.08 6.51 9.76-1.63 1.09zM52.7 28.46l1.63 1.08-3 4.47-1.63-1.08zM12.83 31.17l1.63-1.08 3 4.47-1.63 1.08zM55.14 30.09l1.63 1.08-3 4.47-1.63-1.09zM10.39 32.8l1.63-1.08 6.51 9.76-1.63 1.09zM57.58 31.72c.55.35 1.09.72 1.63 1.08l-3 4.47-1.63-1.09 3-4.46zM49.18 33.75l1.63 1.08-3 4.47-1.63-1.08zM16.36 36.47l1.62-1.09c1 1.48 2 3 3 4.47l-1.63 1.09-2.99-4.47zM48.63 39.85c1-1.49 2-3 3-4.47.54.37 1.09.72 1.62 1.09l-3 4.47-1.62-1.09zM54.05 37c.55.35 1.09.72 1.63 1.08l-3 4.47-1.63-1.09 3-4.46z"/></g><path d="M28.86 13.46a11.73 11.73 0 0117.67 9.75 11.65 11.65 0 01-1.74 6.53 5.87 5.87 0 00-7.74-8.15 5.85 5.85 0 00-2.24 2 5.87 5.87 0 01-10.76-3.32 6.27 6.27 0 01.61-2.57 11.65 11.65 0 014.2-4.24z" fill="#EC5565"/><path d="M23.07 23.2a11.51 11.51 0 011.6-5.53 6.27 6.27 0 00-.61 2.57 5.87 5.87 0 0010.76 3.32 5.87 5.87 0 0110.73 3 5.93 5.93 0 01-.76 3.22 11.62 11.62 0 01-5.27 4.59 11.74 11.74 0 01-16.45-11.13v-.04z" fill="#4658A9"/></g></svg>