<svg width="71" height="48" xmlns="http://www.w3.org/2000/svg"><g fill="none" fill-rule="evenodd"><path d="M64 47.4H7.27a6.64 6.64 0 01-6.64-6.64V23.93L24.74.4H64a6.64 6.64 0 016.64 6.64v33.72A6.64 6.64 0 0164 47.4z" fill="#4658A9" fill-rule="nonzero"/><path d="M54 18.31v6.27c0 5.43-2.57 7.3-6 8.77-3.44-1.48-6-3.34-6-8.77v-6.27h12zm0-1H41.94a1 1 0 00-1 1v6.27c0 6.31 3.43 8.31 6.65 9.69a1 1 0 00.79 0c3.2-1.38 6.62-3.37 6.62-9.69v-6.27a1 1 0 00-1-1z" fill="#FFF" fill-rule="nonzero"/><g fill-rule="nonzero"><g fill="#FFF" stroke="#FFF"><path d="M46 18.6a1 1 0 01-1.09-.22.58.58 0 01.06-.87 1 1 0 01.9-.22c.35.1 1.29 1 1.06 1a6.5 6.5 0 00-.93.32v-.01zM47 17.06c.212-.134.46-.2.71-.19.39 0 .67 0 .77.26a2.1 2.1 0 00.48 1 2.05 2.05 0 01-1.25 0c-.39-.19-.48-.93-.71-1.06v-.01zM49.8 17.09c.13-.1.29-.1.71-.06.42.04.58.06.67.35.09.29 0 .74.19 1a1.41 1.41 0 01-1.06-.16c-.35-.26-.32-1-.51-1.16v.03z" stroke-linecap="round" stroke-linejoin="round"/><path d="M51.72 17.28c-.29-.06-.48-.1-.61 0 .16.19 0 1 .35 1.22.35.22.8.19.93-.16s.16-.8-.67-1.06zM48.41 17c.1-.1.29-.13.67-.13.38 0 .67.06.8.32s.1.74.32 1a1.64 1.64 0 01-1.22-.06c-.35-.22-.39-1-.58-1.12l.01-.01zM45.68 17.25c0-.16.22-.19.8-.22.58-.03.61 0 .8.39.1.22.22.61.48.74-.71.16-.93.26-1.32 0a2 2 0 01-.67-.71c0-.1 0-.19-.1-.22l.01.02z"/></g><path d="M52.47 13a3.38 3.38 0 00-1.73.28c.56-.57 1.22-1.23 1.64-1.63a6.66 6.66 0 00-2.36 1.56 20.25 20.25 0 012-2.36 5.43 5.43 0 00-2.32 1.83 6.8 6.8 0 011.13-2.05 3.09 3.09 0 00-1.24 1c.126-.45.283-.891.47-1.32a6.24 6.24 0 00-1.57 2.15l.69.42v.09l.05-.09.06-.21.08-.14.19.29-.07.09.12.34-.05.08.06-.07.14.39.06-.1v.71l.05-.06-.05.28A10.47 10.47 0 0152.47 13zm-3.19-.37v-.09.09z" fill="#F6D660"/><path d="M46.39 10.47a9.3 9.3 0 011 1.88 4.89 4.89 0 00-1.31-1.27l.62 1.21a3.55 3.55 0 00-1.72-.89 6 6 0 011.55 1.46 4.18 4.18 0 00-1.74-.66 8.31 8.31 0 011.74 1.34 4.3 4.3 0 00-1.71-.73 19.76 19.76 0 012.19 1.7v-.29l.08.06-.08-.07v-.2l.1-.16.06.14.15-.46.11.18.21-.36c0 .14.08.27.11.42l.22-.33.19-.28a4.14 4.14 0 00-1.77-2.69z" fill="#F2D660"/><path d="M49.73 13.26a.73.73 0 00-.49-1.1v-.08a.64.64 0 00.18 0c-.16-.1-.26-.42-.45-.42a1 1 0 01.55 0 .59.59 0 00-.42-.26 2.25 2.25 0 01.51-.45 1.34 1.34 0 00-.64.2l-.06.06c.28-.26.24-.7.58-.76a.94.94 0 00-.71.32c.1-.19.1-.45.22-.51a1.37 1.37 0 00-.64.55 1.21 1.21 0 00-.16-.51c-.06.26-.29.48-.13.84a.63.63 0 00-.77.13.7.7 0 01.67.26.39.39 0 00-.45.26 1.38 1.38 0 01.55-.1 1.11 1.11 0 00-.29.39l.1-.06a.75.75 0 00-.13.35.75.75 0 00-.16.3c-.15 0-.29.3-.29.6a.89.89 0 000 .58c.06.26.26.42.39.39a.23.23 0 00.11-.14.22.22 0 00.12 0 .28.28 0 00.21-.12.39.39 0 00.33.25.41.41 0 00.34-.27.27.27 0 00.21.14c.12 0 .23-.07.3-.23 0 .17.06.31.15.33.09.02.32-.13.35-.42a.87.87 0 00-.08-.52z" fill="#F6D660"/><path d="M45.56 14.33a.69.69 0 01-.55-.26.85.85 0 00-1.09-.16 1.22 1.22 0 01-.32.1c-.16 0-.35.16-.29.48.13-.1.16 0 .26 0s0 0 0 .1a.7.7 0 00.67.45.77.77 0 01.58.19c.1.1 0 .06.1.22s.13.13 0 .26a.65.65 0 000 1 2.1 2.1 0 002.67-.13 2.73 2.73 0 013.09-.06c.117.21.204.436.26.67a.36.36 0 00.42.22c.217.004.429.07.61.19.16.1.39.06.32-.22-.13-.9-.67-1-.74-1.45.32 0 .55 0 .67-.1s.22-.35.35-.42c.13-.07.1-.13 0-.1a1.26 1.26 0 01-.55.06c-1.48-.16-5.62-1.29-6.43-1.06l-.03.02z" fill="#51C161"/><path d="M46 14.2a1.15 1.15 0 011.09-.39h.1a1 1 0 01.9-.06h.13a1.71 1.71 0 011.38.26l.1.06a2.37 2.37 0 012 .93.64.64 0 00.32.22c.19 0 .22.13.06.22a2.54 2.54 0 00-.67.61 3.27 3.27 0 01-2.38.77 3.64 3.64 0 01-2.31-.58 6 6 0 00-.67-.45c-.19-.06-.45-.32-.35-.58a1.69 1.69 0 00-.22-.9.63.63 0 01.48-.1h.06L46 14.2z" fill="#51C161"/><path d="M44.34 14.49c-.06 0-.1-.19-.22-.19h-.16a.25.25 0 00.06.16c0 .1.19 0 .32 0v.03z" fill="#434A54"/></g><path d="M54 18.31v6.27c0 5.43-2.57 7.3-6 8.77-3.44-1.48-6-3.34-6-8.77v-6.27h12z" fill="#FFF" fill-rule="nonzero"/><path d="M48 23.61a2 2 0 001.12-.64 1.28 1.28 0 011.86 0 1 1 0 001.57 0 1.8 1.8 0 011.45-.48v-4.18H41.94v4.18a1.8 1.8 0 011.45.48 1 1 0 001.57 0 1.32 1.32 0 011.9 0c.28.345.68.573 1.12.64H48z" fill="#EC5565" fill-rule="nonzero"/><path d="M48 26.82a4.39 4.39 0 001.35-.51 1.53 1.53 0 011.64.16 1.88 1.88 0 001.8 0 1.46 1.46 0 011.16-.39 11.38 11.38 0 00.06-1.51v-.39c-.45-.1-.67 0-1.16.45-.49.45-1 .32-1.74.06s-1.35-.8-2 0a1.62 1.62 0 01-1.09.55 1.55 1.55 0 01-1.09-.55c-.71-.8-1.35-.29-2 0-.65.29-1.29.35-1.77-.06s-.67-.55-1.16-.45v.39c0 .505.033 1.01.1 1.51a1.4 1.4 0 011.12.39 1.88 1.88 0 001.8 0c.45-.19 1-.58 1.67-.16a4.09 4.09 0 001.35.51H48zM48 28.21a3.43 3.43 0 001.57-.48 1.63 1.63 0 011.74.13c.5.28 1.11.28 1.61 0 .19-.13.35-.39.77-.29a7.28 7.28 0 01-.84 2.09 2.18 2.18 0 01-1.67-.13 2.32 2.32 0 00-2-.22 2.13 2.13 0 01-2.44 0 2.32 2.32 0 00-2 .22 2.18 2.18 0 01-1.67.13 7.28 7.28 0 01-.84-2.09c.42-.1.58.16.77.29a1.59 1.59 0 001.57 0 1.69 1.69 0 011.77-.13 3.43 3.43 0 001.57.48H48zM48 33.35a12.87 12.87 0 003.44-2c-.26-.1-.42 0-.64-.19a1.63 1.63 0 00-1.48.1 2.63 2.63 0 01-2.64 0 1.63 1.63 0 00-1.48-.1c-.22.16-.39.1-.64.19a12.39 12.39 0 003.44 2z" fill="#4658A9" fill-rule="nonzero"/><path d="M47.2 19.94v.27c0 .06.06.18.15.24h.21c.65 0 1.43-.27 2.08-.27.65 0 1 .21 1.37.21a.37.37 0 00.39-.3c0-.15-.24-.24-.74-.24-.71 0-1.1.18-1.69.18-.89 0-1-.33-1-.48 0-.15.15-.36.62-.36a.48.48 0 00.33-.09.66.66 0 01.3-.27c.21-.12.62 0 .83-.15 0 .12-.18.3-.33.36.3-.09.62-.09.68.15a.65.65 0 00-.48 0l-.3.09c.12 0 .18.21.36.21a.78.78 0 01-.77 0 1.85 1.85 0 00-.48-.12c-.3 0-.48.06-.48.18s.18.24.71.24.83-.15 1.63-.15c-.06-.09 0-.18-.09-.27a.87.87 0 01.74.3c0-.21.15-.39.09-.56a.48.48 0 01.36.36c0-.09.12-.09.12-.18a.46.46 0 01.24.48c.09-.15.18-.09.24-.27a.55.55 0 01-.18.59.47.47 0 01.62.09.57.57 0 00-.36.09 2.75 2.75 0 01-1.4.3c-.48 0-.54-.12-.83-.12.18 0 .54.39.86.39.15.02.3.02.45 0a.54.54 0 01.36.06.49.49 0 00.39.15.26.26 0 01-.18.21c.15.09.06.15.21.27-.06 0-.12.06-.21 0 .09.09.09.21.18.27.09.06-.12 0-.18 0s0 .27.09.33-.09.27-.24.15a.12.12 0 01-.15.15c-.09 0-.15-.12-.12-.15s0 0 0-.06a.19.19 0 01-.24.06s-.06-.06-.06-.09a.19.19 0 01-.27-.21c0-.09.21-.12.27-.09.06.03.12.06.18 0a.16.16 0 00.09-.15c0-.09-.09-.36-.48-.33a4.92 4.92 0 01-1.52-.21l-.09-.06c0 .12-.12.18-.12.3a.31.31 0 00.24.33.17.17 0 01-.3 0c0 .09-.12.15-.12.27l-.09-.15c-.09.21-.33.33-.45.27a.25.25 0 01-.39 0 .22.22 0 01-.27 0c0 .09-.06.06-.09.18s-.12.09-.18.06a.14.14 0 010-.21.18.18 0 01-.24 0c0-.06 0-.15.06-.18h.06-.21a.14.14 0 010-.18s.12-.09.18 0c0-.06 0-.12.06-.12a.2.2 0 01.24.06c.06.09.12.09.3.06.21-.046.405-.15.56-.3-.51-.09-.21-.42-.06-.54a.67.67 0 00-.42 0c-.62.33-1.28.71-1.69.59a.42.42 0 00.06.18c-.09 0-.27 0-.33-.09a.39.39 0 000 .33 1.1 1.1 0 00-.33-.15c.06.06 0 .18 0 .27-.09-.09-.24-.15-.3-.09a.29.29 0 01-.27.06.46.46 0 01-.24.18v-.18a.51.51 0 01-.24.27.51.51 0 000-.21c0 .12-.24.18-.27.27a.74.74 0 000-.24.46.46 0 01-.3.21.2.2 0 000-.18c0 .12-.21.18-.36.15s-.12.15-.27.06c-.15-.09-.15-.12-.09-.18-.12 0-.24-.12-.18-.21s0-.06 0-.09a.17.17 0 010-.27h.18c0-.24.21-.24.3-.06a.46.46 0 00.39.21h.15a2.55 2.55 0 00.74-.39.58.58 0 000-.21.76.76 0 00-.3.21v-.09h-.3s.06-.18.12-.21a1 1 0 01-.42 0c.06-.06.06-.15.09-.24s-.21 0-.33 0c-.12 0 .06-.21.15-.24a.71.71 0 01-.42-.06c.12 0 .18-.15.27-.15-.24 0-.3-.12-.42-.18.09 0 .15-.06.24-.06-.09 0-.24-.18-.18-.27.06-.09-.06.09-.12.12a.27.27 0 01-.27-.09.2.2 0 01.09-.3.14.14 0 01-.09-.24c0-.06.15-.15.21-.06l.09.12a.74.74 0 010-.27c0-.09.09-.09.18-.12.09.01.156.09.15.18a1.1 1.1 0 00.06.27v-.12c0-.03.15-.09.24-.06s.12.21 0 .3a.15.15 0 000 .21c.19.316.5.54.86.62a.48.48 0 01.15-.33.55.55 0 01.06-.21c0-.18.12-.27.24-.21.12.06-.06-.06-.06-.09s-.18-.24-.12-.36.24-.09.3 0c0-.18.18-.33.18-.42 0 .09.09.21.06.3 0-.12.24-.27.39-.33-.06.09.12.24.09.33a.54.54 0 01.48-.24.36.36 0 00-.06.24.38.38 0 00.3-.12.45.45 0 01-.12.3.51.51 0 01.24 0c-.09.09-.06.18-.15.24.12-.06.27-.06.3.06.03.12 0 .24-.09.33-.09.09-.12.09-.15.09l.07-.13z" stroke="#F2D660" stroke-width=".09" fill="#F2D660" fill-rule="nonzero" stroke-linecap="round" stroke-linejoin="round"/><path d="M45.36 20.3a.56.56 0 00-.3.42M45.33 20.5c-.3.18-.42.33-.36.65M45.48 21.4a.68.68 0 00.45-.39" stroke="#F2D660" stroke-width=".09" stroke-linecap="round" stroke-linejoin="round"/><path d="M45.83 21.13c-.06.12 0 .33-.09.42a.56.56 0 00.3-.42" stroke="#F2D660" stroke-width=".09" stroke-linecap="round" stroke-linejoin="round"/><path d="M45.89 21.46a1 1 0 00.39-.45c0 .09 0 .24-.06.33a.69.69 0 00.24-.39v.12a.31.31 0 00.12-.24M46.61 20.92v.15a.4.4 0 00.15-.36M46.73 20.89c.18-.12.21-.3.21-.56M46.93 20.62c.12-.09.15-.15.15-.42M46.7 19.4a.11.11 0 00-.12.12c0 .06-.09.15-.09.24s-.09.15-.18.12-.09-.06-.09-.15.15-.15.15-.27c0-.12.06-.15.09-.15a.25.25 0 01-.39-.15" stroke="#F2D660" stroke-width=".09" stroke-linecap="round" stroke-linejoin="round"/><path d="M47 19.49c-.06 0-.12-.06-.21 0s-.12 0-.15 0" stroke="#F2D660" stroke-width=".09" stroke-linecap="round" stroke-linejoin="round"/><path d="M46.55 19.64a.36.36 0 00.33 0 .114.114 0 01-.09-.21M46.28 19.35c-.12 0-.21.09-.18.18s.15.09.24 0M46.07 20.83a.21.21 0 01.21-.18.26.26 0 00.24-.18c.06 0 .09-.15.12-.21s.09 0 .12-.12a.13.13 0 00.18-.09M45.71 19.85s-.06.09-.12.12a.23.23 0 01-.06.24.26.26 0 010 .21v.15M45.83 19.26c-.06.15 0 .33.09.36" stroke="#F2D660" stroke-width=".09" stroke-linecap="round" stroke-linejoin="round"/><path d="M45.89 19.73c0 .15 0 .36-.06.45a.22.22 0 00.15.33c.27.06.42 0 .56-.42M47 21.25c0 .05-.04.09-.09.09M47.2 21.19a.34.34 0 01-.09.18M47.41 21.13c0 .06 0 .15-.06.18M45.6 19.29s.06.06.09.12-.18.09-.12.18M45.51 19.79l-.12.09M45.42 20.06h-.09M44 19.52v-.06M43.72 19.43h-.06M43.75 19.85h.06M43.63 19.67a.33.33 0 00-.18-.09M45.27 20.77a.81.81 0 00-.33.54M45.48 20.92a.7.7 0 01-.24.27M44.32 21.81a.68.68 0 01-.59-.09l-.09-.06M45.21 21.4c0 .12-.06.27-.12.3a.76.76 0 00.48-.56M43.49 22h.24M48.66 21a1 1 0 01.18.09.5.5 0 01.24-.18M46.55 21.6a.28.28 0 01.21-.33M45.39 22.11c0-.06 0-.15.06-.21M44.08 22.2c0 .06-.09.12-.09.18M43.63 22.26a.44.44 0 00.18-.15M47.68 21.84h-.12M47.65 22a.1.1 0 01-.06 0M47.8 22.14s-.06.06-.09.06M48.66 22.2c.06 0 .09-.09.12-.21M48.27 22.17a.62.62 0 00.24-.18M49.1 21.93a.38.38 0 010-.18M51.3 22.2a.13.13 0 010-.21l.15-.09M49.49 21.16c-.48-.21-.45-.48-.83-.45M51.6 22.08v.15M51.87 22.08a.51.51 0 000 .21M49.58 19.29h-.24M47.08 20.3c0 .06.09.18.33.18a.1.1 0 01-.06 0" stroke="#F2D660" stroke-width=".09" stroke-linecap="round" stroke-linejoin="round"/><path d="M47.2 19.94c-.06-.06 0-.18.12-.24a.58.58 0 01-.21 0c-.06.18-.24.27-.36.15 0 .12-.18.27-.3.24a.19.19 0 01-.12-.24.25.25 0 01-.39 0 .7.7 0 01.06-.39" stroke="#F2D660" stroke-width=".09" stroke-linecap="round" stroke-linejoin="round"/><path d="M49.1 21.07c-.09.06-.18 0-.27.09-.09.09 0 .09.09.09s0 .12.12.12c-.06.09.12.12.09.24a.28.28 0 00.06-.3c0-.09-.18-.15-.09-.24zM43.46 19.4a.12.12 0 000-.21.33.33 0 00-.36.15h.21c.03 0 .09.12.18 0l-.03.06zM43.6 18.87c.21 0 .27 0 .3.12a.11.11 0 01-.09.15c-.09 0-.18-.06-.15-.09a.12.12 0 00-.06-.18zM44.2 19.35c.15 0 .21-.06.12-.18s-.12-.15-.27-.12c.15.09 0 .24.15.3zM43.1 19.85a.24.24 0 00.3.12.13.13 0 00.09-.18c-.06-.09-.15-.12-.18 0a.13.13 0 01-.21.06zM43.54 21.66c-.06-.12-.24-.12-.39 0a.18.18 0 01.21.06.12.12 0 00.12.06s.09-.06.06-.12zM43.78 21.49c0-.15-.21-.18-.33-.12.06 0 .15.06.15.12a.16.16 0 00.12.09c.06-.04.09-.06.06-.09zM43.49 22c-.18 0-.27.18-.27.33a.17.17 0 01.21-.12c.09 0 .12 0 .12-.09s0-.09-.06-.12zM43.51 22.53c.06 0 .12 0 .15-.12s.12-.06.15 0 .06.15 0 .21-.21.06-.27-.06l-.03-.03zM47.65 21.63a.32.32 0 00-.33 0 .14.14 0 01.18.09.06.06 0 00.12 0s.06-.06.03-.09zM47.38 21.84c-.12-.06-.27.09-.3.21a.44.44 0 01.21-.09c.06 0 .12 0 .12-.06s.03-.06-.03-.06zM47.53 22.08a.26.26 0 00-.21.24.11.11 0 01.15-.06c.06 0 .15 0 .15-.09a.08.08 0 00-.09-.09zM47.8 22.32a.1.1 0 00-.15.09v.21a.62.62 0 01.18-.12.13.13 0 000-.18h-.03zM51.15 22.05a.11.11 0 00-.18 0 .41.41 0 000 .33c0-.06.06-.15.12-.15a.13.13 0 00.06-.21v.03zM51.33 22.17c-.12.06-.12.27 0 .39a.21.21 0 01.09-.18c.09 0 .12-.12.09-.18a.15.15 0 00-.15 0l-.03-.03zM51.69 22.29c-.06 0-.12 0-.12.09a.26.26 0 00.12.27.23.23 0 01.06-.15c.09-.06.06-.18-.06-.21zM52 22.26a.11.11 0 00-.06.18c0 .06.09.09.21.06s-.09-.09-.06-.12-.09-.12-.09-.12z" fill="#F2D660" fill-rule="nonzero"/><path stroke="#51C161" stroke-width=".41" fill="#51C161" fill-rule="nonzero" stroke-linecap="round" stroke-linejoin="round" d="M43.8 27.75l3-2.2h-3.7l3 2.2-1.13-3.53zM49.84 27.75l3-2.2h-3.7l3 2.2-1.13-3.53zM46.82 31.26l3-2.2h-3.7l3 2.2-1.13-3.53z"/><path d="M55.79 31a.45.45 0 00-.63.22 7.9 7.9 0 01-14.4 0 .45.45 0 00-.63-.22l-.7.39a.45.45 0 00-.2.58 9.61 9.61 0 0017.45 0 .45.45 0 00-.2-.58l-.69-.39z" fill="#F6D660" fill-rule="nonzero"/><path d="M25.6.41H7.2a6.63 6.63 0 00-2.19.4L1.38 3.99a6.61 6.61 0 00-.75 3.06v17.33h25L25.6.41z" fill="#4658A9" fill-rule="nonzero"/><path d="M11.16 17.81v6.56h3.9v-6.71l6.71 6.71h3.82v-3l-7-7h7v-4h-7l7-7v-3h-3.83l-6.7 6.7V.37h-3.9V7L5 .84a6.66 6.66 0 00-3.63 3.17l6.41 6.41H.62v4h7.16L.62 21.58v2.83h4l6.54-6.6z" fill="#FFF" fill-rule="nonzero"/><path d="M12.16 15.07v9.31h1.9v-9.45l9.45 9.45h2.08v-1.23l-9.78-9.78h9.78v-1.95h-9.78l9.78-9.78V.41H23.5l-9.45 9.45V.41h-1.9v9.3L3.82 1.37a6.67 6.67 0 00-1.76 1.55l8.49 8.49H.62v1.95h9.93L.62 23.29v1.09h2.23l9.31-9.31z" fill="#EC5463" fill-rule="nonzero"/></g></svg>