<svg width="71" height="48" xmlns="http://www.w3.org/2000/svg"><g fill-rule="nonzero" fill="none"><rect fill="#3BAFDA" x=".77" y=".53" width="70" height="47" rx="6.36"/><path d="M54.8 23.81a4.15 4.15 0 00-4.54 2.13 10.94 10.94 0 01-19.28 0 4.15 4.15 0 00-4.54-2.14 14.5 14.5 0 0028.37 0l-.01.01z" fill="#F6D660"/><path d="M47.69 23.23a2.56 2.56 0 01.29-1.09l.5-.87a1.12 1.12 0 000-1l-.52-.89a2.6 2.6 0 01-.29-1.09v-1a1.12 1.12 0 00-.51-.87l-.87-.5a2.56 2.56 0 01-.8-.8l-.5-.87a1.12 1.12 0 00-.87-.51h-1a2.6 2.6 0 01-1.09-.29l-.9-.51a1.12 1.12 0 00-1 0l-.86.51a2.56 2.56 0 01-1.09.29h-1a1.12 1.12 0 00-.87.51l-.52.9a2.6 2.6 0 01-.8.8l-.89.52a1.12 1.12 0 00-.5.88v1a2.55 2.55 0 01-.29 1.09l-.5.87a1.12 1.12 0 000 1l.52.89c.175.338.274.71.29 1.09v1c.022.354.212.677.51.87l.87.5c.323.204.596.477.8.8l.5.87c.193.298.516.488.87.51h1a2.6 2.6 0 011.09.29l.9.51a1.12 1.12 0 001 0l.86-.51a2.55 2.55 0 011.09-.29h1a1.12 1.12 0 00.87-.51l.52-.89a2.6 2.6 0 01.8-.8l.89-.52a1.12 1.12 0 00.5-.88v-1.01zM6.77 6.8h3.68v4.92H6.77zM6.77 14.19h3.68v4.92H6.77zM6.77 21.57h3.68v4.92H6.77zM6.77 28.95h3.68v4.92H6.77zM6.77 36.34h3.68v4.92H6.77z" fill="#F6D660"/></g></svg>