<svg width="71" height="48" xmlns="http://www.w3.org/2000/svg"><g fill-rule="nonzero" fill="none"><path fill="#FFF" d="M.52 8.1h70v31h-70z"/><path d="M64.16.1H6.89A6.36 6.36 0 00.53 6.46V8.1h70V6.46A6.36 6.36 0 0064.16.1zM.52 40.73a6.36 6.36 0 006.36 6.36h57.27a6.36 6.36 0 006.36-6.36v-1.64h-70l.01 1.64z" fill="#ED5565"/><path d="M43.09 31.32a.36.36 0 00.35-.57l-2.72-5a.36.36 0 01.35-.57h.64c.36 0 .5-.24.3-.53l-3.49-5.11c-.2-.29-.07-.53.3-.53h.64c.36 0 .49-.23.28-.52l-3.76-5.14a.45.45 0 00-.77 0l-3.88 5.15c-.21.28-.09.52.27.52h.63c.36 0 .5.24.3.53l-3.49 5.11c-.2.29-.07.53.3.53H30a.36.36 0 01.35.57l-2.73 5a.36.36 0 00.35.57h5.85a.65.65 0 01.66.64v1.49a.65.65 0 00.66.64H36a.65.65 0 00.66-.64V32a.65.65 0 01.66-.64h5.75l.02-.04z" fill="#57A863"/></g></svg>