<svg width="71" height="48" xmlns="http://www.w3.org/2000/svg"><g fill-rule="nonzero" fill="none"><path d="M64.54.38H7.27A6.36 6.36 0 00.91 6.74v17.64h70V6.74A6.36 6.36 0 0064.54.38z" fill="#4758A9"/><path d="M.9 41a6.36 6.36 0 006.36 6.36h57.27A6.36 6.36 0 0070.89 41V24.36h-70L.9 41z" fill="#ED5565"/><path d="M21.87 9.49a1.33 1.33 0 01-2.16 0l-1.72-2.13a1.33 1.33 0 00-2.17 0l-1.71 2.13a1.33 1.33 0 01-2.16 0L9.83 6.85c-.6-.74-1-.57-.92.38l.78 8.42a1.94 1.94 0 001.88 1.73h10.7a1.93 1.93 0 001.87-1.73l.74-8.43c.08-1-.33-1.12-.92-.37l-2.09 2.64z" fill="#F6BB42"/></g></svg>