<svg width="71" height="48" xmlns="http://www.w3.org/2000/svg"><g fill-rule="nonzero" fill="none"><path d="M64.4.1H7.13a6.43 6.43 0 00-.71 0h58.7a6.43 6.43 0 00-.72 0zM7.13 47.1H64.4a6.4 6.4 0 00.71 0H6.41c.24.014.48.014.72 0zM70.74 41.19h-70a6.36 6.36 0 005.63 5.86h58.7a6.36 6.36 0 005.67-5.86z" fill="#FFF"/><path d="M70.77 41.19v-.46.46zM.77 40.73v.46c.01-.19 0-.3 0-.46z" fill="#ED5565"/><path d="M.77 40.73v.46h70v-5.87h-70v5.41z" fill="#ED5565"/><path fill="#FFF" d="M.77 29.46h70v5.86h-70z"/><path fill="#ED5565" d="M.77 23.6h70v5.86h-70z"/><path fill="#FFF" d="M.77 17.73h70v5.86h-70z"/><path fill="#ED5565" d="M.77 11.87h70v5.86h-70z"/><path d="M70.77 6.46V6c-.02.16 0 .31 0 .46zM.77 6v0z" fill="#FFF"/><path d="M.79 6v5.87h70V6.46 6h-70z" fill="#FFF"/><path d="M.79 6h70A6.36 6.36 0 0065.16.14H6.46A6.36 6.36 0 00.79 6z" fill="#ED5565"/><path d="M30.09.14H6.42A6.36 6.36 0 00.77 6.46v23h29.32V.14z" fill="#4758A9"/><path d="M11 22c-.78.55-1.23.24-1-.69l.84-3.48a3.15 3.15 0 00-.91-2.84l-2.54-2.2c-.72-.63-.53-1.16.42-1.19l3.56-.1a2.56 2.56 0 002.22-1.72l1.12-3.8c.27-.92.76-.94 1.08 0l1.34 3.75a2.69 2.69 0 002.32 1.66h3.63c1 0 1.15.53.42 1.16l-2.76 2.42a3 3 0 00-.83 2.82l.88 3.06c.27.92-.18 1.27-1 .77l-3-1.82a2.85 2.85 0 00-2.9.09L11 22z" fill="#FFF"/></g></svg>