<svg width="71" height="48" xmlns="http://www.w3.org/2000/svg"><g fill-rule="nonzero" fill="none"><path d="M.28 7v9h70V7A6.64 6.64 0 0063.64.36H6.93A6.64 6.64 0 00.28 7z" fill="#ED5565"/><path fill="#434A54" d="M.28 31.73h70V16.06h-70z"/><path d="M.28 40.74a6.64 6.64 0 006.64 6.64h56.72a6.64 6.64 0 006.64-6.64v-9h-70v9z" fill="#57A863"/><path d="M37.41 26.52c-.26.18-.41.08-.33-.24l.29-1.16a1.06 1.06 0 00-.29-1l-.83-.75c-.24-.21-.17-.39.14-.4h1.17a.84.84 0 00.74-.57l.38-1.27c.09-.31.25-.31.36 0l.43 1.26a.89.89 0 00.76.57h1.2c.31 0 .38.18.14.39l-.92.8a1 1 0 00-.28.94l.28 1c.09.31-.06.42-.33.25l-1-.62a.93.93 0 00-1 0l-.91.8zm1.7 1.9a5 5 0 01-7.2-2.87 5.69 5.69 0 01-.11-3.16 5 5 0 017-3.3.17.17 0 00.2-.09.18.18 0 00-.07-.2 6.24 6.24 0 00-10 3.37 6.63 6.63 0 00.13 3.82 6.33 6.33 0 008 4.07h.09a6.18 6.18 0 002.15-1.3.18.18 0 00.06-.2.17.17 0 00-.21-.1l-.04-.04zm.14-1.54c-.11.3-.29.3-.4 0l-.43-1.12a1.06 1.06 0 00-.78-.62l-1.11-.13c-.32 0-.36-.22-.11-.41l1-.69a.84.84 0 00.28-.89l-.41-1.26c-.1-.3 0-.4.29-.21l1.07.79a.89.89 0 00.95 0l1-.66c.26-.17.41-.07.34.24l-.3 1.18a1 1 0 00.31.93l.82.68c.25.2.19.38-.13.4h-1.15a.92.92 0 00-.77.56l-.47 1.21z" fill="#FFF"/></g></svg>