<svg width="71" height="47" xmlns="http://www.w3.org/2000/svg"><g fill-rule="nonzero" fill="none"><rect fill="#ED5565" x=".87" width="70" height="47" rx="6.36"/><path d="M30.64 33.18c-.92.65-1.45.28-1.19-.82l1-4.09a3.7 3.7 0 00-1.07-3.34l-3-2.59c-.85-.74-.63-1.36.49-1.4l4.19-.12a3 3 0 002.62-2l1.32-4.5c.32-1.08.89-1.1 1.27 0l1.58 4.41a3.17 3.17 0 002.73 2h4.28c1.12 0 1.35.63.5 1.37l-3.26 2.85a3.53 3.53 0 00-1 3.32l1 3.6c.31 1.09-.21 1.49-1.17.9l-3.47-2.15a3.35 3.35 0 00-3.41.11l-3.41 2.45z" fill="#57A863"/></g></svg>