<svg width="71" height="47" xmlns="http://www.w3.org/2000/svg"><g fill="none" fill-rule="evenodd"><g fill-rule="nonzero"><path d="M6.75 0A6.36 6.36 0 00.39 6.36v34.28A6.36 6.36 0 006.75 47h17V0h-17z" fill="#4758A9"/><path d="M23.73 0v47h23.35V0H23.73z" fill="#F6D660"/><path d="M64 0H47.08v47H64a6.36 6.36 0 006.36-6.36V6.36A6.36 6.36 0 0064 0z" fill="#ED5565"/></g><path d="M42.09 28.82v-1.7c0-3.12-.08-7.86-.08-9.18a3 3 0 00-.37-1.5 2.56 2.56 0 00-.8-.86.48.48 0 00-.42 0 .49.49 0 00-.18.1l-3 2.75a.13.13 0 01-.16 0L37 18.3l-.12-.11-.1-.12-.08-.07a2.85 2.85 0 01-.35-1.41c0-.21.16-.42.28-.86a3 3 0 00.09-1 .13.13 0 00-.1-.12 5.61 5.61 0 01-.76-.29 2.22 2.22 0 00-1-.23.92.92 0 00-.47.08c-.11.07-.1.17-.14.2a.51.51 0 01-.32.08c-.49 0-.5.52-.5.52a2.6 2.6 0 01.61.3c.306.262.46.66.41 1.06a3.12 3.12 0 01-.36 1.65l-.07.08-.1.12-.12.11-.07.06a.13.13 0 01-.16 0l-3-2.75a.49.49 0 00-.18-.1.48.48 0 00-.42 0 2.55 2.55 0 00-.36.29c-.12.12-.226.25-.32.39a2.9 2.9 0 00-.48 1.69c0 1.32 0 6.06-.08 9.18v2.4a.21.21 0 00.12.2.21.21 0 00.23 0l.14-.13.33-.32.18-.19a7.22 7.22 0 002-3.68l.23.13.23.14c.42.25 1 .61.84.69-.16.08-1 1.17-1.58 1.91h-.08a.64.64 0 000 1.28.64.64 0 00.59-.9l1.94-2.39.82.22v.11l-2.44 3.87a.41.41 0 00-.05.15.41.41 0 00.18.4L35 32.8a.62.62 0 00.17.08h.36a.62.62 0 00.17-.08l2.76-1.8a.41.41 0 00.18-.4.41.41 0 00-.05-.15l-2.44-3.87v-.11l.82-.22 1.94 2.39a.64.64 0 00.59.9.64.64 0 000-1.28h-.08c-.6-.74-1.47-1.81-1.58-1.91-.11-.1.42-.44.84-.69l.23-.14.23-.13a7.22 7.22 0 002 3.68l.18.19.33.32.14.13a.21.21 0 00.23 0 .21.21 0 00.12-.2l-.05-.69z" fill="#866F57" fill-rule="nonzero"/><path d="M32.06 19.2h6.65v5.56a1.88 1.88 0 01-1.88 1.88h-2.89a1.88 1.88 0 01-1.88-1.88V19.2z" stroke="#F6D660" stroke-linecap="round" stroke-linejoin="round"/><path fill="#ED5565" fill-rule="nonzero" d="M32.06 19.2h6.65v3.47h-6.65z"/><path d="M33.94 26.64h2.89a1.88 1.88 0 001.88-1.88v-2.1h-6.65v2.1a1.88 1.88 0 001.88 1.88z" fill="#0046AE" fill-rule="nonzero"/><path d="M36.24 22.59a1.14 1.14 0 00.83-1.1c0-.7-.83-1-.86-1.21-.08.29.28.68.28 1.15 0 .47-.45.64-.45.64s-.15.07-.19.07c-.04 0-.13-.12-.22-.12s-.14.13-.25.13c-.11 0-.17-.13-.25-.13-.08 0-.13.11-.22.12-.09.01-.08-.07-.19-.07s-.45 0-.45-.64.36-.87.28-1.15c0 .17-.86.51-.86 1.21a1.14 1.14 0 00.83 1.1l-.24.43a1 1 0 01.53.17c.22.19.2.59.2.88a.8.8 0 01-.15.57c-.16.13-.26.14-.26.3 0 .16.1.16.26.24.16.08.2.26.51.26s.3-.15.51-.26c.21-.11.26-.11.26-.24s-.11-.17-.26-.3a.8.8 0 01-.15-.57c0-.29 0-.69.2-.88a1 1 0 01.53-.17l-.22-.43z" stroke="#F6D660" stroke-width=".08" fill="#F6D660" fill-rule="nonzero" stroke-linecap="round" stroke-linejoin="round"/><path stroke="#F6D660" stroke-width=".08" fill="#F6D660" fill-rule="nonzero" stroke-linecap="round" stroke-linejoin="round" d="M35.39 20.2l-.14.39-.37-.18.18.37-.39.14.39.14-.18.37.37-.18.14.39.14-.39.37.18-.18-.37.39-.14-.39-.14.18-.37-.37.18zM34.41 22.63a1.68 1.68 0 01-.78-.42 2.19 2.19 0 01-.81.45 5 5 0 01.81.47 2.59 2.59 0 01.78-.5zM36.37 22.63c.288.118.552.288.78.5a5 5 0 01.81-.47 2.19 2.19 0 01-.81-.45 1.68 1.68 0 01-.78.42zM34.66 24.36c.01.13.01.26 0 .39a.51.51 0 00.34-.37c0-.13.06-.63-.08-.71l-.37-.07c.088.247.132.508.13.77l-.02-.01zM35.88 23.67c-.14.08-.11.58-.08.71a.51.51 0 00.34.37 2.37 2.37 0 010-.39 2.25 2.25 0 01.13-.77l-.39.08zM33.64 23.83a.24.24 0 00-.17.29v.05h-.08a.24.24 0 000 .47h.06v.05a.24.24 0 10.44.18.23.23 0 000-.06.24.24 0 10.3-.36h.05a.24.24 0 00.07-.33.23.23 0 00-.22-.11.24.24 0 00-.11 0 .23.23 0 00-.25-.24l-.09.06zM36.43 24.53a.64.64 0 00.49.53.57.57 0 01-.08-.24.5.5 0 01.52-.55h.15A.66.66 0 0037 24a.5.5 0 00-.57.53z"/></g></svg>