<svg width="71" height="47" xmlns="http://www.w3.org/2000/svg"><g fill-rule="nonzero" fill="none"><rect fill="#FFCE54" x=".25" width="70" height="47" rx="6.36"/><path d="M63.89 4a2.37 2.37 0 012.36 2.36v34.28A2.37 2.37 0 0163.89 43H6.61a2.37 2.37 0 01-2.36-2.36V6.36A2.37 2.37 0 016.61 4h57.27" fill="#ED5565"/><path fill="#FFCE54" d="M42.33 19.11l-.74-4.51h2.65l-1.66-2.52-1.01-.57h-3.98l-1.26 7.6h-2.16l-1.26-7.6h-3.98l-1.01.57-1.66 2.52h2.65l-.74 4.51h-3.92l6.42 16.38h9.14l6.44-16.38z"/></g></svg>