<svg width="71" height="48" xmlns="http://www.w3.org/2000/svg"><g fill-rule="nonzero" fill="none"><rect fill="#4758A9" x=".28" y=".95" width="70" height="47" rx="6.36"/><path d="M70.28 10.75L3.52 47.12a6.32 6.32 0 001.77.68l65-27.84-.01-9.21z" fill="#FFF"/><path d="M69 3.53L2.39 46.31c.365.332.768.62 1.2.86l66.69-36V7.35A6.33 6.33 0 0069 3.53z" fill="#F6D660"/><path fill="#FFF" d="M16.87 6.54l-.41 6.62-1.78-4.22.68 4.49-2.75-3.63 1.8 4.14-3.61-2.74 2.81 3.45-4.08-1.77 3.57 2.65-4.44-.58 4.2 1.63-6.59.59 6.6.43-4.18 1.69 4.4-.58-3.56 2.58 4.13-1.78L10.85 23l3.58-2.66-1.78 4.05 2.87-3.52-.78 4.39 1.8-4.1.41 6.48.64-6.46 1.56 4.13-.59-4.45 2.85 3.53-1.87-4.12 3.58 2.83-2.85-3.54 4.26 1.74-3.77-2.7 4.59.76L21 17.68l6.83-.42-6.83-.62 4.5-1.47-4.66.57 3.85-2.64-4.34 1.71 3-3.56-3.65 2.8 1.76-4.28-2.84 3.63.61-4.54-1.68 4.28z"/></g></svg>