<svg width="71" height="48" xmlns="http://www.w3.org/2000/svg"><g fill-rule="nonzero" fill="none"><rect fill="#ED5565" x=".77" y=".38" width="70" height="47" rx="6.36"/><path fill="#FFCE54" d="M40.37.38h-9.21l4.61 19.75zM31.16 47.38h9.21l-4.6-19.75zM70.77 27.38v-7l-35 3.5z"/><path fill="#FFCE54" d="M.77 20.38v7l35-3.5z"/><path d="M67.42 46.62a6.36 6.36 0 003.33-5.25l-35-17.49-35 17.49a6.36 6.36 0 003.33 5.25l31.65-21.8 31.69 21.8zM70.75 6.39a6.36 6.36 0 00-3.33-5.25l-31.65 21.8L4.12 1.14A6.36 6.36 0 00.79 6.39l35 17.49L70.75 6.39z" fill="#FFCE54"/><path d="M35.77 35.83c-6.6 0-11.95-5.35-11.95-11.95s5.35-11.95 11.95-11.95 11.95 5.35 11.95 11.95c-.027 6.588-5.362 11.923-11.95 11.95zm0-16.89a4.95 4.95 0 104.95 4.95 5 5 0 00-4.95-4.96v.01z" fill="#ED5565"/><circle fill="#FFCE54" cx="35.77" cy="23.88" r="8.45"/></g></svg>