<svg width="70" height="48" xmlns="http://www.w3.org/2000/svg"><g fill-rule="nonzero" fill="none"><path d="M0 6.93v9h70v-9A6.64 6.64 0 0063.36.29H6.65A6.64 6.64 0 000 6.93z" fill="#F6D660"/><path fill="#57A863" d="M0 31.63h70V16H0z"/><path d="M0 40.64a6.64 6.64 0 006.64 6.64h56.72A6.64 6.64 0 0070 40.64v-9H0v9z" fill="#ED5565"/><path d="M27.77 36.24c-1.25.9-2 .37-1.58-1.16l1.41-5.71a5.31 5.31 0 00-1.38-4.7l-4-3.68c-1.14-1-.83-1.92.69-1.95l5.66-.09a4.09 4.09 0 003.57-2.79L34 9.92c.45-1.51 1.22-1.53 1.72 0l2.05 6.2a4.29 4.29 0 003.65 2.79l5.77.14c1.51 0 1.81.9.65 1.93l-4.44 3.93a5.06 5.06 0 00-1.4 4.6l1.33 5.06c.4 1.53-.31 2.08-1.6 1.24l-4.65-3.06a4.39 4.39 0 00-4.6.09l-4.71 3.4z" fill="#FFF"/></g></svg>