<svg width="71" height="47" xmlns="http://www.w3.org/2000/svg"><g fill-rule="nonzero" fill="none"><path d="M7 0A6.36 6.36 0 00.64 6.36v34.28A6.36 6.36 0 007 47h17V0H7z" fill="#ED5565"/><path d="M24 0v47h23.35V0H24z" fill="#4A89DC"/><path d="M64.27 0H47.32v47h16.95a6.36 6.36 0 006.36-6.36V6.36A6.36 6.36 0 0064.27 0z" fill="#ED5565"/><path fill="#F6BB42" d="M5.3 19.34h3v15.35h-3zM16.3 19.34h3v15.35h-3z"/><circle fill="#F6BB42" cx="12.3" cy="27" r="3"/><circle fill="#F6BB42" cx="12.3" cy="15.3" r="3"/><path fill="#F6BB42" d="M9.3 31.01h6v1h-6zM9.3 22.31h6v1h-6zM12.3 32.7h3l-3 2-3-2zM12.3 19.31h3l-3 2-3-2z"/></g></svg>