<svg width="71" height="48" xmlns="http://www.w3.org/2000/svg"><g fill-rule="nonzero" fill="none"><path d="M41.14 35H28.13c.44.307.918.56 1.42.75 3.767.06 7.533.06 11.3 0a2.69 2.69 0 001.12-.11 10.43 10.43 0 001.1-.61V35a12.05 12.05 0 00-1.93 0zM27.14 33.79c-.22 0-.46-.05-.66.07l.73.57c5.613.06 11.227.06 16.84 0 .26-.21.53-.4.78-.62-5.9.07-11.83-.13-17.69-.02zM6.59 47.52a6.7 6.7 0 00.68 0H64c-19.11.02-38.26.04-57.41 0zM38.15 36.2c-2.55 0-5.09-.05-7.64.06a14 14 0 0010.29 0 17.16 17.16 0 00-2.65-.06zM45.61 31h-5a8.2 8.2 0 01-5-2.14 7.74 7.74 0 01-5.09 2.15H24a8 8 0 00.53.74c1.66.1 3.32.1 5 .06a10.81 10.81 0 003.48-.37 9.59 9.59 0 002.68-1.45 8 8 0 004.48 1.78c2.21.07 4.43.1 6.65 0a5.93 5.93 0 00.53-.71 9.25 9.25 0 00-1.74-.06zM25.27 32.67c.17.2.37.42.66.38 1.55-.06 3.11 0 4.66 0h14.93c.25 0 .37-.28.55-.41-6.94 0-13.87-.15-20.8.03z" fill="#FFF"/><path d="M70.63 40.91V7.19A6.64 6.64 0 0064.01.55H7.25A6.64 6.64 0 00.63 7.19v33.72a6.64 6.64 0 006 6.61h57.45a6.64 6.64 0 006.55-6.61zm-25.4-23c.13-.39.17-.79.26-1.19.27.31.34.74.57 1.07.41 0 .82-.11 1.23-.13-.31.29-.63.56-.91.87l.52 1.1a9.49 9.49 0 01-1.09-.58c-.32.27-.59.59-.93.83.07-.4.17-.8.22-1.2a8.85 8.85 0 00-1.09-.6 7 7 0 011.21-.14l.01-.03zM41 12.62c.35.22.68.47 1 .7.37-.22.68-.5 1-.74-.12.39-.22.78-.37 1.16.317.274.651.528 1 .76a11.93 11.93 0 01-1.25 0c-.14.39-.25.8-.39 1.19-.16-.4-.28-.8-.42-1.2-.419.043-.84.06-1.26.05.32-.28.68-.5 1-.78-.07-.36-.21-.76-.31-1.14zm-5.94-1.4c.23-.56.424-1.135.58-1.72.241.554.438 1.125.59 1.71H38c-.49.37-1 .71-1.48 1.09.15.58.39 1.14.54 1.72-.52-.3-1-.7-1.45-1-.53.3-1 .72-1.5 1 .14-.57.37-1.12.53-1.69a16 16 0 00-1.48-1.1c.65-.04 1.26-.03 1.84-.02l.06.01zm-6.77 1.38c.36.21.66.5 1 .72.35-.22.68-.47 1-.7-.1.39-.26.77-.37 1.16a8 8 0 001 .76 4.63 4.63 0 01-1.23 0 8.86 8.86 0 00-.42 1.2 5.76 5.76 0 01-.38-1.19H27.6c.35-.24.7-.48 1-.73-.11-.44-.22-.82-.35-1.22h.04zm-3 5.23c.19-.35.36-.72.52-1.09.133.39.223.791.27 1.2.41 0 .83.08 1.23.15a10 10 0 01-1.06.57c.046.417.116.831.21 1.24a5.71 5.71 0 01-.92-.82l-1.11.6c.16-.37.33-.74.52-1.1a8.13 8.13 0 00-.91-.89c.392.026.783.072 1.17.14h.08zm5.3 18.43c2.54-.11 5.09-.06 7.64-.06a17.16 17.16 0 012.65 0 14 14 0 01-10.37.06h.08zm12.56-1.17a10.43 10.43 0 01-1.1.61 2.69 2.69 0 01-1.12.11c-3.767.047-7.533.047-11.3 0a6.56 6.56 0 01-1.42-.75c1.41-.05 2.82 0 4.23 0h8.78a12.05 12.05 0 011.93 0v.03zm1-.66c-5.613.06-11.227.06-16.84 0l-.73-.57c.2-.12.44-.06.66-.07 5.9-.11 11.79.09 17.69 0-.35.21-.62.43-.93.64h.15zm1.47-1.41H25.93c-.29 0-.49-.18-.66-.38 6.93-.18 13.87 0 20.8-.07-.18.17-.3.43-.55.43l.1.02zm1.23-1.26c-2.21.11-4.43.08-6.65 0a8 8 0 01-4.48-1.78 9.59 9.59 0 01-2.68 1.45 10.81 10.81 0 01-3.48.37c-1.66 0-3.33 0-5-.06a8 8 0 01-.53-.74h6.55a7.74 7.74 0 005.09-2.15 8.2 8.2 0 005 2.14h5a9.25 9.25 0 011.67 0 5.93 5.93 0 01-.59.77h.1zm-1-4.5a7.47 7.47 0 01-4.51 2.31 11.69 11.69 0 01-1.44.08 3.32 3.32 0 001.07.13 10.13 10.13 0 002.38-.39 9.16 9.16 0 003.13-1.83c.3.07.61.11.91.18a7.73 7.73 0 01-2.87 2.07 8.16 8.16 0 01-5.71.14 7.88 7.88 0 01-3.08-2 7.52 7.52 0 01-4.2 2.32 8 8 0 01-5.66-1 8.63 8.63 0 01-1.8-1.52c.3-.037.599-.097.89-.18a8.93 8.93 0 004.16 2.08 7.1 7.1 0 002.48 0 2.28 2.28 0 00-.62 0 7.51 7.51 0 01-5.31-2.34 7 7 0 01-1.81-2.77 9.77 9.77 0 015-.63 10 10 0 014.3 1.84 9 9 0 00-6.38-2.62c-.25-.28-.46-.59-.68-.88a9.24 9.24 0 016.07 1.94c.4.26.67.67 1.06.93a7.46 7.46 0 01-1.52-4.79 7.08 7.08 0 011-3.76 7.8 7.8 0 00.73 1.24 9.32 9.32 0 00-.77 3.23 8.09 8.09 0 001.23 4.28 10.3 10.3 0 01-.87-3 7.73 7.73 0 012.78-6.69 8.14 8.14 0 012.74 5.74 8.24 8.24 0 01-1.08 4.22 7.94 7.94 0 001.41-4.48 8.76 8.76 0 00-.78-3.28 6.06 6.06 0 00.72-1.28 7.08 7.08 0 011 3.88 7.7 7.7 0 01-1.44 4.62 9.23 9.23 0 017.07-2.79 4.19 4.19 0 00-.64.86 9.14 9.14 0 00-5.14 1.56 9.39 9.39 0 00-1.22 1 10.48 10.48 0 014.05-1.75 9.78 9.78 0 015.15.6 6.91 6.91 0 01-1.92 2.73h.12z" fill="#039188"/><path d="M44.87 19.91c.34-.24.62-.56.93-.83.35.217.714.41 1.09.58l-.52-1.1c.29-.31.61-.58.91-.87-.41 0-.82.1-1.23.13-.23-.33-.3-.76-.57-1.07-.09.4-.13.8-.26 1.19a7 7 0 00-1.22.17 8.85 8.85 0 011.09.6c-.09.4-.15.8-.22 1.2zM24.89 18.59c-.19.36-.36.73-.52 1.1l1.11-.6c.276.306.585.58.92.82a10.83 10.83 0 01-.21-1.24 10 10 0 001.06-.57c-.41-.07-.82-.12-1.23-.15a5.73 5.73 0 00-.27-1.2c-.17.37-.33.74-.52 1.09a10.89 10.89 0 00-1.23-.13c.319.27.616.564.89.88zM41.62 14.53c.15.4.27.81.42 1.2.14-.4.25-.8.39-1.19.416.022.834.022 1.25 0a10.15 10.15 0 01-1-.76c.14-.38.25-.77.37-1.16-.35.24-.67.52-1 .74-.34-.24-.67-.48-1-.7.13.39.27.79.39 1.19-.32.28-.68.5-1 .78.395-.01.789-.044 1.18-.1zM34.16 14c.52-.31 1-.73 1.5-1 .49.34.94.74 1.45 1-.15-.58-.39-1.14-.54-1.72.48-.38 1-.72 1.48-1.09H36.2a11.53 11.53 0 00-.59-1.71 14.13 14.13 0 01-.58 1.72h-1.81a16 16 0 011.48 1.1c-.17.59-.4 1.14-.54 1.7zM28.87 14.54c.083.41.21.808.38 1.19.111-.41.251-.81.42-1.2a4.63 4.63 0 001.23 0 8 8 0 01-1-.76c.12-.39.27-.77.37-1.16-.34.23-.67.48-1 .7-.35-.22-.65-.51-1-.72.13.39.24.79.37 1.17-.34.26-.69.49-1 .73.36.05.8.05 1.23.05z" fill="#F2D660"/><path d="M42.35 23.92a10.48 10.48 0 00-4.05 1.75 9.39 9.39 0 011.22-1 9.14 9.14 0 015.14-1.56 4.19 4.19 0 01.64-.86 9.23 9.23 0 00-7.07 2.79 7.7 7.7 0 001.44-4.62 7.08 7.08 0 00-1-3.88 6.06 6.06 0 01-.72 1.28 8.76 8.76 0 01.78 3.28 7.94 7.94 0 01-1.41 4.48 8.24 8.24 0 001.08-4.22 8.14 8.14 0 00-2.74-5.74 7.73 7.73 0 00-2.78 6.69 10.3 10.3 0 00.87 3 8.09 8.09 0 01-1.23-4.28 9.32 9.32 0 01.77-3.23 7.8 7.8 0 01-.73-1.24 7.08 7.08 0 00-1 3.76 7.46 7.46 0 001.52 4.79c-.39-.26-.66-.67-1.06-.93a9.24 9.24 0 00-6.07-1.94c.22.3.43.61.68.88a9 9 0 016.38 2.62 10 10 0 00-4.3-1.84 9.77 9.77 0 00-5 .63 7 7 0 001.81 2.77 7.51 7.51 0 005.31 2.34 2.28 2.28 0 01.62 0 7.1 7.1 0 01-2.48 0 8.93 8.93 0 01-4.16-2.08 5.77 5.77 0 01-.89.18 8.63 8.63 0 001.8 1.52 8 8 0 005.66 1 7.52 7.52 0 004.2-2.32 7.88 7.88 0 003.08 2 8.16 8.16 0 005.71-.14 7.73 7.73 0 002.87-2.07c-.3-.07-.61-.11-.91-.18a9.16 9.16 0 01-3.13 1.83 10.13 10.13 0 01-2.38.39 3.32 3.32 0 01-1.07-.13c.481.003.962-.024 1.44-.08a7.47 7.47 0 004.51-2.31 6.91 6.91 0 001.77-2.74 9.78 9.78 0 00-5.12-.59z" fill="#FFF"/></g></svg>