<svg width="71" height="48" xmlns="http://www.w3.org/2000/svg"><g fill-rule="nonzero" fill="none"><rect fill="#ED5565" x=".9" y=".95" width="70" height="47" rx="6.36"/><path fill="#57A863" d="M.9 8.02h70v32.85H.9z"/><path d="M39.46 20.92c.16.55-.1.74-.58.44l-1.8-1.14a1.87 1.87 0 00-1.77 0l-1.72 1c-.49.29-.76.08-.59-.46l.62-2a1.53 1.53 0 00-.55-1.59l-1.93-1.36c-.47-.33-.38-.61.18-.62h2.37a1.6 1.6 0 001.38-1l.71-2c.19-.54.52-.55.74 0l.84 2c.27.56.811.94 1.43 1l1.89.09c.57 0 .68.34.24.71l-1.59 1.32a1.7 1.7 0 00-.5 1.65l.63 1.96z" fill="#F6D660"/><path d="M44.26 18.83c.227.467.415.952.56 1.45a9.06 9.06 0 01-6.1 11.27h-.11a9.33 9.33 0 01-11.52-11.71 9 9 0 01.6-1.43.31.31 0 00-.2-.39.31.31 0 00-.35.11 11.23 11.23 0 00-2.23 3.94 11.63 11.63 0 0010.8 15.13 11.43 11.43 0 009.07-18.66.31.31 0 00-.35-.13.31.31 0 00-.22.38l.05.04z" fill="#F6D660"/></g></svg>