<svg width="71" height="48" xmlns="http://www.w3.org/2000/svg">
    <g fill="none" fill-rule="evenodd">
        <path
            d="M64.17.43H5.85A6.64 6.64 0 00.1 6.01v35.72a6.64 6.64 0 006.56 5.64h56.72a6.64 6.64 0 006.64-6.64V7A6.64 6.64 0 0064.17.43z"
            fill="#4658A9" fill-rule="nonzero" />
        <path d="M25 .38H6.6A6.64 6.64 0 000 7v17.33h25V.38z" fill="#4658A9" fill-rule="nonzero" />
        <path
            d="M10.54 17.79v6.56h3.9v-6.71l6.71 6.71H25v-3l-7-7h7v-4h-7l7-7v-3h-3.83l-6.7 6.7V.35h-3.9v6.56L4.41.75A6.66 6.66 0 00.78 3.92l6.41 6.41H0v4h7.16L0 21.49v2.83h4l6.54-6.53z"
            fill="#FFF" fill-rule="nonzero" />
        <path
            d="M11.54 15v9.31h1.9v-9.45l9.45 9.45H25v-1.23l-9.78-9.78H25v-1.95h-9.78L25 1.57V.34h-2.09l-9.45 9.45V.34h-1.9v9.3L3.23 1.3a6.67 6.67 0 00-1.76 1.55l8.49 8.49H0v1.95h9.93L0 23.22v1.09h2.23L11.54 15z"
            fill="#EC5463" fill-rule="nonzero" />
        <path d="M39.32 13.48h16.4v11.7c.14 4.7-2.79 7.62-8.17 8.94-3.82-1-8.23-2.92-8.23-8.8V13.48z" fill="#92DBFC"
            fill-rule="nonzero" />
        <path
            d="M47.53 35.12h-.24c-2.22-.55-9-2.24-9-9.77V13.51a1 1 0 011-1h16.4a1 1 0 011 1v11.7c.1 3.48-1.37 8.06-8.93 9.91h-.23zm-7.21-20.64v10.84c0 4.07 2.24 6.47 7.23 7.77 4.94-1.27 7.28-3.85 7.17-7.88V14.48h-14.4z"
            fill="#FFF" fill-rule="nonzero" />
        <path d="M39.32 13.48h16.4v11.7c.14 4.7-2.79 7.62-8.17 8.94-3.82-1-8.23-2.92-8.23-8.8V13.48z" fill="#92DBFC"
            fill-rule="nonzero" />
        <path d="M39.38 26.58c.6 4.9 4.62 6.65 8.15 7.53 4.83-1.18 7.67-3.66 8.1-7.55l-16.25.02z" fill="#E77329"
            fill-rule="nonzero" />
        <path fill="#434A54" fill-rule="nonzero"
            d="M46.88 15.66v-1.47H48v1.46h3.19v1.14H48v13.48h-1.14v-13.5h-3.18V15.6z" />
        <path
            d="M46.43 24.3v5.47M46.1 24.4v5M45.75 25.1v4M45.46 25.41v3.25M45.14 25.6v2.71M44.81 25.77v2.18M44.52 25.94v1.67"
            stroke="#434A54" stroke-width=".1" stroke-linecap="round" stroke-linejoin="round" />
        <path
            d="M44.3 27.12l2.92 3c1-1.11.31-5.26-1-6-.121.48-.37.92-.72 1.27-.63.43-2.18.94-1.67 1.26a.33.33 0 01.59 0c.18.53-.4.69-.62.68a.65.65 0 01-.63-.67 1 1 0 01.54-.85c.17-.109.35-.2.54-.27a1.77 1.77 0 001.14-1.24c.24-1 .48-.84.53-.85 1.47.15 2.44 2.78 2.49 4.64a4.74 4.74 0 01-.9 3.17c-.15.08-3.51-4-3.51-4l.32-.18-.02.04z"
            fill="#F5BB43" fill-rule="nonzero" />
        <path
            d="M48 18.49c.2-.17.31-.28.43-.26a1 1 0 00.42 0 2.6 2.6 0 011 0 .76.76 0 01.38.21 1.1 1.1 0 01.35 1.13c-.09.72-.06 1-.1 1.44-.07.71-.23 1.3-.51 1.25.39.67.42 1.25.67 1.71.313.77.42 1.607.31 2.43-.1 1-.37 3.31.44 4.85-.13.1-.46 0-.75-.31s-.42-.3-.65-.12c-.73.56-1.42 1.23-2.43.56-.23-.15-.3-.34-.13-.81.4-1.147.594-2.356.57-3.57v-8.51z"
            fill="#55A963" fill-rule="nonzero" />
        <path
            d="M48.74 17.77a.8.8 0 010 .57.77.77 0 000 .7c.23-.33.56-.26.75-.45.19-.19.23-.38.38-.41a.63.63 0 01-.32-.63c0-.37.56-.66.1-1.22a.68.68 0 00-.92-.12.67.67 0 00-.19.22c0 .06 0 .21-.06.29a1 1 0 01-.17.16s-.07.08 0 .13.05 0 .09 0l-.07.12v.29c0 .08-.1.16.06.25a.9.9 0 00.36.06l-.01.04zM46.86 19.68c-.27.07-.7 0-1 0-.14 0-.26-.06-.24-.2a2.19 2.19 0 000-.57 2.61 2.61 0 01.32-1.23c.17-.31.278-.65.32-1a.45.45 0 01.15-.4.45.45 0 00.15-.18c.08-.12.16-.15.17-.08a.2.2 0 010 .14c.09-.07.23-.16.27-.18.04-.02.21-.14.21 0s.11 0 .13 0c.02 0 0 .06 0 .08 0 .02.1.07 0 .15-.1.08.1.07 0 .14s-.2.13-.23.2a1.24 1.24 0 01-.35.28c-.09 0-.1.09-.1.23a6.59 6.59 0 01-.18 1.72c0 .1 0 .18.08.15a1.34 1.34 0 01.38-.07v.84l-.08-.02zM46.92 22.88a5.56 5.56 0 011.19-.37c.304-.1.599-.227.88-.38.2-.11.37-.25.48-.29a.54.54 0 00.32-.26 4.2 4.2 0 00.58-1.83c0-.34-.09-.71-.41-.44a2.47 2.47 0 00-.73 1.1 3.64 3.64 0 01-.28.76c0 .11-.14.11-.27.13a2.23 2.23 0 00-1.13.53c-.38.281-.778.538-1.19.77-.31.17-.37.19-.43.33a1.33 1.33 0 01-.19.31.24.24 0 00-.06.21v.45c0 .1 0 .12.06.13.06.01.09 0 .11-.13 0 .12.14.08.15 0 0 .13.16.05.17-.06 0 .08.13 0 .14 0a1.89 1.89 0 01.09-.28.89.89 0 01.23-.34c.13-.09.07-.19.33-.32l-.04-.02zM50 30.77c0 .11.08.23.1.3.02.07 0 .09 0 .13a2.74 2.74 0 00-.23.73.73.73 0 01-.12.27c0 .07 0 .12.06.19a.15.15 0 00.19-.08.11.11 0 00.17 0s.12 0 .16-.06c.04-.06.11 0 .13-.07.02-.07.14 0 .14-.14a.25.25 0 010-.1.3.3 0 000-.14.52.52 0 01.08-.23.46.46 0 00.09-.33c0-.12-.08-.11-.13-.27-.05-.16-.25-.26-.4-.27a.43.43 0 00-.29.13l.05-.06zM47.3 31.6a.47.47 0 00.65-.09 1.76 1.76 0 01-.32-.17 1.09 1.09 0 01-.33.26z"
            fill="#FFE1CF" fill-rule="nonzero" />
        <path
            d="M48.59 16.23c.05-.34.37-.29.52-.25a.84.84 0 00.36 0c.29-.08.5 0 .47.3a.38.38 0 01.14.31c0 .12 0 .16.12.18.12.02.33.14.18.33a.39.39 0 01.18.46.25.25 0 01-.4 0 .35.35 0 01-.39-.05c-.07.09-.26.08-.29 0a.24.24 0 00-.16-.14c-.08 0-.08-.24 0-.26a.21.21 0 010-.17s0-.1-.06-.15a.35.35 0 01-.06-.37.54.54 0 01-.42-.15c.01-.05-.14-.1-.19-.04z"
            stroke="#E77329" stroke-width=".1" fill="#E77329" fill-rule="nonzero" stroke-linecap="round"
            stroke-linejoin="round" />
        <path
            d="M48.59 16.59c.07.09.14.08.15.14a.14.14 0 000 .08H48.57s-.08 0 0 0a.06.06 0 010-.05v-.06l.02-.11zM48.63 16.5a.5.5 0 01.29.13c.06.06 0 0 0 0a.16.16 0 01-.12-.05.39.39 0 00-.16-.09s-.05 0 0 0l-.01.01z"
            fill="#434A54" fill-rule="nonzero" />
    </g>
</svg>