<svg width="71" height="48" xmlns="http://www.w3.org/2000/svg"><g fill-rule="nonzero" fill="none"><path d="M1.05 43.19c.06.2.13.393.21.58a6.35 6.35 0 002.52 2.92 6.32 6.32 0 003.35 1h28.71v-47H7.13A6.36 6.36 0 00.77 7.05v34.27a6.44 6.44 0 000 .65c.053.415.147.824.28 1.22z" fill="#FFF"/><path d="M47.45 47.66H64.4a6.35 6.35 0 001.7-.24h.19l.21-.08.37-.14.23-.11.33-.16h.05c.16-.09.32-.18.47-.29l.24-.18.25-.19.1-.09a6.41 6.41 0 00.76-.77l.21-.29.15-.2.14-.23c.06-.1.12-.19.18-.3a6.33 6.33 0 00.47-1.1c0-.16.09-.32.12-.48v-.13c.086-.421.13-.85.13-1.28V7c0-.43-.044-.859-.13-1.28 0-.19-.09-.38-.14-.56a6.33 6.33 0 00-.47-1.1l-.18-.3-.14-.23-.15-.2-.21-.29-.14-.15-.27-.3-.25-.22-.2-.19-.13-.09a6.37 6.37 0 00-.89-.59l-.33-.16-.23-.11-.37-.14-.21-.08h-.19a6.35 6.35 0 00-1.7-.24H35.85v47l11.6-.11z" fill="#ED5565"/><path d="M25.81 14.71h-4v-4a2 2 0 00-2-2h-3a2 2 0 00-2 2v4h-4a2 2 0 00-2 2v3a2 2 0 002 2h4v4a2 2 0 002 2h3a2 2 0 002-2v-4h4a2 2 0 002-2v-3a2 2 0 00-2-2z" fill="#CCD1D9"/></g></svg>