<svg width="71" height="48" xmlns="http://www.w3.org/2000/svg"><g fill-rule="nonzero" fill="none"><rect fill="#57A863" x=".52" y=".66" width="70" height="47" rx="6.36"/><path d="M62.52 8.66v31h-54v-31h54zm1.64-8H6.89A6.36 6.36 0 00.53 7.02v34.27a6.36 6.36 0 006.36 6.36h57.27a6.36 6.36 0 006.36-6.36V7A6.36 6.36 0 0064.16.64v.02z" fill="#ED5565"/><path d="M42.09 30.33a7 7 0 01-1.08.42 6.76 6.76 0 01-8.41-4.55 7.22 7.22 0 01.1-4.14 6.9 6.9 0 019.69-3.92.24.24 0 00.29-.15.23.23 0 00-.09-.26 8.38 8.38 0 00-2.94-1.65 8.67 8.67 0 00-10.84 5.48 8.44 8.44 0 0010.46 10.77 8.61 8.61 0 003-1.57.23.23 0 00.1-.26.23.23 0 00-.28-.16v-.01z" fill="#FFF"/></g></svg>