<svg width="71" height="48" xmlns="http://www.w3.org/2000/svg"><g fill-rule="nonzero" fill="none"><path d="M6.51.95A6.36 6.36 0 00.15 7.31v34.27a6.36 6.36 0 006.36 6.36h17v-47l-17 .01z" fill="#57A863"/><path d="M23.49.95v47h23.35v-47H23.49z" fill="#FFF"/><path d="M63.78.95H46.83v47h16.95a6.36 6.36 0 006.36-6.36V7.32A6.36 6.36 0 0063.78.95z" fill="#ED5565"/><g><path d="M44.3 26.37a1.18 1.18 0 00.21-1.65.37.37 0 00-.22-.33h-.11a1.56 1.56 0 00-.15-.28.38.38 0 00-.57 0 1.88 1.88 0 00-.27.37.61.61 0 00-.33-.12.34.34 0 00-.26.09.38.38 0 000 .51.26.26 0 010 .14v.14a1.47 1.47 0 000 .77.54.54 0 00-.36.5.75.75 0 00.07.26.42.42 0 00.17.18 2.29 2.29 0 00-.46.29 1.32 1.32 0 00-.55 1.08 1.41 1.41 0 000 .17.49.49 0 00-.43.18.67.67 0 00-.14.26.26.26 0 000 .18h-.08a.37.37 0 00-.34.37.32.32 0 000 .07 2.4 2.4 0 01-.22.19 2 2 0 00-.67.76.57.57 0 00-.79.24v.27a.37.37 0 000 .12 1.07 1.07 0 00-.51-.1 1.64 1.64 0 00-.84.21 1.43 1.43 0 00-.35.31 1 1 0 01-.2.19 1.34 1.34 0 01-.28.12h-.14a1.52 1.52 0 00-.35-.09 2.38 2.38 0 00-.52 0c-.15 0-.27.21-.32.38a.37.37 0 00-.21-.32 1.6 1.6 0 00-.56-.14 2.65 2.65 0 00-.65.1.53.53 0 00-.39-.27h-.11a.74.74 0 00-.53-.28.83.83 0 00-.46.08.6.6 0 00-.28-.08.67.67 0 00-.44.12v-.06a.16.16 0 000-.09 1 1 0 000-.15.26.26 0 000-.16.47.47 0 00-.19-.23.5.5 0 00-.58-.21.43.43 0 00-.13-.08.83.83 0 00-.07-.3.89.89 0 00-.54-.48.66.66 0 00-.33-.41.52.52 0 00-.33 0v-.05a.37.37 0 000-.14.53.53 0 00-.1-.21.5.5 0 00-.4-.44.4.4 0 00-.24-.41 1 1 0 00-.08-.36.56.56 0 00-.58-.42.42.42 0 00-.26-.15v-.07h.14a.63.63 0 00.24-.28.4.4 0 000-.26.49.49 0 00-.17-.58h-.08a.43.43 0 000-.34.68.68 0 00.14-.38.51.51 0 00-.16-.38.66.66 0 000-.09.45.45 0 00-.1-.41.44.44 0 00-.54-.12h-.16a.44.44 0 00-.33.09.94.94 0 00-.27.36h-.07a.56.56 0 00-.34.27.69.69 0 00-.08.4.55.55 0 00-.17.19c-.2.37.07.66.31.83a.41.41 0 00-.1.11.46.46 0 00.08.56.55.55 0 00.21.28.54.54 0 00.37.07l-.06.07a.45.45 0 000 .13.38.38 0 00-.23.3.61.61 0 00.23.59.8.8 0 00.45.67.56.56 0 00.09.24.61.61 0 00.32.2.41.41 0 00-.08.25.5.5 0 00.14.3.37.37 0 00.18.12v.06a.49.49 0 00.29.15.17.17 0 00.15 0 .55.55 0 00.2-.1v.08a.68.68 0 00.27.74.77.77 0 00.27.55 1 1 0 00.6.28h.13l.11.07c-.002.1.03.2.09.28.04.054.086.1.14.14a.23.23 0 00.11.05h.17a.53.53 0 00.19.08.4.4 0 00.17.26.56.56 0 00.35.06.42.42 0 00.16.06.48.48 0 00.28.29.82.82 0 00.41 0 .57.57 0 00.33.25.8.8 0 00.53 0 .56.56 0 00.19.09H33a.91.91 0 00.5-.21c.1.07.219.105.34.1a.62.62 0 00.46-.19h.07l.23-.15a1.44 1.44 0 01.35-.13.38.38 0 00.25-.24.44.44 0 00.26.31c.132.043.263.093.39.15.05 0 .13.09.13.07a.56.56 0 00.5.3.53.53 0 00.4-.2c.197.151.433.245.68.27a3.35 3.35 0 001.25-.43l.17-.08a.93.93 0 01.28 0 .38.38 0 00.38-.37.36.36 0 000-.09l.11.05a.27.27 0 00.19 0 .54.54 0 00.32-.11.51.51 0 00.17-.23.37.37 0 000-.15.53.53 0 000-.24 2.43 2.43 0 001-.27 1.33 1.33 0 00.59-1 .38.38 0 00.08-.23h.11a.19.19 0 00.12 0h.1a.4.4 0 00.2-.11l.07-.07a.21.21 0 00.08-.12V30a.54.54 0 00-.08-.37l.14-.07a2.11 2.11 0 00.78-1.2 1.29 1.29 0 01.25-.37.37.37 0 00.05-.46.37.37 0 00-.15-.14h.1a.53.53 0 00.16-.09s.05 0 .08-.08a1 1 0 00.08-.15V27a.74.74 0 00-.08-.39l.19-.24z" fill="#57A863"/><path d="M40.14 27.81v-.13a1 1 0 00-.08-.36c-.07-.13-.47-.44-.63-.42a1.63 1.63 0 00-.67.46c-.25.24-.22.44-.57.42H38v-.08a.61.61 0 000-.22 1 1 0 00-.05-.27l-.2-.23s-.38-.21-.4-.2H37l-.58.32h-.06l-.36.09h-.09l.32-.46-.63.07H35.19a.62.62 0 01-.21-.11 1.65 1.65 0 00-.29-.17 3.32 3.32 0 00-.48-.17 1.81 1.81 0 00-.4-.07.63.63 0 00-.34.11 1.28 1.28 0 00-.38.41 2.52 2.52 0 00-.45-.42l-.06-.05a1.7 1.7 0 00-.84-.29.84.84 0 00-.68.26 1.48 1.48 0 000-.18 1.35 1.35 0 00-.45-.84 1.06 1.06 0 00-.8-.34.57.57 0 00-.3.15.62.62 0 00-.16.33v.12a.86.86 0 000 .14v.1l.06.17.06.09v.05l.1.14.25.21.1.05.14.07h.77a.39.39 0 000 .1.53.53 0 00.16.28 1.78 1.78 0 001 .32h.29a1.12 1.12 0 00.6-.19.72.72 0 00.22.45 1 1 0 00.46.26 4 4 0 00.88.11 1.5 1.5 0 00.53-.08 1.24 1.24 0 00.38-.23 1.77 1.77 0 00-.06.47v.41c-1.76 0-3.19.43-3.19 1 0 .57 1.43 1 3.19 1s3.19-.43 3.19-1c0-.57-.91-.77-2.16-.9a.52.52 0 01.13-.23 1.6 1.6 0 01.81-.29.88.88 0 00.37-.1h.08l.4.17.35.1H38.88a2.24 2.24 0 001-.34H40l.14-.11v.05z" fill="#039188"/><path d="M31.83 24.83l-.24-.36h-.11.07a.29.29 0 01-.14 0 .28.28 0 01-.2-.09.46.46 0 01-.13-.26 1.73 1.73 0 00-.11-.38 1.27 1.27 0 00-.4-.42c-.16-.13-.31-.25-.33-.39a.37.37 0 010-.08 1 1 0 01.1-.36v-.09a.63.63 0 00.06-.29v-.07a.89.89 0 000-.09.75.75 0 00-.36-.51 1.64 1.64 0 00-.28-.15s-.06-.14-.14-.16c-.08-.02-.12.13-.16.16v-.09a.16.16 0 00-.12-.11.1.1 0 00-.11.05s0-.12-.15-.12-.11.17-.14.17c-.03 0-.17 0-.19.11-.02.11.1.12.11.14a.35.35 0 000 .17c0 .07.17 0 .22 0a.15.15 0 000 .05c.05.08.22 0 .22 0v-.07c0 .06 0 .17.09.19a.15.15 0 00.16-.07l.1.07a.37.37 0 01.13.18 1.15 1.15 0 01-.13.38 1.34 1.34 0 00-.13.53v.09a1 1 0 000 .17.49.49 0 00.14.28c.05.066.107.127.17.18a2 2 0 01.42.37c.08.178.13.367.15.56a1.3 1.3 0 00.09.3.48.48 0 00.19.22.8.8 0 00.41.11h.16l.19-.05a1 1 0 00.21-.11.39.39 0 00.18-.16zm-.89-.85v-.1V23.98zM31.21 18.55c.19 0 .08-.55.08-.55l-.13.11a.42.42 0 01.08.22.8.8 0 010 .21l-.03.01z" fill="#57A863"/><path d="M33.32 24.3l-.13-.29V23.42l-.06-.18-.1-.16-.09-.08-.09-.08-.17-.05h-.93l-.25-.12-.16-.27v-.32l.07-.18.1-.14.06-.06.22-.22h.05l.17-.14.13-.1.18-.15a.77.77 0 00.15-.16l.2-.23.14-.25v-.45l-.1-.17-.12-.17-.13-.15-.07-.07h-.32l-.17.2-.22.25.35.26a.13.13 0 010 .07c-.17.38-.54.56-.87.8a1.57 1.57 0 00-.44.44 1.36 1.36 0 00-.19.74c-.03.407.146.802.47 1.05a1.1 1.1 0 00.6.18h.7a.19.19 0 01.11 0 .09.09 0 010 .06.22.22 0 01-.07.13l-.1.08.27.25v.28l.3.06h.16l.35-.07zM30.37 19.45c0 .17.07.33.19.38a3.4 3.4 0 00.7 0h.1v-.07l.16-.54a.78.78 0 01-.19.05h-.45a.2.2 0 010-.16c.09 0 .2-.07.38-.14s.29-.26.26-.27c-.03-.01-.09.09-.24.16a.66.66 0 01-.39.07c-.05 0 0-.09 0-.16a1.22 1.22 0 01.18-.27.58.58 0 00.05-.26c0-.09.21-.2.22-.23.01-.03 0-.11-.09-.11s-.18.14-.18.14h-.06a.2.2 0 00-.1 0l-.12.08-.1.08a1.37 1.37 0 00-.4.46c0 .17.15.36.16.38a3.6 3.6 0 00-.08.41z" fill="#57A863"/><path d="M42 21.26s-.13-.08-.29-.22l-.22-.34a8.5 8.5 0 00-.84-1.61 5.13 5.13 0 00-1.46-1.41.27.27 0 01.05-.1s.18-.2.12-.23-.23 0-.35 0c-.12 0-.19 0-.52-.26a5.63 5.63 0 00-2.69-.83c-.51 0-.74.15-.77.25v.08c-.18 0-.75 0-.73.52 0 .21.05.28.22.33.29.032.567.143.8.32a.73.73 0 01.31.6.74.74 0 01-.07.3l.18.88.13.47v.1l.12.85.81 1.39h.36a.92.92 0 00.22-.33h.09c0 .05.21.32.34.38.13.06.2 0 .32.13.204.243.394.496.57.76.037.055.077.109.12.16a.13.13 0 00.1 0c.07 0 .09 0 .06-.05a1.18 1.18 0 01-.25-.4 2.94 2.94 0 00-.29-.69h.15c.204.103.376.258.5.45.026.171.08.337.16.49.059.149.136.29.23.42 0 .1.1.18.16.19.06.01 0-.11-.06-.19s-.06-.3-.16-.58a4.35 4.35 0 00-.21-.67l-.08-.07h.06l.1.07c.129.146.227.316.29.5.06.17.13.45.21.71.08.26.21.55.24.48a2 2 0 00-.14-.9 3.07 3.07 0 01-.15-.9.42.42 0 01.2.23c.1.22 0 .36.15 1 .067.294.175.576.32.84.07.21 0 .72.1.83a7.63 7.63 0 000-1.18c0-.27 0-.28-.08-.94-.08-.66-.08-.75-.09-.77a.74.74 0 01.18.36c.12.42.12 1.13.2 1.31.057.11.107.224.15.34.08.23-.07 1.19.09 1.19s.13-1.3.1-1.69c-.03-.39-.06-1.47-.07-1.58.085.101.16.212.22.33v.07c0 .28 0 1.25.08 1.58a5 5 0 01.11.71 4.91 4.91 0 01-.1.7c0 .09 0 .25.11.24.11-.01 0-.21.07-.32a1 1 0 01.1-.2c.06-.17.07-1.3.17-1.86.13-.367.2-.751.21-1.14 0-.38-.074-.758-.22-1.11h.18a.12.12 0 00.08.01zm-2.69-3.51l-.11-.07.11.07z" fill="#866F57"/><path d="M33.77 24.52a.38.38 0 01-.28-.16c0-.05.08-.11.07-.15-.01-.04-.06-.1-.09-.1a.88.88 0 00-.27-.39c-.12-.06 0 .11 0 .18a.38.38 0 000 .17.34.34 0 01.07.19s0 .06-.09.09h-.11a1.35 1.35 0 00-.32-.09.13.13 0 000-.1.25.25 0 00-.11-.21.21.21 0 00-.12 0 .23.23 0 010-.14c0-.15.09-.17.09-.17a.35.35 0 00-.12 0h-.14a.4.4 0 00-.17 0c-.15 0-.26.2-.29.31h-.08a.25.25 0 00-.16.23.08.08 0 00-.08 0 .33.33 0 000 .29.29.29 0 00.08.17c0 .07.09.2.15.2a.23.23 0 00.17.1.4.4 0 00.24-.11.55.55 0 00.2-.08.31.31 0 00.15-.05.48.48 0 00.21.13c.08 0 .25-.17.34-.29 0 0 .07.13.14.13l.14.22h.53l.22-.22s-.14-.14-.37-.15zm-.42 0h.05v.08l-.05-.08zM38.39 27.48a.36.36 0 000-.09.31.31 0 000-.25v-.06c-.07-.09-.14-.09-.14-.09a.06.06 0 00-.06-.06s0-.18-.11-.21a.44.44 0 00-.27 0 .33.33 0 00-.07-.09.2.2 0 00-.13-.06l-.09-.09a.14.14 0 00-.12-.06.55.55 0 00-.1-.12l-.21-.18v-.34l-.41.41v.07l-.21.13-.18.08H36a.15.15 0 00-.15 0 .28.28 0 00-.24.18.33.33 0 00-.16 0c-.12 0-.25.08-.24.23a.42.42 0 000 .16.26.26 0 00.09.09s-.09-.16 0-.21c.09-.05.17 0 .24 0a.27.27 0 00.21 0 .21.21 0 000 .08.32.32 0 00-.16.26c0 .158.1.299.25.35h.06s-.12-.17-.05-.27c.07-.1.11 0 .15 0 .04 0 0 0 0 0a.26.26 0 00.21 0 .18.18 0 00.11-.22l.09-.06c.09-.06.19-.15.27-.19.08-.04 0 .05.12.06a.11.11 0 00.1 0 .12.12 0 00.13.08.13.13 0 00.14-.09h.13a.08.08 0 000 .06.28.28 0 00.4.24h.06s.15 0 .2.09c.05.09-.15.22-.15.22a.41.41 0 00.17 0h.1a.19.19 0 00.31-.05z" fill="#F6D660"/><path d="M40.68 25.87l-.2-.15s-.6-.47-1.37-1l-1.6-1.2a2.05 2.05 0 00-.08-.67 1.72 1.72 0 00-.21-.44c.15-.12.14-.35.14-.5 0-.15-.19-.36-.11-.26a.42.42 0 01.08.27.45.45 0 01-.2.34.27.27 0 01-.25 0 2.55 2.55 0 00-.25-.56c-.12-.23-.37-.6-.37-.61v-.1s-.1-.22-.16-.32a3 3 0 01-.16-.35 3 3 0 000-.57 2 2 0 00-.1-.45.16.16 0 00.11-.17 1.15 1.15 0 01-.23-.26 5.21 5.21 0 01-.26-.49 1.18 1.18 0 00-.35-.36.29.29 0 000-.19s0 .07-.2.07a1.39 1.39 0 01-.44-.14 1.13 1.13 0 00-.39-.06.19.19 0 01-.08 0h-.08a.83.83 0 00-.19-.45.72.72 0 01-.06.2 1.16 1.16 0 01-.2.26 2 2 0 00-.05-.33c0-.21-.12-.16-.12-.16v.08a1.45 1.45 0 01-.14.64l-.17.08s.07-.09.06-.28c-.01-.19-.15-.27-.15-.27.02.12.02.24 0 .36a.82.82 0 01-.19.38.78.78 0 000-.21c0-.27-.12-.26-.12-.26a.73.73 0 01-.06.24 1.21 1.21 0 01-.28.48c-.26.28-.37.29-.34.41a.11.11 0 00.13.09h.13c.144.082.305.13.47.14.1 0 .18-.08.36-.08s.22.06.22.06a.44.44 0 00.15.14h.19a.36.36 0 01.06.19h.05a1.19 1.19 0 01-.08.21c-.06.13-.17.24-.16.26h.13l-.22.35c-.1.16-.25.39-.21.39h.14a.37.37 0 000 .08 1.92 1.92 0 00-.34.78c0 .28.05.22.14.48.06.22.104.444.13.67a.78.78 0 00.17-.08l.15.24a1 1 0 00.06.54c.123.21.27.405.44.58l-.12-.1a.29.29 0 00-.13-.09.21.21 0 00-.19 0c.03.099.074.193.13.28.092.073.193.133.3.18a.71.71 0 00-.29.07 1.18 1.18 0 00-.18.22c0 .06.11.14.33.24a.5.5 0 01-.2 0c-.16 0-.18-.11-.2-.1l.06.09a.88.88 0 00-.24 0 .28.28 0 00-.21.12 1 1 0 00.39.17l.43.11a.2.2 0 000 .2s.13.1.51 0a1.9 1.9 0 00.4-.15h.07s.13.29.22.28c.09-.01.14-.46.14-.65l.49.56s.09.11.15.1c0 0 .11.22.21.4.1.18.19.36.28.32.09-.04.11-.17.12-.19V26c.14.13.37.4.41.39v-.12c.02-.13.02-.26 0-.39.09.13.25.35.31.32a1 1 0 000-.32c.06.06.16.15.2.13.04-.02 0-.23 0-.27a.84.84 0 000-.15v-.07l.61.72a.36.36 0 00.23.1.21.21 0 00.22-.12.61.61 0 00.32.19.37.37 0 00.34-.16l.1.07a1 1 0 00.7-.21h.06c.39.16.73-.2.69-.24zm-3.75-3.46zm-2.84-2.67a.49.49 0 010-.13 1 1 0 00-.01.2l.01-.07zm-.29.16a.44.44 0 01-.14.07l.14-.07zM33.34 17.3v.01-.01z" fill="#866F57"/><path d="M33.39 19.28c0-.15-.21-.24-.41-.24-.2 0-.24.08-.38.08s-.36-.2-.66-.2h-.06l-.07.06h-.05v.05a.14.14 0 000 .07s-.09 0-.22.16a.62.62 0 00-.13.2.55.55 0 000 .13.29.29 0 000 .12l.07.15.13.14.1.06H31.92a.2.2 0 00.16-.06l-.12-.11-.13-.22a.18.18 0 010-.09.46.46 0 01.46-.33h.18l.09.1.08.11s.82-.01.75-.18z" fill="#F6D660"/><g><path d="M32.34 19.39h-.05.05z" fill="#F9C83A"/><path d="M32.38 19.43h-.07.07z" fill="#8F4620"/><path d="M33.06 24.42a.11.11 0 00.07 0h-.07z" fill="#977C2E"/></g></g></g></svg>