<svg width="71" height="48" xmlns="http://www.w3.org/2000/svg"><g fill-rule="nonzero" fill="none"><path d="M64.54.66H7.27a6.43 6.43 0 00-.71 0h58.7a6.43 6.43 0 00-.72 0zM7.27 47.66h57.27a6.4 6.4 0 00.71 0H6.56a6.4 6.4 0 00.71 0zM70.88 41.76h-70a6.36 6.36 0 005.63 5.86h58.7a6.36 6.36 0 005.67-5.86z" fill="#FFF"/><path d="M70.9 41.76v-.46.46zM.9 41.3v.46c.02-.15 0-.31 0-.46z" fill="#ED5565"/><path d="M.9 41.3v.46h70v-5.87H.9v5.41z" fill="#ED5565"/><path fill="#FFF" d="M.9 30.03h70v5.86H.9z"/><path fill="#ED5565" d="M.9 24.16h70v5.86H.9z"/><path fill="#FFF" d="M.9 18.3h70v5.86H.9z"/><path fill="#ED5565" d="M.9 12.43h70v5.86H.9z"/><path d="M70.9 7v-.46c-.01.18 0 .33 0 .46zM.9 6.57v0z" fill="#FFF"/><path d="M.93 6.57v5.87h70V7v-.46l-70 .03z" fill="#FFF"/><path d="M.93 6.57h70A6.36 6.36 0 0065.3.71H6.56A6.36 6.36 0 00.93 6.57z" fill="#ED5565"/><path d="M30.23.71H6.56A6.36 6.36 0 00.9 7v23h29.32L30.23.71z" fill="#4758A9"/><path d="M19.07 18.74c-.36.23-.55.09-.44-.32l.43-1.51a1.37 1.37 0 00-.35-1.26l-1.09-1c-.31-.29-.22-.52.21-.52h1.58a1.14 1.14 0 001-.72l.56-1.65c.14-.4.35-.4.48 0l.53 1.67a1.19 1.19 0 001 .77l1.61.07c.42 0 .5.25.17.52l-1.27 1a1.31 1.31 0 00-.41 1.23l.34 1.36c.1.41-.1.55-.46.32l-1.28-.85a1.28 1.28 0 00-1.29 0l-1.32.89zm.62 2.79a7 7 0 01-1.08.42 6.76 6.76 0 01-8.41-4.55 7.22 7.22 0 01.1-4.14 6.9 6.9 0 019.69-3.92.24.24 0 00.29-.15.23.23 0 00-.09-.26 8.38 8.38 0 00-2.94-1.65 8.67 8.67 0 00-10.84 5.48 8.44 8.44 0 0010.46 10.77 8.61 8.61 0 003-1.57.23.23 0 00.1-.26.23.23 0 00-.28-.16v-.01zm2-2.22c-.14.4-.38.41-.54 0l-.59-1.46a1.37 1.37 0 00-1.05-.77l-1.48-.12c-.42 0-.49-.27-.16-.53l1.25-1a1.14 1.14 0 00.36-1.2l-.58-1.65c-.14-.4 0-.53.38-.29l1.45 1c.386.24.874.24 1.26 0l1.32-.94c.34-.25.55-.11.45.3l-.37 1.59a1.31 1.31 0 00.43 1.22l1.1.86c.33.26.26.5-.16.53l-1.53.12a1.28 1.28 0 00-1 .79l-.54 1.55z" fill="#FFCE54"/></g></svg>