<svg width="71" height="48" xmlns="http://www.w3.org/2000/svg"><g fill-rule="nonzero" fill="none"><path d="M.39 6.93v9h70v-9A6.64 6.64 0 0063.75.29H7A6.64 6.64 0 00.39 6.93z" fill="#57A863"/><path fill="#434A54" d="M.39 31.63h70V16h-70z"/><path d="M.39 40.64a6.64 6.64 0 006.64 6.64h56.72a6.64 6.64 0 006.64-6.64v-9h-70v9z" fill="#F6D660"/><path fill="#FFF" d="M.39 31.13h70v1h-70zM70.39 16.46h-70v-1h70z"/><path d="M2.51 1.91A6.34 6.34 0 00.38 6.65v34.27a6.34 6.34 0 002.13 4.74l25.87-21.88L2.51 1.91z" fill="#ED5565"/></g></svg>