<svg width="71" height="48" xmlns="http://www.w3.org/2000/svg"><g fill-rule="nonzero" fill="none"><rect fill="#57A863" x=".63" y=".28" width="70" height="47" rx="6.36"/><path d="M65 .33a6.42 6.42 0 00-.7 0H7A6.36 6.36 0 00.64 6.69v34.27l28-11.64L65 .33z" fill="#4758A9"/><path d="M70.63 6.65a6.36 6.36 0 00-6-6.34l-64 40.72a6.36 6.36 0 006.36 6.26h.57l63.07-40.1v-.54z" fill="#ED5565"/><path d="M70.52 5.48L5.18 47a6.36 6.36 0 001.81.27h3.36L70.63 9V6.65a6.38 6.38 0 00-.11-1.17zM.87 42.65L66.72.78a6.34 6.34 0 00-2.46-.49H61.9l-61.28 39v1.67a6.36 6.36 0 00.25 1.69z" fill="#FFF"/><circle fill="#F6D660" cx="11.61" cy="11.28" r="4"/></g></svg>