<svg width="70" height="48" xmlns="http://www.w3.org/2000/svg"><g fill-rule="nonzero" fill="none"><path d="M0 7.59v9h10.78a15.78 15.78 0 014.46-4.92 15.69 15.69 0 0116.14-1.27 15.77 15.77 0 016.56 6.18H70v-9A6.64 6.64 0 0063.36.94H6.65A6.64 6.64 0 000 7.59z" fill="#4658A9"/><path d="M10.79 32.31H0v9a6.64 6.64 0 006.64 6.64h56.72A6.64 6.64 0 0070 41.31v-9H10.79z" fill="#51C161"/><path d="M39.64 28a15.59 15.59 0 01-1.69 4.27H70V16.59H38A15.72 15.72 0 0139.64 28zM8.69 24.46a15.62 15.62 0 012.1-7.84H0V32.3h10.78a15.63 15.63 0 01-2.09-7.84z" fill="#EC5565"/><path d="M23 9.39a15.15 15.15 0 112.8 30.17A15.15 15.15 0 0123 9.39" stroke="#FFF" stroke-width="2" fill="#FFF"/><path d="M23 9.39a15.15 15.15 0 112.8 30.17A15.15 15.15 0 0123 9.39" fill="#434A54"/><path d="M24.68 9.31a15.16 15.16 0 015.41 29.19c-1-1-1.9-2-2.94-2.93a4 4 0 00-2.47-.81v-.71a2.2 2.2 0 001.32-1.7 3.25 3.25 0 00-.59-2.77 2 2 0 00-.73-.5v-.22a2.54 2.54 0 011.88 1.46 14 14 0 001.46 2.79 36 36 0 01-.6-3.88 1.71 1.71 0 00-.68-1.25 3.76 3.76 0 00-2.05-.6v-.32H27v-.63h-2.3v-.31a2.28 2.28 0 001.6-.78.9.9 0 000-1.05 2.26 2.26 0 00-1.61-.79v-.3H27v-.63h-2.3v-.31a3.93 3.93 0 002.07-.46 1.74 1.74 0 00.75-1.38A10 10 0 0128 18a10.93 10.93 0 00-1.24 1.81 2.66 2.66 0 01-1 1.16 2.49 2.49 0 01-1 .27v-.43a2.15 2.15 0 001.51-1.06 2.1 2.1 0 00-.18-2.31 2.18 2.18 0 00-1.33-.78V14.5a9.72 9.72 0 002.1-2.8 1.34 1.34 0 00.11-.74 7.17 7.17 0 01-2.22 1.46V9.34m-7.37 1.73a15.13 15.13 0 016.74-1.73v3.36c-.71.32-1.58.67-1.81 1.49-.09.56-.06 1.13-.1 1.69.32-.1.55-.37.87-.47a6.39 6.39 0 001-.49v1.74a2.15 2.15 0 00-1.51 1 2.09 2.09 0 00.16 2.29c.332.43.814.72 1.35.81v.43a2.58 2.58 0 01-.94-.22 2.62 2.62 0 01-1.12-1.24 11 11 0 00-1.22-1.77 10 10 0 01.46 2.34c.003.497.204.973.56 1.32a3.4 3.4 0 002.26.61v.32h-2.3v.62h2.3v.3a2.31 2.31 0 00-1.59.76.91.91 0 000 1.11 2.29 2.29 0 001.58.76v.31h-2.3v.63h2.3v.32a3.63 3.63 0 00-2.14.67 1.7 1.7 0 00-.6 1.21 33.24 33.24 0 01-.6 3.86 13.34 13.34 0 001.45-2.75 2.55 2.55 0 011.9-1.51v.22a2 2 0 00-1.06 1 3.47 3.47 0 00-.13 2.71 2 2 0 001.19 1.26v.71a4.28 4.28 0 00-2.89.93c-1 .86-1.88 1.78-2.8 2.7a15.16 15.16 0 01-1.06-27.34" fill="#F2D660"/></g></svg>