<svg width="71" height="48" xmlns="http://www.w3.org/2000/svg"><g fill-rule="nonzero" fill="none"><rect fill="#FFF" x=".87" y=".28" width="70" height="47" rx="6.36"/><path d="M31.21 46.66a1 1 0 00-.22-1.09L11.7 26.28h18.59a1 1 0 00.71-1.71L6.73.31a6.34 6.34 0 00-3.9 1.76L23 22.28H4.46a1 1 0 00-.71 1.71L23 43.28H2.61a1 1 0 00-.92.6 1 1 0 000 .11 6.36 6.36 0 005.54 3.29h23.08a1 1 0 00.9-.62z" fill="#4758A9"/><path d="M6.87 24.28h21L4.5.91A6.36 6.36 0 00.87 6.65v34.27a6.34 6.34 0 001.74 4.36h25.26l-21-21z" fill="#ED5565"/><path d="M6.76 40.52c-.34.23-.54.1-.44-.28l.37-1.43a1.25 1.25 0 00-.4-1.16l-1.11-.9c-.31-.26-.23-.48.18-.49h1.55a1.1 1.1 0 001-.71l.49-1.56c.12-.38.33-.38.47 0l.58 1.54a1.17 1.17 0 001 .68H12c.42 0 .5.21.19.48l-1.2 1a1.18 1.18 0 00-.36 1.16l.38 1.25c.12.38-.08.52-.43.31l-1.28-.75a1.31 1.31 0 00-1.26 0l-1.28.86zm2.5.35c-.11.37-.35.38-.54 0l-.7-1.32a1.46 1.46 0 00-1.11-.68l-1.49-.07c-.42 0-.51-.24-.19-.48l1.18-.91a1 1 0 00.27-1.1l-.7-1.49c-.17-.36 0-.49.36-.28l1.52.87c.39.223.87.223 1.26 0l1.24-.89c.32-.23.54-.11.47.27l-.25 1.46c-.04.437.158.862.52 1.11l1.17.76c.35.23.3.45-.12.49l-1.52.15a1.18 1.18 0 00-1 .75l-.37 1.36zM11.39 14a2.9 2.9 0 01-1.61 4.13 3.29 3.29 0 01-1.82.06 2.88 2.88 0 01-2.1-3.49v-.07a2.84 2.84 0 01.18-.46.1.1 0 00-.07-.12.1.1 0 00-.11 0A3.59 3.59 0 007.8 19.8a3.82 3.82 0 002.2-.08 3.64 3.64 0 002.35-4.58v-.06a3.55 3.55 0 00-.75-1.24.1.1 0 00-.11 0 .1.1 0 00-.07.12l-.03.04z" fill="#FFF"/><path d="M7.39 19.37c-.24.16-.38.07-.31-.2l.26-1a.87.87 0 00-.28-.82l-.78-.63c-.22-.18-.16-.33.13-.34H7.5a.78.78 0 00.68-.5l.34-1.09c.08-.27.23-.27.33 0l.41 1.08a.82.82 0 00.71.48h1.11c.29 0 .35.15.13.34l-.85.7a.83.83 0 00-.25.81l.27.88c.08.27-.06.37-.3.22l-.9-.53a.92.92 0 00-.89 0l-.9.6zm1.75.24c-.08.26-.25.27-.38 0l-.49-.93a1 1 0 00-.78-.48l-1-.05c-.3 0-.36-.17-.14-.34l.83-.64a.67.67 0 00.19-.77l-.49-1c-.12-.25 0-.34.25-.2l1.06.61a.89.89 0 00.88 0l.87-.62c.23-.16.38-.08.33.19l-.18 1a.85.85 0 00.36.78l.82.53c.25.16.21.32-.08.34l-1.06.1a.83.83 0 00-.67.53l-.32.95z" fill="#FFF"/></g></svg>