<svg width="71" height="48" xmlns="http://www.w3.org/2000/svg"><g fill-rule="nonzero" fill="none"><rect fill="#4758A9" x=".25" y=".28" width="70" height="47" rx="6.36"/><path fill="#F6D660" d="M.25 22.28h70v3h-70z"/><path d="M12.08 41.68c-.54.39-.86.17-.7-.49l.59-2.48a2.27 2.27 0 00-.63-2l-1.77-1.57c-.5-.45-.37-.83.29-.85l2.48-.07A1.79 1.79 0 0013.88 33l.78-2.7c.19-.66.53-.67.75 0l.94 2.67A1.88 1.88 0 0018 34.11h2.53c.66 0 .8.38.3.83l-1.93 1.72a2.16 2.16 0 00-.58 2l.62 2.18c.18.66-.13.9-.69.54l-2.06-1.3a2 2 0 00-2 .07l-2.11 1.53zm4 .6c-.17.64-.56.66-.86 0L14.1 40a2.33 2.33 0 00-1.78-1.18l-2.38-.13c-.68 0-.82-.41-.31-.84l1.89-1.59c.52-.49.69-1.245.43-1.91l-1.11-2.59c-.27-.63 0-.85.57-.48l2.43 1.5a1.91 1.91 0 002-.08l2-1.54c.52-.4.86-.2.76.46l-.41 2.53a2.17 2.17 0 00.83 1.92l1.87 1.32c.56.4.47.78-.19.85l-2.43.26a1.92 1.92 0 00-1.53 1.3l-.66 2.48z" fill="#FFF"/></g></svg>