<svg width="71" height="48" xmlns="http://www.w3.org/2000/svg"><g fill-rule="nonzero" fill="none"><path d="M64.17.62H5.85A6.64 6.64 0 00.1 6.2v35.72a6.64 6.64 0 006.56 5.64h56.72a6.64 6.64 0 006.64-6.64V7.21A6.64 6.64 0 0064.17.62z" fill="#4658A9"/><path d="M25 .57H6.6A6.64 6.64 0 00.03 7.21v17.33h25L25 .57z" fill="#4658A9"/><path d="M10.54 18v6.56h3.9v-6.71l6.71 6.71H25v-3l-7-7h7v-4h-7l7-7v-3h-3.83l-6.7 6.7V.56h-3.9v6.56L4.39 1A6.66 6.66 0 00.76 4.17l6.41 6.41H0v4h7.16L0 21.71v2.83h4L10.54 18z" fill="#FFF"/><path d="M11.54 15.23v9.31h1.9v-9.45l9.45 9.45H25V23.3l-9.78-9.78H25v-1.95h-9.78L25 1.79V.56h-2.09L13.44 10V.55h-1.9v9.3L3.21 1.51a6.67 6.67 0 00-1.76 1.55l8.49 8.49H0v1.95h9.93L0 23.45v1.09h2.23l9.31-9.31z" fill="#EC5463"/><path d="M41.7 13.45c-.32.23-.51.1-.41-.29l.35-1.43a1.3 1.3 0 00-.37-1.17l-1-.91c-.3-.26-.22-.48.17-.49h1.46a1.05 1.05 0 00.91-.71l.46-1.57c.11-.38.31-.39.44 0l.55 1.54a1.1 1.1 0 001 .68h1.49c.39 0 .47.22.17.48l-1.13 1a1.24 1.24 0 00-.34 1.16l.36 1.26c.11.38-.07.52-.41.32l-1.21-.75a1.16 1.16 0 00-1.19 0l-1.3.88zM53.7 17.45c-.32.23-.51.1-.41-.29l.35-1.43a1.3 1.3 0 00-.37-1.17l-1-.91c-.3-.26-.22-.48.17-.49h1.46a1.05 1.05 0 00.91-.71l.46-1.57c.11-.38.31-.39.44 0l.55 1.54a1.1 1.1 0 001 .68h1.49c.39 0 .47.22.17.48l-1.13 1a1.24 1.24 0 00-.34 1.16l.36 1.26c.11.38-.07.52-.41.32l-1.21-.75a1.16 1.16 0 00-1.19 0l-1.3.88zM35.7 24.45c-.32.23-.51.1-.41-.29l.35-1.43a1.3 1.3 0 00-.37-1.17l-1-.91c-.3-.26-.22-.48.17-.49h1.46a1.05 1.05 0 00.91-.71l.46-1.57c.11-.38.31-.39.44 0l.55 1.54a1.1 1.1 0 001 .68h1.49c.39 0 .47.22.17.48l-1.13 1a1.24 1.24 0 00-.34 1.16l.36 1.26c.11.38-.07.52-.41.32l-1.21-.75a1.16 1.16 0 00-1.19 0l-1.3.88zM50.2 29.48c-.23.16-.36.07-.3-.2l.25-1a.93.93 0 00-.27-.83l-.75-.65c-.21-.18-.16-.34.12-.35h1a.75.75 0 00.65-.51l.33-1.12c.08-.27.22-.28.32 0l.4 1.1a.79.79 0 00.68.49h1.07c.28 0 .34.16.13.34l-.81.71a.88.88 0 00-.24.83l.26.9c.08.27-.05.37-.29.23l-.87-.54a.84.84 0 00-.85 0l-.83.6z" fill="#ED5565"/></g></svg>