<svg width="71" height="48" xmlns="http://www.w3.org/2000/svg"><g fill-rule="nonzero" fill="none"><path d="M.87 24.84v16.64c0 .641.099 1.278.29 1.89.06.2.13.393.21.58.176.37.387.721.63 1.05.113.167.237.33.37.49.21.255.441.492.69.71h.05c.254.22.525.421.81.6a6.39 6.39 0 001.56.7h.06c.237.067.477.12.72.16h.19c.272.038.546.058.82.06H36v-23l-35.13.12z" fill="#4758A9"/><path d="M70.87 7.2a6.39 6.39 0 00-.13-1.24c0-.19-.09-.38-.14-.56a6.33 6.33 0 00-.47-1.1l-.18-.3-.14-.23-.15-.2-.21-.29-.14-.15-.27-.3-.25-.22-.2-.19h-.12a6.36 6.36 0 00-.89-.59l-.26-.13-.12-.06-.17-.08-.2-.07-.3-.11h-.27a6.62 6.62 0 00-.76-.16h-.12a6.12 6.12 0 00-.82-.06H36v24h34.92V7.2h-.05z" fill="#ED5565"/><path d="M36 47.84h28.56a6.12 6.12 0 00.82-.06h.12a6.67 6.67 0 00.76-.16h.27l.3-.11.2-.07.15-.07.21-.1.2-.09.28-.17.2-.12.19-.14.18-.13.12-.09.1-.09a6.4 6.4 0 00.76-.77l.21-.29.15-.2.14-.23c.06-.1.12-.19.18-.3a6.33 6.33 0 00.47-1.1c0-.16.09-.32.12-.48v-.11a6.39 6.39 0 00.13-1.23V24.84H36v23z" fill="#FFF"/><path d="M50.78 41.18c-.46.32-.73.14-.59-.41l.5-2a1.85 1.85 0 00-.53-1.67l-1.5-1.29c-.43-.37-.32-.68.25-.7L51 35a1.51 1.51 0 001.31-1l.66-2.24c.16-.54.45-.55.64 0l.79 2.2c.226.57.759.958 1.37 1h2.14c.56 0 .67.31.25.68L56.54 37a1.76 1.76 0 00-.49 1.66l.52 1.8c.16.54-.11.75-.59.45l-1.74-1.07a1.69 1.69 0 00-1.71.06l-1.75 1.28z" fill="#ED5565"/><path d="M36 .84H7.24a6.39 6.39 0 00-1 .09h-.15a6.29 6.29 0 00-.92.25L5 1.24a6.33 6.33 0 00-.85.4l-.12.07a5.77 5.77 0 00-1.39 1.12l-.14.15a6.41 6.41 0 00-.5.64A6.33 6.33 0 00.91 7.18v17.64H36V.84z" fill="#FFF"/><path d="M15.79 17.68c-.46.33-.73.14-.59-.41l.5-2a1.85 1.85 0 00-.53-1.67l-1.5-1.3c-.43-.37-.32-.68.25-.7l2.1-.06a1.51 1.51 0 001.31-1l.66-2.24c.16-.54.45-.55.64 0l.79 2.2c.226.57.759.958 1.37 1h2.14c.56 0 .67.31.25.68l-1.63 1.42a1.76 1.76 0 00-.49 1.66l.52 1.8c.16.54-.11.75-.59.45l-1.74-1.07a1.68 1.68 0 00-1.71.06l-1.75 1.18z" fill="#4758A9"/></g></svg>