<svg width="71" height="48" xmlns="http://www.w3.org/2000/svg"><g fill-rule="nonzero" fill="none"><rect fill="#434A54" x=".39" y=".13" width="70" height="47" rx="6.36"/><path d="M64 .13H6.75a6.34 6.34 0 00-4.52 1.88l65.89 43.62a6.35 6.35 0 002.27-4.86V6.5A6.36 6.36 0 0064 .13z" fill="#ED5565"/><path d="M11.83 23.87c-.27.19-.43.08-.35-.24l.29-1.19a1.08 1.08 0 00-.31-1l-.88-.76c-.25-.21-.18-.4.14-.41h1.23a.88.88 0 00.77-.59l.39-1.3c.09-.32.26-.32.37 0l.46 1.29a.93.93 0 00.8.57H16c.33 0 .4.18.15.4l-1 .83a1 1 0 00-.28 1l.3 1.05c.09.32-.06.43-.34.26l-1-.63a1 1 0 00-1 0l-1 .72zM21.92 27.2c-.27.19-.42.08-.35-.24l.29-1.19a1.07 1.07 0 00-.31-1l-.88-.76c-.25-.21-.18-.4.14-.41h1.23a.88.88 0 00.77-.59l.39-1.3c.09-.32.26-.32.37 0L24 23a.93.93 0 00.8.57h1.25c.33 0 .4.18.15.4l-1 .83a1 1 0 00-.28 1l.3 1.05c.09.32-.06.43-.34.26l-1-.63a1 1 0 00-1 0l-.96.72zM6.78 33c-.27.19-.42.08-.35-.24l.29-1.19a1.08 1.08 0 00-.31-1l-.88-.76c-.25-.21-.18-.4.14-.41H6.9a.88.88 0 00.77-.59l.39-1.3c.09-.32.26-.32.37 0l.46 1.29a.93.93 0 00.8.57H11c.33 0 .4.18.15.4l-1 .83a1 1 0 00-.28 1l.3 1.05c.09.32-.06.43-.34.26l-1-.62a1 1 0 00-1 0L6.78 33zM13.78 42c-.27.19-.42.08-.35-.24l.29-1.19a1.08 1.08 0 00-.31-1l-.88-.76c-.25-.21-.18-.4.14-.41h1.23a.88.88 0 00.77-.59l.39-1.3c.09-.32.26-.32.37 0l.46 1.29a.93.93 0 00.8.57H18c.33 0 .4.18.15.4l-1 .83a1 1 0 00-.28 1l.3 1.05c.09.32-.06.43-.34.26l-1-.62a1 1 0 00-1 0l-1.05.71zM16.34 33.07c-.18.13-.29.06-.24-.16l.2-.82a.74.74 0 00-.21-.67l-.6-.52c-.17-.15-.13-.27.1-.28h.84a.6.6 0 00.52-.41l.26-.9c.06-.22.18-.22.25 0l.32.88a.63.63 0 00.55.39h.85c.22 0 .27.13.1.27l-.65.57a.71.71 0 00-.19.67l.21.72c.06.22 0 .3-.23.18l-.69-.43a.67.67 0 00-.68 0l-.71.51z" fill="#FFF"/><path fill="#F6D660" d="M42.67 14l11.36 1-3.19 11.61z"/><path fill="#F6D660" d="M56.93 4.71L53.2 15.48l11.91 1.81z"/></g></svg>