<svg width="71" height="48" xmlns="http://www.w3.org/2000/svg"><g fill-rule="nonzero" fill="none"><path d="M17.14 10.14l16.16 9.33c.05 0 .1.08.17.07h37.4v-9.39l-53.73-.01zM18.49 37.55c-.44.26-.89.5-1.32.77h53.69v-9.4H33.43l-14.94 8.63z" fill="#FFF"/><path d="M3.35 46.28c4.61-2.65 9.21-5.32 13.82-8 .43-.27.88-.51 1.32-.77l14.93-8.62 8.09-4.67-7.91-4.56-.14-.11c-.06 0-.11 0-.17-.07l-16.16-9.33L3.37 2.2A6.63 6.63 0 00.85 7.4v33.72a6.63 6.63 0 002.5 5.16z" fill="#3CAFDA"/><path d="M17.14 10.14h53.73V7.39A6.64 6.64 0 0064.23.75H7.51a6.61 6.61 0 00-4.13 1.44l13.76 7.95zM33.62 19.65l7.91 4.56-8.09 4.67h37.45v-9.39h-37.4zM17.17 38.32c-4.61 2.64-9.22 5.31-13.82 8a6.61 6.61 0 004.16 1.47h56.72a6.64 6.64 0 006.64-6.64v-2.78H30.19c-4.34-.05-8.68-.04-13.02-.05z" fill="#EC5565"/><path d="M11.52 29.23c-.54.38-.87.16-.72-.49l.54-2.43a2.25 2.25 0 00-.69-2l-1.83-1.55c-.52-.44-.4-.81.27-.83l2.51-.06a1.74 1.74 0 001.54-1.2l.73-2.65c.18-.64.52-.65.76 0l1 2.63a2 2 0 001.67 1.17h2.56c.67 0 .81.38.32.82l-1.91 1.68a2 2 0 00-.54 2l.67 2.15c.2.65-.11.89-.69.53l-2.11-1.29a2 2 0 00-2 .05l-2.08 1.47z" fill="#FFF"/></g></svg>