<svg width="71" height="48" xmlns="http://www.w3.org/2000/svg"><g fill-rule="nonzero" fill="none"><path d="M2.26 46.15l18.49-13.87a.64.64 0 01.21-.12c.63-.55 1.34-1 2-1.53 2.78-2.08 5.55-4.17 8.34-6.25v-.11c-3.43-2.55-6.83-5.13-10.26-7.68l-.06-.1a4.91 4.91 0 01-.81-.56L8.3 7.03l-6-4.53a6.62 6.62 0 00-2.24 5v33.72c0 1.881.8 3.674 2.2 4.93z" fill="#EC5565"/><path d="M20.16 15.93c.25.213.522.4.81.56h49v-9A6.64 6.64 0 0063.33.85H6.65a6.61 6.61 0 00-4.4 1.67l6 4.53 11.91 8.88z" fill="#434A54"/><path d="M21 16.59c3.43 2.55 6.83 5.13 10.26 7.68v.11c-2.78 2.07-5.56 4.17-8.34 6.25-.66.52-1.37 1-2 1.53h49V16.48H21v.11z" fill="#FFF"/><path d="M20.75 32.28L2.26 46.15a6.61 6.61 0 004.39 1.67h56.72a6.64 6.64 0 006.64-6.64v-9H21a.64.64 0 00-.25.1z" fill="#55A963"/></g></svg>