<svg width="71" height="48" xmlns="http://www.w3.org/2000/svg"><g fill-rule="nonzero" fill="none"><path d="M6.75.42A6.36 6.36 0 00.39 6.78v34.27a6.36 6.36 0 006.36 6.36H28.5v-47L6.75.42z" fill="#57A863"/><path d="M70.39 41.05V6.78A6.36 6.36 0 0064.03.42H28.5v47H64a6.36 6.36 0 006.39-6.37z" fill="#ED5565"/><circle fill="#FFCE54" cx="28.5" cy="23.92" r="11.43"/><path d="M34.42 18.16H22.57v7.36a6.08 6.08 0 005.13 6.1 5.94 5.94 0 006.72-5.87v-7.59z" fill="#ED5565"/><path d="M31.89 20.7v5a3.39 3.39 0 01-6.78 0v-5h6.78" fill="#FFF"/><circle fill="#4758A9" cx="28.5" cy="22.81" r="1"/><circle fill="#4758A9" cx="28.5" cy="27.02" r="1"/><circle fill="#4758A9" cx="28.5" cy="24.92" r="1"/><circle fill="#4758A9" cx="26.4" cy="24.91" r="1"/><circle fill="#4758A9" cx="30.6" cy="24.92" r="1"/></g></svg>