<svg width="71" height="48" xmlns="http://www.w3.org/2000/svg"><g fill-rule="nonzero" fill="none"><path d="M.25 7.6v9h70v-9A6.64 6.64 0 0063.61.96H6.89A6.64 6.64 0 00.25 7.6z" fill="#ED5565"/><path fill="#4758A9" d="M.25 32.3h70V16.63h-70z"/><path d="M.25 41.31a6.64 6.64 0 006.64 6.64h56.72a6.64 6.64 0 006.64-6.64v-9h-70v9z" fill="#FFF"/><path fill="#FFCE54" d="M26.33 18.56l-.74-4.5h2.65l-1.66-2.52-1-.58h-3.99l-1.25 7.6h-2.17l-1.26-7.6h-3.98l-1.01.58-1.66 2.52h2.66l-.74 4.5H8.25l6.42 16.39h9.15l6.44-16.39z"/></g></svg>