<svg width="71" height="48" xmlns="http://www.w3.org/2000/svg"><g fill-rule="nonzero" fill="none"><rect fill="#57A863" x=".01" y=".98" width="70" height="47" rx="6.36"/><path d="M10 35h51s-.9 2-2 2H12c-1.1 0-2-2-2-2z" fill="#FFF"/><path fill="#FFF" d="M51.01 31.98h2v8h-2zM9.38 13.3c-.12 1.64-.27 4.54 1.12 4.83 1.67.16.75-2.86 1.35-3.41.11-.27.33-.27.34.07v2.56a1.23 1.23 0 00.95 1.25.71.71 0 01.9.41c.067 1.48.137 2.957.21 4.43.11 2.22 1 .3 1.07-2.49 0-1.64-.32-3-.11-3.33 0-.31.4-.33.68-.18a1.38 1.38 0 001.31.54c1-.29 1.65-.8 1.67-1.6a7 7 0 00-.47-2.29c0-.14-.2-.5-.15-.64.19.29.47.27.53 0a2.28 2.28 0 00-.89-1.39.64.64 0 00-1.1.42 3.72 3.72 0 00.84 2.47c.175.385.248.809.21 1.23A.65.65 0 0117 16a4.11 4.11 0 01-.82-.76 3 3 0 00-.07-2 2.69 2.69 0 00-.54-1.08.37.37 0 00-.62 0 3.76 3.76 0 00.07 2.62c.18.278.296.592.34.92-.11.32-.35.24-.52-.12a9.25 9.25 0 01-.29-2.4c-.07-.63-.15-2-.57-2.32a.42.42 0 00-.75.14 11.44 11.44 0 000 1.83 20.3 20.3 0 01.51 2.95c0 1.39-.8.6-.76-.09a6.34 6.34 0 000-2.66.48.48 0 00-.54-.41h-.08a2.35 2.35 0 00-1.12 2 11.32 11.32 0 00-.23 1.2c-.09.64-.51 1.09-.8-.09-.21-.82-.4-2.92-.83-2.43zm4.54 6.74c-1.47.73-2.9 1.41-4.35 2.11.05-1 2.07-2.8 3.45-2.82.9 0 .67.35.91.71h-.01zm-4.2 4.23c-.82 1.32-.89 3.28-.44 3.87a1 1 0 00.93.31 1.73 1.73 0 00.62-1.66c-.17-.27-.31-.31-.48-.08-.36.74-.51.23-.54-.18a9.57 9.57 0 01.1-2.08c.09-.59 0-.41-.19-.17v-.01zm35-2.11c-.79-1.72-1.89-3.42-2.24-4.07-.35-.65-3-4.51-3.36-4.95-.86-1 1.39.43-.29-1.61l-1.2-1c-.27-.19-.92-.54-1 0a3.21 3.21 0 00.06 1.21c.174.364.4.7.67 1a76.92 76.92 0 017.32 11.89c.36-.17.28-2.22.07-2.51l-.03.04zm-3.47 5.76a1 1 0 001.08.93c1.17-.14 2.21-.8 3.16-2.55a4.48 4.48 0 00.72-2 43.81 43.81 0 00-.78-9.94 1.58 1.58 0 010-.69 1 1 0 00.47-.23c.2-.21-.53-1.92-1-2.58-.15-.3-.2-.49-.45 0a3.73 3.73 0 00-.41 1.87c.56 3.91.73 7.34 1.1 11.25a1.56 1.56 0 01-.28 1.15 10.94 10.94 0 01-3.69 2.72l.08.07zm15.84 0c-.84.49-.84 1.06-.16 1.08 1.17-.14 2.56-.24 3.51-1.69a5.73 5.73 0 00.58-2.19 43.36 43.36 0 00-.65-9.81 5.77 5.77 0 01-.11-1c.08-.2.46 0 .6-.2.14-.2-1-1.75-1.41-2.41-.15-.3-.2-.49-.45 0a3 3 0 00-.24 1.87 90.73 90.73 0 011.18 11.21 4.58 4.58 0 01-.23 1 8.18 8.18 0 01-1.16 1.36c-.38.28-1.19.56-1.46.77v.01zm.63-3.81v-2.59a4.72 4.72 0 00-.41-1.87 7.2 7.2 0 01-.21-1.62c-.11-.6-.08-1.5-.25-2.21a7.9 7.9 0 01-.15-1.26c.07-.2.34 0 .47-.22.13-.22-.68-2.47-1.12-3.12-.15-.29-.44-.19-.79.28a2 2 0 00-.08 1.69 57 57 0 011.33 12.68c0 .36 1.24-1.07 1.23-1.75l-.02-.01zm-6.22-5.5a3.8 3.8 0 01-2-1.64 1.12 1.12 0 01.07-.88.71.71 0 01.72-.13c.087.11.151.235.19.37.29.14.41.06.44-.06.03-.12-.09-.33-.09-.56a.61.61 0 011.09-.32 2.3 2.3 0 01.29 1.1c0 .18-.28 0-.44 0a.41.41 0 00-.22.4c0 .45-.08 1.17-.09 1.72h.04zm-9.77 6.61a41 41 0 00-.06-4.55c-.06-1.88-.36-5.52-.51-6.13-.16-1.14.47.13.38-.54a7.27 7.27 0 00-1.57-3c-.23-.34-.23-.41-.59.08a3.45 3.45 0 000 2.3 43 43 0 011 6.69c.16 2.243.18 4.494.06 6.74a1.93 1.93 0 001.26-1.63l.03.04zM59.49 23c-.93-1.58-2.34-3.3-2.72-3.93-.38-.63-3.55-4.79-4-5.2-1.16-1.24.53-.2-.22-1.16a9 9 0 00-1.38-1.36c-.27-.18-.44-.52-.53.06a13.61 13.61 0 000 1.54c.063.368.222.713.46 1a79.27 79.27 0 018.38 11.58c.35-.19.24-2.21 0-2.49l.01-.04zm-35-4.55l-.1.64a.24.24 0 01-.46 0c-.18-.82-.91-.92-1.36.34-.3.24-.84.29-.9-.07.07-.85-.27-1-.95-.56-.22-1.68-.44-3.29-.66-5a.75.75 0 00.8-.12c-.28-.89-.88-2.71-1.21-2.84-.16-.2-.3-.07-.51 0a.84.84 0 00-.58 1c.42 2.58.7 4.55 1.11 7.13a.55.55 0 01-.42.65h-.09c-.55-.37-.69-1.13-1.62-1.1A1.83 1.83 0 0016 20a3.62 3.62 0 000 1.69 1.35 1.35 0 001.55.39 3 3 0 01.9-.49c.1.12 0 1.49-1.94 2.55-1.19.54-2.13.66-2.64-.32-.32-.61 0-2.94-.75-2.4-2.29 6 5.37 6.81 6.23.24.08-.27.4-.54.46-.1-.18 5.94-5.93 6.35-6.91 4.48a5.78 5.78 0 01-.34-2c-.15-1.17-.75-.72-.85.44a7.31 7.31 0 00-.07 1.45c.31 4.69 7.72 2.68 8.92-1.2.64-2.15-.1-3.73.24-3.72.57.5 1.436.446 1.94-.12v-.05a.33.33 0 01.46-.09h.05a1.19 1.19 0 001.79-.51c.13-.737.21-1.482.24-2.23a1.2 1.2 0 00-.75.47l-.04-.03zm-6.79 2.19a.56.56 0 01-.41.05.39.39 0 01-.36-.18.6.6 0 01.17-.43.4.4 0 01.68.11.46.46 0 01-.08.45zm8.38-8.72c-.85 2.45.49 5.14 1.41 4.88.67.28 1.09-1 1.37-2.41.19-.39.33-.44.42-.23 0 1.87.13 2.29.61 2.86.573.5 1.427.5 2 0l.83-.84a.5.5 0 01.69 0c.174.362.435.674.76.91a1.65 1.65 0 001.65-.35c.31-.53.38-.71.52-.91a.38.38 0 01.51-.13l.08.06a.69.69 0 00-.11.62.35.35 0 00.47 0 3.14 3.14 0 001-1.45c0-.44-.22-.4-.38-.31-.16.09-.22.17-.43.3a.93.93 0 01-1-.18 16 16 0 01-.45-1.62s-.35-.76 0-.8c.16 0 .51.12.56-.17a2.2 2.2 0 00-.72-1.5.79.79 0 00-1.11-.1l-.07.07a1.32 1.32 0 00-.31.87 1.37 1.37 0 00.28 1.18c.49.7.72 1.549.65 2.4a1 1 0 01-.86.44c-.22 0-.59-.15-.79-1.62-.15-1.11 0-2.67-.43-3.4-.17-.44-.3-.87-.71-.11a1.78 1.78 0 00-.24 1.67 2.52 2.52 0 01-.23 3.31.81.81 0 01-1 .15 1.14 1.14 0 01-.62-.89 12.74 12.74 0 00-.1-2.88.51.51 0 00-.86-.17 6.58 6.58 0 00-1.56 3.24c-.24.79-.5.56-.68.24-.44-.42-.47-3.67-1-3.14l-.15.01zm-10.47 0c.57.28 1.65.16 1.6-.77v-.44c-.12-.27-.44-.21-.51.08a.44.44 0 010 .29s-.23 0-.22-.24a.44.44 0 00-.1-.22.18.18 0 00-.12 0 .12.12 0 00-.12.09.84.84 0 000 .21.14.14 0 01-.23.11.17.17 0 01-.08-.12.74.74 0 000-.23.25.25 0 00-.14-.08.4.4 0 00-.33.46.86.86 0 00.39.85l-.14.01zm16.8 7.18c.57.28 1.93.12 1.6-.77v-.44c-.11-.27-.43-.21-.51.08a.39.39 0 010 .29s-.23 0-.22-.24a.42.42 0 00-.1-.22.17.17 0 00-.12 0c-.08 0-.08 0-.12.09a.75.75 0 000 .21.12.12 0 01-.11.14.13.13 0 01-.12 0 .19.19 0 01-.08-.12.54.54 0 000-.23.23.23 0 00-.14-.08.39.39 0 00-.32.45.84.84 0 00.38.85l-.14-.01zm9.79-3c.57.28 1.65.16 1.6-.77v-.44c-.11-.27-.43-.21-.5.08a.44.44 0 010 .29s-.23 0-.22-.24a.41.41 0 00-.1-.22.15.15 0 00-.12 0 .12.12 0 00-.12.09.76.76 0 000 .21.12.12 0 01-.11.14.13.13 0 01-.12 0 .19.19 0 01-.08-.12.78.78 0 000-.23.3.3 0 00-.14-.08.39.39 0 00-.33.44v.06a.86.86 0 00.39.85l-.15-.06zm5.07 7.46a3.53 3.53 0 00-.33 3.42 2.68 2.68 0 001.23 1.42.86.86 0 001.22-.05l.07-.09c.59-.61.6-2.18.87-2.49a.52.52 0 01.92-.22c.213.307.498.558.83.73a1.4 1.4 0 001.85.13 2.15 2.15 0 001-1.21c.29-.77.13-4.35.07-6.47 0-.17-.57-2.91-.57-2.94 0-.03-.07-1.4-.13-1.73 0-.13 0-.17.09-.15a.84.84 0 00.26.17c.15 0 .28-.23.19-.46l-1.36-2.55c-.11-.11-.26-.23-.43 0a1 1 0 00-.34.76c0 .6.15 1.22.19 1.82l.54 3.1c.18 2.21.22 4 .39 6.23a2.56 2.56 0 01-.58 1.87.62.62 0 01-.69 0 8.33 8.33 0 01-1-1.35.6.6 0 00-1 0c-.8.79-1.17 2.25-1.71 3.27a.6.6 0 01-1 0 4.63 4.63 0 01-.6-3.18l.02-.03zm-4.81-12.88a1.92 1.92 0 01.75 1.78c-.1.64-.37 1.32-.57 1.23-.2-.09.15-.63-.06-1.21a10.38 10.38 0 01-.74-1.27.46.46 0 01.61-.53h.01zM49 24.27a15.88 15.88 0 00-.1-2.77c0-.74-.83-6.4-1-7-.2-1.06.77-.14.66-.76-.33-.78-1.17-1.91-1.43-2.58-.16-.29-.09-.55-.44-.08a5.76 5.76 0 00-.32 2.64c.84 4.44 1.7 8.13 1.57 12.35.39 0 .85-.92 1-1.84l.06.04zm8.77-11.72a2.7 2.7 0 01.69 1.93c-.09.69-.34 1.43-.52 1.33a5.25 5.25 0 01-.05-1.31 13 13 0 01-.68-1.37.45.45 0 01.56-.58zM23 21.88c.434.341.68.868.66 1.42a1.15 1.15 0 01-.5 1 3 3 0 01-.05-1 4 4 0 00-.65-1c-.12-.41.26-.48.53-.42H23zM11 10.45c.51.3.77.891.65 1.47a1.21 1.21 0 01-.49 1 3 3 0 01-.1-1 6.83 6.83 0 01-.59-1c-.12-.38.26-.53.53-.47zm13 4.62a1.2 1.2 0 00-.39 1.58.76.76 0 00.82.27c.5.06.79-.94.79-.94s0-.28-.57.25a.24.24 0 01-.32-.12.24.24 0 010-.06 1.25 1.25 0 01.08-.78c.08-.25-.1-.36-.39-.19l-.02-.01zm3.8-5a1.87 1.87 0 00-.78 1.31c0 .35-.08.34.15.56.23.22.32.21.65 0a.7.7 0 00.31-.46c.08-.39-.41.19-.47-.25a1.13 1.13 0 01.5-1c0-.27 0-.46-.36-.24v.08zm3.06.55a8.32 8.32 0 00-.22 1.52c-.09.38.4.54.61.05a5 5 0 00.36-1.66c-.11-.58-.49-.56-.75.08v.01zm19.3 9.92c.07-.07 2.72-2 2.72-2 .27-.1.21 1 .09 1a10.58 10.58 0 01-2.81 2 .83.83 0 010-1zm2.42 0c.47.23.66 1.62.6 2a1.12 1.12 0 01-.63 1.22 4.25 4.25 0 01-.07-1.2 6.55 6.55 0 01-.43-1.39.45.45 0 01.53-.62v-.01zm-15.79 6a3.69 3.69 0 01.77-.67.51.51 0 01.51.09 6.33 6.33 0 00-.1.87.27.27 0 00.29.26h.07a1.89 1.89 0 011.23-.38c.32 0 .33.57.13.58a9 9 0 00-1.68.6.38.38 0 01-.49-.06.51.51 0 010-.5c0-.28-.09-.44-.32-.4-.23.04-.33.16-.42 0a.24.24 0 01.06-.33l-.05-.06zm18.58.74a.34.34 0 010 .48c-.18.17-.31.27-.5.44-.19.17-.14.38.13.45a3.17 3.17 0 001.64-.63.37.37 0 00.11-.41.84.84 0 00-.52-.07c-.08 0-.33 0-.21-.27a1.67 1.67 0 00.21-.41c.07-.17 0-.29-.27-.38a2.23 2.23 0 00-.72 0 .31.31 0 00-.26.32.49.49 0 00.4.42l-.01.06zm-15.22-5.15l-.25-.15h-5c-.25-.1-.18-.18 0-.26 1.19-.16 3.31-.51 3.45-2.56a1.67 1.67 0 10-3.28.07c0 .28.09.82-.19.88-1.83.17-3.82 1.32-3.89 2.15-.11.08-.36-.15-.33-.5a9.84 9.84 0 00-1.25-4.3c-.58-.58-.4-.39-.78-.11a1.26 1.26 0 00-.28 1.06s.47 1.34.86 2.26a7.08 7.08 0 01.33 3 7.46 7.46 0 01-3 3.21 1.52 1.52 0 01-1.27 0 .78.78 0 01-.33-.74 7.19 7.19 0 003.05-3.18 3.3 3.3 0 00.08-2.3 2.19 2.19 0 00-.52-1.06c.16-.11.63.25.7 0a3.35 3.35 0 00-.88-1.63.73.73 0 00-1-.1 1.53 1.53 0 00-.27 1.61c.2.49.73.58 1.11 1.56.071.333.05.678-.06 1a12.08 12.08 0 01-2.29 2.17c-.06.07 0 0 0-.3s.13-1.1.09-1.1c-.66.43-.88 1.75-1 2.14-1.67 1.16-3.56 2-4.65 3.21-.57.9 3.91-1 4.43-1.26.11.296.246.58.41.85a2.35 2.35 0 002.42.79 7.69 7.69 0 003.5-2.94.38.38 0 01.49-.22h.05c.65 1.47 2.53 2.52 5 2.63.56-.69.29-1 .06-1.17a3.52 3.52 0 01-1.38-.94 1 1 0 01.7-1.06 24 24 0 004.57-.88 4.13 4.13 0 01.51-1.58.78.78 0 00.26-.34l-.17.09zM36.06 19a.43.43 0 01.55 0 .44.44 0 01.29.47.43.43 0 01-.55 0 .43.43 0 01-.28-.47h-.01zm-2 5.08a1.12 1.12 0 00-1 1.11c.2 1.09-.27.71-.55.57a2.83 2.83 0 01-1.38-2.05.52.52 0 01.48-.55h.09a15.44 15.44 0 002.08.24c.58 0 .87.49.33.68h-.05zm-8.89-12a.88.88 0 00.18-1.23l-.09-.1a1.31 1.31 0 00-1.18 0 1 1 0 00-.17 1.32c.29.14.58.44.39.6-.89 1-3.34 2.62-3.05 2.68a5.44 5.44 0 001.61 0 22.6 22.6 0 002.64-2.69l-.33-.27a.19.19 0 01-.06-.26l.06-.06v.01zm-.39 0a.41.41 0 01-.4-.28.27.27 0 01.05-.37.41.41 0 01.4.28.27.27 0 01-.06.37h.01z"/></g></svg>