<svg width="71" height="48" xmlns="http://www.w3.org/2000/svg"><g fill="none"><rect fill="#57A863" x=".25" y=".95" width="70" height="47" rx="6.36"/><path d="M64.59 1a6.43 6.43 0 00-.7 0H6.61A6.36 6.36 0 00.25 7.36v34.37l.47-.3 27.53-11.44L64.59 1z" fill="#4758A9"/><path d="M70.25 7.85v-.54a6.35 6.35 0 00-3.92-5.86l-.24-.09h-.05l-.53-.17-.58-.12c-.21 0-.42 0-.63-.05l-64 40.7c.004.237.02.474.05.71v.22c0 .07.08.4.13.6v.1a6.36 6.36 0 005.1 4.55h.17c.282.039.566.059.85.06h.56l63.07-40.1.02-.01z" fill="#FFCE54"/><path d="M6.54 12c-.28.17-.43.05-.32-.26l.39-1.19a1.11 1.11 0 00-.23-1l-.81-.82c-.23-.24-.15-.42.18-.4l1.23.05a.9.9 0 00.82-.55l.49-1.29c.12-.31.29-.31.38 0l.35 1.33a.9.9 0 00.75.63l1.25.1c.33 0 .38.21.12.41l-1 .77a1.07 1.07 0 00-.37 1l.22 1.08c.06.33-.1.44-.37.24l-1-.7a1 1 0 00-1 0l-1.08.6zm12 0c-.28.17-.43.05-.32-.26l.39-1.19a1.11 1.11 0 00-.23-1l-.81-.82c-.23-.24-.15-.42.18-.4l1.23.05a.9.9 0 00.82-.55l.49-1.29c.12-.31.29-.31.38 0l.35 1.33a.9.9 0 00.75.63l1.25.1c.33 0 .38.21.12.41l-1 .77a1.07 1.07 0 00-.37 1l.22 1.08c.06.33-.1.44-.37.24l-1-.7a1 1 0 00-1 0l-1.08.6zm0 11c-.28.17-.43.05-.32-.26l.39-1.19a1.11 1.11 0 00-.23-1l-.81-.82c-.23-.24-.15-.42.18-.4l1.23.05a.9.9 0 00.82-.55l.49-1.29c.12-.31.29-.31.38 0l.35 1.33a.9.9 0 00.75.63l1.25.1c.33 0 .38.21.12.41l-1 .77a1.07 1.07 0 00-.37 1l.22 1.08c.06.33-.1.44-.37.24l-1-.7a1 1 0 00-1 0l-1.08.6zm-12 0c-.28.17-.43.05-.32-.26l.39-1.19a1.11 1.11 0 00-.23-1l-.81-.82c-.23-.24-.15-.42.18-.4l1.23.05a.9.9 0 00.82-.55l.49-1.29c.12-.31.29-.31.38 0l.35 1.33a.9.9 0 00.75.63l1.25.1c.33 0 .38.21.12.41l-1 .77a1.07 1.07 0 00-.37 1l.22 1.08c.06.33-.1.44-.37.24l-1-.7a1 1 0 00-1 0l-1.08.6zm6-5.53c-.28.17-.43.05-.32-.26l.39-1.19a1.11 1.11 0 00-.23-1l-.81-.82c-.23-.24-.15-.42.18-.4l1.23.05a.9.9 0 00.82-.55l.49-1.29c.12-.31.29-.31.38 0l.35 1.33a.9.9 0 00.75.63l1.25.1c.33 0 .38.21.12.41l-1 .77a1.07 1.07 0 00-.37 1l.22 1.08c.06.33-.1.44-.37.24l-1-.7a1 1 0 00-1 0l-1.08.6z" fill="#FFF"/></g></svg>