<svg width="70" height="48" xmlns="http://www.w3.org/2000/svg"><g fill-rule="nonzero" fill="none"><path d="M63.64 47.27H6.37A6.36 6.36 0 010 40.9V23.27h70V40.9a6.36 6.36 0 01-6.36 6.37z" fill="#FFF"/><path d="M0 6.63A6.36 6.36 0 016.36.27h57.27a6.36 6.36 0 016.36 6.36v16.64H0V6.63z" fill="#ED5565"/><path d="M19.4 9.91c-.15.1-.24 0-.2-.13l.16-.64a.56.56 0 00-.18-.52l-.49-.41c-.14-.12-.1-.21.08-.22h.69a.49.49 0 00.43-.32l.22-.7c.05-.17.15-.17.21 0l.26.69c.08.18.253.3.45.31h.7c.18 0 .22.1.08.22l-.54.45a.54.54 0 00-.16.52l.17.57c.05.17 0 .23-.19.14l-.57-.34a.58.58 0 00-.56 0l-.56.38zm-3 2.52c-.15.1-.24 0-.2-.13l.16-.64a.56.56 0 00-.17-.52l-.49-.41c-.14-.11-.1-.21.08-.22h.69a.49.49 0 00.43-.32l.22-.7c.05-.17.15-.17.21 0l.26.69c.08.18.253.3.45.31h.71c.18 0 .22.1.08.22l-.54.45a.54.54 0 00-.16.52l.17.57c.05.17 0 .23-.19.14l-.57-.34a.58.58 0 00-.56 0l-.58.38zm6.14 0c-.15.1-.24 0-.2-.13l.16-.64a.57.57 0 00-.18-.52l-.49-.41c-.14-.11-.1-.21.08-.22h.69a.49.49 0 00.43-.32l.22-.7c.05-.17.15-.17.21 0l.26.69c.08.18.253.3.45.31h.7c.18 0 .22.1.08.22l-.54.45a.54.54 0 00-.16.52l.17.57c.05.17 0 .23-.19.14l-.57-.34a.58.58 0 00-.56 0l-.56.38zm-1.06 3.45c-.15.1-.24 0-.2-.13l.16-.64a.57.57 0 00-.18-.53l-.49-.41c-.14-.12-.1-.22.08-.22h.69a.5.5 0 00.43-.32l.22-.7c.05-.17.15-.17.21 0l.26.69c.08.18.253.3.45.31h.71c.18 0 .22.1.08.22l-.54.45a.54.54 0 00-.16.52l.17.57c.05.17 0 .23-.19.14l-.57-.34a.58.58 0 00-.56 0l-.57.39zm-3.79 0c-.15.1-.24 0-.2-.13l.16-.64a.57.57 0 00-.18-.53l-.49-.41c-.14-.12-.1-.22.08-.22h.69a.5.5 0 00.43-.32l.22-.7c.05-.17.15-.17.21 0l.26.69c.08.18.253.3.45.31h.7c.18 0 .22.1.08.22l-.54.45a.54.54 0 00-.16.52l.17.57c.05.17 0 .23-.19.14l-.57-.34a.58.58 0 00-.56 0l-.56.39zm-1.55.44c-.27.14-.55.256-.84.35a5.44 5.44 0 01-6.84-3.23 5.35 5.35 0 01-.09-3.17A5.42 5.42 0 0115 6.66c.295.08.582.183.86.31a.18.18 0 00.22-.12.17.17 0 00-.08-.2A6.89 6.89 0 005.26 10a6.22 6.22 0 00.11 3.83 6.9 6.9 0 0010.9 2.76.17.17 0 00.07-.2.19.19 0 00-.24-.1l.04.03z" fill="#FFF"/></g></svg>