<svg width="71" height="48" xmlns="http://www.w3.org/2000/svg"><g fill-rule="nonzero" fill="none"><path d="M.25 6.88v9h70v-9A6.64 6.64 0 0063.61.24H6.89A6.64 6.64 0 00.25 6.88z" fill="#FFF"/><path fill="#4758A9" d="M.25 31.58h70V15.91h-70z"/><path d="M.25 40.59a6.64 6.64 0 006.64 6.64h56.72a6.64 6.64 0 006.64-6.64v-9h-70v9zM33.39 5.07v10.19c0 8-9 11.24-9.34 11.38a2 2 0 01-.66.11 2 2 0 01-.66-.11c-.38-.13-9.26-3.33-9.34-11.35V5.07h20zm-16 2v8.19c0 4.22 4.32 6.57 6 7.33 1.68-.76 6-3.13 6-7.33V7.07h-12z" fill="#ED5565"/><path d="M15.39 5.07v10.19c.07 6.71 8 9.49 8 9.49s8-2.78 8-9.49V5.07h-16z" fill="#4758A9"/><path d="M16 18.27c1.87 4.54 7.38 6.48 7.38 6.48s5.54-1.94 7.39-6.46l-7.39-7.39L16 18.27z" fill="#FFF"/></g></svg>