<svg width="71" height="48" xmlns="http://www.w3.org/2000/svg"><g fill-rule="nonzero" fill="none"><path d="M.63 6.92v9h70v-9A6.64 6.64 0 0063.99.28H7.27A6.64 6.64 0 00.63 6.92z" fill="#FFF"/><path fill="#4758A9" d="M.63 31.62h70V15.95h-70z"/><path d="M.63 40.63a6.64 6.64 0 006.64 6.64H64a6.64 6.64 0 006.64-6.64v-9h-70l-.01 9z" fill="#ED5565"/><path d="M23.77 35.62a2 2 0 01-.66-.11c-.38-.13-9.26-3.33-9.34-11.35V13.93a2 2 0 012-2h16a2 2 0 012 2v10.19c0 8-9 11.24-9.34 11.38a2 2 0 01-.66.12zm-6-19.68v8.19c0 4.22 4.32 6.57 6 7.33 1.68-.76 6-3.13 6-7.33v-8.19h-12z" fill="#FFF"/><path d="M15.77 13.93v10.19c.07 6.71 8 9.49 8 9.49s8-2.78 8-9.49V13.93h-16z" fill="#ED5565"/><path fill="#FFF" d="M22.52 13.56h2.5V29.2h-2.5z"/><path fill="#FFF" d="M19.48 16.46h8.58v2.5h-8.58zM18.14 21.46h11.25v2.5H18.14z"/><path d="M23.76 33.62s6.41-2.24 7.74-7.54H16c1.4 5.3 7.76 7.54 7.76 7.54z" fill="#4758A9"/></g></svg>