<svg width="71" height="48" xmlns="http://www.w3.org/2000/svg"><g fill-rule="nonzero" fill="none"><path d="M64.51.68H7.24A6.36 6.36 0 00.88 7.04v17.64h70V7A6.36 6.36 0 0064.51.68z" fill="#FFF"/><path d="M.87 41.31a6.36 6.36 0 006.36 6.36H64.5a6.36 6.36 0 006.36-6.36V24.68h-70l.01 16.63z" fill="#3BAFDA"/><path d="M19.57 26a.28.28 0 100 .56.28.28 0 000-.56zm3 3.73a.28.28 0 100 .56.28.28 0 000-.56zM53 24.47a.5.5 0 01.25-.57c.2-.23.33-.47.06-.7h-.1c.19-.34.09-.75-.15-.77a1.79 1.79 0 00-1.19.37c-.62-.61-.74.06-.92.65a.52.52 0 00-.44-.06 2.17 2.17 0 01-.41 1.5c-.25.09-.56.19-.85.31a.72.72 0 00.22-.37.79.79 0 01.41-.61.49.49 0 00.26-.63.26.26 0 01.09-.45.38.38 0 00.27-.46.79.79 0 01-.1-.63c.08-.18-.27-.35-.57-.06a1 1 0 00-.25 1c.06.23-.21.2-.37.16a.68.68 0 00-.06-1c-.31-.23-.36-.05-.6.25a.53.53 0 00-.12.51.29.29 0 01-.13.39.26.26 0 000 .45c.19.16.17.27 0 .47a.63.63 0 000 .74.92.92 0 01.1.68 2.17 2.17 0 01-.53 1.17 2.25 2.25 0 00-.47.76 3.65 3.65 0 01-1.09.74 1.4 1.4 0 000-.41 4.75 4.75 0 00.14-.81.43.43 0 01.08-.13c.37-.35.09-.8.33-1 .24-.2.23-.43 0-.41-.23.02-.14 0-.14-.08a2.07 2.07 0 01.11-.25v-.05a.62.62 0 00.13-.21l.09-.13a1 1 0 01.2.35c-.12.25-.08.5.13.46.49.31.84.08.44-.44.07-.17 0-.24-.33-.24a.93.93 0 01-.3-.4c.08-.45.39-.91.39-1.14a1.27 1.27 0 01.35-.75 1.8 1.8 0 00.34-1.21 3.35 3.35 0 01.82-.87c.2-.15.35-.41.17-.52a.27.27 0 010-.49.4.4 0 00.22-.42c.29-.12.51 0 .51.14s.09.25.24.21a1.45 1.45 0 01.56 0c.25 0 .2 0 .18-.21-.02-.21 0-.28.2-.09a.25.25 0 00.35.07l.07-.07a.56.56 0 00-.25-.58c-.2-.12-.29-.24-.2-.35.09-.11.13-.12-.18-.2a1.7 1.7 0 00-1.62.57l-.09-.1c-.13-.09-.08-.21 0-.34.08-.13 0-.31-.36-.12a.73.73 0 00-.46.58c0 .17 0 .23-.23.31a.45.45 0 00-.22.59.53.53 0 00.37.29c.19 0 .25.28 0 .2-.25-.08-.51 0-.39.25.024.3.024.6 0 .9a1.13 1.13 0 00-.2.77 1.84 1.84 0 01-.32.8c0-.67-.07-2.23-.08-3.47a.78.78 0 000-.37c.14-.49.53-1.38 1-1.43a.42.42 0 00.43-.21.21.21 0 01.19-.23c.12 0 .17-.21 0-.38a.35.35 0 01.08-.49h.05a.38.38 0 00.24-.48v-.08a.47.47 0 00-.83.17c-.1.2-.16.28-.31.18a.35.35 0 00-.53.35 1.64 1.64 0 01-.14 1.4l-.06.11c0-.17.08-.32.11-.41a.62.62 0 00-.23-.72c-.19-.06-.17-.14 0-.43.23-.55 0-.69-.27-.8a.63.63 0 01-.45-.45.41.41 0 00-.52-.28.37.37 0 00-.2.58.33.33 0 010 .47c-.13.15 0 .45.32.37a.43.43 0 00.25.45c.12.09.07.23-.06.45a.32.32 0 00-.35-.3c-.31.06-.37 0-.45-.21a.45.45 0 00-.63-.06c-.24.2-.58.81.12.74.3 0 .45 0 .3.17a.36.36 0 00.29.61 1.42 1.42 0 01.6.12c-.29.11-.32.28-.08.4.4.064.733.34.87.72.048.278.075.558.08.84 0 .11-.1 0-.09 0a.09.09 0 00-.09-.09c-.16-.33-.38-.49-.51-.39a.64.64 0 00.24.67c-.17.23 0 .49.18.43a.25.25 0 01.31 0c.08.46.08.93 0 1.39a1.24 1.24 0 00.08.78c.07.262.07.538 0 .8a4.78 4.78 0 01-.49.94.66.66 0 00-.34.31 1.73 1.73 0 01.27-.76.32.32 0 00-.11-.53c-.24-.1-.78.12-.49.92-.06-.18-.23-.14-.39.14a.47.47 0 000 .61.36.36 0 01.08.49.42.42 0 00.15.55.74.74 0 01.18.68 4.33 4.33 0 000 .88c-.09.36-.24.7-.31 1a1.28 1.28 0 01-.22.43.66.66 0 00.06-.35.65.65 0 01.12-.47.44.44 0 00-.14-.55.34.34 0 01-.11-.47l.07-.08a.21.21 0 00-.21-.35h-.11c0-.54-.09-1.57-.11-2a1.6 1.6 0 01.47-1.25.45.45 0 00.22-.6.37.37 0 01.19-.49.56.56 0 00-.45-1c.24-.27-.11-.84.1-1a.6.6 0 00.1-1c.11-.39-.24-.43-.14-.76.1-.33-.17-.43-.37-.14-.2.29-.25.23-.39.06a.45.45 0 00-.72-.06c-.1.82-.14 6.32.62 6.41 0 .29.15 1.23.23 1.86a.47.47 0 01-.15-.1c-.21-.18-.29.06-.19.29.1.23-.21.16 0 .41.086.128.157.265.21.41-.33-.2-.5.23-.39.61.058.194.078.398.06.6v-.06a1.42 1.42 0 01-.4-.53v-.17a.64.64 0 01.13-.38c.21-.27.49-.65-.25-1.33a5.6 5.6 0 00-.88 1.9c.063.403.287.764.62 1a.42.42 0 00-.33.13.36.36 0 01-.36.2h-.07a.82.82 0 00-.76.12 1.18 1.18 0 00-.34.72.69.69 0 01-.2.55c-.15.11-.34.37-.07.55a.62.62 0 00.45 0 4.64 4.64 0 01-1.28.77 3.65 3.65 0 00.08-1.33l-.57.67c.12 1.25-.64 1.55-1.46 2.13-.65.45-2.14 1.59-3.12 2.39-.11-.11-.2-.22-.28-.32a13.82 13.82 0 00-2.47-2.09 16.81 16.81 0 00-2.62-1.3 2.36 2.36 0 01-1.21-1.36 1.12 1.12 0 00-.81-1 .28.28 0 10-.14 0h-.17a3.55 3.55 0 01.06-1.82 3.29 3.29 0 00-.25-2.42 4.32 4.32 0 01-.59 1.44 3.43 3.43 0 00.46 2.78h-.51c-.09-.15-.16-.3-.21-.39-.05-.09-.37-.3-.64-.55a3.47 3.47 0 01.33-1.56c.21-.41-.39-1.41-.29-2.42a2.68 2.68 0 00-.39.65 6.38 6.38 0 000-.77 3.39 3.39 0 00.12-3.17 15 15 0 00.78-2.66l-.09.09c.13-1 0-2 0-2.16a7.14 7.14 0 00-.67 3 2.59 2.59 0 00-.2.55 4.18 4.18 0 00-.58-1.46c-.63 2.1.24 3.26.45 4.19 0 .17-.05.33-.08.51-.23-.62-.79-1.23-.91-1.69-.37 1.4.58 3.11 1 4.13a3.81 3.81 0 00-.08.51 1.53 1.53 0 00-.16-.45 4.58 4.58 0 01-.68-1.7 2.72 2.72 0 00-.33 1.31c0-.1 0-.19-.07-.27a.27.27 0 00-.12-.48 6 6 0 01.22-1.79.52.52 0 01-.33-.53v-.67a8.65 8.65 0 00.49-3.75 4 4 0 01-.43.74 1.35 1.35 0 01.74-1.53c1.6-1.26 1.3-2.12 1.88-2.55a7.23 7.23 0 00-1.64 1.16 5.94 5.94 0 001.24-2.6 3.46 3.46 0 00-1.51 1.84 6.07 6.07 0 01-.3 1.42l-.13.2a5.49 5.49 0 00-.18-2.66 4.4 4.4 0 01-.52 1.32 3.55 3.55 0 00.22 2.49 3.85 3.85 0 00-.06 1.28 1.92 1.92 0 00-.41 1c-.13.85.52 1.08.4 1.72a6.56 6.56 0 00-.07.88.26.26 0 00.1.29.4.4 0 01.08.45c0 .11-.12.5-.19.91a1.27 1.27 0 01-.16-.53 2.48 2.48 0 00-.29.84c-.4-1.14.71-1.16-.39-3.48a5 5 0 00-.36 1.77 4.63 4.63 0 00-.36-1.33c.1-.9.62-.82.57-2a3.49 3.49 0 01.09-1.9 3.19 3.19 0 00-.67 1 5.5 5.5 0 01-.29-1.63 4.18 4.18 0 00-.61 2.5 4.06 4.06 0 01-.87-.9c.22 1.47.49 2.43.92 2.73.18.14.333.314.45.51a.28.28 0 000 .55.28.28 0 00.22-.09c.07.14.13.28.18.43l-.14-.08a3.15 3.15 0 01-1.36-.89 2 2 0 001.2 1.75c.51.314.972.702 1.37 1.15a2.32 2.32 0 00.21 1.24 5.29 5.29 0 01-1.21-1.29 2.81 2.81 0 001.54 2.49c.36.156.697.361 1 .61l.1.08c.08.397.328.74.68.94.332.197.629.447.88.74-1.07 0-2.4-.12-2.77-.17-.26-.34-.5-.67-.67-.91a4.22 4.22 0 00-.79-3 2.83 2.83 0 000 2.23 1.72 1.72 0 00-.37-.23 7.53 7.53 0 00-.44-.85c-.22-1 .22-1.54-1.47-3.33a2.44 2.44 0 00.1 1.61 4.4 4.4 0 01-.41-1c-.29-1.17-1.27-1.06-1.66-1.64.53 1.88.9 2.09 1.25 2.35a8.37 8.37 0 011.07 1c-.65-.1-1.26.16-1.67-.3.45 1.4 2.27 1.05 2.95 2.06a2.22 2.22 0 00-.42 0 2.67 2.67 0 01-1.6-.35c.39 1.23 2.47.8 3.29 1.76.189.195.347.418.47.66l-.12.06-.85-.05c-1.23-1-1.51-1.33-3.26-1.24a9.69 9.69 0 001.28 1 3.32 3.32 0 00-2.06.9 15 15 0 011.58.08 2.24 2.24 0 01-.58 1c.8-.51 1.68-.33 2.32-.59a5.88 5.88 0 001.62-.88h.08a.28.28 0 10.27 0h.22l.46.06a.29.29 0 10.57 0c.6 0 1.27.07 1.68.05h.21c.16.21.27.39.37.52a8.9 8.9 0 00.74.76 3.47 3.47 0 01-1.15 0h-.15a.28.28 0 10-.15 0 7.46 7.46 0 00-1 .19c-1-.19-1.7-.93-3.07-.45.287.07.552.21.77.41-1.42-.11-2.7.84-3 .84a5.3 5.3 0 001.37.15l-.29.11A3.74 3.74 0 0018.15 35a9.92 9.92 0 011.92-.45 2 2 0 01-.81.69 2.26 2.26 0 002.77-1.23 2 2 0 01-.65 1.12 3 3 0 001.78-1.24 4.07 4.07 0 00-.1.42 2.25 2.25 0 011.29-.61c.62-.14.95-.88 1.52-1.13a.78.78 0 01-.39.08 1 1 0 01.59-.1.27.27 0 00.19 0 .28.28 0 10.42-.12.46.46 0 01.36 0 .85.85 0 00.66.06.73.73 0 01.59 0 1.59 1.59 0 00-.78 1 3.66 3.66 0 00-.68 1.84 2.81 2.81 0 001.27-.87 1.69 1.69 0 00.18-1.16 3.53 3.53 0 010-.76.53.53 0 01.19.2.52.52 0 00.55.37 1.06 1.06 0 01.62.14 12 12 0 011.77.76 30 30 0 013.63 2.6l.38.38-.29.25a1.89 1.89 0 00-.62.7 1.29 1.29 0 01-.62.67 1.26 1.26 0 00-.65.68 5.25 5.25 0 00-.79.7.84.84 0 00.09 1.15 1.55 1.55 0 00.33-.57 2.75 2.75 0 01.78-.86.75.75 0 00.43-.49 1.56 1.56 0 01.55-.63 1.87 1.87 0 00.72-.72c.117-.185.25-.36.4-.52.226.232.418.494.57.78.22.386.512.725.86 1 .333.308.616.666.84 1.06.158.324.353.63.58.91.068.07.145.13.23.18a1.74 1.74 0 00-.28-1.63 1.94 1.94 0 01-.71-.89 1.43 1.43 0 00-.68-.77 8.62 8.62 0 01-1.1-1 4.57 4.57 0 01.41-.36c.49-.38 3-2.07 3.77-2.73a5.62 5.62 0 01.9-.74c.209.03.421.03.63 0a.52.52 0 01.45.52c0 .25.17.28.43.23a.25.25 0 01.34.24.59.59 0 00.6.43l1.42-.63a1.18 1.18 0 01.07-.61c.09-.12-.11-.28-.37-.34a.63.63 0 00-.66.21.31.31 0 01-.51-.06.68.68 0 00-.58-.35.45.45 0 01-.42 0 .78.78 0 00-.63.08 1.37 1.37 0 01-.39.11 1.94 1.94 0 00.51-.38 2 2 0 011-.29.42.42 0 00.36.18 2.27 2.27 0 001.11.12l.18-.08a4.69 4.69 0 011.5.38c.323.204.69.33 1.07.37.35 0 .28.17.24.33a1.16 1.16 0 00-.34 1 .84.84 0 01.12.49.15.15 0 00.23.18c.12-.1.2 0 .16.16a.23.23 0 00.35.23c.21-.12.33 0 .37.14.04.14.66.14.6-.1-.06-.24-.07-.39.1-.45a.4.4 0 00.15-.41.31.31 0 00.16 0 .3.3 0 00.1-.37.5.5 0 00.35.17 1.19 1.19 0 00-.06.79c.16.31.27.23.43.06.16-.17.35 0 .18.23a.44.44 0 00.13.59.36.36 0 00.49-.08.3.3 0 00.08-.41.44.44 0 01.17-.49c.16-.18.24-.59 0-.65a.75.75 0 01-.5-.36.48.48 0 00.64-.22c.21-.24-.1-.51-.45-.63s-.35-.33-.27-.37c.08-.04 0-.2-.33-.27a6.59 6.59 0 00-2.18.2h-.26a2.94 2.94 0 01-1.12-.17h.07c.31 0 .64-.18.86-.16a.34.34 0 00.37-.18c.11-.12.17-.2.33-.14a.21.21 0 00.33-.14l.08-.12a.87.87 0 00.4.19.44.44 0 01.31.25.29.29 0 00.41 0l.06-.07c1-.12.57-.67-.07-.66-.13-.22-.38 0-.47.1a.23.23 0 01-.28.07l-.16-.08.25-.17c.17-.1.19-.27 0-.35-.19-.08-.07-.25.16-.41.23-.16.23-.41-.06-.65a.6.6 0 00-.93.29c-.13.32-.22.34-.4.26a3.55 3.55 0 01.26-.51c.16-.27-.08-.43-.41-.41a.57.57 0 00-.54.29.45.45 0 01-.32.25.54.54 0 00-.37.49 3 3 0 01-.81 1.06.82.82 0 01-.43.27l-.42-.1a.25.25 0 00.07-.25.54.54 0 01.15-.55.58.58 0 000-.59 1.35 1.35 0 01-.12-.35c.37-.29.76-.43.93-.59a1 1 0 01.74-.2 4 4 0 001.44-.27c.417.003.812.19 1.08.51a.73.73 0 00.66.46.44.44 0 01.57 0 .49.49 0 00.58.12.35.35 0 01.44 0c.2.09.67.14.45-.56l.21-.13c.37-.26.38-.4.15-.66a.64.64 0 00-.64-.28.75.75 0 01-.4 0c.78-.58.44-.74-.17-1s-.85 0-.87.17c-.02.17-.11.2-.35.09a.42.42 0 00-.54.18c0 .12-.09.15-.28.15a1 1 0 00-.62.51.78.78 0 00-.2.1c-1.06.53-1.9.12-2.25.32a5.36 5.36 0 00.43-1 1.66 1.66 0 00.68-.23.18.18 0 01.07.25c-.08.1 0 .43.25.35.35.27.91.28.47-.39a.24.24 0 00-.19-.29h-.1a.37.37 0 01-.33-.08c.202-.14.373-.32.5-.53a1 1 0 01.37-.41 2.3 2.3 0 00.59-1.39l.19-.11a1.64 1.64 0 011.66-.22c.405.37.96.53 1.5.43a1.22 1.22 0 01.91-.23.5.5 0 00.57-.16.43.43 0 01.33-.33c.26-.07.26-.68-.71-.62H53zm-29.1 8.15a1.32 1.32 0 00-.26.11l.25-.13h.06l-.05.02zm-1.87.81a1 1 0 01.23-.28h.16a1.72 1.72 0 00-.38.31l-.01-.03zm6.65-1a2.15 2.15 0 01-1-1.17 1.24 1.24 0 01-.55-.48 1.08 1.08 0 011.13.46 5 5 0 00.55 1.26l-.13-.07zm15.24-2.66h-.06.06zm.2.39a.78.78 0 00.16.24.35.35 0 01-.15-.24h-.01zm.13-.66a.61.61 0 00-.17.36.83.83 0 01.19-.39l-.02.03zm-20.47.13a.28.28 0 100 .56.28.28 0 000-.56zm2.62-.77a.28.28 0 100 .56.28.28 0 000-.56z" fill="#57A863"/><path d="M39.38 17.62a2.08 2.08 0 00-.46-.08c.29.12.38-.18.27-.34-.11-.16 0-.22.08-.41a2 2 0 01.23-.49h.07c.14.06.31-.18.13-.34a5.24 5.24 0 011-1.11 1 1 0 00-.26 0l.1-.17a.27.27 0 00.16 0 .32.32 0 00.11-.62c0-.14.08-.28.11-.42a.35.35 0 100-.7 1.13 1.13 0 00-.28-.55.29.29 0 00-.25-.43.28.28 0 00-.21.09 2.79 2.79 0 00-.4-.17.3.3 0 00-.15-.4h-.11a.29.29 0 00-.29.28l-.45-.09a.26.26 0 00-.2-.42.25.25 0 00-.23.35l-.3-.05a.23.23 0 00-.19-.26.22.22 0 00-.22.18l-.31-.07a.19.19 0 00-.18-.11.21.21 0 00-.11 0h-.14a.35.35 0 00.19-.11c.16-.22 0-.34-.27-.23-.27.11-.34-.15-.41-.47a.74.74 0 00-.47-.68l-.1-.1a.66.66 0 00.25-.48.62.62 0 00-.4-.64v-.32h.48v-.54h-.48v-.51h-.48v.52h-.48v.54h.48v.32a.62.62 0 00-.4.64.66.66 0 00.25.48l-.1.1a.74.74 0 00-.47.68c-.07.32-.2.57-.41.47-.21-.1-.43 0-.27.23a.32.32 0 00.19.11h-.14a.21.21 0 00-.11 0 .19.19 0 00-.18.11l-.31.07a.22.22 0 00-.22-.18.23.23 0 00-.22.23l-.3.05a.25.25 0 00-.14-.33h-.09a.26.26 0 00-.2.42l-.46.09a.28.28 0 00-.27-.28.3.3 0 00-.26.42 3.08 3.08 0 00-.4.17.27.27 0 00-.21-.09.3.3 0 00-.26.43 1.22 1.22 0 00-.28.55.35.35 0 100 .7c.026.143.063.283.11.42a.32.32 0 00.11.62.3.3 0 00.16 0l.1.17a1 1 0 00-.26 0c.383.322.72.695 1 1.11-.18.16 0 .4.13.34h.07a2 2 0 01.23.49c0 .19.06.31.08.41.02.1 0 .46.27.34a2.17 2.17 0 00-.63.09c-3.65 1.13-4.45 5.58-2.36 9.72a6.4 6.4 0 0012.74 0c2.13-4.17 1.3-8.63-2.32-9.75zm-2.06.35c-.47.25-1.09.62-1.51.87a.53.53 0 00-.2-.1c0-.29-.06-.25-.24-.25s-.22 0-.24.25a.53.53 0 00-.2.1c-.44-.26-1.1-.65-1.58-.9.7.095 1.404.138 2.11.13a15.25 15.25 0 001.86-.1zm-3.64-4.91a1 1 0 000 1.34 1.86 1.86 0 00-.89-.73l1.56-1.83.16-.07a2.78 2.78 0 00.5 1.46 2.29 2.29 0 00-.22 1 1.53 1.53 0 00-1.11-1.17zm-1.12 1.71a1.88 1.88 0 00-.41-.37l.19-.22c.03.214.104.418.22.6v-.01zm5.8 0a1.55 1.55 0 00.1-.21.67.67 0 000-.13 1.09 1.09 0 000-.17.25.25 0 010-.08l.19.22a1.88 1.88 0 00-.41.38l.12-.01zm-.21-1.1a1.86 1.86 0 00-.89.73 1 1 0 000-1.34 1.53 1.53 0 00-1.09 1.15 2.29 2.29 0 00-.22-1 2.78 2.78 0 00.5-1.46l.16.07 1.54 1.85z" fill="#FFCE54"/></g></svg>