<svg width="71" height="47" xmlns="http://www.w3.org/2000/svg"><g fill-rule="nonzero" fill="none"><path d="M7 0A6.36 6.36 0 00.64 6.36v34.27A6.36 6.36 0 007 47h17V0H7z" fill="#57A863"/><path d="M24 0v47h23.35V0H24z" fill="#FFCE54"/><path d="M64.27 0H47.32v47h16.95a6.36 6.36 0 006.36-6.36V6.35A6.36 6.36 0 0064.27 0z" fill="#ED5565"/><path d="M31.23 31c-.74.49-1.15.19-.91-.67l.87-3.18a2.9 2.9 0 00-.77-2.64l-2.31-2.1c-.66-.6-.47-1.08.42-1.08h3.31a2.36 2.36 0 002.11-1.53l1.14-3.47c.28-.84.73-.84 1 0l1.14 3.49a2.51 2.51 0 002.12 1.59l3.37.13c.89 0 1 .52.36 1.08l-2.63 2.16a2.77 2.77 0 00-.84 2.58l.74 2.84c.22.86-.2 1.16-.94.68l-2.7-1.76a2.66 2.66 0 00-2.69 0L31.23 31z" fill="#57A863"/></g></svg>