<svg width="71" height="48" xmlns="http://www.w3.org/2000/svg"><g fill-rule="nonzero" fill="none"><rect fill="#4A89DC" x=".87" y=".24" width="70" height="47" rx="6.36"/><path d="M31.47 31.27c-.74.49-1.15.19-.91-.66l.87-3.18a2.89 2.89 0 00-.77-2.64l-2.3-2.1c-.66-.6-.47-1.08.42-1.08h3.31a2.36 2.36 0 002.11-1.53l1.14-3.47c.28-.84.73-.84 1 0l1.14 3.49a2.51 2.51 0 002.12 1.59l3.37.13c.89 0 1.05.52.36 1.08l-2.63 2.16a2.77 2.77 0 00-.84 2.58l.74 2.84c.22.86-.2 1.16-.94.68L37 29.4a2.66 2.66 0 00-2.69 0l-2.84 1.87z" fill="#FFF"/></g></svg>