<svg width="71" height="48" xmlns="http://www.w3.org/2000/svg"><g fill-rule="nonzero" fill="none"><path d="M0 7.19v9h70v-9A6.64 6.64 0 0063.36.55H6.65A6.64 6.64 0 000 7.19z" fill="#434A54"/><path fill="#ED5565" d="M0 31.9h70V16.22H0z"/><path d="M0 40.91a6.64 6.64 0 006.64 6.64h56.72A6.64 6.64 0 0070 40.91v-9H0v9z" fill="#57A863"/><path fill="#FFF" d="M.01 31.02h70v1.75h-70zM70 17.1v-1.75H0v1.75z"/><path d="M2.23 2.24A6.62 6.62 0 00.01 7.19v33.72a6.62 6.62 0 002.22 4.95L33 24 2.23 2.24z" fill="#4758A9"/><path d="M10.14 30c-.4.54-.78.43-.83-.26l-.18-2.54a2.26 2.26 0 00-1.22-1.73l-2.19-1c-.62-.27-.61-.67 0-.89l2.37-.83a1.82 1.82 0 001.13-1.64l-.07-2.82c0-.68.3-.8.72-.25l1.71 2.26a1.89 1.89 0 001.92.63l2.45-.75c.64-.2.88.12.54.7l-1.34 2.23a2.14 2.14 0 00.05 2.09l1.26 1.89c.38.57.15.9-.51.73l-2.37-.61a2 2 0 00-1.93.68L10.14 30z" fill="#FFCE54"/></g></svg>