<svg width="71" height="48" xmlns="http://www.w3.org/2000/svg"><g fill-rule="nonzero" fill="none"><path d="M.39 7.62v9h70v-9A6.64 6.64 0 0063.75.98H7A6.64 6.64 0 00.39 7.62z" fill="#57A863"/><path fill="#FFCE54" d="M.39 32.33h70V16.66h-70z"/><path d="M.39 41.34A6.64 6.64 0 007 48h56.72a6.64 6.64 0 006.64-6.64v-9h-70l.03 8.98z" fill="#57A863"/><path d="M2.51 2.61A6.34 6.34 0 00.38 7.35v34.27a6.34 6.34 0 002.13 4.74l25.87-21.88L2.51 2.61z" fill="#ED5565"/><path d="M37.51 29.33c-.51.32-.8.12-.64-.43l.61-2a1.74 1.74 0 00-.53-1.7l-1.6-1.35c-.46-.38-.33-.7.29-.7h2.3a1.64 1.64 0 001.47-1l.79-2.23c.19-.54.51-.54.7 0l.8 2.25c.266.58.832.965 1.47 1l2.35.08c.61 0 .73.34.25.7l-1.83 1.39a1.7 1.7 0 00-.59 1.66l.52 1.83c.15.55-.14.75-.66.44l-1.87-1.13a2 2 0 00-1.88 0l-1.95 1.19zM55.17 29.33c-.51.32-.8.12-.64-.43l.61-2a1.74 1.74 0 00-.53-1.7l-1.6-1.35c-.46-.38-.33-.7.29-.7h2.3a1.64 1.64 0 001.47-1l.79-2.23c.19-.54.51-.54.7 0l.8 2.25c.266.58.832.965 1.47 1l2.35.08c.61 0 .73.34.25.7l-1.83 1.39A1.7 1.7 0 0061 27l.52 1.83c.15.55-.14.75-.66.44L59 28.13a2 2 0 00-1.88 0l-1.95 1.2z" fill="#434A54"/></g></svg>