<svg width="71" height="48" xmlns="http://www.w3.org/2000/svg"><g fill-rule="nonzero" fill="none"><path d="M.87 7.44v9h70v-9A6.64 6.64 0 0064.23.8H7.51A6.64 6.64 0 00.87 7.44z" fill="#ED5565"/><path d="M.87 41.15a6.64 6.64 0 006.64 6.64h56.72a6.64 6.64 0 006.64-6.64v-9h-70v9z" fill="#434A54"/><path fill="#FFF" d="M70.87 16.47h-70v15.68h70z"/><path d="M24.15 29c-.46.31-.72.12-.57-.42l.54-2a1.85 1.85 0 00-.48-1.67l-1.43-1.32c-.41-.38-.29-.68.26-.68h2.05a1.48 1.48 0 001.31-1l.7-2.19c.17-.53.45-.53.63 0l.71 2.2c.21.556.719.943 1.31 1l2.1.08c.54 0 .65.33.23.68l-1.64 1.36a1.77 1.77 0 00-.52 1.63l.46 1.79c.14.54-.13.73-.59.43l-1.67-1.11a1.64 1.64 0 00-1.67 0L24.15 29zM42.15 29c-.46.31-.72.12-.57-.42l.54-2a1.85 1.85 0 00-.48-1.67l-1.43-1.32c-.41-.38-.29-.68.26-.68h2.05a1.48 1.48 0 001.31-1l.7-2.19c.17-.53.45-.53.63 0l.71 2.2c.21.556.719.943 1.31 1l2.1.08c.54 0 .65.33.23.68l-1.64 1.36a1.77 1.77 0 00-.52 1.63l.46 1.79c.14.54-.13.73-.59.43l-1.67-1.11a1.64 1.64 0 00-1.67 0L42.15 29z" fill="#57A863"/></g></svg>