<svg width="71" height="48" xmlns="http://www.w3.org/2000/svg"><g fill="none" fill-rule="evenodd"><path d="M64.41.36H6.09A6.64 6.64 0 00.34 5.94v35.72A6.64 6.64 0 006.9 47.3h56.72a6.64 6.64 0 006.64-6.64V7A6.64 6.64 0 0064.41.36z" fill="#4658A9" fill-rule="nonzero"/><path d="M25.22.31H6.82A6.64 6.64 0 00.25 6.95v17.33h25L25.22.31z" fill="#4658A9" fill-rule="nonzero"/><path d="M10.78 17.72v6.56h3.9v-6.71l6.71 6.71h3.82v-3l-7-7h7v-4h-7l7-7v-3h-3.83l-6.7 6.7V.28h-3.9v6.56L4.62.68A6.66 6.66 0 00.99 3.85l6.41 6.41H.24v4H7.4L.24 21.42v2.83h4l6.54-6.53z" fill="#FFF" fill-rule="nonzero"/><path d="M11.78 15v9.31h1.9v-9.45l9.45 9.45h2.08V23l-9.78-9.78h9.78v-1.95h-9.78l9.78-9.78V.26h-2.09l-9.45 9.45V.26h-1.9v9.3L3.44 1.22a6.67 6.67 0 00-1.76 1.55l8.49 8.49H.24v1.95h9.93L.24 23.14v1.09h2.23L11.78 15z" fill="#EC5463" fill-rule="nonzero"/><path d="M56.81 12.74v7.08c0 5.81-2.28 11.13-9.05 14.36-6.77-3.23-9.05-8.55-9.05-14.36v-7.08h18.1z" stroke="#FFF" stroke-width="2" stroke-linecap="round" stroke-linejoin="round"/><path d="M56.81 12.74v7.08c0 5.81-2.28 11.13-9.05 14.36-6.77-3.23-9.05-8.55-9.05-14.36v-7.08h18.1z" fill="#F2D660" fill-rule="nonzero"/><path d="M43.54 15.85a.77.77 0 00-.47-.16.73.73 0 00-.56-.78c-.25-.09-.34-.19-.38-.38a.5.5 0 00-.4-.38 1.18 1.18 0 01-.51-.4c-.09-.11-.12-.09-.19.1s-.33.54-.09.55a.4.4 0 00-.16.52c-.12.1-.21.24 0 .29.21.05.21.1.22.14-.15 0-.19.29.16.36-.08 0-.11.25 0 .25-.2 0-.36.29-.61.29s-.38.05-.39.16a.59.59 0 01-.21.29.51.51 0 00.4-.08.31.31 0 01.37 0 .69.69 0 00.45.11.92.92 0 00-.44.59.67.67 0 01-.33.51.87.87 0 00-.46.45c.133.369.428.656.8.78.396.148.76.372 1.07.66.22.24.31.07.63.48s.63 1.2 1 1.33a.78.78 0 001-.37c.24-.41.39-4.61-.84-5.31h-.06z" fill="#E77329" fill-rule="nonzero"/><path d="M44.1 14.1c-.31.33-.7.66-.63 1.24.07.58.13 1.55-.41 1.88a1 1 0 00-.15 1.64c.487.4.775.99.79 1.62.11.55.39 1 .83.61.44.07.68-.11.68-.46 0-.35 0-.55.35-.66a.81.81 0 00.57-.51c.15-.29.24-.43.15-.6a1.37 1.37 0 01-.05-.8c.07-.26-.09-.4-.17-.57a.71.71 0 01-.08-.52.44.44 0 00-.22-.47.36.36 0 01-.19-.39c0-.17-.11-.28-.27-.41a.69.69 0 01-.28-.57 1.73 1.73 0 00-.9-1l-.02-.03z" stroke="#FFF" stroke-width=".1" fill="#FFF" fill-rule="nonzero" stroke-linecap="round" stroke-linejoin="round"/><path d="M44.22 21.23c.73-.19.67-1.39.56-1.89a3.34 3.34 0 01-.17-1.79c.31-.81-.37-1.57-.2-1.88a.74.74 0 00.13-.57c0-.1-.19-.17-.2 0a.52.52 0 01-.2.41c-.13.13-.1.41 0 .73a1.66 1.66 0 010 1.43" fill="#E77329" fill-rule="nonzero"/><path d="M49.4 23.6c.12.18 0 .37.21.45.21.08 0 .41.32.53.32.12 0 .41.28.55.28.14 0 .41.29.58.29.17-.06.54.19.68s-.08.52.21.66-.12.43.14.64c.26.21-.06.52.21.7.27.18-.17.44.1.7.27.26-.07.41.08.72.15.31-.1 1-.68 1a1.57 1.57 0 01-1.3.56c-.29.21-1.22.5-1.7 0-.48.46-1.41.17-1.7 0a1.57 1.57 0 01-1.3-.56c-.58.08-.79-.75-.68-1 .11-.25-.12-.52.08-.72.2-.2-.17-.52.1-.7.27-.18-.06-.5.21-.7.27-.2-.15-.5.14-.64.29-.14 0-.52.21-.66s-.14-.52.19-.68c.33-.16 0-.46.29-.58.29-.12 0-.45.28-.55.28-.1.08-.44.32-.53.24-.09.08-.28.21-.46a5.72 5.72 0 003.31 0l-.01.01z" fill="#51C161" fill-rule="nonzero"/><path d="M46.34 24.69a.43.43 0 01-.09.3c-.19.25.08.37-.12.64s0 .43-.19.66c-.19.23 0 .43-.19.68-.19.25 0 .41-.19.64-.19.23 0 .48-.19.7-.19.22 0 .52-.21.79s0 .48-.17.68c-.17.2 0 .41-.17.56.25-.19.25-.48.43-.62s-.06-.35 0-.46c.06-.11 0-.54.21-.75.21-.21 0-.62.19-.77.19-.15 0-.58.25-.72s0-.5.17-.68c.17-.18 0-.48.17-.7.17-.22 0-.43.12-.62s.05-.68-.08-.34l.06.01zM46.94 24.95c-.14.27.1.33-.08.6-.18.27.1.48-.1.75s.1.41-.08.68c-.18.27.08.41-.08.62-.16.21.12.41-.08.66-.2.25.08.43-.08.66-.16.23.06.48-.08.66-.14.18.1.46-.1.7-.2.24 0 .41-.08.58.25-.08.16-.42.25-.5.09-.08 0-.55.11-.67s-.09-.51 0-.67c.09-.16 0-.47.17-.68.17-.21-.05-.5.05-.64s-.08-.47.05-.65c.13-.18 0-.47.09-.64.09-.17 0-.52.06-.65s.22-.71 0-.81h-.02zM47.74 25.17c-.14.36.1.51 0 .79s.1.51 0 .82c-.1.31.17.55 0 1-.17.45.11.51 0 .91s.21.72 0 1 .24.44 0 .79c-.1.17 0 .59.18.08s-.12-.57 0-.78c.12-.21-.05-.76 0-1s-.14-.68 0-1c.14-.32-.21-.64-.07-.91.14-.27-.06-.6.06-.82.12-.22-.09-.51 0-.63s-.05-.58-.17-.23v-.02z" fill="#FCC300" fill-rule="nonzero"/><path d="M49.3 23.85c0-2.34-.33-3.15-1.55-3.15s-1.55.81-1.55 3.15h3.11-.01z" fill="#EC5565" fill-rule="nonzero"/><path d="M47.74 24.19a4.13 4.13 0 001.38-.23c.42-.16.45-.31.3-.49-.15-.18-.33-.05-.55 0a4.15 4.15 0 01-2.26 0c-.22-.1-.44-.17-.55 0-.11.17-.12.33.3.49.444.155.91.233 1.38.23zM52.47 21.09l.55 1c.23.4.42.49.59.37.17-.12 0-.45-.11-.6-.11-.15-.88-.88-.88-.88l-.15.16v-.05z" fill="#EC5565" fill-rule="nonzero"/><path d="M52.39 21.13l.22 1.09c.09.46.24.61.44.56.2-.05.17-.41.09-.61-.08-.2-.55-1.14-.55-1.14l-.2.1z" fill="#EC5565" fill-rule="nonzero"/><path d="M52.26 21.15v1.12c0 .48.12.65.32.64.2-.01.24-.37.2-.57-.04-.2-.31-1.24-.31-1.24l-.21.05zM52 21.09l-.55 1c-.23.4-.42.49-.59.37-.17-.12 0-.45.11-.6.11-.15.88-.88.88-.88l.15.16v-.05z" fill="#EC5565" fill-rule="nonzero"/><path d="M52.12 21.13l-.22 1.09c-.09.46-.24.61-.44.56-.2-.05-.17-.41-.09-.61.08-.2.55-1.14.55-1.14l.2.1z" fill="#EC5565" fill-rule="nonzero"/><path d="M52.26 21.15v1.12c0 .48-.12.65-.32.64-.2-.01-.24-.37-.2-.57.04-.2.31-1.24.31-1.24l.21.05zM52.61 16.19a7.39 7.39 0 011.43-1.1c.91-.55 1.57-1 1.69-.88a7.36 7.36 0 01-1.43 1.1c-.65.44-1.43 1.1-1.43 1.1l-.26-.22zM52.67 16.63a13.82 13.82 0 011.5-.77 4.06 4.06 0 012.34-.22 17.51 17.51 0 00-2.08.44 13.76 13.76 0 00-1.5.77l-.26-.22zM52.67 17.39a12.81 12.81 0 011.5-.55 4.05 4.05 0 012.42 0c-.13.11-1.25 0-2 .22a9.05 9.05 0 00-1.63.55l-.26-.22h-.03zM52.72 18.17a3.12 3.12 0 011.63-.55 2.52 2.52 0 012 .66c-.13.11-1.17-.49-1.95-.4a3.47 3.47 0 00-1.45.51l-.26-.22h.03zM52.47 15.74s.84-.55.84-1a2.63 2.63 0 00-.47-1.1c.21 0 .68.66.68 1.1 0 .44-.79 1.21-.79 1.21l-.26-.22v.01z" fill="#EC5565" fill-rule="nonzero"/><path d="M52.47 15.74a3.64 3.64 0 01-.1-1 2 2 0 01.63-1.43c0 .17-.42.77-.42 1.43.017.407.067.811.15 1.21l-.26-.22v.01zM51.9 16.19a7.39 7.39 0 00-1.43-1.1c-.91-.55-1.57-1-1.69-.88.43.424.91.793 1.43 1.1.65.44 1.43 1.1 1.43 1.1l.26-.22zM51.84 16.63a13.82 13.82 0 00-1.5-.77 4.06 4.06 0 00-2.34-.22 17.51 17.51 0 012.08.44 13.76 13.76 0 011.5.77l.26-.22zM51.84 17.39a12.81 12.81 0 00-1.5-.55 4.05 4.05 0 00-2.42 0c.13.11 1.25 0 2 .22a9.05 9.05 0 011.63.55l.26-.22h.03zM51.79 18.17a3.12 3.12 0 00-1.63-.55 2.52 2.52 0 00-2 .66c.13.11 1.17-.49 1.95-.4a3.47 3.47 0 011.45.51l.26-.22h-.03zM52 15.74s-.84-.55-.84-1c.07-.398.23-.774.47-1.1-.21 0-.68.66-.68 1.1 0 .44.79 1.21.79 1.21l.26-.22v.01z" fill="#EC5565" fill-rule="nonzero"/><path d="M52 15.74a3.64 3.64 0 00.1-1 2 2 0 00-.63-1.43c0 .17.42.77.42 1.43a7.47 7.47 0 01-.15 1.21l.26-.22v.01zM55 23.68a8 8 0 01-.42-2.32c0-.62.19-3.64.21-4.85.02-1.21-.73-1.87-1.46-1.87a1 1 0 00-1 1.1h.31a.73.73 0 01.73-.77c.63 0 1.11.52 1.15 1.54 0 1.18-.13 4.25-.1 5.07a5.34 5.34 0 00.63 2.09l-.05.01z" fill="#EC5565" fill-rule="nonzero"/><path d="M49.54 23.68a5.8 5.8 0 00.42-2.32c0-.62-.19-3.64-.21-4.85-.02-1.21.73-1.87 1.46-1.87a1 1 0 011 1.1h-.31a.73.73 0 00-.73-.77c-.63 0-1.11.52-1.15 1.54 0 1.18.13 4.25.1 5.07a4.34 4.34 0 01-.63 2.09l.05.01zM52.26 21.14c.58 0 .65-.22.65-.22s.13-.44.06-.55c-.07-.11-.71-.11-.71-.11v.88z" fill="#EC5565" fill-rule="nonzero"/><path d="M52.26 20.7c.63 0 .73-.22.73-.22s.21-.44.1-.55c-.11-.11-.84-.11-.84-.11v.88h.01z" fill="#EC5565" fill-rule="nonzero"/><path d="M52.26 20.26a1.55 1.55 0 00.84-.22s.21-.44.1-.55a3.07 3.07 0 00-.94-.11v.88z" fill="#EC5565" fill-rule="nonzero"/><path d="M52.26 19.71c.94 0 .94-.28.94-.28s.21-.44.1-.55a3.46 3.46 0 00-1 0v.88l-.04-.05z" fill="#EC5565" fill-rule="nonzero"/><path d="M52.26 19.27c.94 0 1-.22 1-.22s.21-.44.1-.55a4.45 4.45 0 00-1.15-.11v.88h.05z" fill="#EC5565" fill-rule="nonzero"/><path d="M52.26 18.72c.94 0 1.15-.22 1.15-.22s.21-.44.1-.55a5.25 5.25 0 00-1.25-.11v.88z" fill="#EC5565" fill-rule="nonzero"/><path d="M52.26 18.17c.429.035.86-.04 1.25-.22 0 0 .1-.44 0-.55a5.25 5.25 0 00-1.25-.11v.88z" fill="#EC5565" fill-rule="nonzero"/><path d="M52.26 17.61c.429.035.86-.04 1.25-.22 0 0 0-.44-.1-.55a4.45 4.45 0 00-1.15-.11v.88z" fill="#EC5565" fill-rule="nonzero"/><path d="M52.26 17.06c.94 0 1.15-.22 1.15-.22s0-.44-.1-.55a3.73 3.73 0 00-1-.11v.88h-.05z" fill="#EC5565" fill-rule="nonzero"/><path d="M52.26 15.68a1.24 1.24 0 011 .62l-.21.21c-.11.11-.84.11-.83.11v-.94h.04zM52.25 21.14c-.58 0-.65-.22-.65-.22s-.13-.44-.06-.55c.07-.11.71-.11.71-.11v.88z" fill="#EC5565" fill-rule="nonzero"/><path d="M52.25 20.7c-.63 0-.73-.22-.73-.22s-.21-.44-.1-.55c.11-.11.84-.11.84-.11v.88h-.01z" fill="#EC5565" fill-rule="nonzero"/><path d="M52.25 20.26a1.55 1.55 0 01-.84-.22s-.21-.44-.1-.55a3.07 3.07 0 01.94-.11v.88z" fill="#EC5565" fill-rule="nonzero"/><path d="M52.25 19.71c-.94 0-.94-.28-.94-.28s-.21-.44-.1-.55a3.46 3.46 0 011 0v.88l.04-.05z" fill="#EC5565" fill-rule="nonzero"/><path d="M52.25 19.27c-.94 0-1-.22-1-.22s-.21-.44-.1-.55a4.45 4.45 0 011.15-.11v.88h-.05z" fill="#EC5565" fill-rule="nonzero"/><path d="M52.25 18.72c-.94 0-1.15-.22-1.15-.22s-.21-.44-.1-.55a5.25 5.25 0 011.25-.11v.88z" fill="#EC5565" fill-rule="nonzero"/><path d="M52.25 18.17a2.51 2.51 0 01-1.25-.22s-.1-.44 0-.55a5.25 5.25 0 011.25-.11v.88z" fill="#EC5565" fill-rule="nonzero"/><path d="M52.25 17.61a2.51 2.51 0 01-1.25-.22s0-.44.1-.55a4.45 4.45 0 011.15-.11v.88z" fill="#EC5565" fill-rule="nonzero"/><path d="M52.25 17.06c-.94 0-1.15-.22-1.15-.22s0-.44.1-.55a3.73 3.73 0 011-.11v.88h.05z" fill="#EC5565" fill-rule="nonzero"/><path d="M52.25 15.68a1.24 1.24 0 00-1 .62l.21.21c.11.11.84.11.83.11v-.94h-.04z" fill="#EC5565" fill-rule="nonzero"/></g></svg>