<svg width="71" height="48" xmlns="http://www.w3.org/2000/svg"><g fill-rule="nonzero" fill="none"><path d="M.87 40.71a6.36 6.36 0 006.36 6.36H64.5a6.36 6.36 0 006.36-6.36v-5.39h-70l.01 5.39z" fill="#FFCE54"/><path fill="#57A863" d="M.87 23.57h70v11.75h-70z"/><path fill="#FFCE54" d="M.87 11.82h70v11.75h-70z"/><path d="M64.51.07H7.24A6.36 6.36 0 00.88 6.43v5.39h70V6.43A6.36 6.36 0 0064.51.07z" fill="#57A863"/><path d="M27.87.07H7.24A6.36 6.36 0 00.88 6.43v17.14h27L27.87.07z" fill="#ED5565"/><path d="M10 19.36c-.74.49-1.15.19-.91-.67l.87-3.18a2.89 2.89 0 00-.77-2.64l-2.3-2.1c-.66-.6-.47-1.08.42-1.08h3.31a2.36 2.36 0 002.11-1.53l1.14-3.47c.28-.84.73-.84 1 0l1.14 3.49a2.51 2.51 0 002.12 1.59l3.37.13c.89 0 1.05.52.36 1.08l-2.63 2.16a2.77 2.77 0 00-.84 2.58l.74 2.84c.22.86-.2 1.16-.94.68l-2.7-1.76a2.66 2.66 0 00-2.69 0L10 19.36z" fill="#FFF"/></g></svg>