<svg width="71" height="48" xmlns="http://www.w3.org/2000/svg"><g fill-rule="nonzero" fill="none"><path d="M70 6.48a6.39 6.39 0 00-.13-1.24c0-.19-.09-.38-.14-.56a6.32 6.32 0 00-.47-1.1c-.06-.1-.12-.2-.18-.29l-.14-.23-.15-.21-.21-.29-.14-.15-.27-.3-.25-.22-.2-.19h-.12a6.37 6.37 0 00-.89-.59l-.26-.13-.12-.06-.17-.08-.2-.07-.3-.11h-.27a6.65 6.65 0 00-.76-.16h-.12a6.14 6.14 0 00-.82-.06H6.37a6.39 6.39 0 00-1 .09h-.15a6.29 6.29 0 00-.92.25l-.17.06a6.33 6.33 0 00-.85.4l-.12.07a5.77 5.77 0 00-1.39 1.12l-.14.15a6.41 6.41 0 00-.5.64A6.33 6.33 0 00.04 6.78v34.27c0 .641.099 1.278.29 1.89.06.2.13.393.21.58a6.35 6.35 0 001.65 2.28h.05c.254.22.525.42.81.6a6.39 6.39 0 001.56.7h.06c.237.067.477.12.72.16h.19c.272.038.546.058.82.06h57.27a6.1 6.1 0 00.82-.06h.12a6.7 6.7 0 00.76-.16h.27l.3-.11.2-.07.15-.07.21-.1.2-.09.28-.17.2-.12.19-.14.18-.13.12-.09.1-.09a6.42 6.42 0 00.76-.77l.21-.29.15-.2.14-.23c.06-.1.12-.19.18-.29a6.32 6.32 0 00.47-1.1c0-.16.09-.32.12-.48v-.11a6.39 6.39 0 00.13-1.23V6.48H70z" fill="#FFF"/><path d="M70 6.49a6.39 6.39 0 00-.13-1.24c0-.19-.09-.38-.14-.56a6.32 6.32 0 00-.47-1.1c-.06-.1-.12-.2-.18-.29l-.14-.23-.15-.21-.21-.29-.14-.15-.27-.3-.25-.22-.2-.19h-.12a6.37 6.37 0 00-.89-.59l-.26-.13-.12-.06-.17-.08-.2-.07-.3-.11h-.27a6.65 6.65 0 00-.76-.16h-.12a6.14 6.14 0 00-.82-.06H6.37a6.39 6.39 0 00-1 .09h-.15a6.29 6.29 0 00-.92.25l-.17.06a6.33 6.33 0 00-.85.4l-.12.07a5.77 5.77 0 00-1.39 1.12l-.14.15a6.41 6.41 0 00-.5.64A6.33 6.33 0 00.04 6.79v7.12h70L70 6.49z" fill="#ED5565"/><path d="M0 40.76c0 .641.099 1.278.29 1.89.06.2.13.393.21.58a6.35 6.35 0 001.65 2.28h.05c.254.22.525.42.81.6a6.39 6.39 0 001.56.7h.06c.237.067.477.12.72.16h59.22a6.7 6.7 0 00.76-.16h.27l.3-.11.2-.07.15-.07.21-.1.2-.09.28-.17.2-.12.19-.14.18-.13.12-.09.1-.09a6.42 6.42 0 00.76-.77l.21-.29.15-.2.14-.23c.06-.1.12-.19.18-.29a6.32 6.32 0 00.47-1.1c0-.16.09-.32.12-.48v-.11a6.39 6.39 0 00.13-1.23v-7.2H0v7.03z" fill="#57A863"/><path d="M35 30.64c1.856 0 3.705.217 5.51.65a.35.35 0 00.41-.2l1.52-3.3a.37.37 0 00-.24-.51 27.77 27.77 0 00-14.41 0 .37.37 0 00-.24.51l1.52 3.3a.35.35 0 00.41.2 23.58 23.58 0 015.52-.65z" fill="#FFCE54"/><path d="M37.41 24.83a2.405 2.405 0 00-4.81 0h4.81z" stroke="#FFCE54" stroke-width=".6" fill="#FFCE54" stroke-linecap="round" stroke-linejoin="round"/><path d="M30.59 21.32a.13.13 0 01-.11-.06l-.52-.89-1 .21a.12.12 0 01-.13-.06.13.13 0 010-.15l.69-.77-.52-.89a.13.13 0 010-.15.13.13 0 01.14 0l.94.42.69-.77a.13.13 0 01.22.1l-.11 1 .94.42a.13.13 0 01.07.13.12.12 0 01-.1.11l-1 .21-.11 1a.12.12 0 01-.1.11l.01.03zM39.42 21.32a.12.12 0 01-.1-.11l-.11-1-1-.21a.12.12 0 01-.1-.11.13.13 0 01.07-.13l.94-.42-.11-1a.13.13 0 01.07-.13.13.13 0 01.14 0l.69.77.94-.42a.13.13 0 01.14 0 .13.13 0 010 .15l-.52.89.69.77a.12.12 0 11-.12.21l-1-.21-.52.89a.13.13 0 01-.1.06zM34.1 19h-.07a.13.13 0 010-.14l.32-1-.83-.61a.13.13 0 01.07-.23h1l.32-1a.13.13 0 01.12-.09.13.13 0 01.12.09l.32 1h1a.13.13 0 01.07.23l-.83.61.32 1a.13.13 0 010 .14.13.13 0 01-.15 0l-.83-.61-.83.61h-.12zM41.64 26.29a.12.12 0 01-.11-.07l-.51-.94-1 .21a.12.12 0 11-.12-.21l.69-.77-.52-.89a.13.13 0 010-.15.13.13 0 01.14 0l.94.42.69-.77a.13.13 0 01.14 0 .13.13 0 01.07.13l-.11 1 .94.42a.12.12 0 110 .24l-1 .16-.12 1.13a.13.13 0 01-.1.11l-.02-.02zM28.37 26.24a.12.12 0 01-.1-.11l-.11-1-1-.21a.12.12 0 01-.1-.11.13.13 0 01.07-.13l.94-.42-.11-1a.13.13 0 01.07-.13.13.13 0 01.14 0l.69.77.94-.42a.13.13 0 01.14 0 .13.13 0 010 .15l-.52.89.69.77a.13.13 0 010 .15.12.12 0 01-.13.06l-1-.21-.52.89a.13.13 0 01-.09.06z" fill="#FFCE54"/></g></svg>