<svg width="71" height="48" xmlns="http://www.w3.org/2000/svg"><g fill-rule="nonzero" fill="none"><path d="M2.92 46.21l1.26-.94c9.28-6.96 18.557-13.92 27.83-20.88-2.81-2.13-5.64-4.23-8.46-6.35L2.86 2.53a6.62 6.62 0 00-2.24 5v33.72a6.62 6.62 0 002.3 4.96zM6.35 24.7l2.23-1.17a1.74 1.74 0 00.85-1.76l-.53-2.7c-.13-.65.18-.81.68-.35l2.07 1.91a2 2 0 002 .31l2.32-1.1c.61-.29.9 0 .65.59l-1 2.36a2 2 0 00.39 2l1.56 1.62c.47.49.3.84-.38.78l-2.47-.22a2 2 0 00-1.81 1l-1.2 2.21c-.32.58-.7.53-.86-.12l-.6-2.42a2.25 2.25 0 00-1.5-1.48l-2.33-.58c-.6-.18-.66-.58-.06-.88h-.01z" fill="#434A54"/><path d="M47.68 24.38c-1.83 1-3.7 1.85-5.55 2.79L3.77 46.35l-.4.2a6.6 6.6 0 003.9 1.28H64a6.64 6.64 0 006.64-6.64V7.47A6.64 6.64 0 0064 .83H7.27a6.6 6.6 0 00-4 1.33l41.85 20.93c.88.44 1.74.83 2.56 1.29z" fill="#EC5565"/><path d="M32 24.38c-9.273 6.967-18.55 13.927-27.83 20.88l-1.26.94c.14.12.29.24.44.35l.4-.2 38.36-19.18c1.85-.94 3.71-1.83 5.55-2.79-.82-.47-1.69-.86-2.53-1.29L3.28 2.16c-.147.113-.29.23-.43.35L23.56 18c2.81 2.15 5.64 4.25 8.44 6.38z" fill="#F2D660"/><path d="M6.48 25.56l2.33.58a2.25 2.25 0 011.5 1.48l.6 2.42c.16.65.55.7.86.12l1.2-2.21a2 2 0 011.81-1l2.47.22c.68.06.85-.29.38-.78l-1.56-1.62a2 2 0 01-.39-2l1-2.36c.25-.61 0-.88-.65-.59l-2.32 1.1a2 2 0 01-2-.31L9.64 18.7c-.5-.46-.8-.3-.68.35l.53 2.7a1.74 1.74 0 01-.85 1.76l-2.23 1.17c-.65.32-.59.72.07.88z" fill="#FFF"/></g></svg>