<svg width="71" height="48" xmlns="http://www.w3.org/2000/svg"><g fill-rule="nonzero" fill="none"><rect fill="#57A863" x=".87" y=".35" width="70" height="47" rx="6.36"/><path fill="#ED5565" d="M7.87.35h10v47h-10z"/><path d="M35.7 8.05c.21.05.23.18 0 .29l-.74.4a.76.76 0 00-.36.61v.8c0 .23-.12.28-.27.11l-.57-.62a.59.59 0 00-.65-.12l-.84.4c-.2.1-.28 0-.17-.19l.45-.83a.64.64 0 00-.07-.67l-.55-.65c-.15-.17-.09-.29.14-.26l.85.11a.72.72 0 00.63-.3l.4-.64c.12-.19.25-.17.29.05l.13.81a.68.68 0 00.47.5l.86.2zm2.7 1.29a7.56 7.56 0 011.15.53 7.32 7.32 0 012.69 10l-.06.1a7.74 7.74 0 01-1.47 1.78 7.42 7.42 0 01-12.29-3.34.26.26 0 00-.34-.12.25.25 0 00-.14.26 8.91 8.91 0 00.87 3.56 9.43 9.43 0 0014.8 2.79 9.05 9.05 0 001.76-2.16 9.21 9.21 0 00-6.8-13.85.26.26 0 00-.28.12.25.25 0 00.09.34l.02-.01zm-6.7-4.29c.21.05.23.18 0 .29l-.74.4a.76.76 0 00-.36.61v.8c0 .23-.12.28-.27.11l-.57-.62a.59.59 0 00-.65-.12l-.84.4c-.2.1-.28 0-.17-.19l.45-.83a.64.64 0 00-.07-.67l-.55-.65c-.15-.17-.09-.29.14-.26l.85.11a.72.72 0 00.63-.3l.4-.64c.12-.19.25-.17.29.05l.13.81a.68.68 0 00.47.5l.86.2zm-1 4c.21.05.23.18 0 .29l-.74.4a.76.76 0 00-.36.61v.8c0 .23-.12.28-.27.11l-.57-.62a.59.59 0 00-.65-.12l-.84.4c-.2.1-.28 0-.17-.19l.45-.83a.64.64 0 00-.07-.67l-.55-.65c-.15-.17-.09-.29.14-.26l.85.11a.72.72 0 00.63-.3l.4-.64c.12-.19.25-.17.29.06l.13.81a.68.68 0 00.47.5l.86.19zm-5 2c.21.05.23.18 0 .29l-.74.4a.76.76 0 00-.36.61v.8c0 .23-.12.28-.27.11l-.57-.62a.59.59 0 00-.65-.12l-.84.4c-.2.1-.28 0-.17-.19l.45-.83a.64.64 0 00-.07-.67l-.55-.65c-.15-.17-.09-.29.14-.26l.85.11a.72.72 0 00.63-.3l.4-.64c.12-.19.25-.17.29.05l.13.81a.68.68 0 00.47.5l.86.2zm4 3c.21.05.23.18 0 .29l-.74.4a.76.76 0 00-.36.61v.8c0 .23-.12.28-.27.11l-.57-.62a.59.59 0 00-.65-.12l-.84.4c-.2.1-.28 0-.17-.19l.45-.83a.64.64 0 00-.07-.67l-.55-.65c-.15-.17-.09-.29.14-.26l.85.11a.72.72 0 00.63-.3l.4-.64c.12-.19.25-.17.29.05l.13.81a.68.68 0 00.47.5l.86.2z" fill="#FFF"/></g></svg>