<svg width="71" height="48" xmlns="http://www.w3.org/2000/svg"><g fill-rule="nonzero" fill="none"><rect fill="#ED5565" x=".63" y=".41" width="70" height="47" rx="6.36"/><circle fill="#FFF" cx="35.63" cy="23.91" r="13.17"/><path d="M41 27.53c-.38.25-.59.09-.47-.34l.46-1.62a1.43 1.43 0 00-.38-1.35l-1.17-1.08c-.33-.31-.23-.55.22-.55h1.7a1.23 1.23 0 001.09-.77l.6-1.77c.15-.43.38-.43.51 0l.58 1.78a1.26 1.26 0 001.07.82l1.73.08c.45 0 .54.27.18.55l-1.36 1.09a1.41 1.41 0 00-.44 1.31l.36 1.45c.11.44-.1.59-.48.34l-1.38-.9a1.37 1.37 0 00-1.38 0l-1.44.96zm.66 3a7.72 7.72 0 01-1.16.45 7.25 7.25 0 01-9-4.87 7.83 7.83 0 01.1-4.43 7.37 7.37 0 0110.39-4.19.24.24 0 00.31-.16.23.23 0 00-.09-.28 9 9 0 00-3.15-1.76 9.28 9.28 0 00-11.61 5.86 9 9 0 00-.47 2.67A9.16 9.16 0 0041.84 31a.25.25 0 00-.21-.45l.03-.02z" fill="#ED5565"/></g></svg>