<svg width="71" height="48" xmlns="http://www.w3.org/2000/svg"><g fill-rule="nonzero" fill="none"><path d="M70.39 6.76a6.39 6.39 0 00-.13-1.24c0-.19-.09-.38-.14-.56a6.32 6.32 0 00-.47-1.1c-.06-.1-.12-.2-.18-.29l-.14-.23-.15-.21-.21-.29-.14-.15-.27-.3-.25-.22-.2-.19h-.12a6.37 6.37 0 00-.89-.59l-.26-.13-.12-.06-.17-.08-.2-.07-.3-.11h-.27a6.65 6.65 0 00-.76-.16h-.12a6.14 6.14 0 00-.82-.06H35.47v24H.39V41c0 .641.099 1.278.29 1.89.06.2.13.393.21.58a6.35 6.35 0 001.65 2.28h.05c.254.22.525.42.81.6a6.39 6.39 0 001.56.7H5c.237.067.477.12.72.16h.19c.272.038.546.058.82.06H64a6.1 6.1 0 00.82-.06h.12a6.7 6.7 0 00.76-.16h.27l.3-.11.2-.07.15-.07.21-.1.2-.09.28-.17.2-.12.19-.14.18-.13.12-.09.1-.09a6.42 6.42 0 00.76-.77l.21-.29.15-.2.14-.23c.06-.1.12-.19.18-.29a6.32 6.32 0 00.47-1.1c0-.16.09-.32.12-.48v-.11a6.39 6.39 0 00.13-1.23V6.76h.13z" fill="#ED5565"/><path d="M35.47.4H6.75a6.39 6.39 0 00-1 .09H5.6a6.29 6.29 0 00-.92.25L4.51.8a6.33 6.33 0 00-.85.4l-.12.07a5.77 5.77 0 00-1.39 1.12l-.14.15a6.41 6.41 0 00-.5.64A6.33 6.33 0 00.42 6.74V24.4H35.5c-.02-8-.03-16-.03-24z" fill="#FFF"/><path d="M22.43 9.9h-2v-2a2 2 0 00-2-2h-1a2 2 0 00-2 2v2h-2a2 2 0 00-2 2v1a2 2 0 002 2h2v2a2 2 0 002 2h1a2 2 0 002-2v-2h2a2 2 0 002-2v-1a2 2 0 00-2-2z" fill="#ED5565"/></g></svg>