<svg width="71" height="48" xmlns="http://www.w3.org/2000/svg"><g fill-rule="nonzero" fill="none"><rect fill="#ED5565" x=".25" y=".35" width="70" height="47" rx="6.36"/><path d="M41 29.39c-.57.38-.89.14-.7-.52l.7-2.49a2.28 2.28 0 00-.58-2.07l-1.76-1.65c-.5-.47-.36-.85.33-.85h2.56a1.84 1.84 0 001.64-1.19l.91-2.71c.21-.66.56-.66.77 0l.86 2.74a1.93 1.93 0 001.62 1.26L50 22c.68 0 .81.41.27.85l-2.05 1.68a2.17 2.17 0 00-.66 2l.55 2.23c.16.67-.17.91-.74.53L45.31 28a2 2 0 00-2.08 0L41 29.39zm1 4.59h-.05a11.24 11.24 0 01-1.75.68c-5.768 1.713-11.834-1.573-13.55-7.34l-.06-.2a11.29 11.29 0 0114.1-14c.59.194 1.162.438 1.71.73h.05a.38.38 0 00.34-.67 13.5 13.5 0 00-4.74-2.71 14.06 14.06 0 00-17.7 17.23 13.72 13.72 0 0021.95 6.89.38.38 0 00-.3-.68v.07z" fill="#FFF"/></g></svg>