<svg width="71" height="48" xmlns="http://www.w3.org/2000/svg"><g fill-rule="nonzero" fill="none"><path d="M64.51.71H9.18L.43 9.29V42a6.64 6.64 0 006.56 5.64H63.7A6.64 6.64 0 0070.34 41V7.3A6.64 6.64 0 0064.51.71z" fill="#3BAFDA"/><path d="M25.4.71H7A6.64 6.64 0 00.43 7.35v17.33h25L25.4.71z" fill="#4658A9"/><path d="M11 18.11v6.56h3.9V18l6.71 6.71h3.82v-3l-7-7h7v-4h-7l7-7v-3H21.6l-6.7 6.7V.71H11v6.56L4.84 1.11a6.66 6.66 0 00-3.63 3.17l6.41 6.41H.46v4h7.16L.46 21.85v2.83h4L11 18.11z" fill="#FFF"/><path d="M12 15.37v9.31h1.9v-9.45l9.45 9.45h2.08v-1.23l-9.78-9.78h9.78v-1.95h-9.78l9.78-9.78V.71h-2.09l-9.45 9.45V.71H12V10L3.67 1.66a6.67 6.67 0 00-1.76 1.55l8.49 8.49H.47v1.95h9.93L.47 23.58v1.09H2.7l9.3-9.3z" fill="#EC5463"/><path d="M50.55 24.48c-.26.18-.41.08-.33-.23l.27-1.15a1 1 0 00-.3-.93l-.83-.73c-.24-.21-.18-.38.14-.39h1.17a.84.84 0 00.73-.57l.37-1.25c.09-.3.25-.31.35 0l.44 1.23c.13.316.43.53.77.55h1.19c.31 0 .38.18.14.38l-.9.8a1 1 0 00-.27.93l.29 1c.09.3-.06.42-.33.25l-1-.6a.93.93 0 00-1 0l-.9.71zM56.25 22.44c-.26.18-.41.08-.33-.23l.27-1.15a1 1 0 00-.3-.93l-.83-.73c-.24-.21-.18-.38.14-.39h1.17a.84.84 0 00.73-.57l.37-1.25c.09-.3.25-.31.35 0l.44 1.23c.13.316.43.53.77.55h1.19c.31 0 .38.18.14.38l-.9.8a1 1 0 00-.27.93l.29 1c.09.3-.06.42-.33.25l-1-.6a.93.93 0 00-1 0l-.9.71zM55.06 34.35c-.26.18-.41.08-.33-.23L55 33a1 1 0 00-.3-.93l-.83-.73c-.24-.21-.18-.38.14-.39h1.17a.84.84 0 00.73-.57l.37-1.25c.09-.3.25-.31.35 0l.44 1.23c.13.316.43.53.77.55H59c.31 0 .38.18.14.38l-.9.8a1 1 0 00-.27.93l.29 1c.09.3-.06.42-.33.25l-1-.6a.93.93 0 00-1 0l-.87.68zM61 17.77c-.26.18-.41.08-.33-.23l.27-1.15a1 1 0 00-.3-.93l-.83-.73c-.24-.21-.18-.38.14-.39h1.17a.84.84 0 00.73-.57l.37-1.25c.09-.3.25-.31.35 0l.44 1.23c.13.316.43.53.77.55h1.19c.31 0 .38.18.14.38l-.9.8a1 1 0 00-.27.93l.29 1c.09.3-.06.42-.33.25l-1-.6a.93.93 0 00-1 0l-.9.71zM61 30.52c-.26.18-.41.08-.33-.23l.27-1.15a1 1 0 00-.3-.93l-.83-.73c-.24-.21-.18-.38.14-.39h1.17a.84.84 0 00.73-.57l.37-1.25c.09-.3.25-.31.35 0l.44 1.23c.13.316.43.53.77.55h1.19c.31 0 .38.18.14.38l-.9.8a1 1 0 00-.27.93l.29 1c.09.3-.06.42-.33.25l-1-.6a.93.93 0 00-1 0l-.9.71zM43.57 34c-.26.18-.41.08-.33-.23l.27-1.15a1 1 0 00-.3-.93l-.83-.73c-.24-.21-.18-.38.14-.39h1.17a.84.84 0 00.73-.57l.37-1.25c.09-.3.25-.31.35 0l.44 1.23c.13.316.43.53.77.55h1.19c.31 0 .38.18.14.38l-.9.8a1 1 0 00-.27.93l.29 1c.09.3-.06.42-.33.25l-1-.6a.93.93 0 00-1 0l-.9.71zM50.55 38.85c-.26.18-.41.08-.33-.23l.27-1.15a1 1 0 00-.3-.93l-.83-.73c-.24-.21-.18-.38.14-.39h1.17a.84.84 0 00.73-.57l.37-1.25c.09-.3.25-.31.35 0l.44 1.23c.13.316.43.53.77.55h1.19c.31 0 .38.18.14.38l-.9.8a1 1 0 00-.27.93l.29 1c.09.3-.06.42-.33.25l-1-.6a.93.93 0 00-1 0l-.9.71zM43.57 40.44c-.26.18-.41.08-.33-.23l.27-1.15a1 1 0 00-.3-.93l-.83-.73c-.24-.21-.18-.38.14-.39h1.17a.84.84 0 00.73-.57l.37-1.25c.09-.3.25-.31.35 0l.44 1.23c.13.316.43.53.77.55h1.19c.31 0 .38.18.14.38l-.9.8a1 1 0 00-.27.93l.29 1c.09.3-.06.42-.33.25l-1-.6a.93.93 0 00-1 0l-.9.71zM35.78 42.64c-.26.18-.41.08-.33-.23l.27-1.15a1 1 0 00-.3-.93l-.83-.73c-.24-.21-.18-.38.14-.39h1.17a.84.84 0 00.73-.57l.37-1.25c.09-.3.25-.31.35 0l.44 1.23c.13.316.43.53.77.55h1.19c.31 0 .38.18.14.38l-.9.8a1 1 0 00-.27.93l.29 1c.09.3-.06.42-.33.25l-1-.6a.93.93 0 00-1 0l-.9.71z" fill="#FFCE54"/></g></svg>