<svg width="71" height="48" xmlns="http://www.w3.org/2000/svg"><g fill-rule="nonzero" fill="none"><path d="M70.39 6.48a6.39 6.39 0 00-.13-1.24c0-.19-.09-.38-.14-.56a6.32 6.32 0 00-.47-1.1c-.06-.1-.12-.2-.18-.29l-.14-.23-.15-.21-.21-.29-.14-.15-.27-.3-.25-.22-.2-.19h-.12a6.37 6.37 0 00-.89-.59l-.26-.13-.12-.06-.17-.08-.2-.07-.3-.11h-.27a6.65 6.65 0 00-.76-.16h-.12a6.14 6.14 0 00-.82-.06H35.47v24H.39v16.64c0 .641.099 1.278.29 1.89.06.2.13.393.21.58a6.35 6.35 0 001.65 2.28h.05c.254.22.525.42.81.6a6.39 6.39 0 001.56.7H5c.237.067.477.12.72.16h.19c.272.038.546.058.82.06H64a6.1 6.1 0 00.82-.06h.12a6.7 6.7 0 00.76-.16h.27l.3-.11.2-.07.15-.07.21-.1.2-.09.28-.17.2-.12.19-.14.18-.13.12-.09.1-.09a6.42 6.42 0 00.76-.77l.21-.29.15-.2.14-.23c.06-.1.12-.19.18-.29a6.32 6.32 0 00.47-1.1c0-.16.09-.32.12-.48v-.11a6.39 6.39 0 00.13-1.23V6.48h.13z" fill="#ED5565"/><path d="M35.47.11H6.75a6.39 6.39 0 00-1 .09H5.6a6.29 6.29 0 00-.92.25l-.17.06a6.33 6.33 0 00-.85.4l-.12.07A5.77 5.77 0 002.15 2.1l-.14.15a6.41 6.41 0 00-.5.64A6.33 6.33 0 00.42 6.45v17.64H35.5c-.02-7.987-.03-15.98-.03-23.98z" fill="#4758A9"/><path d="M23.68 14.12a2.11 2.11 0 01.24-.89l.4-.71a.91.91 0 000-.82l-.42-.73a2.26 2.26 0 01-.24-.88v-.84a.93.93 0 00-.41-.71l-.71-.4a2 2 0 01-.65-.65l-.41-.71a.91.91 0 00-.71-.41h-.84a2.16 2.16 0 01-.89-.24l-.72-.42a.93.93 0 00-.83 0l-.7.41a2.08 2.08 0 01-.89.24h-.81a.91.91 0 00-.71.41l-.42.73a2.08 2.08 0 01-.65.65l-.72.42a.9.9 0 00-.41.71v.82a2.1 2.1 0 01-.23.88l-.41.71a.91.91 0 000 .82l.42.73c.145.275.227.58.24.89V15a.92.92 0 00.41.71l.71.4a2 2 0 01.65.65l.41.71a.91.91 0 00.71.41h.84c.31.015.614.097.89.24l.73.42a.91.91 0 00.82 0l.7-.41a2.12 2.12 0 01.89-.24h.81a.91.91 0 00.71-.41l.42-.73a2.07 2.07 0 01.65-.65l.73-.42a.9.9 0 00.4-.71V14.12z" fill="#FFF"/></g></svg>