<svg width="71" height="48" xmlns="http://www.w3.org/2000/svg"><g fill-rule="nonzero" fill="none"><rect fill="#4A89DC" x=".63" y=".13" width="70" height="47" rx="6.36"/><path d="M65 .17a6.42 6.42 0 00-.7 0H7A6.36 6.36 0 00.64 6.53V40.8l28-11.64L65 .17z" fill="#57A863"/><path d="M70.63 6.49a6.36 6.36 0 00-6-6.34l-64 40.72a6.36 6.36 0 006.36 6.26h.57L70.63 7v-.51z" fill="#434A54"/><path d="M70.52 5.32L5.18 46.86a6.36 6.36 0 001.81.27h3.36L70.63 8.81V6.5c0-.396-.037-.79-.11-1.18zM.87 42.49L66.72.62a6.34 6.34 0 00-2.46-.49H61.9l-61.28 39v1.67a6.36 6.36 0 00.25 1.69z" fill="#FFCE54"/></g></svg>