<svg width="71" height="47" xmlns="http://www.w3.org/2000/svg"><g fill-rule="nonzero" fill="none"><circle fill="#FFF" cx="34.08" cy="23.53" r="7.83"/><path d="M70.39 40.39v-2.86h-70v2.86a6.64 6.64 0 005.36 6.52H65a6.64 6.64 0 005.39-6.52z" fill="#4758A9"/><path fill="#FFF" d="M.39 28.15h70v9.37h-70z"/><path fill="#4758A9" d="M.39 18.78h70v9.37h-70z"/><path fill="#FFF" d="M.39 9.4h70v9.37h-70z"/><path d="M.39 6.67V9.4h70V6.67A6.64 6.64 0 0063.75.03H7A6.64 6.64 0 00.39 6.67z" fill="#4758A9"/><path d="M28.51 0H7A6.64 6.64 0 00.36 6.64v21.48h28.12L28.51 0z" fill="#FFF"/><path d="M22.85 17c.018-.45.134-.89.34-1.29l.6-1a1.34 1.34 0 000-1.2l-.61-1.06a3.09 3.09 0 01-.35-1.3V9.92a1.33 1.33 0 00-.6-1l-1-.59a3 3 0 01-.95-.95l-.59-1a1.33 1.33 0 00-1-.6h-1.23a3.15 3.15 0 01-1.3-.35l-1.06-.61a1.33 1.33 0 00-1.2 0l-1 .6a3 3 0 01-1.29.35H10.3a1.35 1.35 0 00-1.05.6l-.61 1.06a3.1 3.1 0 01-.95 1l-1.06.62a1.33 1.33 0 00-.59 1v1.19a3.08 3.08 0 01-.34 1.29l-.6 1a1.34 1.34 0 000 1.2l.62 1.06c.21.4.33.84.35 1.29v1.23c.04.41.264.778.61 1l1 .59a3 3 0 01.95.95l.59 1a1.35 1.35 0 001.05.6h1.22c.454.02.897.14 1.3.35l1.06.61c.38.19.83.19 1.21 0l1-.6a3.08 3.08 0 011.3-.35h1.19a1.33 1.33 0 001-.6l.61-1.06a3.1 3.1 0 01.95-1l1.06-.62a1.34 1.34 0 00.6-1l.08-1.18z" fill="#F6D660"/></g></svg>