<svg width="71" height="48" xmlns="http://www.w3.org/2000/svg"><g fill-rule="nonzero" fill="none"><rect fill="#ED5565" x=".01" y=".96" width="70" height="47" rx="6.36"/><path d="M63.64 1H6.37A6.36 6.36 0 00.01 7.36V17h70V7.36A6.36 6.36 0 0063.64 1z" fill="#3BAFDA"/><path d="M14.6 13.32a4.75 4.75 0 01-6.65-2.94 5.08 5.08 0 01.07-2.92 4.82 4.82 0 016-3.08c.255.081.503.185.74.31a.17.17 0 00.21-.11.18.18 0 00-.06-.18 5.79 5.79 0 00-2.06-1.16 6 6 0 00-7.88 5.63 5.93 5.93 0 007.55 5.86h.07a6.11 6.11 0 002.11-1.11.17.17 0 00.06-.18.16.16 0 00-.19-.11l.03-.01zM18 13a1 1 0 110 2 1 1 0 010-2zm4 0a1 1 0 110 2 1 1 0 010-2zm0-4a1 1 0 110 2 1 1 0 010-2zm4-4a1 1 0 110 2 1 1 0 010-2zm0 4a1 1 0 110 2 1 1 0 010-2zm0 4a1 1 0 110 2 1 1 0 010-2zm4-8a1 1 0 110 2 1 1 0 010-2zm0 4a1 1 0 110 2 1 1 0 010-2zm0 4a1 1 0 110 2 1 1 0 010-2zm4-8a1 1 0 110 2 1 1 0 010-2zm0 4a1 1 0 110 2 1 1 0 010-2zm0 4a1 1 0 110 2 1 1 0 010-2z" fill="#FFF"/><path d="M63.64 48H6.37A6.36 6.36 0 010 41.6V32h70v9.64A6.36 6.36 0 0163.64 48z" fill="#52C162"/><path fill="#F5F7FA" d="M.01 18.46h70v12h-70z"/></g></svg>