<svg width="71" height="49" xmlns="http://www.w3.org/2000/svg"><g fill-rule="nonzero" fill="none"><path d="M23.59.91h-17A6.36 6.36 0 00.23 7.27v34.27a6.44 6.44 0 000 .65 6.33 6.33 0 00.46 1.82 6.34 6.34 0 002.52 2.92 6.32 6.32 0 003.35 1h28.71v-47L23.59.91z" fill="#FFCE54"/><path d="M70.25 7.27c0-.43-.044-.859-.13-1.28 0-.19-.09-.38-.14-.56a6.33 6.33 0 00-.47-1.1l-.18-.3-.14-.23-.15-.2-.21-.29-.14-.15-.27-.3-.25-.22-.2-.19-.13-.09a6.37 6.37 0 00-.89-.59l-.33-.16-.23-.11-.37-.14-.21-.08h-.19a6.35 6.35 0 00-1.7-.24H35.33v47h28.56a6.36 6.36 0 001.7-.24h.19l.21-.08.37-.14.23-.11.33-.16h.05c.16-.09.32-.18.47-.29l.24-.18.25-.19.1-.09a6.41 6.41 0 00.76-.77l.21-.29.15-.2.14-.23c.06-.1.12-.19.18-.3a6.33 6.33 0 00.47-1.1c0-.16.09-.32.12-.48v-.13c.086-.421.13-.85.13-1.28V7.28l.06-.01z" fill="#FFF"/><path d="M62.34 19.34l-.36.32v-.76l-1-1.14.42-.36a.21.21 0 00.32-.27v-.05l.27-.23v.05a.22.22 0 00.3 0 .2.2 0 000-.28l-.18-.21.18-.16h.09a.47.47 0 10-.47-.54l-.24.19-.11-.13a.212.212 0 00-.35.24l-.27.23.15-.12a2.23 2.23 0 01-1.39-.91 1.59 1.59 0 00-2.17-.58l-.13.09a2.05 2.05 0 00-1 1.32 4.29 4.29 0 000 1.36c.07.71.25 1.66.41 2.43l-.49.41a.2.2 0 00-.28 0 .21.21 0 000 .29l-.42.36c-.12-.27-.5-1.07-.63-1.46a.54.54 0 00.45-.32c.13.18.26-.15.11-.28l.08-.25c.1.09.18-.13.1-.23 0-.11.07-.23.1-.35a.15.15 0 00.1 0 .16.16 0 00.16-.15.15.15 0 00-.14-.15l.05-.36v-.11c.18 0 .3-.2 0-.26l.05-.31c.17 0 .23-.2 0-.27V16a.21.21 0 00.2-.21.21.21 0 00-.19-.21l.06-.5-.15.08v-.15c.13 0 .15-.22-.07-.28a.6.6 0 00-.1-.32c.17 0 .22-.22 0-.28h-.11a3 3 0 00-.21-.4.21.21 0 000-.41l.07-.5-.54.28.16.24A3.65 3.65 0 0053.22 12a.34.34 0 00.05-.17.37.37 0 00-.26-.35v-.43h.33v-.3h-.33v-.41h-.25v.43h-.31v.3h.31v.44a.37.37 0 00-.23.34.34.34 0 00.05.17 3.58 3.58 0 00-1.93 1.32l.14-.22-.53-.28.06.5a.21.21 0 100 .41c-.08.13-.15.26-.22.4H50c-.25.06-.2.33 0 .28 0 .11-.08.21-.11.32-.22.06-.19.27-.07.28v.15l-.15-.08.06.5a.21.21 0 00-.18.21.2.2 0 00.19.21v.39c-.24.07-.18.32 0 .27l.05.31c-.27.06-.14.31 0 .26a.45.45 0 010 .11v.36a.15.15 0 00-.13.15c0 .083.067.15.15.15a.13.13 0 00.1 0c0 .12.07.24.11.35-.08.1 0 .32.09.23l.09.25c-.15.13 0 .46.1.28a.44.44 0 00.36.28c-.12.37-.52 1.21-.64 1.49l-.42-.36a.213.213 0 00-.33-.27l-.49-.41c.16-.77.34-1.72.41-2.43a4.29 4.29 0 000-1.36 2.05 2.05 0 00-1-1.33 1.59 1.59 0 00-2.21.36l-.09.13a2.23 2.23 0 01-1.39.91l.15.13-.27-.23a.212.212 0 00-.35-.24l-.11.13-.24-.19a.47.47 0 10-.47.54h.09l.18.16-.18.21a.2.2 0 000 .28.22.22 0 00.3 0v-.05l.27.23v.05a.21.21 0 00.32.27l.42.36-1 1.14v.76l-.36-.32-1 1.05v.68l1.39 1.16.94-1.06V21l.3-.19.07-.08.53-.34-.07.09v.75l-.39-.31-.93 1.07v.67l1.43 1.21 1.89-2.2c.09.13.2.26.32.4a1.91 1.91 0 001 .59 3.08 3.08 0 001.51 0l-1.42-1.21 1.52 1.3a.37.37 0 00.18.48h.08a1.5 1.5 0 01.65.28.36.36 0 000 .49l.13.12a9.7 9.7 0 00-2.13 2.16l-.4.32-.35-.42-.47.4a2.93 2.93 0 00-1.4-.35 3 3 0 00-1.6.47.62.62 0 00-.49-.23.63.63 0 00-.4 1.12 3 3 0 00-.47 1.58 2.89 2.89 0 00.49 1.62.64.64 0 00-.25.51.63.63 0 001.15.36 2.94 2.94 0 001.57.45 2.9 2.9 0 00.74-.09 12.9 12.9 0 004.72 1.28v.87a.27.27 0 000 .53v.6a.15.15 0 00-.15.14.15.15 0 00.06.11.65.65 0 00-.14.36c0 .24-.09 2.17-.09 2.33.19.013.38.013.57 0v.08a4 4 0 001.37 0l-.07-2.23a1.59 1.59 0 00-.09-.38.18.18 0 000-.1.14.14 0 00-.14-.14h-.08v-.53a.27.27 0 000-.53v-1.12a12.42 12.42 0 004.53-1.33 3 3 0 001 .17 2.94 2.94 0 001.57-.45.64.64 0 001.16-.36.65.65 0 00-.26-.51 2.89 2.89 0 00.49-1.62 3 3 0 00-.47-1.58.62.62 0 00-.4-1.12.62.62 0 00-.49.23 3 3 0 00-1.6-.47 2.93 2.93 0 00-1.4.35l-.47-.4-.35.42-.4-.32a9.88 9.88 0 00-2.11-2.14l.15-.14a.36.36 0 000-.49h-.06a1.48 1.48 0 01.63-.27.37.37 0 00.28-.43v-.08l1.52-1.3-1.43 1.21a3.08 3.08 0 001.51 0 1.91 1.91 0 001-.59c.12-.14.23-.27.32-.4l1.89 2.2 1.43-1.21V22l-.93-1.07-.39.31v-.75l-.07-.09.53.34.07.08.3.19v.21l.94 1.06 1.39-1.16v-.68l-.87-1.1zm-2.87-1.72l-1.23 1c-.06-.24-.12-.49-.17-.73l-.11-1.55a1.23 1.23 0 01.08-.2l.35.13c.35.48.94 1.23 1.08 1.36v-.01zm1.23-1.05l-1.21 1 1.21-1zm-6.81 5.54a3.4 3.4 0 01-.78.88.34.34 0 00-.3-.18.36.36 0 00-.32.2 3.43 3.43 0 01-.8-.9.34.34 0 00-.54-.2l-.09-.08a13 13 0 00.91-2.14H53.61c.242.735.546 1.447.91 2.13l-.09.08a.34.34 0 00-.54.19v.02zm-6.7-5.8l.35-.13c.032.064.06.131.08.2l-.11 1.55c-.05.24-.11.49-.17.73l-1.23-1c.14-.12.73-.87 1.08-1.31v-.04zm-2.31.25l1.17 1-1.17-1zm5.19 10.68a5.51 5.51 0 001.77-1.2 8.42 8.42 0 01-2.23 3.38 1.81 1.81 0 000-.23 2.66 2.66 0 00-.13-.85l.51-.41-.3-.34.38-.35zm-1.16 4.63a.63.63 0 00.25-1.11 3.21 3.21 0 00.17-.3 7.75 7.75 0 002.79-3.42v5.54a10.73 10.73 0 01-3.21-.71zm4.47-4.81a7.9 7.9 0 002.91 3.48l.13.22a.63.63 0 00.07 1 9.54 9.54 0 01-3.11.77v-5.47zm2.71 1.27a2.66 2.66 0 00-.13.85v.3a8.5 8.5 0 01-2.37-3.57 5.92 5.92 0 001.91 1.32l.37.34-.3.34.52.42z" fill="#ED5565"/></g></svg>