<svg width="71" height="48" xmlns="http://www.w3.org/2000/svg"><g fill-rule="nonzero" fill="none"><path d="M.87 7.56v9h70v-9A6.64 6.64 0 0064.23.92H7.51A6.64 6.64 0 00.87 7.56z" fill="#F6D660"/><path fill="#4758A9" d="M.87 32.26h70V16.59h-70z"/><path d="M.87 41.27a6.64 6.64 0 006.64 6.64h56.72a6.64 6.64 0 006.64-6.64v-9h-70v9z" fill="#ED5565"/><path d="M34.56 23.82c-.22.15-.35.06-.29-.19l.26-.95a.82.82 0 00-.25-.78l-.71-.61c-.21-.17-.15-.32.13-.32h1a.72.72 0 00.65-.46l.34-1c.08-.25.22-.25.31 0l.36 1a.78.78 0 00.66.46h1c.27 0 .32.15.11.32l-.8.65a.78.78 0 00-.25.77l.24.84c.08.25-.06.34-.28.2l-.84-.51a.83.83 0 00-.82 0l-.82.58zM30.05 25.65c-.14.24-.29.22-.34 0l-.22-1a.84.84 0 00-.58-.57l-.92-.2c-.26-.06-.28-.21 0-.34l.9-.49a.74.74 0 00.36-.71l-.19-1.07c-.05-.26.07-.32.26-.14l.81.73a.76.76 0 00.79.1l.93-.46c.24-.12.36 0 .25.23l-.4.95a.8.8 0 00.15.79l.6.63c.19.19.11.33-.16.32l-1-.06a.85.85 0 00-.73.4l-.51.89zM24.27 29c-.25.1-.36 0-.24-.25l.45-.87a.83.83 0 00-.06-.81l-.57-.75c-.16-.21-.08-.35.19-.29l1 .21a.73.73 0 00.72-.31l.55-.93c.14-.23.27-.2.3.06l.13 1.08a.79.79 0 00.55.6l1 .25c.26.06.29.22 0 .34l-.92.46a.8.8 0 00-.41.69l.06.87c0 .26-.14.32-.33.14l-.7-.68a.85.85 0 00-.81-.17l-.91.36zM41.2 24.75a.85.85 0 00-.73-.4l-1 .06c-.28 0-.35-.13-.16-.32l.6-.63a.8.8 0 00.15-.79l-.4-.95c-.11-.25 0-.35.25-.23l.93.46a.76.76 0 00.79-.1l.81-.73c.19-.18.32-.11.26.14l-.19 1.07a.74.74 0 00.36.71l.9.49c.24.13.22.29 0 .34l-.92.2a.84.84 0 00-.58.57l-.22 1c-.05.26-.21.28-.34 0l-.51-.89zM46.51 28.59a.85.85 0 00-.81.17l-.7.68c-.19.19-.34.13-.33-.14l.06-.87a.8.8 0 00-.41-.69l-.92-.46c-.24-.12-.22-.27 0-.34l1-.25a.79.79 0 00.55-.6l.13-1.08c0-.26.17-.29.3-.06l.55.93a.73.73 0 00.72.31l1-.21c.27-.06.36.07.19.29l-.57.75a.83.83 0 00-.06.81l.45.87c.12.23 0 .35-.24.25l-.91-.36z" fill="#FFF"/></g></svg>