<svg width="71" height="48" xmlns="http://www.w3.org/2000/svg"><g fill-rule="nonzero" fill="none"><rect fill="#FFF" x=".39" y=".1" width="70" height="47" rx="6.64"/><path d="M23.85 31.15s-.05-.35.62-.61.72-1.22.59-1.86a2.33 2.33 0 01-.77.81 1.39 1.39 0 00-.72 1 2.26 2.26 0 01-.06.45 1.59 1.59 0 01.24-1.58 2.11 2.11 0 00.29-2.51 1.8 1.8 0 01-.51 1.12c-.47.41-.53.44-.52 1.41 0 0 0 .34-.17.45a4 4 0 01-.46-.88c-.1-.35-.14-.5.27-.91 0 0 1.33-.86.37-2.74a1.57 1.57 0 01-.49 1c-.46.38-.42.64-.44 1.3-.02.66-.07.62-.12.71-.05.09-.85-1.55-.19-2.38.66-.83 1-1 .3-2.54a1.46 1.46 0 01-.54 1.18c-.58.39-.44 1.3-.44 1.3a1.3 1.3 0 01-.08.59s-.81-1.59 0-2.44a1.86 1.86 0 00.35-2.26 1.11 1.11 0 01-.41.73c-.36.26-.65.52-.59 1.51a3.42 3.42 0 01-.06.89 5.61 5.61 0 01-.44-1 1.18 1.18 0 01.12-1.07 2.6 2.6 0 00.06-3.31 2.61 2.61 0 01-.34 1.05 2.25 2.25 0 00-.1 1.55 1.68 1.68 0 01-.16.89 3.93 3.93 0 01-.41-2 2.66 2.66 0 00-1.34-2.64s-.73 1.7.27 2.57a4.29 4.29 0 011.07 1.87s-.65-.06-1.23-1.2a1.88 1.88 0 00-1.88-1A2.79 2.79 0 0018 22.86s1.19.2 1.42 1.08c0 0 .2.6.28.92a1.79 1.79 0 01-.73-.66c-.35-.52-.3-.58-1.48-.69a1.17 1.17 0 01-.73-.39s.5 1.87 1.77 1.85c0 0 1.16-.12 1.82 1.41l-.3-.2a2.07 2.07 0 00-1.45-.23 2.28 2.28 0 01-1.3-.11s.86 1.58 2.08 1.11c1.22-.47 1.8 1.24 1.82 1.27a4.59 4.59 0 01-.38-.34 1.39 1.39 0 00-1.51-.2 2.09 2.09 0 01-1.22 0 1.94 1.94 0 002 1 1.51 1.51 0 011.73 1 3.17 3.17 0 01-.31-.21c-.13-.1-.59-.37-1.59-.07s-1.36 0-1.36 0a2.34 2.34 0 001.62 1.13c.286 0 .572-.033.85-.1a1.13 1.13 0 011.38.42.59.59 0 01-.32-.06 1.37 1.37 0 00-1.25.2 1.48 1.48 0 01-1.16.4 2 2 0 002.28.13s.47-.34.82-.08 1.07-.29 1.07-.29z" fill="#55A963"/><path d="M42.65 23a1.3 1.3 0 001.69 0 1 1 0 00.93.27c.62-.11.73-.44.79-.62.304.18.674.205 1 .07a.77.77 0 00.45-.62 1.3 1.3 0 001.2-.38c.41-.54.16-1.07-.06-1.13 0 0 .86.22 1.09-.51a.84.84 0 00-.25-.95 5.57 5.57 0 002.54-.57s.61-.39.25-.79c0 0 1.62-.26 2-.91a.56.56 0 00.12-.49.2.2 0 00-.19-.19 5.46 5.46 0 002.38-.9.69.69 0 00.13-.66.67.67 0 00-.07-.17 6.61 6.61 0 002.51-1.1.91.91 0 00.23-1s2.81-.77 2.16-2c0 0 1.31-.43.9-1.61 0 0 1.09-.55.61-1.43-.48-.88-1.85.15-3.5.6 0 0-4.47 1.41-6.67 1.78L46.64 19l-3.65 1.41-.34 2.59z" fill="#F5BB43"/><path d="M42.61 16.16a1.58 1.58 0 011.63.08.52.52 0 00.63 0 .56.56 0 00-.07-.87 1.93 1.93 0 01.12-3s1.72-1 8-2.63a2.17 2.17 0 01.81-.08c.281.07.5.289.57.57a1 1 0 01-.67 1.26 7.13 7.13 0 01-.87.32.62.62 0 01.69.37c.2.46-.09.93-1 1.23a5.1 5.1 0 01-.58.18s.76.22.4.83a1.78 1.78 0 01-1.48.76s.86.09.25.91a1.64 1.64 0 01-1.11.61s.64 0 .32.59a2.26 2.26 0 01-1.82.95 3.14 3.14 0 01-.68 0s.71.35.29.95a1.27 1.27 0 01-1.07.4.76.76 0 01-.36.91.79.79 0 01-.8-.12.85.85 0 01-.49 1c-.254.1-.536.1-.79 0 0 0-.36.81-1.65.24-1.29-.57-.27-5.46-.27-5.46zM26.28 29.49s-.75 1.29-1.66 1.31c0 0-1.56-.19-2 .22-.407.3-.677.75-.75 1.25-.13.73.25.88.34.92a.45.45 0 00.58.39s0 .54.94.28 1.29-.18 1.46-1.08c.17-.9.34-.89.5-1 .16-.11.63-.28.93-.46a8 8 0 011.67-.73c.36 0 .28-1.24.28-1.24h-.92l-.44-.66-.93.8z" fill="#F5BB43"/><path fill="#3CAFDA" d="M50.77 20.86l.15 4.88-.86-.5-1.43 6.19-.59-.42 1.39-5.93-.97.02zM56.34 23.03l-2.04 4.39-.53-.87-4.31 5.09-.46-.52 4.28-5.03-.86-.46z"/><path fill="#F4C53D" d="M22.84 19.63l.59 1.79 3.03-.47v-1.28z"/><path fill="#3CAFDA" d="M54.48 19.82l-1.05 4.75-.71-.72-3.85 7.41-.59-.35 3.87-7.39-.94-.25z"/><path d="M29.18 23a1.3 1.3 0 01-1.69 0 1 1 0 01-.93.27c-.62-.11-.73-.44-.79-.62a1.12 1.12 0 01-1 .07.77.77 0 01-.45-.62 1.3 1.3 0 01-1.2-.38c-.41-.54-.16-1.07.06-1.13 0 0-.86.22-1.09-.51a.84.84 0 01.25-.95 5.57 5.57 0 01-2.54-.57s-.61-.39-.25-.79c0 0-1.62-.26-2-.91a.56.56 0 01-.12-.49.2.2 0 01.19-.19 5.46 5.46 0 01-2.38-.9.69.69 0 01-.13-.66.67.67 0 01.07-.17 6.61 6.61 0 01-2.51-1.1.91.91 0 01-.23-1s-2.81-.77-2.16-2c0 0-1.31-.43-.9-1.61 0 0-1.09-.55-.61-1.43.48-.88 1.85.15 3.5.6 0 0 4.47 1.41 6.67 1.78L25.19 19l3.65 1.41.34 2.59z" fill="#F5BB43"/><path d="M29.22 16.16a1.58 1.58 0 00-1.63.08.52.52 0 01-.63 0 .56.56 0 01.07-.87 1.93 1.93 0 00-.12-3s-1.72-1-8-2.63a2.17 2.17 0 00-.81-.08.78.78 0 00-.57.57 1 1 0 00.67 1.26c.283.125.573.232.87.32a.62.62 0 00-.69.37c-.2.46.09.93 1 1.23a5.1 5.1 0 00.58.18s-.76.22-.4.83a1.78 1.78 0 001.48.76s-.86.09-.25.91a1.64 1.64 0 001.11.61s-.64 0-.32.59a2.26 2.26 0 001.82.95c.226.025.454.025.68 0 0 0-.71.35-.29.95.273.295.67.444 1.07.4a.76.76 0 00.36.91.79.79 0 00.8-.12.85.85 0 00.49 1c.254.1.536.1.79 0 0 0 .36.81 1.65.24 1.29-.57.27-5.46.27-5.46zM29.3 23.54a4.62 4.62 0 01-1.69 2.3 3.38 3.38 0 00-1.13 2.2c0 1.2-.21 1.33-.66 1.74a1.71 1.71 0 001.39-.55s0 1-.16 1.13c-.16.13.29 0 .72-.45a1.94 1.94 0 01.49-.37 2.34 2.34 0 00-.06 1.38.61.61 0 01.43-.37 1.38 1.38 0 00.92-1.09s.17-.64 1.21-1.2c0 0 1.18-.44 1.15-1-.03-.56-2.61-3.72-2.61-3.72zM45.55 29.49s.75 1.29 1.66 1.31c0 0 1.56-.19 2 .22.407.3.677.75.75 1.25.13.73-.25.88-.34.92a.45.45 0 01-.58.39s0 .54-.94.28-1.29-.18-1.46-1.08c-.17-.9-.34-.89-.5-1-.16-.11-.63-.28-.93-.46a8 8 0 00-1.67-.73c-.36 0-.28-1.24-.28-1.24h.92l.44-.66.93.8z" fill="#F5BB43"/><path d="M42.53 23.54a4.62 4.62 0 001.69 2.3 3.38 3.38 0 011.13 2.2c0 1.2.21 1.33.66 1.74a1.71 1.71 0 01-1.39-.55s0 1 .16 1.13c.16.13-.29 0-.72-.45a1.94 1.94 0 00-.49-.37c.158.443.18.924.06 1.38a.61.61 0 00-.43-.37 1.38 1.38 0 01-.92-1.09s-.17-.64-1.21-1.2c0 0-1.18-.44-1.15-1 .03-.56 2.61-3.72 2.61-3.72zM37.08 36.64s.27 1.19 1.21 1.09c0 0 .66-.06.61-1.17 0 0 1 .52 1.14-.77 0 0 .89.21.88-1 0 0 .83.15.73-.93a.69.69 0 00.9-.77s2.11-.35-2.28-4.35l-3.91 2.33.72 5.57z" fill="#F5BB43"/><path d="M36.64 31.31a.68.68 0 001.12-.29s.63 0 .73-.51a.71.71 0 00.61-.54s.7-.07.68-.67c0 0 1.28-.1 0-1.54s-3.44 2.4-3.44 2.4l.3 1.15zM34.75 36.64s-.27 1.19-1.21 1.09c0 0-.66-.06-.61-1.17 0 0-1 .52-1.14-.77 0 0-.89.21-.88-1 0 0-.83.15-.73-.93a.69.69 0 01-.9-.77s-2.11-.35 2.28-4.35l3.91 2.33-.72 5.57z" fill="#F5BB43"/><path d="M35.19 31.31a.68.68 0 01-1.12-.29s-.63 0-.73-.51a.71.71 0 01-.61-.54s-.7-.07-.68-.67c0 0-1.28-.1 0-1.54s3.44 2.4 3.44 2.4l-.3 1.15zM35.92 30.95c.63 0 1.35 4 1.16 6.33-.07.86-.53 1.57-1.16 1.57-.63 0-1.1-.71-1.16-1.57-.19-2.38.53-6.33 1.16-6.33" fill="#F5BB43"/><ellipse fill="#F5BB43" cx="35.92" cy="30.92" rx="1" ry="1.3"/><path d="M35.92 30.63s7.42-3.29 7.44-10.9H28.48c.01 7.62 7.44 10.9 7.44 10.9z" fill="#FFF"/><path d="M29.62 19.74v4.86a12.29 12.29 0 001.14 1.83v-6.7l-1.14.01zM31.91 19.74v8s.72.7 1.14 1v-9.05l-1.14.05zM34.2 19.74v9.91s.82.53 1.14.7V19.74H34.2zM42.21 19.74v4.86a12.3 12.3 0 01-1.14 1.83v-6.7l1.14.01zM39.92 19.74v8s-.72.7-1.14 1v-9.05l1.14.05zM37.63 19.74v9.91s-.82.53-1.14.7V19.74h1.14z" fill="#EC5565"/><path d="M47.92 33.52l-.29 1.18.79.79-1.12 4.72-1-1.33-1.47.69 1.12-4.72 1-.29.27-1.18a.7.7 0 01.7.14z" fill="#3CAFDA"/><path d="M48.18 32.74l-.57 1.06.57 1-2.24 4.25-.63-1.56-1.59.26 2.24-4.25H47l.55-1.06a.76.76 0 01.63.3z" fill="#3CAFDA"/><path d="M48.28 33.05l-1.51 1.92.35 1.09-3.09 3.61-.28-1.67-1.61-.12 3.09-3.61 1 .26 1.6-2s.47.17.45.52z" fill="#3CAFDA"/><path d="M23.69 33.31s0-.63.78-.68l2.36 3.28s-.09.21-1.16.19a.2.2 0 00-.17.12 22 22 0 01-1.81-2.91z" fill="#55A963"/><path d="M39.82 13.59c-.17.22-.86.3-.86.3a3.55 3.55 0 011 1.33c.31.78-8.25 0-8.25 0 .26-.208.472-.47.62-.77a.75.75 0 01-.76-.23s.28.09.65-.47a4 4 0 01.93-.89s-.18.11-.61-.12c0 0 .74-.09 1-1.36a1.87 1.87 0 01.33-.69c.28-.41.22.08.74-.55 0 0 .24-.44 0-.71-.24-.27-.43-.17-.86-.43s-.63-.41-.48-.81a.53.53 0 01.59-.34c.05 0 .08-.35.56-.59a3.65 3.65 0 011.92 0 2.41 2.41 0 011.39 1.45c.44 1.12-.12 1.55 1.09 3.24a2 2 0 01-.8 0 4.48 4.48 0 001.8 1.64z" fill="#F4C53D"/><path fill="#F4C53D" d="M32.97 12.7l.13.64 5.85-.29-.86-1.11z"/><path d="M36.24 9a1 1 0 01-.32-.28.64.64 0 00-.92-.15 1 1 0 01-.47.3c.158.051.304.133.43.24a.72.72 0 00.62.24c.26 0 .3-.17.42-.25a.64.64 0 01.24-.1z" fill="#F5BB43"/><path d="M36.24 9a1 1 0 01-.32-.28.64.64 0 00-.92-.15 1 1 0 01-.47.3c.158.051.304.133.43.24a.72.72 0 00.62.24c.26 0 .3-.17.42-.25a.64.64 0 01.24-.1z" fill="#010002"/><path d="M43.36 14.21a8.42 8.42 0 01-7.44-.16 8.42 8.42 0 01-7.44.16v5.53h14.88v-5.53z" fill="#4658A9"/><path d="M9.94 28.54c.36-.15.62-.29.62-.67a2.71 2.71 0 00-.15-.61l-2.42-7.4a6.34 6.34 0 00-.3-.8c-.11-.21-.32-.29-.61-.41h3.08c-.33.16-.64.28-.64.64.013.195.054.387.12.57l1.86 5.81 1.85-5.81a2 2 0 00.12-.57c0-.36-.32-.5-.63-.64h3a1 1 0 00-.61.41 6.32 6.32 0 00-.3.8l-2.42 7.4a3.79 3.79 0 00-.15.62s-.11.47.62.67l-3.04-.01zM61.55 27.78V19.4a.64.64 0 00-.07-.33 1.32 1.32 0 00-.55-.42h2.77a1.15 1.15 0 00-.55.42.66.66 0 00-.07.34v8.38a.66.66 0 00.07.34c.148.18.337.324.55.42h-2.77a1.46 1.46 0 00.55-.42.66.66 0 00.07-.35z" fill="#3CAFDA"/><path d="M31.65 10s-.16-1.45 1-1.59a3.84 3.84 0 011.81.11L35 9.59l-.19.72-.75.34s.13-1.1-.88-1.13a3.38 3.38 0 01-.81 0c-.37-.04-.63.41-.72.48z" fill="#F4C53D"/></g></svg>