<svg width="71" height="48" xmlns="http://www.w3.org/2000/svg"><g fill-rule="nonzero" fill="none"><rect fill="#57A863" x=".63" y=".98" width="70" height="47" rx="6.36"/><path d="M64.27 1H7A6.36 6.36 0 00.64 7.36V21h70V7.35A6.36 6.36 0 0064.27 1z" fill="#ED5565"/><path d="M31.21 22h39.43v-2.5H31.86L2.45 2.9A6.36 6.36 0 001.09 5l30.12 17zM31.21 27L1.09 44a6.37 6.37 0 001.36 2.1l29.42-16.58h38.77V27H31.21z" fill="#434A54"/><path d="M31.21 22L1.09 5a6.34 6.34 0 00-.45 2.34v34.27c0 .801.153 1.595.45 2.34l30.12-17h39.43v-5L31.21 22z" fill="#FFCE54"/><path fill="#434A54" d="M.62 24.48L.73 8.97l26.91 15.51L.73 40z"/></g></svg>