<svg width="71" height="48" xmlns="http://www.w3.org/2000/svg"><g fill-rule="nonzero" fill="none"><rect fill="#FFF" x=".25" y=".68" width="70" height="47" rx="6.64"/><path d="M64.41.73H6.09A6.64 6.64 0 00.34 6.31V42a6.64 6.64 0 006.56 5.64h56.72A6.64 6.64 0 0070.26 41V7.32A6.64 6.64 0 0064.41.73z" fill="#ED5565"/><path d="M25.22.68H6.82A6.64 6.64 0 00.25 7.32v17.33h25L25.22.68z" fill="#4658A9"/><path d="M9.64 9.66c-.21.15-.32.07-.27-.19l.22-.93a.85.85 0 00-.24-.76l-.67-.59c-.19-.17-.14-.31.11-.32h.94a.68.68 0 00.59-.46l.29-1c.07-.25.2-.25.28 0l.35 1c.1.255.337.43.61.45h1c.25 0 .3.14.11.31l-.73.65a.81.81 0 00-.22.76l.23.82c.07.25 0 .34-.26.21l-.78-.49a.74.74 0 00-.76 0l-.8.54zM17.34 12.27c-.2.15-.32.07-.27-.19l.22-.93a.86.86 0 00-.24-.76l-.67-.59c-.19-.17-.14-.31.11-.32h.94A.67.67 0 0018 9l.29-1c.07-.25.2-.25.28 0l.35 1c.1.255.337.43.61.45h1c.25 0 .3.14.11.31l-.73.65a.82.82 0 00-.22.76l.23.82c.07.25 0 .34-.26.21l-.78-.49a.73.73 0 00-.76 0l-.78.56zM5.8 16.83c-.21.15-.32.07-.26-.19l.22-.93a.86.86 0 00-.24-.76l-.67-.59c-.19-.17-.14-.31.11-.32h.94a.67.67 0 00.59-.46l.29-1c.07-.25.2-.25.28 0l.35 1c.1.255.337.43.61.45h1c.25 0 .3.14.11.31l-.73.65a.82.82 0 00-.22.76l.23.82c.07.25 0 .34-.26.21l-.78-.49a.73.73 0 00-.76 0l-.81.54zM15.09 20.11c-.15.11-.23 0-.19-.13l.16-.67a.61.61 0 00-.17-.54l-.48-.42c-.14-.12-.1-.22.08-.23h.67a.48.48 0 00.42-.33l.21-.73c.05-.18.14-.18.2 0l.25.72a.51.51 0 00.44.32h.68c.18 0 .22.1.08.22l-.52.46a.58.58 0 00-.16.54l.17.59c0 .18 0 .24-.19.15l-.56-.35a.53.53 0 00-.55 0l-.54.4z" fill="#FFF"/></g></svg>