<svg width="71" height="48" xmlns="http://www.w3.org/2000/svg"><g fill-rule="nonzero" fill="none"><rect fill="#4A89DC" x=".52" y=".81" width="70" height="47" rx="6.36"/><path d="M34.14 18.07a.12.12 0 01.12-.05.74.74 0 01.36.17c.143.146.27.307.38.48 0 .07.11.17 0 .18a1.09 1.09 0 00-.31.1.26.26 0 000 .26 1 1 0 00.37.3c.08 0 .29.11.34.11a.23.23 0 01.2.13.31.31 0 00.14.26c.08 0 .27-.15.39-.15.175-.001.35.019.52.06a.73.73 0 01.22.21c0 .05.08.09.14 0a.39.39 0 01.36-.08.61.61 0 00.24.18c.06 0 .2.13.24.13a.25.25 0 01.12.24c.001.169.025.337.07.5a.39.39 0 01.08.23.86.86 0 00.16.48.57.57 0 00.32-.08.37.37 0 01.19.1c.09.1.155.22.19.35a4.78 4.78 0 000 .58c.04.18.107.352.2.51a.58.58 0 00.21.18.35.35 0 01.22-.12c.12.003.24.03.35.08l.17.2a.56.56 0 00.17.11c.085.038.171.072.26.1.1.013.197.04.29.08a.31.31 0 01.19.15.69.69 0 00-.1.4c0 .215-.023.43-.07.64a.35.35 0 00-.09.2.47.47 0 000 .28.23.23 0 01.17.05.11.11 0 00.07.09.07.07 0 00.07-.05.11.11 0 01.08-.09.23.23 0 01.16.05.16.16 0 00.17.06c.09 0 .4.13.59.13a2.87 2.87 0 01.71.07.46.46 0 00.06.18.49.49 0 00.22.13.33.33 0 01.23.08.37.37 0 00.11.22.24.24 0 00.27 0 .18.18 0 01.09-.16.2.2 0 00.15-.05.28.28 0 01.2-.11c.11 0 .26.17.28.13a.19.19 0 01.18-.07.55.55 0 01.19.19.93.93 0 00.06.24.47.47 0 010 .32.6.6 0 00-.16.32.75.75 0 01-.09.39.24.24 0 00-.15.23 1.37 1.37 0 01-.13.56 1 1 0 00-.25.37.79.79 0 01-.09.35.77.77 0 00-.18.21.32.32 0 01-.1.18c-.06 0-.26.13-.29.17a.85.85 0 01-.18.17s-.07 0 0 .07a.57.57 0 01.13.35 1 1 0 01-.19.6 2.55 2.55 0 00-.46.15 1.1 1.1 0 01-.27.22.52.52 0 00-.22.28c.026.17.084.332.17.48.174.126.332.274.47.44a.58.58 0 01-.28.37h-.41a.87.87 0 01-.44 0 .17.17 0 00-.07-.15.38.38 0 00-.2.07 1 1 0 01-.24.19 1.8 1.8 0 01-.34.11.64.64 0 00-.28.06.13.13 0 01-.11.09.58.58 0 00-.29.09c0 .05-.12.25-.16.29a.55.55 0 00-.14.28c0 .09-.18.33-.2.46a.76.76 0 00.19.35.43.43 0 01-.34.13 1.59 1.59 0 01-.66-.11 2.84 2.84 0 000-.41 1.23 1.23 0 00-.14-.37.11.11 0 01-.09-.09.15.15 0 00-.11-.14l-.23-.12a.14.14 0 01-.13-.09.26.26 0 00-.21-.18 1 1 0 00-.41.07.44.44 0 01-.07.18.49.49 0 01-.21.13.51.51 0 00-.26.08.49.49 0 01-.26.16 1 1 0 00-.35.07.57.57 0 00-.12.18.16.16 0 01-.12.12c-.07 0-.2.14-.25.14a.52.52 0 00-.26.08.58.58 0 01-.3.16 3.17 3.17 0 00-.53.06 1.79 1.79 0 00-.43.18.92.92 0 00-.19.28.48.48 0 01-.06.24.13.13 0 00-.09.12.6.6 0 01-.08.29.79.79 0 00-.16.43 2.61 2.61 0 00.08.67.72.72 0 01.16.4 2.79 2.79 0 01-.05.59.53.53 0 01-.19.11.15.15 0 00-.13.08.39.39 0 01-.06.19.64.64 0 01-.32.1 1.27 1.27 0 00-.55.13.9.9 0 01-.36.25.47.47 0 01-.32-.12 2.82 2.82 0 01-.1-.5 2.05 2.05 0 01.12-.71 1.14 1.14 0 00.25-.36.75.75 0 000-.28 1 1 0 01-.08-.44 3.06 3.06 0 00-.09-.8.16.16 0 01-.14-.14 2.7 2.7 0 01-.17-.46 2.73 2.73 0 00-.07-.66.62.62 0 01-.16-.25c0-.07-.15-.21-.15-.26a1.45 1.45 0 00-.07-.33.9.9 0 000-.33 1.78 1.78 0 01-.27-.32.25.25 0 00-.15-.16l-.37-.15s-.19-.08-.21-.1a.48.48 0 00-.15-.09s-.18-.09-.22-.09a.41.41 0 01-.19-.23c0-.13-.08-.5-.11-.54a.92.92 0 00-.42-.11h-.68a.72.72 0 01-.2-.13.67.67 0 01-.14-.33 2.17 2.17 0 00-.08-.54 2.26 2.26 0 01-.16-.32.17.17 0 00-.06-.12.12.12 0 01-.09-.08 1.27 1.27 0 000-.26.51.51 0 00-.19-.28.4.4 0 01-.24-.08.34.34 0 00-.06-.18.63.63 0 00-.2-.12.15.15 0 01-.13-.08.5.5 0 00-.07-.21.19.19 0 010-.22.25.25 0 00.16-.23 2.76 2.76 0 00-.08-.59 2.58 2.58 0 00-.23-.31.34.34 0 00-.14-.1.39.39 0 01-.16-.06.48.48 0 01-.11-.2 1.11 1.11 0 00-.06-.31 2.3 2.3 0 01-.1-.47 1.38 1.38 0 01.09-.45l.17-.19a.71.71 0 01.26-.18.59.59 0 01.28.08.53.53 0 00.21.16.13.13 0 01.14.08.47.47 0 00.41.16 2 2 0 00.81-.15 3.38 3.38 0 00.15-.39.65.65 0 01.16-.46c.113-.03.224-.07.33-.12a.16.16 0 00.12-.13.28.28 0 01.2-.24c.143 0 .285-.023.42-.07a.15.15 0 01.15-.06.31.31 0 00.21.07 1.09 1.09 0 01.27-.21c.07 0 .27-.18.35-.22a.53.53 0 00.24-.21 1.12 1.12 0 01-.15-.24 1.89 1.89 0 01-.2-.41 1.05 1.05 0 01.1-.44 1 1 0 01.29-.2.75.75 0 00.35-.2 4 4 0 00.38-.43c0-.052.032-.1.08-.12a.38.38 0 01.19.07.24.24 0 00.22 0 .78.78 0 00.12-.18v-.3c.03-.174.095-.34.19-.49a.34.34 0 00.07-.32 3.07 3.07 0 01-.29-.42 1.85 1.85 0 00-.35-.45.21.21 0 01-.15-.13c0-.06-.11-.25-.12-.33a.36.36 0 01.32-.29c.222 0 .443-.024.66-.07a.63.63 0 01.18-.14 2 2 0 01.39-.18.77.77 0 00.33-.08.56.56 0 01.21-.16.21.21 0 00.04-.08z" fill="#F6D660"/><path d="M46.34 11.3c-.2-.62-.53-.62-.73 0a1.75 1.75 0 01-1.57 1.14c-.66 0-.76.31-.22.7a1.74 1.74 0 01.6 1.84c-.21.62.06.81.6.42a1.76 1.76 0 011.94 0c.53.39.79.19.59-.44a1.74 1.74 0 01.6-1.84c.54-.38.43-.69-.24-.69a1.75 1.75 0 01-1.57-1.13zm-6.88-1c-.2-.62-.53-.62-.73 0a1.75 1.75 0 01-1.57 1.14c-.66 0-.76.31-.22.7a1.74 1.74 0 01.6 1.84c-.21.62.06.81.6.42a1.76 1.76 0 011.94 0c.53.39.79.19.59-.44a1.74 1.74 0 01.6-1.84c.54-.38.43-.69-.24-.69a1.75 1.75 0 01-1.57-1.15v.02zm-21.79 3.13c.2-.62.53-.62.73 0a1.75 1.75 0 001.57 1.14c.66 0 .75.31.21.7a1.74 1.74 0 00-.6 1.84c.21.62-.06.81-.6.42a1.75 1.75 0 00-1.94 0c-.53.39-.79.19-.59-.44a1.74 1.74 0 00-.6-1.84c-.54-.38-.43-.69.24-.69a1.75 1.75 0 001.57-1.14l.01.01zm7-2.1c.2-.62.53-.62.73 0a1.75 1.75 0 001.57 1.14c.66 0 .76.31.22.7a1.74 1.74 0 00-.6 1.84c.21.62-.06.81-.6.42a1.76 1.76 0 00-1.94 0c-.53.39-.79.19-.59-.44a1.74 1.74 0 00-.6-1.84c-.54-.38-.43-.69.24-.69a1.75 1.75 0 001.57-1.14v.01zm6.88-1c.2-.62.53-.62.73 0a1.75 1.75 0 001.57 1.14c.66 0 .75.31.21.7a1.74 1.74 0 00-.6 1.84c.21.62-.06.81-.6.42a1.76 1.76 0 00-1.94 0c-.53.39-.79.19-.59-.44a1.74 1.74 0 00-.6-1.84c-.54-.38-.43-.69.24-.69a1.75 1.75 0 001.57-1.14l.01.01zm21.79 3.13c-.2-.62-.53-.62-.73 0a1.75 1.75 0 01-1.57 1.14c-.66 0-.75.31-.21.7a1.74 1.74 0 01.6 1.84c-.21.62.06.81.6.42a1.75 1.75 0 011.94 0c.53.39.79.19.59-.44a1.74 1.74 0 01.6-1.84c.54-.38.43-.69-.24-.69a1.75 1.75 0 01-1.57-1.14l-.01.01z" fill="#FFF"/></g></svg>