<svg width="71" height="48" xmlns="http://www.w3.org/2000/svg"><g fill-rule="nonzero" fill="none"><rect fill="#4758A9" x=".39" y=".55" width="70" height="47" rx="6.36"/><path d="M64 .55H6.75A6.36 6.36 0 00.39 6.91v13.64h70V6.91A6.36 6.36 0 0064 .55z" fill="#ED5565"/><path d="M36.29 16L8.79.5h-2A6.36 6.36 0 00.43 6.86v34.27a6.36 6.36 0 006.36 6.36h2l27.5-15.5h34.09V16H36.29zM35 27L4.44 44.22a3.83 3.83 0 01-1.54-3.08V6.91a3.83 3.83 0 011.54-3.08L35 21h32.91v6H35z" fill="#FFF"/><path d="M4.46 1A6.36 6.36 0 00.38 6.93V41.2a6.36 6.36 0 004.08 5.93l31.17-17.57h34.75v-11H35.64L4.46 1z" fill="#57A863"/><path fill="#FFCE54" d="M.39 7.47v3.02l24.02 13.56L.39 37.61v3.02l29.02-16.58z"/><path fill="#434A54" d="M24.41 24.05L.39 10.49v27.12z"/></g></svg>