<svg width="71" height="47" xmlns="http://www.w3.org/2000/svg"><g fill-rule="nonzero" fill="none"><path d="M1.46 43.24c-.07-.15-.13-.31-.19-.47.06.16.13.31.19.47zM1.22 42.62c0-.15-.09-.31-.13-.46.04.15.08.31.13.46zM1 42c0-.16-.06-.32-.08-.48.08.14.08.3.08.48zM.94 41.31zM2.56 44.91zM1.77 43.83c-.09-.15-.17-.31-.25-.48.08.16.16.32.25.48zM70.9 40.64v-.37H9.07l-6 5.11a9.8 9.8 0 01-.46-.45A6.34 6.34 0 007.27 47h57.27a6.36 6.36 0 006.36-6.36zM2.14 44.39c-.11-.15-.22-.32-.32-.48.12.167.227.327.32.48z" fill="#52C162"/><path fill="#F6BB42" d="M9.07 40.27H70.9v-6.74H17.03z"/><path fill="#ED5565" d="M17.03 33.53H70.9V26.8H25z"/><path fill="#434A54" d="M28.9 23.5L25 26.8h45.9v-6.73H24.85z"/><path fill="#ED5565" d="M24.85 20.07H70.9v-6.73H16.89z"/><path fill="#F6BB42" d="M16.89 13.34H70.9V6.61H8.92z"/><path d="M1.28 4.23c.06-.16.12-.32.19-.47-.07.16-.14.31-.19.47zM1.09 4.84c0-.16.08-.31.13-.46-.05.15-.09.31-.13.46zM.9 6.36zM1 5.51c0-.16 0-.32.08-.48-.08.15-.08.31-.08.48zM1.82 3.09c.1-.16.21-.33.32-.48-.093.153-.2.313-.32.48zM1.52 3.65a7.24 7.24 0 000 0zM8.92 6.61h62v-.25A6.36 6.36 0 0064.54 0H7.27a6.34 6.34 0 00-4.7 2.08c.147-.16.3-.31.46-.45l5.89 4.98zM2.17 2.57c.12-.16.25-.32.39-.48-.14.153-.27.313-.39.48z" fill="#52C162"/><path d="M9.07 40.27H.9v.37a6.39 6.39 0 000 .68v.18c0 .06 0 .32.08.48.08.16 0 .12 0 .18s.08.31.13.46l.06.15c.06.16.12.32.19.47l.05.11c.08.16.16.32.25.48v.08c.1.16.21.33.32.48.12.16.25.32.39.48.147.16.3.31.46.45l6.24-5.05z" fill="#FFF"/><path fill="#FFF" d="M17.03 33.53H.9v6.74h8.17zM25 26.8H.9v6.73h16.13zM28.9 23.5l-4.05-3.43H.9v6.73H25zM16.89 13.34H.9v6.73h23.95zM8.92 6.61H.9v6.73h15.99zM3 1.62a9.8 9.8 0 00-.46.45c-.14.15-.27.31-.39.48-.11.15-.22.32-.32.48v.08c-.09.15-.17.31-.25.48l-.06.11c-.07.15-.13.31-.19.47l-.06.15c0 .15-.09.31-.13.46-.04.15 0 .12 0 .18s-.06.32-.08.48c-.02.16 0 .12 0 .18a6.39 6.39 0 000 .68v.24h8L3 1.62z"/><path d="M8.73 26.16a3.65 3.65 0 01.15-1.93l.83-2.29A1.92 1.92 0 008 19.4l.69-.83a1.33 1.33 0 012.25.34l.58 1.41 4.64 3.28a.26.26 0 01.1.28l-1 4.1a.26.26 0 01-.25.2H9.33a.26.26 0 01-.26-.21l-.34-1.81z" fill="#F6BB42"/></g></svg>